G04 EAGLE Gerber RS-274X export*
G75*
%MOMM*%
%FSLAX34Y34*%
%LPD*%
%INTop Copper*%
%IPPOS*%
%AMOC8*
5,1,8,0,0,1.08239X$1,22.5*%
G01*
%ADD10C,1.574800*%
%ADD11C,1.676400*%
%ADD12C,1.950000*%
%ADD13C,1.981200*%
%ADD14C,4.597400*%
%ADD15P,4.976180X8X292.500000*%
%ADD16C,1.524000*%
%ADD17P,1.539592X8X292.500000*%
%ADD18C,1.422400*%
%ADD19C,2.540000*%
%ADD20P,2.749271X8X292.500000*%
%ADD21R,1.298000X1.298000*%
%ADD22C,1.298000*%
%ADD23C,1.117600*%
%ADD24P,1.814519X8X292.500000*%
%ADD25C,1.508000*%
%ADD26C,1.422400*%
%ADD27P,1.429621X8X292.500000*%
%ADD28P,1.429621X8X112.500000*%
%ADD29C,2.184400*%
%ADD30C,2.667000*%
%ADD31C,1.016000*%


D10*
X44535Y65278D02*
X44535Y30226D01*
X48429Y30226D02*
X40640Y30226D01*
X40640Y65278D02*
X48429Y65278D01*
X67141Y65278D02*
X67141Y30226D01*
X78825Y45805D02*
X67141Y65278D01*
X78825Y45805D02*
X90509Y65278D01*
X90509Y30226D01*
X116882Y43857D02*
X125645Y43857D01*
X116882Y43858D02*
X116716Y43856D01*
X116550Y43850D01*
X116384Y43840D01*
X116219Y43826D01*
X116054Y43808D01*
X115890Y43785D01*
X115726Y43759D01*
X115562Y43729D01*
X115400Y43695D01*
X115238Y43657D01*
X115078Y43615D01*
X114918Y43569D01*
X114760Y43519D01*
X114603Y43466D01*
X114447Y43408D01*
X114293Y43347D01*
X114140Y43282D01*
X113989Y43214D01*
X113839Y43141D01*
X113692Y43065D01*
X113546Y42986D01*
X113402Y42903D01*
X113261Y42816D01*
X113121Y42727D01*
X112984Y42633D01*
X112849Y42537D01*
X112716Y42437D01*
X112586Y42334D01*
X112459Y42228D01*
X112334Y42118D01*
X112211Y42006D01*
X112092Y41891D01*
X111975Y41773D01*
X111861Y41652D01*
X111751Y41528D01*
X111643Y41402D01*
X111538Y41273D01*
X111437Y41142D01*
X111339Y41008D01*
X111244Y40872D01*
X111152Y40733D01*
X111064Y40593D01*
X110979Y40450D01*
X110898Y40305D01*
X110820Y40159D01*
X110746Y40010D01*
X110676Y39860D01*
X110609Y39708D01*
X110546Y39554D01*
X110487Y39399D01*
X110431Y39243D01*
X110379Y39085D01*
X110332Y38926D01*
X110288Y38766D01*
X110248Y38605D01*
X110212Y38443D01*
X110179Y38280D01*
X110151Y38116D01*
X110127Y37952D01*
X110107Y37787D01*
X110091Y37622D01*
X110079Y37457D01*
X110071Y37291D01*
X110067Y37125D01*
X110067Y36959D01*
X110071Y36793D01*
X110079Y36627D01*
X110091Y36462D01*
X110107Y36297D01*
X110127Y36132D01*
X110151Y35968D01*
X110179Y35804D01*
X110212Y35641D01*
X110248Y35479D01*
X110288Y35318D01*
X110332Y35158D01*
X110379Y34999D01*
X110431Y34841D01*
X110487Y34685D01*
X110546Y34530D01*
X110609Y34376D01*
X110676Y34224D01*
X110746Y34074D01*
X110820Y33925D01*
X110898Y33779D01*
X110979Y33634D01*
X111064Y33491D01*
X111152Y33351D01*
X111244Y33212D01*
X111339Y33076D01*
X111437Y32942D01*
X111538Y32811D01*
X111643Y32682D01*
X111751Y32556D01*
X111861Y32432D01*
X111975Y32311D01*
X112092Y32193D01*
X112211Y32078D01*
X112334Y31966D01*
X112459Y31856D01*
X112586Y31750D01*
X112716Y31647D01*
X112849Y31547D01*
X112984Y31451D01*
X113121Y31357D01*
X113261Y31268D01*
X113402Y31181D01*
X113546Y31098D01*
X113692Y31019D01*
X113839Y30943D01*
X113989Y30870D01*
X114140Y30802D01*
X114293Y30737D01*
X114447Y30676D01*
X114603Y30618D01*
X114760Y30565D01*
X114918Y30515D01*
X115078Y30469D01*
X115238Y30427D01*
X115400Y30389D01*
X115562Y30355D01*
X115726Y30325D01*
X115890Y30299D01*
X116054Y30276D01*
X116219Y30258D01*
X116384Y30244D01*
X116550Y30234D01*
X116716Y30228D01*
X116882Y30226D01*
X125645Y30226D01*
X125645Y47752D01*
X125643Y47902D01*
X125637Y48053D01*
X125628Y48203D01*
X125614Y48353D01*
X125597Y48502D01*
X125575Y48651D01*
X125550Y48799D01*
X125521Y48947D01*
X125489Y49094D01*
X125452Y49240D01*
X125412Y49385D01*
X125368Y49529D01*
X125321Y49671D01*
X125269Y49813D01*
X125215Y49953D01*
X125156Y50091D01*
X125094Y50229D01*
X125029Y50364D01*
X124960Y50498D01*
X124887Y50629D01*
X124811Y50759D01*
X124732Y50887D01*
X124650Y51013D01*
X124564Y51137D01*
X124476Y51258D01*
X124384Y51378D01*
X124289Y51494D01*
X124191Y51609D01*
X124090Y51720D01*
X123987Y51829D01*
X123880Y51936D01*
X123771Y52039D01*
X123660Y52140D01*
X123545Y52238D01*
X123429Y52333D01*
X123309Y52425D01*
X123188Y52513D01*
X123064Y52599D01*
X122938Y52681D01*
X122810Y52760D01*
X122680Y52836D01*
X122549Y52909D01*
X122415Y52978D01*
X122280Y53043D01*
X122142Y53105D01*
X122004Y53164D01*
X121864Y53218D01*
X121722Y53270D01*
X121580Y53317D01*
X121436Y53361D01*
X121291Y53401D01*
X121145Y53438D01*
X120998Y53470D01*
X120850Y53499D01*
X120702Y53524D01*
X120553Y53546D01*
X120404Y53563D01*
X120254Y53577D01*
X120104Y53586D01*
X119953Y53592D01*
X119803Y53594D01*
X112014Y53594D01*
X146439Y53594D02*
X146439Y30226D01*
X146439Y53594D02*
X158123Y53594D01*
X158123Y49699D01*
X167640Y53594D02*
X179324Y53594D01*
X171535Y65278D02*
X171535Y36068D01*
X171537Y35918D01*
X171543Y35767D01*
X171552Y35617D01*
X171566Y35467D01*
X171583Y35318D01*
X171605Y35169D01*
X171630Y35021D01*
X171659Y34873D01*
X171691Y34726D01*
X171728Y34580D01*
X171768Y34435D01*
X171812Y34291D01*
X171859Y34149D01*
X171911Y34007D01*
X171965Y33867D01*
X172024Y33729D01*
X172086Y33591D01*
X172151Y33456D01*
X172220Y33322D01*
X172293Y33191D01*
X172369Y33061D01*
X172448Y32933D01*
X172530Y32807D01*
X172616Y32683D01*
X172704Y32562D01*
X172796Y32442D01*
X172891Y32326D01*
X172989Y32211D01*
X173090Y32100D01*
X173193Y31991D01*
X173300Y31884D01*
X173409Y31781D01*
X173520Y31680D01*
X173635Y31582D01*
X173751Y31487D01*
X173871Y31395D01*
X173992Y31307D01*
X174116Y31221D01*
X174242Y31139D01*
X174370Y31060D01*
X174500Y30984D01*
X174631Y30911D01*
X174765Y30842D01*
X174900Y30777D01*
X175038Y30715D01*
X175176Y30656D01*
X175316Y30602D01*
X175458Y30550D01*
X175600Y30503D01*
X175744Y30459D01*
X175889Y30419D01*
X176035Y30382D01*
X176182Y30350D01*
X176330Y30321D01*
X176478Y30296D01*
X176627Y30274D01*
X176776Y30257D01*
X176926Y30243D01*
X177076Y30234D01*
X177227Y30228D01*
X177377Y30226D01*
X179324Y30226D01*
D11*
X226314Y813054D03*
X226314Y711454D03*
X359410Y634238D03*
X461010Y634238D03*
X275336Y810260D03*
X275336Y708660D03*
D12*
X127000Y803910D03*
X127000Y753110D03*
X127000Y673100D03*
X127000Y622300D03*
D13*
X346456Y748030D02*
X366268Y748030D01*
X366776Y688340D02*
X386588Y688340D01*
X386588Y807720D02*
X366776Y807720D01*
X488696Y807720D02*
X508508Y807720D01*
X508508Y688340D02*
X488696Y688340D01*
D14*
X795020Y776732D03*
D15*
X795020Y675132D03*
D11*
X605790Y797306D03*
X605790Y695706D03*
D16*
X526288Y590550D02*
X526288Y575310D01*
X551688Y575310D02*
X551688Y590550D01*
X577088Y590550D02*
X577088Y575310D01*
D17*
X666242Y550164D03*
D18*
X666242Y570484D03*
D19*
X356616Y573786D03*
D20*
X356616Y522986D03*
D21*
X731012Y381886D03*
D22*
X756412Y381886D03*
X781812Y381886D03*
X807212Y381886D03*
X832612Y381886D03*
X858012Y381886D03*
X883412Y381886D03*
X908812Y381886D03*
X934212Y381886D03*
X959612Y381886D03*
X985012Y381886D03*
X1010412Y381886D03*
X1035812Y381886D03*
X1061212Y381886D03*
X1061212Y460886D03*
X1035812Y460886D03*
X1010412Y460886D03*
X985012Y460886D03*
X959612Y460886D03*
X934212Y460886D03*
X908812Y460886D03*
X883412Y460886D03*
X858012Y460886D03*
X832612Y460886D03*
X807212Y460886D03*
X781812Y460886D03*
X756412Y460886D03*
X731012Y460886D03*
D11*
X502666Y515112D03*
X604266Y515112D03*
D23*
X984250Y342646D02*
X984250Y331470D01*
X933450Y331470D02*
X933450Y342646D01*
D24*
X979932Y283718D03*
X979932Y258318D03*
X930656Y283718D03*
X930656Y258318D03*
D25*
X984504Y728218D03*
X984504Y702818D03*
X984504Y677418D03*
X984504Y652018D03*
D26*
X960374Y161290D02*
X960374Y147066D01*
X934974Y147066D02*
X934974Y161290D01*
X909574Y161290D02*
X909574Y147066D01*
X884174Y147066D02*
X884174Y161290D01*
X858774Y161290D02*
X858774Y147066D01*
X807974Y147066D02*
X807974Y161290D01*
X833374Y161290D02*
X833374Y147066D01*
X680974Y147066D02*
X680974Y161290D01*
X782574Y161290D02*
X782574Y147066D01*
X757174Y147066D02*
X757174Y161290D01*
X731774Y161290D02*
X731774Y147066D01*
X706374Y147066D02*
X706374Y161290D01*
D12*
X129540Y464820D03*
X129540Y515620D03*
X131826Y369824D03*
X131826Y319024D03*
D13*
X405130Y341376D02*
X424942Y341376D01*
X404622Y401066D02*
X384810Y401066D01*
X384810Y281686D02*
X404622Y281686D01*
X282702Y281686D02*
X262890Y281686D01*
X262890Y401066D02*
X282702Y401066D01*
D27*
X601980Y367030D03*
X601980Y290830D03*
D11*
X472186Y290830D03*
X472186Y392430D03*
D16*
X535178Y306324D02*
X550418Y306324D01*
X550418Y331724D02*
X535178Y331724D01*
X535178Y357124D02*
X550418Y357124D01*
D28*
X285496Y599694D03*
X285496Y675894D03*
D27*
X243586Y675386D03*
X243586Y599186D03*
D12*
X122174Y154940D03*
X122174Y205740D03*
D13*
X405130Y147828D02*
X424942Y147828D01*
X404622Y207518D02*
X384810Y207518D01*
X384810Y88138D02*
X404622Y88138D01*
X282702Y88138D02*
X262890Y88138D01*
X262890Y207518D02*
X282702Y207518D01*
D11*
X471424Y104394D03*
X471424Y205994D03*
D16*
X540512Y122428D02*
X555752Y122428D01*
X555752Y147828D02*
X540512Y147828D01*
X540512Y173228D02*
X555752Y173228D01*
D27*
X604266Y182372D03*
X604266Y106172D03*
D26*
X669036Y272288D02*
X683260Y272288D01*
X683260Y297688D02*
X669036Y297688D01*
X669036Y323088D02*
X683260Y323088D01*
X683260Y348488D02*
X669036Y348488D01*
X966978Y533908D02*
X966978Y548132D01*
X992378Y548132D02*
X992378Y533908D01*
X1017778Y533908D02*
X1017778Y548132D01*
X1043178Y548132D02*
X1043178Y533908D01*
X852678Y535432D02*
X852678Y521208D01*
X827278Y521208D02*
X827278Y535432D01*
X801878Y535432D02*
X801878Y521208D01*
X776478Y521208D02*
X776478Y535432D01*
D29*
X1100074Y299174D03*
X1100074Y249174D03*
X1100074Y199174D03*
D30*
X626110Y460248D03*
D31*
X539242Y547116D01*
X481838Y547116D01*
X481838Y615696D01*
X505460Y639318D01*
X508762Y639318D01*
D30*
X508762Y639318D03*
X463296Y652780D03*
D31*
X463296Y794766D01*
X450088Y807974D01*
X454914Y807974D01*
X455422Y808482D01*
D30*
X455422Y808482D03*
X896366Y253746D03*
D31*
X938149Y211963D01*
X1014222Y135890D01*
X1014222Y67056D01*
X933704Y67056D01*
X933704Y113538D01*
X934466Y114300D01*
X934466Y117094D01*
D30*
X934466Y117094D03*
X723646Y208534D03*
D31*
X934720Y208534D01*
X938149Y211963D01*
X622808Y530606D02*
X622808Y614680D01*
X631952Y614680D01*
X635254Y617982D01*
D30*
X635254Y617982D03*
D31*
X622808Y530606D02*
X677926Y475488D01*
D30*
X886206Y531114D03*
D31*
X886206Y552450D01*
X939292Y605536D01*
X979678Y605536D01*
D30*
X979678Y605536D03*
X677926Y475488D03*
X938784Y558038D03*
D31*
X947928Y567182D01*
X947928Y573024D01*
X1068578Y573024D01*
X1119124Y623570D01*
X1119632Y623570D01*
X1122172Y626110D01*
D30*
X1122172Y626110D03*
X880110Y497840D03*
D31*
X906018Y497840D01*
X938784Y530606D02*
X938784Y558038D01*
X938784Y530606D02*
X906018Y497840D01*
D30*
X1007618Y243586D03*
D31*
X1048766Y243586D01*
D30*
X1078992Y273812D03*
D31*
X1048766Y243586D01*
D30*
X891794Y117094D03*
D31*
X891794Y76454D01*
X925068Y43180D01*
X1036066Y43180D01*
X1132078Y139192D01*
X1132078Y322072D01*
X1111758Y342392D01*
X1111758Y421386D01*
X1111250Y421894D01*
D30*
X1072134Y421894D03*
D31*
X1111250Y421894D01*
D30*
X821944Y117602D03*
D31*
X820674Y116332D01*
X820674Y65786D01*
X862584Y65786D01*
X906780Y21590D01*
X1048512Y21590D01*
X1152906Y125984D01*
X1152906Y463042D02*
X1120902Y495046D01*
X993902Y495046D01*
X992632Y493776D01*
X992632Y490474D01*
X994156Y488950D01*
D30*
X994156Y488950D03*
D31*
X1152906Y463042D02*
X1152906Y125984D01*
D30*
X855472Y438404D03*
D31*
X830580Y413512D01*
X614172Y413512D01*
X558038Y469646D01*
X293116Y469646D02*
X292354Y468884D01*
D30*
X292354Y468884D03*
D31*
X293116Y469646D02*
X558038Y469646D01*
D30*
X1083310Y345948D03*
D31*
X1073404Y355854D01*
X715518Y355854D01*
X647192Y381000D02*
X646684Y380492D01*
X690372Y381000D02*
X715518Y355854D01*
X690372Y381000D02*
X647192Y381000D01*
D30*
X647192Y381000D03*
X1035812Y309118D03*
D31*
X1033018Y311912D01*
X788924Y311912D01*
X789178Y311658D01*
X671830Y194310D01*
X650748Y194310D01*
X649732Y193294D01*
X646430Y193294D01*
D30*
X646430Y193294D03*
M02*
