G04 EAGLE Gerber RS-274X export*
G75*
%MOMM*%
%FSLAX34Y34*%
%LPD*%
%INSoldermask Bottom*%
%IPPOS*%
%AMOC8*
5,1,8,0,0,1.08239X$1,22.5*%
G01*
%ADD10C,1.879600*%
%ADD11C,2.153200*%
%ADD12C,2.184400*%
%ADD13C,4.800600*%
%ADD14P,5.196121X8X292.500000*%
%ADD15C,1.727200*%
%ADD16P,1.759533X8X292.500000*%
%ADD17C,1.625600*%
%ADD18C,2.743200*%
%ADD19P,2.969212X8X292.500000*%
%ADD20R,1.501200X1.501200*%
%ADD21C,1.501200*%
%ADD22C,1.320800*%
%ADD23P,2.034460X8X292.500000*%
%ADD24C,2.403200*%
%ADD25C,1.711200*%
%ADD26C,1.625600*%
%ADD27P,1.649562X8X292.500000*%
%ADD28P,1.649562X8X112.500000*%
%ADD29C,2.387600*%
%ADD30C,2.870200*%


D10*
X226314Y813054D03*
X226314Y711454D03*
X359410Y634238D03*
X461010Y634238D03*
X275336Y810260D03*
X275336Y708660D03*
D11*
X127000Y803910D03*
X127000Y753110D03*
X127000Y673100D03*
X127000Y622300D03*
D12*
X346456Y748030D02*
X366268Y748030D01*
X366776Y688340D02*
X386588Y688340D01*
X386588Y807720D02*
X366776Y807720D01*
X488696Y807720D02*
X508508Y807720D01*
X508508Y688340D02*
X488696Y688340D01*
D13*
X795020Y776732D03*
D14*
X795020Y675132D03*
D10*
X605790Y797306D03*
X605790Y695706D03*
D15*
X526288Y590550D02*
X526288Y575310D01*
X551688Y575310D02*
X551688Y590550D01*
X577088Y590550D02*
X577088Y575310D01*
D16*
X666242Y550164D03*
D17*
X666242Y570484D03*
D18*
X356616Y573786D03*
D19*
X356616Y522986D03*
D20*
X731012Y381886D03*
D21*
X756412Y381886D03*
X781812Y381886D03*
X807212Y381886D03*
X832612Y381886D03*
X858012Y381886D03*
X883412Y381886D03*
X908812Y381886D03*
X934212Y381886D03*
X959612Y381886D03*
X985012Y381886D03*
X1010412Y381886D03*
X1035812Y381886D03*
X1061212Y381886D03*
X1061212Y460886D03*
X1035812Y460886D03*
X1010412Y460886D03*
X985012Y460886D03*
X959612Y460886D03*
X934212Y460886D03*
X908812Y460886D03*
X883412Y460886D03*
X858012Y460886D03*
X832612Y460886D03*
X807212Y460886D03*
X781812Y460886D03*
X756412Y460886D03*
X731012Y460886D03*
D10*
X502666Y515112D03*
X604266Y515112D03*
D22*
X984250Y342646D02*
X984250Y331470D01*
X933450Y331470D02*
X933450Y342646D01*
D23*
X979932Y283718D03*
X979932Y258318D03*
X930656Y283718D03*
X930656Y258318D03*
D24*
X1048004Y620268D03*
X1048004Y810768D03*
D25*
X984504Y728218D03*
X984504Y702818D03*
X984504Y677418D03*
X984504Y652018D03*
D24*
X1314704Y810768D03*
D26*
X960374Y161290D02*
X960374Y147066D01*
X934974Y147066D02*
X934974Y161290D01*
X909574Y161290D02*
X909574Y147066D01*
X884174Y147066D02*
X884174Y161290D01*
X858774Y161290D02*
X858774Y147066D01*
X807974Y147066D02*
X807974Y161290D01*
X833374Y161290D02*
X833374Y147066D01*
X680974Y147066D02*
X680974Y161290D01*
X782574Y161290D02*
X782574Y147066D01*
X757174Y147066D02*
X757174Y161290D01*
X731774Y161290D02*
X731774Y147066D01*
X706374Y147066D02*
X706374Y161290D01*
D11*
X129540Y464820D03*
X129540Y515620D03*
X131826Y369824D03*
X131826Y319024D03*
D12*
X405130Y341376D02*
X424942Y341376D01*
X404622Y401066D02*
X384810Y401066D01*
X384810Y281686D02*
X404622Y281686D01*
X282702Y281686D02*
X262890Y281686D01*
X262890Y401066D02*
X282702Y401066D01*
D27*
X601980Y367030D03*
X601980Y290830D03*
D10*
X472186Y290830D03*
X472186Y392430D03*
D15*
X535178Y306324D02*
X550418Y306324D01*
X550418Y331724D02*
X535178Y331724D01*
X535178Y357124D02*
X550418Y357124D01*
D28*
X285496Y599694D03*
X285496Y675894D03*
D27*
X243586Y675386D03*
X243586Y599186D03*
D11*
X122174Y154940D03*
X122174Y205740D03*
D12*
X405130Y147828D02*
X424942Y147828D01*
X404622Y207518D02*
X384810Y207518D01*
X384810Y88138D02*
X404622Y88138D01*
X282702Y88138D02*
X262890Y88138D01*
X262890Y207518D02*
X282702Y207518D01*
D10*
X471424Y104394D03*
X471424Y205994D03*
D15*
X540512Y122428D02*
X555752Y122428D01*
X555752Y147828D02*
X540512Y147828D01*
X540512Y173228D02*
X555752Y173228D01*
D27*
X604266Y182372D03*
X604266Y106172D03*
D26*
X669036Y272288D02*
X683260Y272288D01*
X683260Y297688D02*
X669036Y297688D01*
X669036Y323088D02*
X683260Y323088D01*
X683260Y348488D02*
X669036Y348488D01*
X966978Y533908D02*
X966978Y548132D01*
X992378Y548132D02*
X992378Y533908D01*
X1017778Y533908D02*
X1017778Y548132D01*
X1043178Y548132D02*
X1043178Y533908D01*
X852678Y535432D02*
X852678Y521208D01*
X827278Y521208D02*
X827278Y535432D01*
X801878Y535432D02*
X801878Y521208D01*
X776478Y521208D02*
X776478Y535432D01*
D29*
X1100074Y299174D03*
X1100074Y249174D03*
X1100074Y199174D03*
D30*
X626110Y460248D03*
X508762Y639318D03*
X463296Y652780D03*
X455422Y808482D03*
X896366Y253746D03*
X934466Y117094D03*
X723646Y208534D03*
X635254Y617982D03*
X886206Y531114D03*
X979678Y605536D03*
X677926Y475488D03*
X938784Y558038D03*
X1122172Y626110D03*
X880110Y497840D03*
X1007618Y243586D03*
X1078992Y273812D03*
X891794Y117094D03*
X1072134Y421894D03*
X821944Y117602D03*
X994156Y488950D03*
X855472Y438404D03*
X292354Y468884D03*
X1083310Y345948D03*
X647192Y381000D03*
X1035812Y309118D03*
X646430Y193294D03*
M02*
