G04 EAGLE Gerber RS-274X export*
G75*
%MOMM*%
%FSLAX34Y34*%
%LPD*%
%INBottom Copper*%
%IPPOS*%
%AMOC8*
5,1,8,0,0,1.08239X$1,22.5*%
G01*
%ADD10C,1.676400*%
%ADD11C,1.950000*%
%ADD12C,1.981200*%
%ADD13C,4.597400*%
%ADD14P,4.976180X8X292.500000*%
%ADD15C,1.524000*%
%ADD16P,1.539592X8X292.500000*%
%ADD17C,1.422400*%
%ADD18C,2.540000*%
%ADD19P,2.749271X8X292.500000*%
%ADD20R,1.298000X1.298000*%
%ADD21C,1.298000*%
%ADD22C,1.117600*%
%ADD23P,1.814519X8X292.500000*%
%ADD24C,1.508000*%
%ADD25C,1.422400*%
%ADD26P,1.429621X8X292.500000*%
%ADD27P,1.429621X8X112.500000*%
%ADD28C,2.184400*%
%ADD29C,1.016000*%
%ADD30C,2.667000*%
%ADD31C,3.000000*%

G36*
X1181980Y21193D02*
X1181980Y21193D01*
X1182101Y21200D01*
X1182137Y21212D01*
X1182175Y21217D01*
X1182288Y21261D01*
X1182403Y21299D01*
X1182436Y21319D01*
X1182471Y21333D01*
X1182570Y21404D01*
X1182672Y21469D01*
X1182698Y21496D01*
X1182729Y21519D01*
X1182807Y21612D01*
X1182890Y21700D01*
X1182909Y21734D01*
X1182933Y21763D01*
X1182985Y21873D01*
X1183044Y21979D01*
X1183053Y22016D01*
X1183070Y22050D01*
X1183093Y22169D01*
X1183123Y22287D01*
X1183127Y22343D01*
X1183130Y22362D01*
X1183129Y22383D01*
X1183133Y22447D01*
X1183133Y819907D01*
X1183119Y820023D01*
X1183112Y820140D01*
X1183099Y820180D01*
X1183093Y820223D01*
X1183051Y820331D01*
X1183015Y820442D01*
X1182992Y820479D01*
X1182976Y820518D01*
X1182908Y820613D01*
X1182846Y820712D01*
X1182815Y820741D01*
X1182790Y820776D01*
X1182699Y820850D01*
X1182615Y820931D01*
X1182578Y820951D01*
X1182545Y820979D01*
X1182439Y821028D01*
X1182337Y821085D01*
X1182295Y821096D01*
X1182257Y821114D01*
X1182143Y821136D01*
X1182029Y821166D01*
X1181965Y821170D01*
X1181945Y821174D01*
X1181925Y821173D01*
X1181869Y821176D01*
X1084465Y821524D01*
X1084338Y821509D01*
X1084211Y821500D01*
X1084181Y821490D01*
X1084150Y821486D01*
X1084030Y821439D01*
X1083909Y821398D01*
X1083883Y821381D01*
X1083853Y821370D01*
X1083749Y821295D01*
X1083642Y821225D01*
X1083621Y821202D01*
X1083595Y821184D01*
X1083513Y821085D01*
X1083427Y820991D01*
X1083412Y820964D01*
X1083392Y820940D01*
X1083337Y820824D01*
X1083276Y820711D01*
X1083269Y820681D01*
X1083255Y820652D01*
X1083231Y820527D01*
X1083200Y820403D01*
X1083200Y820371D01*
X1083194Y820340D01*
X1083202Y820212D01*
X1083203Y820085D01*
X1083212Y820040D01*
X1083213Y820023D01*
X1083220Y820002D01*
X1083235Y819927D01*
X1084405Y815560D01*
X1084405Y805976D01*
X1081924Y796718D01*
X1077132Y788417D01*
X1070355Y781640D01*
X1062054Y776848D01*
X1052796Y774367D01*
X1043212Y774367D01*
X1033954Y776848D01*
X1025653Y781640D01*
X1018876Y788417D01*
X1014084Y796718D01*
X1011603Y805976D01*
X1011603Y815560D01*
X1012843Y820187D01*
X1012860Y820309D01*
X1012883Y820430D01*
X1012881Y820466D01*
X1012886Y820502D01*
X1012872Y820625D01*
X1012865Y820748D01*
X1012854Y820782D01*
X1012850Y820818D01*
X1012805Y820933D01*
X1012768Y821051D01*
X1012749Y821081D01*
X1012736Y821115D01*
X1012664Y821215D01*
X1012599Y821320D01*
X1012572Y821345D01*
X1012552Y821374D01*
X1012457Y821454D01*
X1012368Y821539D01*
X1012336Y821556D01*
X1012309Y821580D01*
X1012198Y821633D01*
X1012090Y821693D01*
X1012055Y821702D01*
X1012023Y821718D01*
X1011902Y821743D01*
X1011782Y821774D01*
X1011730Y821777D01*
X1011711Y821781D01*
X1011690Y821780D01*
X1011622Y821785D01*
X850685Y822360D01*
X850545Y822343D01*
X850404Y822329D01*
X850388Y822323D01*
X850370Y822321D01*
X850238Y822269D01*
X850105Y822222D01*
X850090Y822212D01*
X850074Y822205D01*
X849959Y822122D01*
X849842Y822043D01*
X849830Y822030D01*
X849816Y822019D01*
X849725Y821910D01*
X849632Y821805D01*
X849623Y821789D01*
X849612Y821775D01*
X849551Y821647D01*
X849487Y821521D01*
X849483Y821504D01*
X849475Y821488D01*
X849448Y821349D01*
X849417Y821211D01*
X849418Y821193D01*
X849414Y821175D01*
X849423Y821034D01*
X849427Y820893D01*
X849432Y820876D01*
X849433Y820858D01*
X849476Y820723D01*
X849515Y820588D01*
X849524Y820572D01*
X849530Y820555D01*
X849605Y820435D01*
X849677Y820314D01*
X849693Y820295D01*
X849699Y820286D01*
X849713Y820272D01*
X849783Y820193D01*
X860051Y809926D01*
X864064Y802975D01*
X866141Y795223D01*
X866141Y663391D01*
X866158Y663254D01*
X866159Y663239D01*
X866163Y663182D01*
X866166Y663174D01*
X866171Y663115D01*
X866178Y663096D01*
X866181Y663076D01*
X866232Y662947D01*
X866279Y662816D01*
X866290Y662799D01*
X866298Y662780D01*
X866379Y662668D01*
X866457Y662552D01*
X866473Y662539D01*
X866484Y662523D01*
X866592Y662434D01*
X866696Y662342D01*
X866714Y662333D01*
X866729Y662320D01*
X866855Y662261D01*
X866979Y662197D01*
X866999Y662193D01*
X867017Y662184D01*
X867153Y662158D01*
X867289Y662128D01*
X867310Y662128D01*
X867329Y662125D01*
X867468Y662133D01*
X867607Y662137D01*
X867627Y662143D01*
X867647Y662144D01*
X867779Y662187D01*
X867913Y662226D01*
X867930Y662236D01*
X867949Y662242D01*
X868067Y662317D01*
X868187Y662387D01*
X868208Y662406D01*
X868218Y662412D01*
X868232Y662427D01*
X868307Y662494D01*
X954695Y748881D01*
X954703Y748891D01*
X954712Y748899D01*
X954816Y749022D01*
X955815Y750368D01*
X957529Y751727D01*
X957537Y751736D01*
X957638Y751824D01*
X959184Y753371D01*
X960636Y754209D01*
X960646Y754217D01*
X960658Y754222D01*
X960790Y754314D01*
X962104Y755355D01*
X964111Y756224D01*
X964121Y756230D01*
X964241Y756290D01*
X966135Y757384D01*
X967754Y757817D01*
X967766Y757822D01*
X967778Y757824D01*
X967930Y757879D01*
X969468Y758545D01*
X971505Y758846D01*
X971516Y758849D01*
X971647Y758876D01*
X980167Y761159D01*
X988841Y761159D01*
X997219Y758914D01*
X1004730Y754577D01*
X1010863Y748444D01*
X1015200Y740933D01*
X1017445Y732555D01*
X1017445Y723881D01*
X1015292Y715847D01*
X1015279Y715755D01*
X1015257Y715665D01*
X1015258Y715598D01*
X1015249Y715531D01*
X1015259Y715440D01*
X1015260Y715347D01*
X1015283Y715233D01*
X1015285Y715216D01*
X1015288Y715208D01*
X1015292Y715190D01*
X1017445Y707155D01*
X1017445Y698481D01*
X1015292Y690447D01*
X1015279Y690355D01*
X1015257Y690265D01*
X1015258Y690198D01*
X1015249Y690131D01*
X1015259Y690040D01*
X1015260Y689947D01*
X1015283Y689833D01*
X1015285Y689816D01*
X1015288Y689808D01*
X1015292Y689790D01*
X1017445Y681755D01*
X1017445Y680720D01*
X1017460Y680602D01*
X1017467Y680483D01*
X1017480Y680445D01*
X1017485Y680404D01*
X1017528Y680294D01*
X1017565Y680181D01*
X1017587Y680146D01*
X1017602Y680109D01*
X1017671Y680013D01*
X1017735Y679912D01*
X1017765Y679884D01*
X1017788Y679851D01*
X1017880Y679775D01*
X1017967Y679694D01*
X1018002Y679674D01*
X1018033Y679649D01*
X1018141Y679598D01*
X1018245Y679540D01*
X1018285Y679530D01*
X1018321Y679513D01*
X1018438Y679491D01*
X1018553Y679461D01*
X1018613Y679457D01*
X1018633Y679453D01*
X1018654Y679455D01*
X1018714Y679451D01*
X1061923Y679451D01*
X1069675Y677374D01*
X1076626Y673361D01*
X1094736Y655250D01*
X1094831Y655177D01*
X1094920Y655098D01*
X1094956Y655080D01*
X1094988Y655055D01*
X1095097Y655008D01*
X1095203Y654954D01*
X1095242Y654945D01*
X1095279Y654929D01*
X1095397Y654910D01*
X1095513Y654884D01*
X1095554Y654885D01*
X1095594Y654879D01*
X1095712Y654890D01*
X1095831Y654894D01*
X1095870Y654905D01*
X1095910Y654909D01*
X1096022Y654949D01*
X1096137Y654982D01*
X1096171Y655002D01*
X1096209Y655016D01*
X1096308Y655083D01*
X1096411Y655144D01*
X1096456Y655183D01*
X1096473Y655195D01*
X1096486Y655210D01*
X1096531Y655250D01*
X1098388Y657106D01*
X1107221Y662206D01*
X1117072Y664846D01*
X1127272Y664846D01*
X1137123Y662206D01*
X1145956Y657106D01*
X1153168Y649894D01*
X1158268Y641061D01*
X1160908Y631210D01*
X1160908Y621010D01*
X1158268Y611159D01*
X1153168Y602326D01*
X1151312Y600469D01*
X1151239Y600375D01*
X1151160Y600286D01*
X1151142Y600250D01*
X1151117Y600218D01*
X1151070Y600109D01*
X1151016Y600003D01*
X1151007Y599963D01*
X1150991Y599926D01*
X1150972Y599809D01*
X1150946Y599693D01*
X1150947Y599652D01*
X1150941Y599612D01*
X1150952Y599494D01*
X1150956Y599375D01*
X1150967Y599336D01*
X1150971Y599296D01*
X1151011Y599183D01*
X1151044Y599069D01*
X1151065Y599034D01*
X1151078Y598996D01*
X1151145Y598898D01*
X1151206Y598795D01*
X1151245Y598750D01*
X1151257Y598733D01*
X1151272Y598720D01*
X1151312Y598674D01*
X1162311Y587676D01*
X1166324Y580725D01*
X1168401Y572973D01*
X1168401Y236017D01*
X1166324Y228265D01*
X1162311Y221314D01*
X1136768Y195772D01*
X1136708Y195694D01*
X1136640Y195622D01*
X1136611Y195569D01*
X1136574Y195521D01*
X1136534Y195430D01*
X1136486Y195343D01*
X1136471Y195285D01*
X1136447Y195229D01*
X1136432Y195131D01*
X1136407Y195035D01*
X1136401Y194935D01*
X1136397Y194915D01*
X1136399Y194903D01*
X1136397Y194875D01*
X1136397Y194392D01*
X1133921Y185154D01*
X1129139Y176871D01*
X1122377Y170109D01*
X1114094Y165327D01*
X1104856Y162851D01*
X1104373Y162851D01*
X1104275Y162839D01*
X1104176Y162836D01*
X1104118Y162819D01*
X1104058Y162811D01*
X1103966Y162775D01*
X1103871Y162747D01*
X1103818Y162717D01*
X1103762Y162694D01*
X1103682Y162636D01*
X1103597Y162586D01*
X1103521Y162520D01*
X1103505Y162508D01*
X1103497Y162498D01*
X1103476Y162480D01*
X1076626Y135629D01*
X1069675Y131616D01*
X1061923Y129539D01*
X1023429Y129539D01*
X1023304Y129524D01*
X1023179Y129514D01*
X1023147Y129504D01*
X1023113Y129499D01*
X1022996Y129453D01*
X1022877Y129413D01*
X1022849Y129395D01*
X1022817Y129382D01*
X1022716Y129308D01*
X1022610Y129240D01*
X1022587Y129215D01*
X1022560Y129196D01*
X1022480Y129099D01*
X1022395Y129006D01*
X1022379Y128977D01*
X1022357Y128951D01*
X1022304Y128837D01*
X1022244Y128726D01*
X1022236Y128693D01*
X1022222Y128663D01*
X1022198Y128540D01*
X1022168Y128417D01*
X1022168Y128384D01*
X1022162Y128351D01*
X1022170Y128225D01*
X1022171Y128099D01*
X1022181Y128051D01*
X1022182Y128033D01*
X1022188Y128013D01*
X1022203Y127942D01*
X1022605Y126441D01*
X1022605Y87681D01*
X1020528Y79929D01*
X1016515Y72978D01*
X1010840Y67303D01*
X1003889Y63290D01*
X996137Y61213D01*
X858317Y61213D01*
X856583Y61678D01*
X856498Y61690D01*
X856415Y61711D01*
X856278Y61720D01*
X856268Y61721D01*
X856263Y61721D01*
X856254Y61721D01*
X730555Y61721D01*
X722803Y63798D01*
X715852Y67811D01*
X664923Y118741D01*
X664855Y118793D01*
X664794Y118853D01*
X664680Y118929D01*
X664672Y118935D01*
X664668Y118937D01*
X664660Y118942D01*
X661011Y121049D01*
X654957Y127103D01*
X653917Y128905D01*
X653853Y128989D01*
X653797Y129078D01*
X653757Y129115D01*
X653725Y129158D01*
X653642Y129224D01*
X653565Y129296D01*
X653518Y129322D01*
X653476Y129356D01*
X653379Y129399D01*
X653286Y129450D01*
X653234Y129463D01*
X653185Y129485D01*
X653081Y129503D01*
X652978Y129529D01*
X652893Y129534D01*
X652871Y129538D01*
X652856Y129537D01*
X652818Y129539D01*
X629224Y129539D01*
X629087Y129522D01*
X628948Y129509D01*
X628929Y129502D01*
X628909Y129499D01*
X628780Y129448D01*
X628649Y129401D01*
X628632Y129390D01*
X628613Y129382D01*
X628501Y129301D01*
X628386Y129223D01*
X628372Y129207D01*
X628356Y129196D01*
X628267Y129088D01*
X628175Y128984D01*
X628166Y128966D01*
X628153Y128951D01*
X628094Y128825D01*
X628031Y128701D01*
X628026Y128681D01*
X628018Y128663D01*
X627991Y128527D01*
X627961Y128391D01*
X627962Y128370D01*
X627958Y128351D01*
X627966Y128212D01*
X627971Y128073D01*
X627976Y128053D01*
X627978Y128033D01*
X628020Y127901D01*
X628059Y127767D01*
X628069Y127750D01*
X628076Y127731D01*
X628150Y127613D01*
X628221Y127493D01*
X628239Y127472D01*
X628246Y127462D01*
X628261Y127448D01*
X628327Y127373D01*
X636271Y119429D01*
X636271Y92915D01*
X617523Y74167D01*
X591009Y74167D01*
X589349Y75828D01*
X589271Y75888D01*
X589199Y75956D01*
X589146Y75985D01*
X589098Y76022D01*
X589007Y76062D01*
X588920Y76110D01*
X588862Y76125D01*
X588806Y76149D01*
X588708Y76164D01*
X588612Y76189D01*
X588512Y76195D01*
X588492Y76199D01*
X588480Y76197D01*
X588452Y76199D01*
X556057Y76199D01*
X548305Y78276D01*
X541354Y82289D01*
X533771Y89873D01*
X533698Y89929D01*
X533632Y89993D01*
X533573Y90026D01*
X533520Y90068D01*
X533435Y90104D01*
X533355Y90150D01*
X533244Y90187D01*
X533228Y90194D01*
X533220Y90195D01*
X533202Y90201D01*
X527767Y91658D01*
X520237Y96005D01*
X514089Y102153D01*
X513327Y103472D01*
X513251Y103572D01*
X513181Y103676D01*
X513156Y103698D01*
X513135Y103725D01*
X513037Y103803D01*
X512942Y103886D01*
X512912Y103902D01*
X512886Y103923D01*
X512771Y103974D01*
X512659Y104031D01*
X512626Y104038D01*
X512595Y104052D01*
X512471Y104073D01*
X512349Y104100D01*
X512315Y104099D01*
X512282Y104105D01*
X512157Y104095D01*
X512031Y104091D01*
X511999Y104081D01*
X511965Y104079D01*
X511846Y104037D01*
X511726Y104002D01*
X511697Y103985D01*
X511665Y103974D01*
X511560Y103905D01*
X511452Y103841D01*
X511415Y103809D01*
X511400Y103798D01*
X511385Y103782D01*
X511331Y103734D01*
X504592Y96996D01*
X504536Y96923D01*
X504472Y96856D01*
X504439Y96798D01*
X504397Y96745D01*
X504361Y96660D01*
X504315Y96579D01*
X504278Y96469D01*
X504271Y96453D01*
X504270Y96444D01*
X504264Y96427D01*
X502905Y91354D01*
X498457Y83651D01*
X498099Y83293D01*
X498062Y83245D01*
X498017Y83203D01*
X497923Y83072D01*
X497287Y82063D01*
X497281Y82050D01*
X497262Y82021D01*
X495561Y79074D01*
X495241Y78755D01*
X495203Y78706D01*
X495159Y78664D01*
X495064Y78533D01*
X494823Y78151D01*
X492327Y75839D01*
X492318Y75828D01*
X492292Y75805D01*
X480996Y64509D01*
X474045Y60496D01*
X466293Y58419D01*
X424101Y58419D01*
X424010Y58408D01*
X423917Y58406D01*
X423852Y58388D01*
X423786Y58379D01*
X423700Y58345D01*
X423611Y58321D01*
X423506Y58269D01*
X423490Y58262D01*
X423483Y58257D01*
X423467Y58249D01*
X418250Y55237D01*
X409270Y52831D01*
X380162Y52831D01*
X371182Y55237D01*
X363131Y59886D01*
X356558Y66459D01*
X351909Y74510D01*
X349503Y83490D01*
X349503Y92786D01*
X351909Y101766D01*
X354079Y105523D01*
X354130Y105646D01*
X354186Y105765D01*
X354192Y105792D01*
X354202Y105817D01*
X354221Y105948D01*
X354246Y106078D01*
X354245Y106104D01*
X354249Y106131D01*
X354235Y106263D01*
X354227Y106395D01*
X354218Y106421D01*
X354215Y106447D01*
X354169Y106572D01*
X354128Y106697D01*
X354114Y106720D01*
X354105Y106746D01*
X354029Y106854D01*
X353958Y106966D01*
X353939Y106985D01*
X353923Y107007D01*
X353823Y107093D01*
X353727Y107184D01*
X353703Y107197D01*
X353683Y107215D01*
X353564Y107274D01*
X353448Y107338D01*
X353422Y107344D01*
X353398Y107356D01*
X353268Y107384D01*
X353140Y107417D01*
X353102Y107419D01*
X353087Y107423D01*
X353065Y107422D01*
X352980Y107427D01*
X314532Y107427D01*
X314401Y107411D01*
X314269Y107400D01*
X314244Y107391D01*
X314217Y107387D01*
X314094Y107339D01*
X313969Y107295D01*
X313946Y107280D01*
X313921Y107270D01*
X313814Y107193D01*
X313704Y107119D01*
X313686Y107099D01*
X313664Y107084D01*
X313579Y106981D01*
X313491Y106883D01*
X313478Y106859D01*
X313461Y106839D01*
X313405Y106719D01*
X313343Y106602D01*
X313337Y106575D01*
X313326Y106551D01*
X313301Y106421D01*
X313270Y106292D01*
X313271Y106265D01*
X313266Y106239D01*
X313274Y106107D01*
X313277Y105974D01*
X313284Y105948D01*
X313285Y105921D01*
X313326Y105795D01*
X313362Y105668D01*
X313379Y105633D01*
X313384Y105619D01*
X313395Y105600D01*
X313433Y105523D01*
X315603Y101766D01*
X318009Y92786D01*
X318009Y83490D01*
X315603Y74510D01*
X310954Y66459D01*
X304381Y59886D01*
X298133Y56278D01*
X298064Y56226D01*
X297991Y56183D01*
X297888Y56092D01*
X297879Y56086D01*
X297877Y56083D01*
X297870Y56076D01*
X297603Y55809D01*
X288390Y50490D01*
X278115Y47737D01*
X183657Y47737D01*
X173382Y50490D01*
X164169Y55809D01*
X89845Y130133D01*
X84526Y139346D01*
X81773Y149621D01*
X81773Y160259D01*
X84527Y170534D01*
X89822Y179705D01*
X89863Y179803D01*
X89912Y179896D01*
X89924Y179949D01*
X89945Y179999D01*
X89960Y180103D01*
X89985Y180206D01*
X89983Y180260D01*
X89991Y180313D01*
X89980Y180418D01*
X89978Y180524D01*
X89964Y180576D01*
X89958Y180629D01*
X89921Y180729D01*
X89893Y180830D01*
X89855Y180907D01*
X89847Y180928D01*
X89839Y180940D01*
X89822Y180975D01*
X84527Y190146D01*
X81773Y200421D01*
X81773Y211059D01*
X84526Y221334D01*
X89845Y230547D01*
X97367Y238069D01*
X106580Y243388D01*
X116970Y246171D01*
X117092Y246221D01*
X117217Y246266D01*
X117239Y246281D01*
X117264Y246292D01*
X117370Y246370D01*
X117480Y246445D01*
X117498Y246465D01*
X117520Y246481D01*
X117603Y246584D01*
X117691Y246683D01*
X117703Y246707D01*
X117720Y246728D01*
X117775Y246848D01*
X117835Y246966D01*
X117841Y246993D01*
X117852Y247017D01*
X117876Y247147D01*
X117905Y247277D01*
X117904Y247304D01*
X117909Y247330D01*
X117899Y247462D01*
X117895Y247595D01*
X117888Y247621D01*
X117886Y247648D01*
X117844Y247773D01*
X117807Y247900D01*
X117793Y247923D01*
X117784Y247949D01*
X117712Y248060D01*
X117645Y248174D01*
X117620Y248203D01*
X117611Y248216D01*
X117595Y248231D01*
X117539Y248295D01*
X73399Y292434D01*
X69386Y299385D01*
X67309Y307137D01*
X67309Y386283D01*
X69386Y394035D01*
X73399Y400986D01*
X93608Y421194D01*
X93668Y421272D01*
X93736Y421344D01*
X93765Y421397D01*
X93802Y421445D01*
X93842Y421536D01*
X93890Y421623D01*
X93905Y421681D01*
X93929Y421737D01*
X93944Y421835D01*
X93969Y421931D01*
X93975Y422031D01*
X93979Y422051D01*
X93977Y422063D01*
X93979Y422091D01*
X93979Y459065D01*
X93973Y459112D01*
X93976Y459160D01*
X93957Y459297D01*
X93956Y459306D01*
X93955Y459310D01*
X93953Y459319D01*
X93794Y460101D01*
X93977Y463156D01*
X93976Y463176D01*
X93979Y463232D01*
X93979Y466293D01*
X94186Y467063D01*
X94192Y467111D01*
X94207Y467156D01*
X94227Y467316D01*
X94274Y468112D01*
X94324Y468261D01*
X94348Y468382D01*
X94379Y468502D01*
X94382Y468554D01*
X94386Y468573D01*
X94385Y468594D01*
X94389Y468662D01*
X94389Y469448D01*
X96785Y478388D01*
X101412Y486403D01*
X102681Y487672D01*
X102754Y487766D01*
X102833Y487855D01*
X102851Y487891D01*
X102876Y487923D01*
X102923Y488032D01*
X102977Y488138D01*
X102986Y488178D01*
X103002Y488215D01*
X103021Y488332D01*
X103047Y488449D01*
X103046Y488489D01*
X103052Y488529D01*
X103041Y488648D01*
X103037Y488766D01*
X103026Y488805D01*
X103022Y488846D01*
X102982Y488958D01*
X102949Y489072D01*
X102929Y489107D01*
X102915Y489145D01*
X102848Y489243D01*
X102787Y489346D01*
X102748Y489391D01*
X102736Y489408D01*
X102721Y489421D01*
X102681Y489467D01*
X99561Y492586D01*
X95548Y499537D01*
X93471Y507289D01*
X93471Y515315D01*
X94346Y518579D01*
X94358Y518664D01*
X94379Y518747D01*
X94388Y518884D01*
X94389Y518895D01*
X94389Y518899D01*
X94389Y518908D01*
X94389Y520248D01*
X96785Y529188D01*
X101412Y537203D01*
X107957Y543748D01*
X115972Y548375D01*
X124912Y550771D01*
X134168Y550771D01*
X143108Y548375D01*
X151123Y543748D01*
X152716Y542154D01*
X152794Y542094D01*
X152866Y542026D01*
X152919Y541997D01*
X152967Y541960D01*
X153058Y541920D01*
X153145Y541872D01*
X153204Y541857D01*
X153259Y541833D01*
X153357Y541818D01*
X153453Y541793D01*
X153553Y541787D01*
X153573Y541783D01*
X153586Y541785D01*
X153614Y541783D01*
X168064Y541783D01*
X168208Y541801D01*
X168354Y541816D01*
X168366Y541821D01*
X168380Y541823D01*
X168514Y541876D01*
X168652Y541927D01*
X168663Y541935D01*
X168675Y541940D01*
X168793Y542025D01*
X168913Y542108D01*
X168922Y542118D01*
X168933Y542126D01*
X169026Y542239D01*
X169121Y542349D01*
X169127Y542361D01*
X169135Y542371D01*
X169197Y542503D01*
X169262Y542634D01*
X169265Y542647D01*
X169271Y542659D01*
X169298Y542802D01*
X169329Y542945D01*
X169328Y542958D01*
X169331Y542971D01*
X169322Y543117D01*
X169316Y543262D01*
X169312Y543275D01*
X169311Y543289D01*
X169266Y543427D01*
X169224Y543567D01*
X169217Y543579D01*
X169213Y543591D01*
X169135Y543714D01*
X169060Y543839D01*
X169050Y543849D01*
X169043Y543860D01*
X168936Y543960D01*
X168833Y544062D01*
X168817Y544072D01*
X168811Y544078D01*
X168796Y544086D01*
X168699Y544151D01*
X167974Y544569D01*
X162181Y550362D01*
X162181Y550363D01*
X125766Y586778D01*
X125688Y586838D01*
X125616Y586906D01*
X125563Y586935D01*
X125515Y586972D01*
X125424Y587012D01*
X125337Y587060D01*
X125279Y587075D01*
X125223Y587099D01*
X125125Y587114D01*
X125029Y587139D01*
X124929Y587145D01*
X124909Y587149D01*
X124897Y587147D01*
X124869Y587149D01*
X122372Y587149D01*
X113432Y589545D01*
X107850Y592768D01*
X107771Y592801D01*
X107696Y592843D01*
X107567Y592887D01*
X107556Y592891D01*
X107552Y592892D01*
X107543Y592895D01*
X103805Y593896D01*
X96854Y597909D01*
X55619Y639144D01*
X51606Y646095D01*
X49529Y653847D01*
X49529Y706323D01*
X51606Y714075D01*
X55619Y721026D01*
X91478Y756884D01*
X91538Y756962D01*
X91606Y757034D01*
X91635Y757087D01*
X91672Y757135D01*
X91712Y757226D01*
X91760Y757313D01*
X91775Y757371D01*
X91799Y757427D01*
X91814Y757525D01*
X91839Y757621D01*
X91845Y757721D01*
X91846Y757727D01*
X94245Y766678D01*
X98872Y774693D01*
X101792Y777613D01*
X101865Y777707D01*
X101944Y777796D01*
X101962Y777832D01*
X101987Y777864D01*
X102034Y777973D01*
X102088Y778079D01*
X102097Y778118D01*
X102113Y778156D01*
X102132Y778273D01*
X102158Y778389D01*
X102157Y778430D01*
X102163Y778470D01*
X102152Y778588D01*
X102148Y778707D01*
X102137Y778746D01*
X102133Y778786D01*
X102093Y778899D01*
X102060Y779013D01*
X102039Y779048D01*
X102026Y779086D01*
X101959Y779184D01*
X101898Y779287D01*
X101858Y779332D01*
X101847Y779349D01*
X101832Y779362D01*
X101792Y779408D01*
X98872Y782327D01*
X94245Y790342D01*
X91849Y799282D01*
X91849Y808538D01*
X94245Y817478D01*
X97520Y823151D01*
X97571Y823271D01*
X97626Y823388D01*
X97632Y823417D01*
X97643Y823444D01*
X97662Y823573D01*
X97687Y823700D01*
X97686Y823730D01*
X97690Y823759D01*
X97676Y823888D01*
X97669Y824018D01*
X97660Y824046D01*
X97657Y824075D01*
X97611Y824197D01*
X97572Y824321D01*
X97556Y824346D01*
X97546Y824373D01*
X97472Y824480D01*
X97403Y824590D01*
X97381Y824610D01*
X97365Y824634D01*
X97266Y824719D01*
X97172Y824809D01*
X97146Y824823D01*
X97124Y824842D01*
X97007Y824900D01*
X96894Y824963D01*
X96865Y824971D01*
X96839Y824984D01*
X96712Y825011D01*
X96586Y825044D01*
X96544Y825047D01*
X96528Y825050D01*
X96506Y825049D01*
X96425Y825055D01*
X26675Y825304D01*
X26554Y825289D01*
X26433Y825282D01*
X26397Y825270D01*
X26359Y825265D01*
X26246Y825221D01*
X26131Y825183D01*
X26098Y825163D01*
X26063Y825149D01*
X25964Y825078D01*
X25862Y825013D01*
X25836Y824986D01*
X25805Y824963D01*
X25727Y824870D01*
X25644Y824782D01*
X25625Y824748D01*
X25601Y824719D01*
X25549Y824609D01*
X25490Y824503D01*
X25481Y824466D01*
X25464Y824432D01*
X25441Y824313D01*
X25411Y824195D01*
X25407Y824139D01*
X25404Y824120D01*
X25405Y824099D01*
X25401Y824035D01*
X25401Y26575D01*
X25415Y26459D01*
X25422Y26342D01*
X25435Y26302D01*
X25441Y26259D01*
X25483Y26151D01*
X25519Y26040D01*
X25542Y26003D01*
X25558Y25964D01*
X25626Y25869D01*
X25688Y25770D01*
X25719Y25741D01*
X25744Y25706D01*
X25835Y25632D01*
X25919Y25551D01*
X25956Y25531D01*
X25989Y25503D01*
X26095Y25454D01*
X26197Y25397D01*
X26239Y25386D01*
X26277Y25368D01*
X26391Y25346D01*
X26505Y25316D01*
X26569Y25312D01*
X26589Y25308D01*
X26609Y25309D01*
X26665Y25306D01*
X1181859Y21178D01*
X1181980Y21193D01*
G37*
G36*
X568142Y622376D02*
X568142Y622376D01*
X568247Y622377D01*
X568331Y622394D01*
X568353Y622396D01*
X568367Y622401D01*
X568405Y622409D01*
X572741Y623571D01*
X572770Y623571D01*
X572888Y623586D01*
X573007Y623593D01*
X573045Y623606D01*
X573086Y623611D01*
X573196Y623654D01*
X573309Y623691D01*
X573344Y623713D01*
X573381Y623728D01*
X573477Y623797D01*
X573578Y623861D01*
X573606Y623891D01*
X573639Y623914D01*
X573715Y624006D01*
X573796Y624093D01*
X573816Y624128D01*
X573841Y624159D01*
X573892Y624267D01*
X573950Y624371D01*
X573960Y624411D01*
X573977Y624447D01*
X573999Y624564D01*
X574029Y624679D01*
X574033Y624739D01*
X574037Y624759D01*
X574035Y624780D01*
X574039Y624840D01*
X574039Y683508D01*
X574029Y683593D01*
X574028Y683678D01*
X574001Y683813D01*
X573999Y683823D01*
X573998Y683827D01*
X573996Y683836D01*
X572007Y691258D01*
X572007Y700154D01*
X574309Y708746D01*
X578757Y716449D01*
X585047Y722739D01*
X592750Y727187D01*
X601342Y729489D01*
X610238Y729489D01*
X618830Y727187D01*
X624226Y724071D01*
X624311Y724035D01*
X624392Y723990D01*
X624457Y723974D01*
X624519Y723948D01*
X624611Y723934D01*
X624700Y723911D01*
X624817Y723904D01*
X624834Y723901D01*
X624842Y723902D01*
X624861Y723901D01*
X698049Y723901D01*
X698147Y723913D01*
X698246Y723916D01*
X698304Y723933D01*
X698364Y723941D01*
X698456Y723977D01*
X698551Y724005D01*
X698604Y724035D01*
X698660Y724058D01*
X698740Y724116D01*
X698825Y724166D01*
X698901Y724232D01*
X698917Y724244D01*
X698925Y724254D01*
X698946Y724272D01*
X746261Y771587D01*
X746321Y771665D01*
X746389Y771737D01*
X746418Y771790D01*
X746455Y771838D01*
X746495Y771929D01*
X746543Y772016D01*
X746558Y772074D01*
X746582Y772130D01*
X746597Y772228D01*
X746622Y772324D01*
X746628Y772424D01*
X746632Y772444D01*
X746630Y772456D01*
X746632Y772484D01*
X746632Y783102D01*
X747356Y785802D01*
X747373Y785926D01*
X747396Y786050D01*
X747394Y786083D01*
X747399Y786117D01*
X747384Y786242D01*
X747376Y786367D01*
X747366Y786399D01*
X747362Y786433D01*
X747317Y786550D01*
X747278Y786669D01*
X747260Y786698D01*
X747248Y786729D01*
X747176Y786832D01*
X747108Y786938D01*
X747084Y786961D01*
X747064Y786989D01*
X746968Y787070D01*
X746877Y787156D01*
X746847Y787172D01*
X746821Y787194D01*
X746708Y787249D01*
X746598Y787310D01*
X746566Y787318D01*
X746535Y787333D01*
X746412Y787358D01*
X746290Y787389D01*
X746241Y787392D01*
X746223Y787396D01*
X746202Y787395D01*
X746130Y787399D01*
X639084Y787399D01*
X638972Y787385D01*
X638860Y787379D01*
X638815Y787365D01*
X638768Y787359D01*
X638664Y787318D01*
X638557Y787285D01*
X638517Y787260D01*
X638473Y787242D01*
X638382Y787176D01*
X638286Y787117D01*
X638254Y787083D01*
X638215Y787056D01*
X638144Y786969D01*
X638066Y786888D01*
X638043Y786847D01*
X638013Y786811D01*
X637965Y786709D01*
X637909Y786611D01*
X637886Y786542D01*
X637877Y786523D01*
X637874Y786505D01*
X637858Y786459D01*
X637271Y784266D01*
X632823Y776563D01*
X629242Y772982D01*
X629190Y772915D01*
X629130Y772853D01*
X629054Y772740D01*
X629047Y772731D01*
X629046Y772727D01*
X629041Y772719D01*
X628911Y772494D01*
X626706Y770290D01*
X626695Y770275D01*
X626657Y770238D01*
X624581Y767913D01*
X623961Y767507D01*
X623923Y767475D01*
X623880Y767450D01*
X623759Y767343D01*
X623236Y766819D01*
X620536Y765261D01*
X620521Y765249D01*
X620475Y765223D01*
X617868Y763515D01*
X617164Y763283D01*
X617119Y763262D01*
X617071Y763248D01*
X616927Y763177D01*
X616285Y762806D01*
X613274Y762000D01*
X613257Y761993D01*
X613206Y761979D01*
X610245Y761004D01*
X609505Y760962D01*
X609456Y760953D01*
X609406Y760953D01*
X609248Y760921D01*
X608533Y760729D01*
X605416Y760729D01*
X605397Y760727D01*
X605344Y760727D01*
X602232Y760552D01*
X601507Y760703D01*
X601457Y760707D01*
X601409Y760719D01*
X601248Y760729D01*
X564331Y760729D01*
X564233Y760717D01*
X564134Y760714D01*
X564076Y760697D01*
X564016Y760689D01*
X563924Y760653D01*
X563829Y760625D01*
X563776Y760595D01*
X563720Y760572D01*
X563640Y760514D01*
X563555Y760464D01*
X563479Y760398D01*
X563463Y760386D01*
X563455Y760376D01*
X563434Y760358D01*
X534336Y731259D01*
X527385Y727246D01*
X519633Y725169D01*
X517115Y725169D01*
X516965Y725150D01*
X516812Y725133D01*
X516806Y725130D01*
X516799Y725129D01*
X516658Y725074D01*
X516515Y725019D01*
X516510Y725015D01*
X516504Y725012D01*
X516381Y724923D01*
X516256Y724835D01*
X516252Y724830D01*
X516246Y724826D01*
X516149Y724708D01*
X516051Y724592D01*
X516048Y724586D01*
X516044Y724581D01*
X515979Y724443D01*
X515912Y724306D01*
X515911Y724299D01*
X515908Y724293D01*
X515880Y724144D01*
X515849Y723994D01*
X515849Y723987D01*
X515848Y723981D01*
X515858Y723829D01*
X515866Y723676D01*
X515868Y723670D01*
X515868Y723663D01*
X515915Y723519D01*
X515960Y723373D01*
X515964Y723367D01*
X515966Y723361D01*
X516047Y723233D01*
X516128Y723102D01*
X516133Y723098D01*
X516136Y723092D01*
X516248Y722987D01*
X516357Y722882D01*
X516363Y722879D01*
X516368Y722874D01*
X516501Y722801D01*
X516634Y722725D01*
X516643Y722723D01*
X516646Y722720D01*
X516656Y722718D01*
X516786Y722674D01*
X522136Y721241D01*
X530187Y716592D01*
X536760Y710019D01*
X541409Y701968D01*
X543815Y692988D01*
X543815Y683692D01*
X541409Y674712D01*
X537042Y667149D01*
X536998Y667045D01*
X536947Y666945D01*
X536937Y666899D01*
X536919Y666856D01*
X536902Y666744D01*
X536878Y666635D01*
X536879Y666588D01*
X536872Y666541D01*
X536884Y666429D01*
X536887Y666317D01*
X536901Y666272D01*
X536905Y666225D01*
X536945Y666120D01*
X536976Y666012D01*
X537000Y665971D01*
X537016Y665927D01*
X537080Y665834D01*
X537137Y665738D01*
X537185Y665683D01*
X537198Y665666D01*
X537211Y665654D01*
X537244Y665617D01*
X539758Y663102D01*
X544858Y654269D01*
X547498Y644418D01*
X547498Y641200D01*
X547511Y641095D01*
X547515Y640989D01*
X547531Y640937D01*
X547538Y640884D01*
X547576Y640786D01*
X547607Y640685D01*
X547635Y640638D01*
X547655Y640588D01*
X547717Y640503D01*
X547771Y640412D01*
X547810Y640375D01*
X547841Y640331D01*
X547923Y640264D01*
X547998Y640190D01*
X548070Y640142D01*
X548086Y640128D01*
X548100Y640122D01*
X548132Y640100D01*
X552116Y637801D01*
X557909Y632007D01*
X567179Y622737D01*
X567262Y622673D01*
X567340Y622601D01*
X567387Y622576D01*
X567430Y622542D01*
X567527Y622500D01*
X567620Y622450D01*
X567672Y622438D01*
X567722Y622416D01*
X567827Y622400D01*
X567929Y622374D01*
X567983Y622375D01*
X568036Y622366D01*
X568142Y622376D01*
G37*
G36*
X576066Y199886D02*
X576066Y199886D01*
X576178Y199890D01*
X576224Y199903D01*
X576270Y199908D01*
X576376Y199947D01*
X576484Y199978D01*
X576524Y200002D01*
X576569Y200018D01*
X576661Y200083D01*
X576758Y200140D01*
X576812Y200187D01*
X576830Y200200D01*
X576842Y200214D01*
X576878Y200246D01*
X591009Y214377D01*
X592639Y214377D01*
X592737Y214389D01*
X592836Y214392D01*
X592894Y214409D01*
X592954Y214417D01*
X593046Y214453D01*
X593141Y214481D01*
X593194Y214511D01*
X593250Y214534D01*
X593330Y214592D01*
X593415Y214642D01*
X593491Y214708D01*
X593507Y214720D01*
X593515Y214730D01*
X593536Y214748D01*
X596472Y217685D01*
X603423Y221698D01*
X611175Y223775D01*
X621604Y223775D01*
X621703Y223787D01*
X621802Y223790D01*
X621860Y223807D01*
X621920Y223815D01*
X622012Y223851D01*
X622107Y223879D01*
X622159Y223909D01*
X622216Y223932D01*
X622296Y223990D01*
X622381Y224040D01*
X622456Y224106D01*
X622473Y224118D01*
X622481Y224128D01*
X622502Y224146D01*
X622646Y224290D01*
X631479Y229390D01*
X641330Y232030D01*
X643890Y232030D01*
X644008Y232045D01*
X644127Y232052D01*
X644165Y232065D01*
X644206Y232070D01*
X644316Y232113D01*
X644429Y232150D01*
X644464Y232172D01*
X644501Y232187D01*
X644597Y232256D01*
X644698Y232320D01*
X644726Y232350D01*
X644759Y232373D01*
X644835Y232465D01*
X644916Y232552D01*
X644936Y232587D01*
X644961Y232618D01*
X645012Y232726D01*
X645070Y232830D01*
X645080Y232870D01*
X645097Y232906D01*
X645119Y233023D01*
X645149Y233138D01*
X645153Y233198D01*
X645157Y233218D01*
X645155Y233239D01*
X645159Y233299D01*
X645159Y244659D01*
X645147Y244757D01*
X645144Y244856D01*
X645127Y244914D01*
X645119Y244974D01*
X645083Y245066D01*
X645055Y245161D01*
X645025Y245214D01*
X645002Y245270D01*
X644944Y245350D01*
X644894Y245435D01*
X644828Y245511D01*
X644816Y245527D01*
X644806Y245535D01*
X644788Y245556D01*
X624275Y266069D01*
X624181Y266142D01*
X624092Y266220D01*
X624056Y266239D01*
X624024Y266264D01*
X623914Y266311D01*
X623809Y266365D01*
X623769Y266374D01*
X623732Y266390D01*
X623614Y266409D01*
X623498Y266435D01*
X623458Y266433D01*
X623418Y266440D01*
X623299Y266429D01*
X623180Y266425D01*
X623142Y266414D01*
X623101Y266410D01*
X622989Y266370D01*
X622875Y266337D01*
X622840Y266316D01*
X622802Y266302D01*
X622703Y266235D01*
X622601Y266175D01*
X622556Y266135D01*
X622539Y266124D01*
X622525Y266108D01*
X622480Y266069D01*
X615237Y258825D01*
X588723Y258825D01*
X585031Y262518D01*
X584953Y262578D01*
X584881Y262646D01*
X584828Y262675D01*
X584780Y262712D01*
X584689Y262752D01*
X584602Y262800D01*
X584544Y262815D01*
X584488Y262839D01*
X584390Y262854D01*
X584294Y262879D01*
X584194Y262885D01*
X584174Y262889D01*
X584161Y262887D01*
X584133Y262889D01*
X556057Y262889D01*
X548305Y264966D01*
X541354Y268979D01*
X537402Y272932D01*
X537324Y272992D01*
X537252Y273060D01*
X537199Y273089D01*
X537151Y273126D01*
X537060Y273166D01*
X536973Y273214D01*
X536915Y273229D01*
X536859Y273253D01*
X536761Y273268D01*
X536665Y273293D01*
X536565Y273299D01*
X536545Y273303D01*
X536533Y273301D01*
X536505Y273303D01*
X530831Y273303D01*
X522433Y275554D01*
X514903Y279901D01*
X513197Y281606D01*
X513103Y281679D01*
X513014Y281758D01*
X512978Y281776D01*
X512946Y281801D01*
X512837Y281848D01*
X512731Y281903D01*
X512691Y281911D01*
X512654Y281927D01*
X512537Y281946D01*
X512421Y281972D01*
X512380Y281971D01*
X512340Y281977D01*
X512222Y281966D01*
X512103Y281963D01*
X512064Y281951D01*
X512024Y281948D01*
X511911Y281907D01*
X511797Y281874D01*
X511762Y281854D01*
X511724Y281840D01*
X511626Y281773D01*
X511523Y281713D01*
X511478Y281673D01*
X511461Y281661D01*
X511448Y281646D01*
X511402Y281606D01*
X502177Y272381D01*
X502166Y272367D01*
X502133Y272335D01*
X499977Y269950D01*
X499438Y269602D01*
X499397Y269567D01*
X499350Y269540D01*
X499229Y269433D01*
X498776Y268979D01*
X497349Y268156D01*
X497280Y268104D01*
X497207Y268060D01*
X497104Y267970D01*
X497095Y267963D01*
X497093Y267960D01*
X497086Y267954D01*
X496759Y267627D01*
X496747Y267612D01*
X496671Y267529D01*
X496419Y267220D01*
X496409Y267202D01*
X496394Y267188D01*
X496305Y267054D01*
X495561Y265764D01*
X493882Y264086D01*
X493871Y264071D01*
X493794Y263988D01*
X492297Y262146D01*
X491092Y261273D01*
X491077Y261259D01*
X491059Y261249D01*
X490938Y261142D01*
X489886Y260089D01*
X487830Y258902D01*
X487815Y258891D01*
X487720Y258831D01*
X485797Y257439D01*
X484406Y256907D01*
X484388Y256898D01*
X484369Y256892D01*
X484225Y256821D01*
X482935Y256076D01*
X480642Y255462D01*
X480625Y255455D01*
X480518Y255422D01*
X478300Y254574D01*
X476819Y254421D01*
X476799Y254417D01*
X476779Y254416D01*
X476621Y254385D01*
X475183Y253999D01*
X472809Y253999D01*
X472791Y253997D01*
X472678Y253993D01*
X470317Y253748D01*
X468847Y253983D01*
X468826Y253984D01*
X468807Y253989D01*
X468646Y253999D01*
X427392Y253999D01*
X427294Y253987D01*
X427195Y253984D01*
X427137Y253967D01*
X427077Y253959D01*
X426985Y253923D01*
X426890Y253895D01*
X426837Y253865D01*
X426781Y253842D01*
X426701Y253784D01*
X426616Y253734D01*
X426540Y253668D01*
X426524Y253656D01*
X426516Y253646D01*
X426495Y253628D01*
X426301Y253434D01*
X420929Y250332D01*
X420840Y250264D01*
X420746Y250203D01*
X420714Y250169D01*
X420676Y250140D01*
X420606Y250052D01*
X420530Y249969D01*
X420508Y249928D01*
X420478Y249891D01*
X420433Y249788D01*
X420380Y249689D01*
X420368Y249644D01*
X420349Y249600D01*
X420330Y249489D01*
X420303Y249381D01*
X420304Y249333D01*
X420296Y249287D01*
X420305Y249175D01*
X420306Y249063D01*
X420321Y248992D01*
X420322Y248970D01*
X420328Y248953D01*
X420338Y248905D01*
X421641Y244043D01*
X421641Y239194D01*
X421654Y239089D01*
X421658Y238983D01*
X421674Y238932D01*
X421681Y238878D01*
X421719Y238780D01*
X421750Y238679D01*
X421778Y238633D01*
X421798Y238583D01*
X421860Y238497D01*
X421914Y238407D01*
X421953Y238369D01*
X421984Y238325D01*
X422066Y238258D01*
X422141Y238184D01*
X422213Y238136D01*
X422229Y238122D01*
X422244Y238116D01*
X422275Y238095D01*
X426301Y235770D01*
X426749Y235322D01*
X426827Y235262D01*
X426899Y235194D01*
X426952Y235165D01*
X427000Y235128D01*
X427091Y235088D01*
X427178Y235040D01*
X427236Y235025D01*
X427292Y235001D01*
X427390Y234986D01*
X427486Y234961D01*
X427586Y234955D01*
X427606Y234951D01*
X427618Y234953D01*
X427646Y234951D01*
X453673Y234951D01*
X453765Y234962D01*
X453857Y234964D01*
X453922Y234982D01*
X453989Y234991D01*
X454074Y235025D01*
X454163Y235049D01*
X454268Y235101D01*
X454284Y235108D01*
X454291Y235113D01*
X454308Y235121D01*
X458384Y237475D01*
X466976Y239777D01*
X475872Y239777D01*
X484464Y237475D01*
X492167Y233027D01*
X498457Y226737D01*
X502905Y219034D01*
X505207Y210442D01*
X505207Y209550D01*
X505222Y209432D01*
X505229Y209313D01*
X505242Y209275D01*
X505247Y209234D01*
X505290Y209124D01*
X505327Y209011D01*
X505349Y208976D01*
X505364Y208939D01*
X505433Y208843D01*
X505497Y208742D01*
X505527Y208714D01*
X505550Y208681D01*
X505642Y208605D01*
X505729Y208524D01*
X505764Y208504D01*
X505795Y208479D01*
X505903Y208428D01*
X506007Y208370D01*
X506047Y208360D01*
X506083Y208343D01*
X506200Y208321D01*
X506315Y208291D01*
X506375Y208287D01*
X506395Y208283D01*
X506416Y208285D01*
X506476Y208281D01*
X540361Y208281D01*
X540368Y208282D01*
X540515Y208290D01*
X542584Y208542D01*
X544346Y208293D01*
X544354Y208293D01*
X544363Y208291D01*
X544523Y208281D01*
X546303Y208281D01*
X548316Y207741D01*
X548322Y207741D01*
X548467Y207711D01*
X550530Y207419D01*
X552168Y206722D01*
X552176Y206720D01*
X552184Y206716D01*
X552336Y206664D01*
X553725Y206292D01*
X553810Y206280D01*
X553893Y206259D01*
X554029Y206250D01*
X554040Y206249D01*
X554044Y206249D01*
X554053Y206249D01*
X560099Y206249D01*
X568498Y203998D01*
X575346Y200044D01*
X575450Y200001D01*
X575550Y199950D01*
X575596Y199939D01*
X575640Y199921D01*
X575751Y199905D01*
X575860Y199880D01*
X575907Y199881D01*
X575954Y199874D01*
X576066Y199886D01*
G37*
G36*
X502991Y367964D02*
X502991Y367964D01*
X503144Y367972D01*
X503150Y367974D01*
X503157Y367975D01*
X503302Y368022D01*
X503447Y368067D01*
X503453Y368071D01*
X503459Y368073D01*
X503588Y368154D01*
X503718Y368234D01*
X503722Y368239D01*
X503728Y368243D01*
X503833Y368354D01*
X503938Y368464D01*
X503941Y368470D01*
X503946Y368475D01*
X504020Y368608D01*
X504095Y368741D01*
X504097Y368749D01*
X504100Y368753D01*
X504102Y368763D01*
X504146Y368893D01*
X504408Y369869D01*
X508755Y377399D01*
X511438Y380082D01*
X511498Y380160D01*
X511566Y380232D01*
X511595Y380285D01*
X511632Y380333D01*
X511672Y380424D01*
X511720Y380511D01*
X511735Y380569D01*
X511759Y380625D01*
X511774Y380723D01*
X511799Y380819D01*
X511805Y380919D01*
X511809Y380939D01*
X511807Y380951D01*
X511809Y380979D01*
X511809Y466909D01*
X511797Y467007D01*
X511794Y467106D01*
X511777Y467164D01*
X511769Y467224D01*
X511733Y467316D01*
X511705Y467411D01*
X511675Y467464D01*
X511652Y467520D01*
X511594Y467600D01*
X511544Y467685D01*
X511478Y467761D01*
X511466Y467777D01*
X511456Y467785D01*
X511438Y467806D01*
X498044Y481200D01*
X497971Y481257D01*
X497904Y481321D01*
X497846Y481354D01*
X497792Y481395D01*
X497708Y481432D01*
X497627Y481477D01*
X497516Y481515D01*
X497501Y481521D01*
X497492Y481523D01*
X497475Y481529D01*
X489626Y483631D01*
X481923Y488079D01*
X475633Y494369D01*
X471185Y502072D01*
X468883Y510664D01*
X468883Y519560D01*
X471185Y528152D01*
X475633Y535855D01*
X481923Y542145D01*
X486869Y545001D01*
X486986Y545089D01*
X487103Y545174D01*
X487112Y545185D01*
X487123Y545193D01*
X487213Y545307D01*
X487306Y545419D01*
X487312Y545432D01*
X487320Y545442D01*
X487380Y545576D01*
X487442Y545707D01*
X487444Y545720D01*
X487450Y545733D01*
X487474Y545877D01*
X487502Y546020D01*
X487501Y546033D01*
X487503Y546046D01*
X487491Y546192D01*
X487482Y546337D01*
X487478Y546350D01*
X487477Y546363D01*
X487429Y546501D01*
X487384Y546639D01*
X487377Y546651D01*
X487372Y546664D01*
X487292Y546785D01*
X487214Y546908D01*
X487204Y546917D01*
X487196Y546929D01*
X487089Y547026D01*
X486982Y547126D01*
X486970Y547133D01*
X486960Y547142D01*
X486831Y547209D01*
X486703Y547280D01*
X486690Y547283D01*
X486678Y547289D01*
X486536Y547323D01*
X486396Y547359D01*
X486377Y547360D01*
X486369Y547362D01*
X486352Y547362D01*
X486235Y547369D01*
X431800Y547369D01*
X431682Y547354D01*
X431563Y547347D01*
X431525Y547334D01*
X431484Y547329D01*
X431374Y547286D01*
X431261Y547249D01*
X431226Y547227D01*
X431189Y547212D01*
X431093Y547143D01*
X430992Y547079D01*
X430964Y547049D01*
X430931Y547026D01*
X430855Y546934D01*
X430774Y546847D01*
X430754Y546812D01*
X430729Y546781D01*
X430678Y546673D01*
X430620Y546569D01*
X430610Y546529D01*
X430593Y546493D01*
X430571Y546376D01*
X430541Y546261D01*
X430537Y546201D01*
X430533Y546181D01*
X430535Y546160D01*
X430531Y546100D01*
X430531Y431800D01*
X430546Y431682D01*
X430553Y431563D01*
X430566Y431525D01*
X430571Y431484D01*
X430614Y431374D01*
X430651Y431261D01*
X430673Y431226D01*
X430688Y431189D01*
X430757Y431093D01*
X430821Y430992D01*
X430851Y430964D01*
X430874Y430931D01*
X430966Y430855D01*
X431053Y430774D01*
X431088Y430754D01*
X431119Y430729D01*
X431227Y430678D01*
X431331Y430620D01*
X431371Y430610D01*
X431407Y430593D01*
X431524Y430571D01*
X431639Y430541D01*
X431699Y430537D01*
X431719Y430533D01*
X431740Y430535D01*
X431800Y430531D01*
X469063Y430531D01*
X469066Y430531D01*
X469070Y430531D01*
X469230Y430542D01*
X471119Y430794D01*
X473061Y430541D01*
X473063Y430541D01*
X473064Y430541D01*
X473225Y430531D01*
X475183Y430531D01*
X477023Y430038D01*
X477027Y430037D01*
X477030Y430036D01*
X477188Y430005D01*
X479078Y429759D01*
X480889Y429013D01*
X480890Y429012D01*
X480891Y429012D01*
X481044Y428960D01*
X482935Y428454D01*
X484585Y427501D01*
X484589Y427499D01*
X484591Y427497D01*
X484736Y427427D01*
X486498Y426700D01*
X488053Y425511D01*
X488055Y425510D01*
X488056Y425509D01*
X488190Y425420D01*
X489886Y424441D01*
X491233Y423093D01*
X491236Y423091D01*
X491238Y423088D01*
X491360Y422982D01*
X492873Y421825D01*
X494068Y420273D01*
X494069Y420272D01*
X494070Y420271D01*
X494176Y420150D01*
X495561Y418766D01*
X496513Y417115D01*
X496516Y417112D01*
X496517Y417109D01*
X496607Y416976D01*
X497769Y415466D01*
X498274Y414254D01*
X498278Y414246D01*
X498280Y414238D01*
X498357Y414108D01*
X498432Y413978D01*
X498438Y413972D01*
X498442Y413965D01*
X498548Y413844D01*
X499219Y413173D01*
X503667Y405470D01*
X505969Y396878D01*
X505969Y387982D01*
X503667Y379390D01*
X501821Y376193D01*
X501785Y376108D01*
X501740Y376027D01*
X501724Y375962D01*
X501698Y375900D01*
X501684Y375809D01*
X501661Y375720D01*
X501654Y375603D01*
X501651Y375586D01*
X501652Y375577D01*
X501651Y375559D01*
X501651Y369222D01*
X501670Y369070D01*
X501687Y368919D01*
X501690Y368913D01*
X501691Y368906D01*
X501747Y368764D01*
X501801Y368622D01*
X501805Y368617D01*
X501808Y368610D01*
X501897Y368487D01*
X501985Y368363D01*
X501990Y368359D01*
X501994Y368353D01*
X502113Y368255D01*
X502228Y368158D01*
X502234Y368155D01*
X502239Y368150D01*
X502376Y368086D01*
X502514Y368019D01*
X502521Y368018D01*
X502527Y368015D01*
X502675Y367987D01*
X502826Y367956D01*
X502833Y367956D01*
X502839Y367955D01*
X502991Y367964D01*
G37*
G36*
X352231Y383317D02*
X352231Y383317D01*
X352363Y383328D01*
X352388Y383337D01*
X352415Y383341D01*
X352538Y383389D01*
X352663Y383433D01*
X352686Y383448D01*
X352711Y383458D01*
X352818Y383535D01*
X352928Y383609D01*
X352946Y383629D01*
X352968Y383644D01*
X353053Y383747D01*
X353141Y383845D01*
X353154Y383869D01*
X353171Y383889D01*
X353227Y384009D01*
X353289Y384126D01*
X353295Y384153D01*
X353307Y384177D01*
X353331Y384307D01*
X353362Y384436D01*
X353361Y384463D01*
X353366Y384489D01*
X353358Y384621D01*
X353356Y384754D01*
X353348Y384780D01*
X353347Y384807D01*
X353306Y384933D01*
X353270Y385060D01*
X353253Y385095D01*
X353249Y385109D01*
X353237Y385128D01*
X353199Y385205D01*
X351909Y387438D01*
X349503Y396418D01*
X349503Y405714D01*
X351909Y414694D01*
X356558Y422745D01*
X363131Y429318D01*
X368935Y432669D01*
X369019Y432733D01*
X369108Y432790D01*
X369145Y432829D01*
X369188Y432861D01*
X369254Y432944D01*
X369326Y433021D01*
X369352Y433068D01*
X369386Y433111D01*
X369429Y433207D01*
X369480Y433300D01*
X369493Y433352D01*
X369515Y433401D01*
X369533Y433505D01*
X369559Y433608D01*
X369564Y433693D01*
X369568Y433715D01*
X369567Y433730D01*
X369569Y433768D01*
X369569Y483616D01*
X369554Y483734D01*
X369547Y483853D01*
X369534Y483891D01*
X369529Y483932D01*
X369486Y484042D01*
X369449Y484155D01*
X369427Y484190D01*
X369412Y484227D01*
X369343Y484323D01*
X369279Y484424D01*
X369249Y484452D01*
X369226Y484485D01*
X369134Y484561D01*
X369047Y484642D01*
X369012Y484662D01*
X368981Y484687D01*
X368873Y484738D01*
X368769Y484796D01*
X368729Y484806D01*
X368693Y484823D01*
X368576Y484845D01*
X368461Y484875D01*
X368401Y484879D01*
X368381Y484883D01*
X368360Y484881D01*
X368300Y484885D01*
X340834Y484885D01*
X318515Y507204D01*
X318515Y517963D01*
X318503Y518061D01*
X318500Y518160D01*
X318483Y518218D01*
X318475Y518278D01*
X318439Y518370D01*
X318411Y518465D01*
X318381Y518518D01*
X318358Y518574D01*
X318300Y518654D01*
X318250Y518739D01*
X318184Y518815D01*
X318172Y518831D01*
X318162Y518839D01*
X318144Y518860D01*
X304539Y532464D01*
X301433Y537845D01*
X301369Y537929D01*
X301313Y538018D01*
X301273Y538055D01*
X301241Y538098D01*
X301158Y538164D01*
X301081Y538236D01*
X301034Y538262D01*
X300992Y538296D01*
X300895Y538339D01*
X300802Y538390D01*
X300750Y538403D01*
X300701Y538425D01*
X300597Y538443D01*
X300495Y538469D01*
X300409Y538474D01*
X300388Y538478D01*
X300372Y538477D01*
X300334Y538479D01*
X268562Y538479D01*
X268418Y538461D01*
X268272Y538446D01*
X268260Y538441D01*
X268246Y538439D01*
X268112Y538386D01*
X267974Y538335D01*
X267963Y538327D01*
X267951Y538322D01*
X267833Y538237D01*
X267713Y538154D01*
X267704Y538144D01*
X267693Y538136D01*
X267600Y538023D01*
X267505Y537913D01*
X267499Y537901D01*
X267491Y537891D01*
X267429Y537759D01*
X267364Y537628D01*
X267361Y537615D01*
X267355Y537603D01*
X267328Y537460D01*
X267297Y537317D01*
X267298Y537304D01*
X267295Y537291D01*
X267304Y537145D01*
X267310Y537000D01*
X267314Y536987D01*
X267315Y536973D01*
X267360Y536835D01*
X267402Y536695D01*
X267409Y536683D01*
X267413Y536671D01*
X267491Y536548D01*
X267566Y536423D01*
X267576Y536413D01*
X267583Y536402D01*
X267690Y536302D01*
X267793Y536200D01*
X267809Y536190D01*
X267815Y536184D01*
X267830Y536176D01*
X267927Y536111D01*
X268652Y535693D01*
X296353Y507991D01*
X296431Y507931D01*
X296503Y507863D01*
X296556Y507834D01*
X296604Y507797D01*
X296695Y507757D01*
X296782Y507709D01*
X296840Y507694D01*
X296896Y507670D01*
X296994Y507655D01*
X297090Y507630D01*
X297190Y507624D01*
X297210Y507620D01*
X297222Y507622D01*
X297250Y507620D01*
X297454Y507620D01*
X307305Y504980D01*
X316138Y499880D01*
X323350Y492668D01*
X328450Y483835D01*
X331090Y473984D01*
X331090Y463784D01*
X328450Y453933D01*
X323350Y445100D01*
X316138Y437888D01*
X307305Y432788D01*
X304163Y431946D01*
X304035Y431894D01*
X303904Y431845D01*
X303887Y431834D01*
X303869Y431826D01*
X303757Y431743D01*
X303643Y431664D01*
X303630Y431648D01*
X303613Y431636D01*
X303526Y431528D01*
X303435Y431423D01*
X303426Y431405D01*
X303413Y431389D01*
X303355Y431263D01*
X303293Y431138D01*
X303289Y431118D01*
X303281Y431100D01*
X303256Y430964D01*
X303227Y430827D01*
X303228Y430807D01*
X303224Y430787D01*
X303234Y430649D01*
X303240Y430510D01*
X303246Y430490D01*
X303247Y430470D01*
X303292Y430338D01*
X303332Y430205D01*
X303342Y430188D01*
X303348Y430169D01*
X303424Y430052D01*
X303496Y429933D01*
X303510Y429919D01*
X303521Y429902D01*
X303624Y429808D01*
X303723Y429710D01*
X303746Y429694D01*
X303755Y429686D01*
X303773Y429676D01*
X303857Y429621D01*
X304381Y429318D01*
X310954Y422745D01*
X315603Y414694D01*
X318009Y405714D01*
X318009Y396418D01*
X315603Y387438D01*
X314313Y385205D01*
X314262Y385082D01*
X314205Y384963D01*
X314200Y384936D01*
X314190Y384911D01*
X314170Y384780D01*
X314146Y384650D01*
X314147Y384624D01*
X314143Y384597D01*
X314157Y384465D01*
X314165Y384333D01*
X314174Y384307D01*
X314177Y384281D01*
X314223Y384156D01*
X314263Y384031D01*
X314278Y384008D01*
X314287Y383982D01*
X314363Y383874D01*
X314434Y383762D01*
X314453Y383743D01*
X314469Y383721D01*
X314569Y383635D01*
X314665Y383544D01*
X314689Y383531D01*
X314709Y383513D01*
X314828Y383454D01*
X314944Y383390D01*
X314970Y383384D01*
X314994Y383372D01*
X315124Y383344D01*
X315252Y383311D01*
X315290Y383309D01*
X315305Y383305D01*
X315327Y383306D01*
X315412Y383301D01*
X352100Y383301D01*
X352231Y383317D01*
G37*
G36*
X688343Y380867D02*
X688343Y380867D01*
X688448Y380870D01*
X688500Y380885D01*
X688554Y380892D01*
X688652Y380930D01*
X688754Y380959D01*
X688800Y380986D01*
X688850Y381006D01*
X688936Y381067D01*
X689028Y381120D01*
X689092Y381177D01*
X689110Y381190D01*
X689120Y381201D01*
X689149Y381227D01*
X698438Y390516D01*
X698511Y390611D01*
X698590Y390700D01*
X698608Y390736D01*
X698633Y390768D01*
X698681Y390877D01*
X698735Y390983D01*
X698743Y391022D01*
X698760Y391060D01*
X698778Y391177D01*
X698804Y391293D01*
X698803Y391334D01*
X698809Y391374D01*
X698798Y391492D01*
X698795Y391611D01*
X698783Y391650D01*
X698780Y391690D01*
X698739Y391803D01*
X698706Y391917D01*
X698686Y391951D01*
X698672Y391990D01*
X698605Y392088D01*
X698545Y392191D01*
X698505Y392236D01*
X698493Y392253D01*
X698478Y392266D01*
X698438Y392311D01*
X693295Y397454D01*
X693295Y397455D01*
X658059Y432691D01*
X658058Y432691D01*
X656594Y434156D01*
X656499Y434229D01*
X656410Y434308D01*
X656374Y434326D01*
X656342Y434351D01*
X656233Y434398D01*
X656127Y434452D01*
X656088Y434461D01*
X656051Y434477D01*
X655933Y434496D01*
X655817Y434522D01*
X655776Y434521D01*
X655736Y434527D01*
X655618Y434516D01*
X655499Y434512D01*
X655460Y434501D01*
X655420Y434497D01*
X655308Y434457D01*
X655193Y434424D01*
X655159Y434404D01*
X655121Y434390D01*
X655022Y434323D01*
X654919Y434262D01*
X654874Y434223D01*
X654857Y434211D01*
X654844Y434196D01*
X654799Y434156D01*
X649894Y429252D01*
X641061Y424152D01*
X631210Y421512D01*
X621010Y421512D01*
X611159Y424152D01*
X602326Y429252D01*
X595114Y436464D01*
X590014Y445297D01*
X587374Y455148D01*
X587374Y465348D01*
X590014Y475199D01*
X593565Y481351D01*
X593614Y481467D01*
X593669Y481580D01*
X593676Y481613D01*
X593689Y481644D01*
X593707Y481768D01*
X593732Y481891D01*
X593730Y481925D01*
X593735Y481958D01*
X593722Y482083D01*
X593716Y482209D01*
X593706Y482241D01*
X593702Y482275D01*
X593658Y482392D01*
X593621Y482513D01*
X593603Y482541D01*
X593591Y482573D01*
X593520Y482676D01*
X593453Y482783D01*
X593429Y482806D01*
X593410Y482834D01*
X593315Y482916D01*
X593224Y483003D01*
X593195Y483020D01*
X593169Y483042D01*
X593057Y483098D01*
X592947Y483160D01*
X592901Y483175D01*
X592885Y483184D01*
X592863Y483188D01*
X592795Y483211D01*
X591226Y483631D01*
X583523Y488079D01*
X577233Y494369D01*
X572785Y502072D01*
X570483Y510664D01*
X570483Y519430D01*
X570468Y519548D01*
X570461Y519667D01*
X570448Y519705D01*
X570443Y519746D01*
X570400Y519856D01*
X570363Y519969D01*
X570341Y520004D01*
X570326Y520041D01*
X570257Y520137D01*
X570193Y520238D01*
X570163Y520266D01*
X570140Y520299D01*
X570048Y520375D01*
X569961Y520456D01*
X569926Y520476D01*
X569895Y520501D01*
X569787Y520552D01*
X569683Y520610D01*
X569643Y520620D01*
X569607Y520637D01*
X569490Y520659D01*
X569375Y520689D01*
X569315Y520693D01*
X569295Y520697D01*
X569274Y520695D01*
X569214Y520699D01*
X547821Y520699D01*
X547684Y520682D01*
X547545Y520669D01*
X547526Y520662D01*
X547506Y520659D01*
X547377Y520608D01*
X547246Y520561D01*
X547229Y520550D01*
X547210Y520542D01*
X547098Y520461D01*
X546982Y520383D01*
X546969Y520367D01*
X546953Y520356D01*
X546864Y520248D01*
X546772Y520144D01*
X546763Y520126D01*
X546750Y520111D01*
X546691Y519985D01*
X546627Y519861D01*
X546623Y519841D01*
X546614Y519823D01*
X546588Y519687D01*
X546558Y519551D01*
X546558Y519530D01*
X546555Y519511D01*
X546563Y519372D01*
X546567Y519233D01*
X546573Y519213D01*
X546574Y519193D01*
X546617Y519061D01*
X546656Y518927D01*
X546666Y518910D01*
X546672Y518891D01*
X546747Y518773D01*
X546817Y518653D01*
X546836Y518632D01*
X546842Y518622D01*
X546857Y518608D01*
X546924Y518533D01*
X566681Y498776D01*
X570694Y491825D01*
X572771Y484073D01*
X572771Y387350D01*
X572786Y387232D01*
X572793Y387113D01*
X572806Y387075D01*
X572811Y387034D01*
X572854Y386924D01*
X572891Y386811D01*
X572913Y386776D01*
X572928Y386739D01*
X572997Y386643D01*
X573061Y386542D01*
X573091Y386514D01*
X573114Y386481D01*
X573206Y386405D01*
X573293Y386324D01*
X573328Y386304D01*
X573359Y386279D01*
X573467Y386228D01*
X573571Y386170D01*
X573611Y386160D01*
X573647Y386143D01*
X573764Y386121D01*
X573879Y386091D01*
X573939Y386087D01*
X573959Y386083D01*
X573980Y386085D01*
X574040Y386081D01*
X575243Y386081D01*
X575342Y386093D01*
X575441Y386096D01*
X575499Y386113D01*
X575559Y386121D01*
X575651Y386157D01*
X575746Y386185D01*
X575798Y386215D01*
X575855Y386238D01*
X575935Y386296D01*
X576020Y386346D01*
X576096Y386412D01*
X576112Y386424D01*
X576120Y386434D01*
X576141Y386452D01*
X588723Y399035D01*
X612143Y399035D01*
X612248Y399048D01*
X612354Y399052D01*
X612405Y399068D01*
X612459Y399075D01*
X612557Y399113D01*
X612658Y399144D01*
X612705Y399172D01*
X612755Y399192D01*
X612840Y399254D01*
X612931Y399308D01*
X612968Y399347D01*
X613012Y399378D01*
X613079Y399460D01*
X613153Y399535D01*
X613201Y399607D01*
X613215Y399623D01*
X613221Y399637D01*
X613243Y399669D01*
X616196Y404784D01*
X623408Y411996D01*
X632241Y417096D01*
X642092Y419736D01*
X652292Y419736D01*
X662143Y417096D01*
X670976Y411996D01*
X678188Y404784D01*
X683288Y395951D01*
X685928Y386100D01*
X685928Y382270D01*
X685943Y382152D01*
X685950Y382033D01*
X685963Y381995D01*
X685968Y381954D01*
X686011Y381844D01*
X686048Y381731D01*
X686070Y381696D01*
X686085Y381659D01*
X686154Y381563D01*
X686218Y381462D01*
X686248Y381434D01*
X686271Y381401D01*
X686363Y381325D01*
X686450Y381244D01*
X686485Y381224D01*
X686516Y381199D01*
X686624Y381148D01*
X686728Y381090D01*
X686768Y381080D01*
X686804Y381063D01*
X686921Y381041D01*
X687036Y381011D01*
X687096Y381007D01*
X687116Y381003D01*
X687137Y381005D01*
X687197Y381001D01*
X687540Y381001D01*
X687923Y380898D01*
X688027Y380884D01*
X688130Y380861D01*
X688184Y380862D01*
X688238Y380855D01*
X688343Y380867D01*
G37*
G36*
X262064Y441484D02*
X262064Y441484D01*
X262203Y441497D01*
X262222Y441504D01*
X262242Y441507D01*
X262371Y441558D01*
X262502Y441605D01*
X262519Y441616D01*
X262538Y441624D01*
X262650Y441705D01*
X262765Y441783D01*
X262779Y441799D01*
X262795Y441810D01*
X262884Y441918D01*
X262976Y442022D01*
X262985Y442040D01*
X262998Y442055D01*
X263057Y442181D01*
X263120Y442305D01*
X263125Y442325D01*
X263133Y442343D01*
X263159Y442479D01*
X263190Y442615D01*
X263189Y442636D01*
X263193Y442655D01*
X263185Y442794D01*
X263180Y442933D01*
X263175Y442953D01*
X263173Y442973D01*
X263131Y443105D01*
X263092Y443239D01*
X263082Y443256D01*
X263075Y443275D01*
X263001Y443393D01*
X262930Y443513D01*
X262912Y443534D01*
X262905Y443544D01*
X262890Y443558D01*
X262824Y443633D01*
X261358Y445100D01*
X256258Y453933D01*
X253618Y463784D01*
X253618Y463988D01*
X253606Y464086D01*
X253603Y464185D01*
X253586Y464243D01*
X253578Y464303D01*
X253542Y464395D01*
X253514Y464490D01*
X253484Y464543D01*
X253461Y464599D01*
X253403Y464679D01*
X253353Y464764D01*
X253287Y464840D01*
X253275Y464856D01*
X253265Y464864D01*
X253247Y464885D01*
X237682Y480450D01*
X237604Y480510D01*
X237532Y480578D01*
X237479Y480607D01*
X237431Y480644D01*
X237340Y480684D01*
X237253Y480732D01*
X237195Y480747D01*
X237139Y480771D01*
X237041Y480786D01*
X236945Y480811D01*
X236845Y480817D01*
X236825Y480821D01*
X236813Y480819D01*
X236785Y480821D01*
X163089Y480821D01*
X162958Y480805D01*
X162825Y480794D01*
X162800Y480785D01*
X162773Y480781D01*
X162650Y480733D01*
X162525Y480689D01*
X162502Y480674D01*
X162477Y480664D01*
X162371Y480587D01*
X162260Y480513D01*
X162242Y480493D01*
X162220Y480478D01*
X162136Y480376D01*
X162047Y480277D01*
X162034Y480253D01*
X162017Y480233D01*
X161961Y480113D01*
X161899Y479996D01*
X161893Y479969D01*
X161882Y479945D01*
X161857Y479815D01*
X161826Y479686D01*
X161827Y479659D01*
X161822Y479633D01*
X161830Y479501D01*
X161833Y479368D01*
X161840Y479342D01*
X161842Y479315D01*
X161882Y479189D01*
X161918Y479062D01*
X161935Y479027D01*
X161940Y479013D01*
X161951Y478994D01*
X161989Y478917D01*
X162295Y478388D01*
X164691Y469448D01*
X164691Y460192D01*
X162295Y451252D01*
X157745Y443371D01*
X157693Y443248D01*
X157637Y443129D01*
X157632Y443102D01*
X157621Y443077D01*
X157602Y442946D01*
X157577Y442816D01*
X157579Y442790D01*
X157575Y442763D01*
X157589Y442631D01*
X157597Y442499D01*
X157605Y442473D01*
X157608Y442447D01*
X157654Y442322D01*
X157695Y442197D01*
X157709Y442174D01*
X157719Y442148D01*
X157794Y442040D01*
X157865Y441928D01*
X157885Y441909D01*
X157900Y441887D01*
X158000Y441801D01*
X158097Y441710D01*
X158120Y441697D01*
X158141Y441679D01*
X158260Y441620D01*
X158375Y441556D01*
X158401Y441550D01*
X158426Y441538D01*
X158555Y441510D01*
X158683Y441477D01*
X158721Y441475D01*
X158737Y441471D01*
X158759Y441472D01*
X158844Y441467D01*
X261926Y441467D01*
X262064Y441484D01*
G37*
G36*
X752041Y235536D02*
X752041Y235536D01*
X752159Y235540D01*
X752198Y235551D01*
X752239Y235555D01*
X752351Y235595D01*
X752465Y235628D01*
X752500Y235649D01*
X752538Y235662D01*
X752636Y235729D01*
X752739Y235790D01*
X752784Y235829D01*
X752801Y235841D01*
X752814Y235856D01*
X752860Y235896D01*
X778138Y261174D01*
X778198Y261252D01*
X778266Y261324D01*
X778295Y261377D01*
X778332Y261425D01*
X778372Y261516D01*
X778420Y261603D01*
X778435Y261661D01*
X778459Y261717D01*
X778474Y261815D01*
X778499Y261911D01*
X778505Y262011D01*
X778509Y262031D01*
X778507Y262043D01*
X778509Y262071D01*
X778509Y323399D01*
X778492Y323536D01*
X778479Y323675D01*
X778472Y323694D01*
X778469Y323714D01*
X778418Y323843D01*
X778371Y323974D01*
X778360Y323991D01*
X778352Y324010D01*
X778271Y324122D01*
X778193Y324238D01*
X778177Y324251D01*
X778166Y324267D01*
X778058Y324356D01*
X777954Y324448D01*
X777936Y324457D01*
X777921Y324470D01*
X777795Y324529D01*
X777671Y324593D01*
X777651Y324597D01*
X777633Y324606D01*
X777497Y324632D01*
X777361Y324662D01*
X777340Y324662D01*
X777321Y324665D01*
X777182Y324657D01*
X777043Y324653D01*
X777023Y324647D01*
X777003Y324646D01*
X776871Y324603D01*
X776737Y324564D01*
X776720Y324554D01*
X776701Y324548D01*
X776583Y324473D01*
X776463Y324403D01*
X776442Y324384D01*
X776432Y324378D01*
X776418Y324363D01*
X776343Y324296D01*
X726819Y274773D01*
X721026Y268979D01*
X715575Y265832D01*
X715496Y265772D01*
X715412Y265720D01*
X715370Y265677D01*
X715321Y265640D01*
X715260Y265562D01*
X715191Y265491D01*
X715161Y265438D01*
X715124Y265391D01*
X715083Y265300D01*
X715035Y265214D01*
X715003Y265119D01*
X714994Y265100D01*
X714992Y265088D01*
X714983Y265062D01*
X713557Y259739D01*
X709277Y252325D01*
X706492Y249541D01*
X706432Y249462D01*
X706364Y249390D01*
X706335Y249337D01*
X706298Y249289D01*
X706258Y249198D01*
X706210Y249112D01*
X706195Y249053D01*
X706171Y248997D01*
X706156Y248899D01*
X706131Y248804D01*
X706125Y248704D01*
X706121Y248683D01*
X706123Y248671D01*
X706121Y248643D01*
X706121Y245342D01*
X706137Y245211D01*
X706148Y245079D01*
X706157Y245054D01*
X706161Y245027D01*
X706209Y244904D01*
X706253Y244779D01*
X706268Y244756D01*
X706278Y244731D01*
X706355Y244624D01*
X706429Y244514D01*
X706449Y244496D01*
X706464Y244474D01*
X706567Y244389D01*
X706665Y244301D01*
X706689Y244288D01*
X706709Y244271D01*
X706829Y244215D01*
X706946Y244153D01*
X706973Y244147D01*
X706997Y244135D01*
X707127Y244111D01*
X707256Y244080D01*
X707283Y244081D01*
X707309Y244076D01*
X707441Y244084D01*
X707574Y244086D01*
X707600Y244094D01*
X707627Y244095D01*
X707753Y244136D01*
X707880Y244172D01*
X707915Y244189D01*
X707929Y244193D01*
X707948Y244205D01*
X708025Y244243D01*
X708695Y244630D01*
X718546Y247270D01*
X728746Y247270D01*
X738597Y244630D01*
X747430Y239530D01*
X751065Y235896D01*
X751159Y235823D01*
X751248Y235744D01*
X751284Y235726D01*
X751316Y235701D01*
X751425Y235654D01*
X751531Y235600D01*
X751571Y235591D01*
X751608Y235575D01*
X751726Y235556D01*
X751842Y235530D01*
X751882Y235531D01*
X751922Y235525D01*
X752041Y235536D01*
G37*
G36*
X688926Y608032D02*
X688926Y608032D01*
X689045Y608035D01*
X689084Y608047D01*
X689124Y608050D01*
X689237Y608091D01*
X689351Y608124D01*
X689386Y608144D01*
X689424Y608158D01*
X689522Y608225D01*
X689625Y608285D01*
X689670Y608325D01*
X689687Y608337D01*
X689700Y608352D01*
X689746Y608392D01*
X746261Y664907D01*
X746321Y664985D01*
X746389Y665057D01*
X746418Y665110D01*
X746455Y665158D01*
X746495Y665249D01*
X746543Y665336D01*
X746558Y665394D01*
X746582Y665450D01*
X746597Y665548D01*
X746622Y665644D01*
X746628Y665744D01*
X746632Y665764D01*
X746630Y665776D01*
X746632Y665804D01*
X746632Y682682D01*
X746615Y682819D01*
X746602Y682958D01*
X746595Y682977D01*
X746592Y682997D01*
X746541Y683126D01*
X746494Y683257D01*
X746483Y683274D01*
X746475Y683293D01*
X746394Y683405D01*
X746316Y683521D01*
X746300Y683534D01*
X746289Y683550D01*
X746181Y683639D01*
X746077Y683731D01*
X746059Y683740D01*
X746044Y683753D01*
X745918Y683812D01*
X745794Y683876D01*
X745774Y683880D01*
X745756Y683889D01*
X745620Y683915D01*
X745484Y683945D01*
X745463Y683945D01*
X745444Y683948D01*
X745305Y683940D01*
X745166Y683936D01*
X745146Y683930D01*
X745126Y683929D01*
X744994Y683886D01*
X744860Y683847D01*
X744843Y683837D01*
X744824Y683831D01*
X744706Y683756D01*
X744586Y683686D01*
X744565Y683667D01*
X744555Y683661D01*
X744541Y683646D01*
X744466Y683579D01*
X729916Y669029D01*
X722965Y665016D01*
X715213Y662939D01*
X636270Y662939D01*
X636152Y662924D01*
X636033Y662917D01*
X635995Y662904D01*
X635954Y662899D01*
X635844Y662856D01*
X635731Y662819D01*
X635696Y662797D01*
X635659Y662782D01*
X635563Y662713D01*
X635462Y662649D01*
X635434Y662619D01*
X635401Y662596D01*
X635325Y662504D01*
X635244Y662417D01*
X635224Y662382D01*
X635199Y662351D01*
X635148Y662243D01*
X635090Y662139D01*
X635080Y662099D01*
X635063Y662063D01*
X635041Y661946D01*
X635011Y661831D01*
X635007Y661771D01*
X635003Y661751D01*
X635005Y661730D01*
X635001Y661670D01*
X635001Y657987D01*
X635016Y657869D01*
X635023Y657750D01*
X635036Y657712D01*
X635041Y657671D01*
X635084Y657561D01*
X635121Y657448D01*
X635143Y657413D01*
X635158Y657376D01*
X635227Y657280D01*
X635291Y657179D01*
X635321Y657151D01*
X635344Y657118D01*
X635436Y657042D01*
X635523Y656961D01*
X635558Y656941D01*
X635589Y656916D01*
X635697Y656865D01*
X635801Y656807D01*
X635841Y656797D01*
X635877Y656780D01*
X635994Y656758D01*
X636109Y656728D01*
X636169Y656724D01*
X636189Y656720D01*
X636210Y656722D01*
X636270Y656718D01*
X640354Y656718D01*
X650205Y654078D01*
X659038Y648978D01*
X666250Y641766D01*
X671350Y632933D01*
X673990Y623082D01*
X673990Y622878D01*
X674002Y622780D01*
X674005Y622681D01*
X674022Y622623D01*
X674030Y622563D01*
X674066Y622471D01*
X674094Y622376D01*
X674124Y622323D01*
X674147Y622267D01*
X674205Y622187D01*
X674255Y622102D01*
X674321Y622026D01*
X674333Y622010D01*
X674343Y622002D01*
X674361Y621981D01*
X687951Y608392D01*
X688045Y608319D01*
X688134Y608240D01*
X688170Y608222D01*
X688202Y608197D01*
X688311Y608149D01*
X688417Y608095D01*
X688456Y608087D01*
X688494Y608070D01*
X688611Y608052D01*
X688727Y608026D01*
X688768Y608027D01*
X688808Y608021D01*
X688926Y608032D01*
G37*
G36*
X227803Y270526D02*
X227803Y270526D01*
X227928Y270536D01*
X227960Y270546D01*
X227994Y270551D01*
X228111Y270597D01*
X228230Y270637D01*
X228258Y270655D01*
X228289Y270668D01*
X228391Y270742D01*
X228497Y270810D01*
X228519Y270835D01*
X228547Y270854D01*
X228627Y270951D01*
X228712Y271044D01*
X228728Y271073D01*
X228749Y271099D01*
X228803Y271213D01*
X228863Y271324D01*
X228871Y271357D01*
X228885Y271387D01*
X228909Y271511D01*
X228939Y271633D01*
X228938Y271666D01*
X228945Y271699D01*
X228937Y271825D01*
X228936Y271951D01*
X228926Y271999D01*
X228925Y272017D01*
X228918Y272037D01*
X228904Y272108D01*
X227583Y277038D01*
X227583Y286334D01*
X229989Y295314D01*
X233039Y300595D01*
X233090Y300718D01*
X233146Y300837D01*
X233151Y300864D01*
X233162Y300889D01*
X233181Y301020D01*
X233206Y301150D01*
X233204Y301176D01*
X233208Y301203D01*
X233195Y301335D01*
X233186Y301467D01*
X233178Y301493D01*
X233175Y301519D01*
X233129Y301644D01*
X233088Y301769D01*
X233074Y301792D01*
X233065Y301818D01*
X232989Y301926D01*
X232918Y302038D01*
X232898Y302057D01*
X232883Y302079D01*
X232783Y302165D01*
X232687Y302256D01*
X232663Y302269D01*
X232643Y302287D01*
X232524Y302346D01*
X232408Y302410D01*
X232382Y302416D01*
X232358Y302428D01*
X232228Y302456D01*
X232100Y302489D01*
X232062Y302491D01*
X232047Y302495D01*
X232025Y302494D01*
X231939Y302499D01*
X172962Y302499D01*
X172864Y302487D01*
X172765Y302484D01*
X172707Y302467D01*
X172647Y302459D01*
X172555Y302423D01*
X172460Y302395D01*
X172407Y302365D01*
X172351Y302342D01*
X172271Y302284D01*
X172186Y302234D01*
X172110Y302168D01*
X172094Y302156D01*
X172086Y302146D01*
X172065Y302128D01*
X161889Y291952D01*
X161816Y291858D01*
X161738Y291769D01*
X161719Y291733D01*
X161694Y291701D01*
X161647Y291591D01*
X161593Y291485D01*
X161584Y291446D01*
X161568Y291409D01*
X161549Y291291D01*
X161523Y291175D01*
X161524Y291135D01*
X161518Y291095D01*
X161529Y290976D01*
X161533Y290857D01*
X161544Y290818D01*
X161548Y290778D01*
X161588Y290666D01*
X161621Y290552D01*
X161642Y290517D01*
X161656Y290479D01*
X161722Y290380D01*
X161783Y290278D01*
X161823Y290233D01*
X161834Y290216D01*
X161849Y290202D01*
X161889Y290157D01*
X181164Y270882D01*
X181242Y270822D01*
X181314Y270754D01*
X181367Y270725D01*
X181415Y270688D01*
X181506Y270648D01*
X181593Y270600D01*
X181651Y270585D01*
X181707Y270561D01*
X181805Y270546D01*
X181901Y270521D01*
X182001Y270515D01*
X182021Y270511D01*
X182033Y270513D01*
X182061Y270511D01*
X227678Y270511D01*
X227803Y270526D01*
G37*
G36*
X997790Y411554D02*
X997790Y411554D01*
X997883Y411555D01*
X997997Y411578D01*
X998014Y411580D01*
X998022Y411583D01*
X998040Y411587D01*
X1001642Y412552D01*
X1001764Y412602D01*
X1001889Y412646D01*
X1001911Y412662D01*
X1001936Y412672D01*
X1002042Y412751D01*
X1002152Y412825D01*
X1002170Y412845D01*
X1002191Y412861D01*
X1002275Y412964D01*
X1002362Y413063D01*
X1002375Y413088D01*
X1002392Y413108D01*
X1002447Y413229D01*
X1002507Y413347D01*
X1002513Y413373D01*
X1002524Y413398D01*
X1002548Y413528D01*
X1002577Y413657D01*
X1002576Y413684D01*
X1002581Y413711D01*
X1002571Y413842D01*
X1002567Y413975D01*
X1002559Y414001D01*
X1002557Y414028D01*
X1002515Y414153D01*
X1002479Y414280D01*
X1002465Y414304D01*
X1002456Y414329D01*
X1002384Y414441D01*
X1002317Y414554D01*
X1002292Y414583D01*
X1002283Y414596D01*
X1002267Y414611D01*
X1002211Y414675D01*
X991815Y425071D01*
X988262Y428624D01*
X988184Y428684D01*
X988112Y428752D01*
X988059Y428781D01*
X988011Y428818D01*
X987920Y428858D01*
X987833Y428906D01*
X987775Y428921D01*
X987719Y428945D01*
X987621Y428960D01*
X987525Y428985D01*
X987425Y428991D01*
X987405Y428995D01*
X987393Y428993D01*
X987365Y428995D01*
X980813Y428995D01*
X972641Y431185D01*
X972549Y431198D01*
X972459Y431220D01*
X972392Y431219D01*
X972325Y431228D01*
X972234Y431218D01*
X972141Y431217D01*
X972027Y431194D01*
X972010Y431192D01*
X972002Y431189D01*
X971984Y431185D01*
X963811Y428995D01*
X955413Y428995D01*
X948246Y430916D01*
X948141Y430930D01*
X948038Y430953D01*
X947984Y430952D01*
X947931Y430959D01*
X947826Y430947D01*
X947720Y430944D01*
X947668Y430929D01*
X947615Y430923D01*
X947516Y430885D01*
X947414Y430855D01*
X947368Y430828D01*
X947318Y430809D01*
X947232Y430748D01*
X947141Y430694D01*
X947076Y430637D01*
X947058Y430625D01*
X947048Y430613D01*
X947020Y430587D01*
X932376Y415943D01*
X932290Y415834D01*
X932202Y415727D01*
X932193Y415708D01*
X932181Y415692D01*
X932125Y415564D01*
X932066Y415439D01*
X932063Y415419D01*
X932054Y415400D01*
X932033Y415262D01*
X932007Y415126D01*
X932008Y415106D01*
X932005Y415086D01*
X932018Y414947D01*
X932026Y414809D01*
X932033Y414790D01*
X932034Y414770D01*
X932082Y414638D01*
X932124Y414507D01*
X932135Y414489D01*
X932142Y414470D01*
X932220Y414355D01*
X932294Y414238D01*
X932309Y414224D01*
X932321Y414207D01*
X932425Y414115D01*
X932526Y414020D01*
X932544Y414010D01*
X932559Y413997D01*
X932683Y413933D01*
X932805Y413866D01*
X932824Y413861D01*
X932842Y413852D01*
X932978Y413822D01*
X933113Y413787D01*
X933141Y413785D01*
X933153Y413782D01*
X933173Y413783D01*
X933273Y413777D01*
X938411Y413777D01*
X946583Y411587D01*
X946675Y411574D01*
X946765Y411552D01*
X946832Y411553D01*
X946899Y411544D01*
X946990Y411554D01*
X947083Y411555D01*
X947197Y411578D01*
X947214Y411580D01*
X947222Y411583D01*
X947240Y411587D01*
X955413Y413777D01*
X963811Y413777D01*
X971983Y411587D01*
X972075Y411574D01*
X972165Y411552D01*
X972232Y411553D01*
X972299Y411544D01*
X972390Y411554D01*
X972483Y411555D01*
X972597Y411578D01*
X972614Y411580D01*
X972622Y411583D01*
X972640Y411587D01*
X980813Y413777D01*
X989211Y413777D01*
X997383Y411587D01*
X997475Y411574D01*
X997565Y411552D01*
X997632Y411553D01*
X997699Y411544D01*
X997790Y411554D01*
G37*
G36*
X317728Y723918D02*
X317728Y723918D01*
X317866Y723931D01*
X317885Y723938D01*
X317905Y723941D01*
X318035Y723992D01*
X318165Y724039D01*
X318182Y724050D01*
X318201Y724058D01*
X318313Y724139D01*
X318429Y724217D01*
X318442Y724233D01*
X318458Y724244D01*
X318547Y724351D01*
X318639Y724456D01*
X318648Y724474D01*
X318661Y724489D01*
X318720Y724615D01*
X318784Y724739D01*
X318788Y724759D01*
X318797Y724777D01*
X318823Y724913D01*
X318853Y725049D01*
X318853Y725070D01*
X318856Y725089D01*
X318848Y725228D01*
X318844Y725367D01*
X318838Y725387D01*
X318837Y725407D01*
X318794Y725539D01*
X318755Y725673D01*
X318745Y725690D01*
X318739Y725709D01*
X318664Y725827D01*
X318594Y725947D01*
X318575Y725968D01*
X318569Y725978D01*
X318554Y725992D01*
X318487Y726068D01*
X318204Y726351D01*
X313555Y734402D01*
X311149Y743382D01*
X311149Y750570D01*
X311134Y750688D01*
X311127Y750807D01*
X311114Y750845D01*
X311109Y750886D01*
X311066Y750996D01*
X311029Y751109D01*
X311007Y751144D01*
X310992Y751181D01*
X310923Y751277D01*
X310859Y751378D01*
X310829Y751406D01*
X310806Y751439D01*
X310714Y751515D01*
X310627Y751596D01*
X310592Y751616D01*
X310561Y751641D01*
X310453Y751692D01*
X310349Y751750D01*
X310309Y751760D01*
X310273Y751777D01*
X310156Y751799D01*
X310041Y751829D01*
X309981Y751833D01*
X309961Y751837D01*
X309940Y751835D01*
X309880Y751839D01*
X270961Y751839D01*
X270863Y751827D01*
X270764Y751824D01*
X270706Y751807D01*
X270646Y751799D01*
X270554Y751763D01*
X270459Y751735D01*
X270406Y751705D01*
X270350Y751682D01*
X270270Y751624D01*
X270185Y751574D01*
X270109Y751508D01*
X270093Y751496D01*
X270085Y751486D01*
X270064Y751468D01*
X262444Y743847D01*
X262358Y743738D01*
X262270Y743631D01*
X262261Y743612D01*
X262249Y743596D01*
X262193Y743468D01*
X262134Y743343D01*
X262131Y743323D01*
X262122Y743304D01*
X262101Y743166D01*
X262075Y743030D01*
X262076Y743010D01*
X262073Y742990D01*
X262086Y742851D01*
X262094Y742713D01*
X262101Y742694D01*
X262102Y742674D01*
X262150Y742542D01*
X262192Y742411D01*
X262203Y742393D01*
X262210Y742374D01*
X262288Y742259D01*
X262362Y742142D01*
X262377Y742128D01*
X262389Y742111D01*
X262493Y742019D01*
X262594Y741924D01*
X262612Y741914D01*
X262627Y741901D01*
X262751Y741837D01*
X262873Y741770D01*
X262892Y741765D01*
X262910Y741756D01*
X263046Y741726D01*
X263181Y741691D01*
X263209Y741689D01*
X263221Y741686D01*
X263241Y741687D01*
X263341Y741681D01*
X267877Y741681D01*
X267963Y741691D01*
X268048Y741692D01*
X268182Y741719D01*
X268193Y741721D01*
X268197Y741722D01*
X268206Y741724D01*
X270888Y742443D01*
X279784Y742443D01*
X288376Y740141D01*
X296079Y735693D01*
X302369Y729403D01*
X304848Y725110D01*
X304899Y725041D01*
X304943Y724968D01*
X305034Y724865D01*
X305040Y724856D01*
X305043Y724854D01*
X305049Y724847D01*
X305624Y724272D01*
X305702Y724212D01*
X305774Y724144D01*
X305827Y724115D01*
X305875Y724078D01*
X305966Y724038D01*
X306053Y723990D01*
X306111Y723975D01*
X306167Y723951D01*
X306265Y723936D01*
X306361Y723911D01*
X306461Y723905D01*
X306481Y723901D01*
X306493Y723903D01*
X306521Y723901D01*
X317590Y723901D01*
X317728Y723918D01*
G37*
G36*
X465008Y715023D02*
X465008Y715023D01*
X465107Y715026D01*
X465165Y715043D01*
X465225Y715051D01*
X465317Y715087D01*
X465412Y715115D01*
X465465Y715145D01*
X465521Y715168D01*
X465601Y715226D01*
X465686Y715276D01*
X465762Y715342D01*
X465778Y715354D01*
X465786Y715364D01*
X465807Y715382D01*
X467017Y716592D01*
X475068Y721241D01*
X480418Y722674D01*
X480559Y722732D01*
X480700Y722788D01*
X480706Y722792D01*
X480712Y722794D01*
X480834Y722885D01*
X480958Y722974D01*
X480962Y722980D01*
X480967Y722984D01*
X481063Y723102D01*
X481160Y723219D01*
X481163Y723226D01*
X481168Y723231D01*
X481231Y723369D01*
X481296Y723507D01*
X481297Y723514D01*
X481300Y723520D01*
X481327Y723670D01*
X481356Y723820D01*
X481355Y723826D01*
X481357Y723833D01*
X481345Y723986D01*
X481336Y724137D01*
X481334Y724143D01*
X481333Y724150D01*
X481285Y724295D01*
X481238Y724439D01*
X481234Y724445D01*
X481232Y724452D01*
X481149Y724579D01*
X481068Y724708D01*
X481063Y724713D01*
X481059Y724718D01*
X480946Y724822D01*
X480836Y724926D01*
X480830Y724929D01*
X480825Y724934D01*
X480690Y725007D01*
X480558Y725080D01*
X480551Y725081D01*
X480545Y725084D01*
X480397Y725121D01*
X480250Y725159D01*
X480241Y725160D01*
X480236Y725161D01*
X480226Y725161D01*
X480089Y725169D01*
X395195Y725169D01*
X395045Y725150D01*
X394892Y725133D01*
X394886Y725130D01*
X394879Y725129D01*
X394738Y725074D01*
X394595Y725019D01*
X394590Y725015D01*
X394584Y725012D01*
X394460Y724923D01*
X394336Y724835D01*
X394332Y724830D01*
X394326Y724826D01*
X394229Y724708D01*
X394131Y724592D01*
X394128Y724586D01*
X394124Y724581D01*
X394059Y724443D01*
X393992Y724306D01*
X393991Y724299D01*
X393988Y724293D01*
X393959Y724144D01*
X393929Y723994D01*
X393929Y723987D01*
X393928Y723981D01*
X393938Y723829D01*
X393946Y723676D01*
X393948Y723670D01*
X393948Y723663D01*
X393995Y723519D01*
X394040Y723373D01*
X394044Y723367D01*
X394046Y723361D01*
X394128Y723231D01*
X394208Y723102D01*
X394212Y723098D01*
X394216Y723092D01*
X394328Y722987D01*
X394437Y722882D01*
X394443Y722879D01*
X394448Y722874D01*
X394581Y722801D01*
X394714Y722725D01*
X394722Y722723D01*
X394726Y722720D01*
X394736Y722718D01*
X394866Y722674D01*
X400216Y721241D01*
X408267Y716592D01*
X409477Y715382D01*
X409555Y715322D01*
X409627Y715254D01*
X409680Y715225D01*
X409728Y715188D01*
X409819Y715148D01*
X409906Y715100D01*
X409964Y715085D01*
X410020Y715061D01*
X410118Y715046D01*
X410214Y715021D01*
X410314Y715015D01*
X410334Y715011D01*
X410346Y715013D01*
X410374Y715011D01*
X464910Y715011D01*
X465008Y715023D01*
G37*
G36*
X910891Y585378D02*
X910891Y585378D01*
X911003Y585381D01*
X911048Y585395D01*
X911095Y585399D01*
X911200Y585439D01*
X911308Y585470D01*
X911349Y585494D01*
X911393Y585510D01*
X911486Y585574D01*
X911582Y585631D01*
X911637Y585679D01*
X911654Y585692D01*
X911666Y585705D01*
X911703Y585738D01*
X915000Y589034D01*
X923833Y594134D01*
X933684Y596774D01*
X940270Y596774D01*
X940394Y596789D01*
X940520Y596799D01*
X940552Y596809D01*
X940585Y596814D01*
X940702Y596860D01*
X940821Y596900D01*
X940849Y596918D01*
X940881Y596931D01*
X940983Y597005D01*
X941088Y597073D01*
X941111Y597098D01*
X941138Y597117D01*
X941218Y597214D01*
X941303Y597307D01*
X941319Y597336D01*
X941341Y597362D01*
X941394Y597476D01*
X941454Y597587D01*
X941462Y597620D01*
X941476Y597650D01*
X941500Y597774D01*
X941530Y597896D01*
X941530Y597929D01*
X941536Y597962D01*
X941528Y598088D01*
X941527Y598214D01*
X941518Y598262D01*
X941516Y598280D01*
X941510Y598300D01*
X941496Y598371D01*
X940942Y600436D01*
X940942Y610636D01*
X943582Y620487D01*
X943796Y620858D01*
X943839Y620961D01*
X943890Y621061D01*
X943901Y621107D01*
X943919Y621151D01*
X943935Y621262D01*
X943960Y621372D01*
X943959Y621419D01*
X943966Y621465D01*
X943954Y621577D01*
X943950Y621689D01*
X943937Y621735D01*
X943932Y621782D01*
X943893Y621887D01*
X943862Y621995D01*
X943838Y622036D01*
X943822Y622080D01*
X943758Y622172D01*
X943700Y622269D01*
X943653Y622323D01*
X943640Y622341D01*
X943626Y622353D01*
X943594Y622390D01*
X943238Y622746D01*
X943143Y622819D01*
X943054Y622898D01*
X943018Y622916D01*
X942986Y622941D01*
X942877Y622989D01*
X942771Y623043D01*
X942732Y623051D01*
X942694Y623068D01*
X942577Y623086D01*
X942461Y623112D01*
X942420Y623111D01*
X942380Y623117D01*
X942262Y623106D01*
X942143Y623103D01*
X942104Y623091D01*
X942064Y623088D01*
X941951Y623047D01*
X941837Y623014D01*
X941803Y622994D01*
X941764Y622980D01*
X941666Y622913D01*
X941563Y622853D01*
X941518Y622813D01*
X941501Y622801D01*
X941488Y622786D01*
X941443Y622746D01*
X907576Y588879D01*
X907499Y588780D01*
X907416Y588685D01*
X907401Y588655D01*
X907381Y588628D01*
X907331Y588513D01*
X907275Y588400D01*
X907268Y588367D01*
X907254Y588336D01*
X907235Y588212D01*
X907208Y588089D01*
X907210Y588055D01*
X907205Y588022D01*
X907216Y587897D01*
X907221Y587771D01*
X907231Y587739D01*
X907234Y587706D01*
X907277Y587587D01*
X907313Y587467D01*
X907331Y587438D01*
X907342Y587406D01*
X907412Y587302D01*
X907478Y587195D01*
X907502Y587171D01*
X907521Y587143D01*
X907615Y587060D01*
X907704Y586972D01*
X907745Y586945D01*
X907759Y586933D01*
X907778Y586923D01*
X907839Y586883D01*
X910171Y585536D01*
X910275Y585492D01*
X910375Y585441D01*
X910421Y585431D01*
X910464Y585413D01*
X910575Y585396D01*
X910685Y585372D01*
X910732Y585373D01*
X910779Y585366D01*
X910891Y585378D01*
G37*
G36*
X323968Y270526D02*
X323968Y270526D01*
X324087Y270533D01*
X324125Y270546D01*
X324166Y270551D01*
X324276Y270594D01*
X324389Y270631D01*
X324424Y270653D01*
X324461Y270668D01*
X324557Y270737D01*
X324658Y270801D01*
X324686Y270831D01*
X324719Y270854D01*
X324795Y270946D01*
X324876Y271033D01*
X324896Y271068D01*
X324921Y271099D01*
X324972Y271207D01*
X325030Y271311D01*
X325040Y271351D01*
X325057Y271387D01*
X325079Y271504D01*
X325109Y271619D01*
X325113Y271679D01*
X325117Y271699D01*
X325115Y271720D01*
X325119Y271780D01*
X325119Y288493D01*
X327196Y296245D01*
X329708Y300595D01*
X329760Y300718D01*
X329816Y300837D01*
X329821Y300864D01*
X329831Y300889D01*
X329851Y301020D01*
X329876Y301150D01*
X329874Y301176D01*
X329878Y301203D01*
X329864Y301335D01*
X329856Y301467D01*
X329848Y301493D01*
X329845Y301519D01*
X329799Y301644D01*
X329758Y301769D01*
X329743Y301792D01*
X329734Y301818D01*
X329658Y301926D01*
X329588Y302038D01*
X329568Y302057D01*
X329553Y302079D01*
X329452Y302165D01*
X329356Y302256D01*
X329332Y302269D01*
X329312Y302287D01*
X329193Y302346D01*
X329078Y302410D01*
X329051Y302416D01*
X329027Y302428D01*
X328897Y302456D01*
X328770Y302489D01*
X328731Y302491D01*
X328716Y302495D01*
X328694Y302494D01*
X328609Y302499D01*
X313653Y302499D01*
X313521Y302483D01*
X313389Y302472D01*
X313364Y302463D01*
X313337Y302459D01*
X313214Y302411D01*
X313089Y302367D01*
X313066Y302352D01*
X313041Y302342D01*
X312934Y302265D01*
X312824Y302191D01*
X312806Y302171D01*
X312784Y302156D01*
X312699Y302053D01*
X312611Y301955D01*
X312598Y301931D01*
X312581Y301911D01*
X312525Y301791D01*
X312463Y301674D01*
X312457Y301647D01*
X312446Y301623D01*
X312421Y301493D01*
X312390Y301364D01*
X312391Y301337D01*
X312386Y301311D01*
X312394Y301179D01*
X312397Y301046D01*
X312404Y301020D01*
X312406Y300993D01*
X312446Y300867D01*
X312482Y300740D01*
X312499Y300705D01*
X312504Y300691D01*
X312515Y300672D01*
X312553Y300595D01*
X315603Y295314D01*
X318009Y286334D01*
X318009Y277038D01*
X316688Y272108D01*
X316671Y271984D01*
X316647Y271860D01*
X316649Y271827D01*
X316645Y271793D01*
X316659Y271668D01*
X316667Y271543D01*
X316677Y271511D01*
X316681Y271477D01*
X316726Y271360D01*
X316765Y271241D01*
X316783Y271212D01*
X316795Y271181D01*
X316868Y271078D01*
X316935Y270972D01*
X316960Y270949D01*
X316979Y270921D01*
X317075Y270840D01*
X317167Y270754D01*
X317196Y270738D01*
X317222Y270716D01*
X317335Y270661D01*
X317445Y270600D01*
X317478Y270592D01*
X317508Y270577D01*
X317632Y270552D01*
X317753Y270521D01*
X317802Y270518D01*
X317820Y270514D01*
X317842Y270515D01*
X317914Y270511D01*
X323850Y270511D01*
X323968Y270526D01*
G37*
G36*
X654322Y506758D02*
X654322Y506758D01*
X654441Y506760D01*
X654480Y506771D01*
X654520Y506775D01*
X654633Y506814D01*
X654747Y506846D01*
X654801Y506872D01*
X654820Y506879D01*
X654837Y506890D01*
X654891Y506917D01*
X662975Y511584D01*
X670889Y513704D01*
X670993Y513747D01*
X671099Y513782D01*
X671139Y513807D01*
X671183Y513825D01*
X671273Y513892D01*
X671368Y513952D01*
X671400Y513986D01*
X671438Y514014D01*
X671509Y514101D01*
X671586Y514183D01*
X671609Y514225D01*
X671639Y514261D01*
X671685Y514363D01*
X671740Y514462D01*
X671751Y514508D01*
X671771Y514550D01*
X671791Y514661D01*
X671819Y514770D01*
X671824Y514842D01*
X671827Y514863D01*
X671826Y514882D01*
X671829Y514930D01*
X671829Y516382D01*
X671814Y516500D01*
X671807Y516619D01*
X671794Y516657D01*
X671789Y516698D01*
X671746Y516808D01*
X671709Y516921D01*
X671687Y516956D01*
X671672Y516993D01*
X671603Y517089D01*
X671539Y517190D01*
X671509Y517218D01*
X671486Y517251D01*
X671394Y517327D01*
X671307Y517408D01*
X671272Y517428D01*
X671241Y517453D01*
X671133Y517504D01*
X671029Y517562D01*
X670989Y517572D01*
X670953Y517589D01*
X670836Y517611D01*
X670721Y517641D01*
X670661Y517645D01*
X670641Y517649D01*
X670620Y517647D01*
X670560Y517651D01*
X652775Y517651D01*
X652114Y518312D01*
X652020Y518385D01*
X651930Y518464D01*
X651894Y518483D01*
X651862Y518507D01*
X651753Y518555D01*
X651647Y518609D01*
X651608Y518618D01*
X651571Y518634D01*
X651453Y518652D01*
X651337Y518678D01*
X651296Y518677D01*
X651256Y518684D01*
X651138Y518672D01*
X651019Y518669D01*
X650980Y518658D01*
X650940Y518654D01*
X650828Y518613D01*
X650713Y518580D01*
X650679Y518560D01*
X650641Y518546D01*
X650542Y518479D01*
X650440Y518419D01*
X650394Y518379D01*
X650377Y518368D01*
X650364Y518352D01*
X650319Y518312D01*
X648143Y516137D01*
X648070Y516042D01*
X647991Y515953D01*
X647973Y515917D01*
X647948Y515885D01*
X647900Y515776D01*
X647846Y515670D01*
X647838Y515631D01*
X647821Y515593D01*
X647803Y515476D01*
X647777Y515360D01*
X647778Y515319D01*
X647772Y515279D01*
X647783Y515161D01*
X647786Y515042D01*
X647798Y515003D01*
X647801Y514963D01*
X647842Y514850D01*
X647875Y514736D01*
X647895Y514702D01*
X647909Y514663D01*
X647976Y514565D01*
X648036Y514462D01*
X648076Y514417D01*
X648088Y514400D01*
X648103Y514387D01*
X648143Y514342D01*
X650501Y511984D01*
X653158Y507382D01*
X653229Y507287D01*
X653295Y507188D01*
X653325Y507161D01*
X653350Y507128D01*
X653443Y507054D01*
X653532Y506975D01*
X653567Y506956D01*
X653599Y506931D01*
X653708Y506882D01*
X653813Y506827D01*
X653853Y506818D01*
X653890Y506801D01*
X654007Y506781D01*
X654123Y506754D01*
X654163Y506755D01*
X654203Y506748D01*
X654322Y506758D01*
G37*
G36*
X424046Y643906D02*
X424046Y643906D01*
X424172Y643916D01*
X424204Y643926D01*
X424237Y643931D01*
X424354Y643977D01*
X424473Y644017D01*
X424501Y644035D01*
X424533Y644048D01*
X424635Y644122D01*
X424740Y644190D01*
X424763Y644215D01*
X424790Y644234D01*
X424870Y644331D01*
X424955Y644424D01*
X424971Y644453D01*
X424993Y644479D01*
X425047Y644593D01*
X425106Y644704D01*
X425114Y644737D01*
X425128Y644767D01*
X425152Y644891D01*
X425182Y645013D01*
X425182Y645046D01*
X425188Y645079D01*
X425180Y645205D01*
X425179Y645331D01*
X425170Y645379D01*
X425169Y645397D01*
X425162Y645417D01*
X425148Y645488D01*
X424560Y647680D01*
X424560Y652780D01*
X424545Y652898D01*
X424538Y653017D01*
X424525Y653055D01*
X424520Y653096D01*
X424477Y653206D01*
X424440Y653319D01*
X424418Y653354D01*
X424403Y653391D01*
X424334Y653487D01*
X424270Y653588D01*
X424240Y653616D01*
X424217Y653649D01*
X424125Y653725D01*
X424038Y653806D01*
X424003Y653826D01*
X423972Y653851D01*
X423864Y653902D01*
X423760Y653960D01*
X423720Y653970D01*
X423684Y653987D01*
X423567Y654009D01*
X423452Y654039D01*
X423392Y654043D01*
X423372Y654047D01*
X423351Y654045D01*
X423291Y654049D01*
X411599Y654049D01*
X411468Y654033D01*
X411336Y654022D01*
X411311Y654013D01*
X411284Y654009D01*
X411161Y653961D01*
X411036Y653917D01*
X411013Y653902D01*
X410988Y653892D01*
X410881Y653815D01*
X410771Y653741D01*
X410753Y653721D01*
X410731Y653706D01*
X410646Y653603D01*
X410558Y653505D01*
X410545Y653481D01*
X410528Y653461D01*
X410472Y653341D01*
X410410Y653224D01*
X410404Y653197D01*
X410392Y653173D01*
X410368Y653043D01*
X410337Y652914D01*
X410338Y652887D01*
X410333Y652861D01*
X410341Y652729D01*
X410343Y652596D01*
X410351Y652570D01*
X410352Y652543D01*
X410393Y652417D01*
X410429Y652290D01*
X410446Y652255D01*
X410450Y652241D01*
X410462Y652222D01*
X410500Y652145D01*
X410674Y651845D01*
X412553Y644831D01*
X412595Y644727D01*
X412630Y644621D01*
X412655Y644581D01*
X412673Y644537D01*
X412740Y644447D01*
X412800Y644352D01*
X412834Y644320D01*
X412863Y644282D01*
X412950Y644211D01*
X413032Y644134D01*
X413073Y644111D01*
X413110Y644081D01*
X413212Y644035D01*
X413310Y643980D01*
X413356Y643969D01*
X413399Y643949D01*
X413509Y643929D01*
X413618Y643901D01*
X413690Y643896D01*
X413712Y643893D01*
X413730Y643894D01*
X413779Y643891D01*
X423922Y643891D01*
X424046Y643906D01*
G37*
G36*
X804028Y723535D02*
X804028Y723535D01*
X804147Y723542D01*
X804185Y723555D01*
X804226Y723560D01*
X804336Y723603D01*
X804449Y723640D01*
X804484Y723662D01*
X804521Y723677D01*
X804617Y723746D01*
X804718Y723810D01*
X804746Y723840D01*
X804779Y723863D01*
X804855Y723955D01*
X804936Y724042D01*
X804956Y724077D01*
X804981Y724108D01*
X805032Y724216D01*
X805090Y724320D01*
X805100Y724360D01*
X805117Y724396D01*
X805139Y724513D01*
X805169Y724628D01*
X805173Y724688D01*
X805177Y724708D01*
X805175Y724729D01*
X805179Y724789D01*
X805179Y727705D01*
X805164Y727830D01*
X805154Y727955D01*
X805144Y727987D01*
X805139Y728021D01*
X805093Y728138D01*
X805053Y728257D01*
X805035Y728285D01*
X805022Y728317D01*
X804948Y728418D01*
X804880Y728524D01*
X804855Y728547D01*
X804836Y728574D01*
X804739Y728654D01*
X804646Y728739D01*
X804617Y728755D01*
X804591Y728777D01*
X804477Y728830D01*
X804366Y728890D01*
X804333Y728898D01*
X804303Y728912D01*
X804179Y728936D01*
X804057Y728966D01*
X804024Y728966D01*
X803991Y728972D01*
X803865Y728964D01*
X803739Y728963D01*
X803691Y728953D01*
X803673Y728952D01*
X803653Y728946D01*
X803582Y728931D01*
X801390Y728344D01*
X789756Y728344D01*
X789658Y728332D01*
X789559Y728329D01*
X789501Y728312D01*
X789441Y728304D01*
X789349Y728268D01*
X789254Y728240D01*
X789201Y728210D01*
X789145Y728187D01*
X789065Y728129D01*
X788980Y728079D01*
X788904Y728013D01*
X788888Y728001D01*
X788880Y727991D01*
X788859Y727973D01*
X786573Y725686D01*
X786487Y725577D01*
X786399Y725470D01*
X786390Y725451D01*
X786378Y725435D01*
X786322Y725307D01*
X786263Y725182D01*
X786260Y725162D01*
X786251Y725143D01*
X786230Y725005D01*
X786204Y724869D01*
X786205Y724849D01*
X786202Y724829D01*
X786215Y724690D01*
X786223Y724552D01*
X786230Y724533D01*
X786231Y724513D01*
X786279Y724381D01*
X786321Y724250D01*
X786332Y724232D01*
X786339Y724213D01*
X786417Y724098D01*
X786491Y723981D01*
X786506Y723967D01*
X786518Y723950D01*
X786622Y723858D01*
X786723Y723763D01*
X786741Y723753D01*
X786756Y723740D01*
X786880Y723676D01*
X787002Y723609D01*
X787021Y723604D01*
X787039Y723595D01*
X787175Y723565D01*
X787310Y723530D01*
X787338Y723528D01*
X787350Y723525D01*
X787370Y723526D01*
X787470Y723520D01*
X803910Y723520D01*
X804028Y723535D01*
G37*
G36*
X325808Y188246D02*
X325808Y188246D01*
X325947Y188259D01*
X325966Y188266D01*
X325986Y188269D01*
X326115Y188320D01*
X326246Y188367D01*
X326263Y188378D01*
X326282Y188386D01*
X326394Y188467D01*
X326510Y188545D01*
X326523Y188561D01*
X326539Y188572D01*
X326628Y188679D01*
X326720Y188784D01*
X326729Y188802D01*
X326742Y188817D01*
X326801Y188943D01*
X326865Y189067D01*
X326869Y189087D01*
X326878Y189105D01*
X326904Y189241D01*
X326934Y189377D01*
X326934Y189398D01*
X326937Y189417D01*
X326929Y189556D01*
X326925Y189695D01*
X326919Y189715D01*
X326918Y189735D01*
X326875Y189867D01*
X326836Y190001D01*
X326826Y190018D01*
X326820Y190037D01*
X326745Y190155D01*
X326675Y190275D01*
X326656Y190296D01*
X326650Y190306D01*
X326635Y190320D01*
X326568Y190395D01*
X318736Y198228D01*
X318631Y198309D01*
X318530Y198394D01*
X318506Y198406D01*
X318485Y198423D01*
X318363Y198475D01*
X318244Y198533D01*
X318218Y198538D01*
X318193Y198549D01*
X318062Y198570D01*
X317932Y198596D01*
X317905Y198595D01*
X317879Y198599D01*
X317747Y198586D01*
X317615Y198580D01*
X317589Y198572D01*
X317562Y198569D01*
X317438Y198524D01*
X317311Y198485D01*
X317288Y198471D01*
X317263Y198462D01*
X317154Y198387D01*
X317041Y198318D01*
X317022Y198298D01*
X317000Y198283D01*
X316912Y198184D01*
X316820Y198088D01*
X316807Y198065D01*
X316789Y198044D01*
X316729Y197927D01*
X316664Y197811D01*
X316652Y197775D01*
X316645Y197761D01*
X316640Y197740D01*
X316612Y197659D01*
X315603Y193890D01*
X313433Y190133D01*
X313382Y190010D01*
X313326Y189891D01*
X313320Y189864D01*
X313310Y189839D01*
X313291Y189708D01*
X313266Y189578D01*
X313267Y189552D01*
X313263Y189525D01*
X313277Y189393D01*
X313285Y189261D01*
X313294Y189235D01*
X313297Y189209D01*
X313343Y189084D01*
X313384Y188959D01*
X313398Y188936D01*
X313407Y188910D01*
X313483Y188802D01*
X313554Y188690D01*
X313573Y188671D01*
X313589Y188649D01*
X313689Y188563D01*
X313785Y188472D01*
X313809Y188459D01*
X313829Y188441D01*
X313948Y188382D01*
X314064Y188318D01*
X314090Y188312D01*
X314114Y188300D01*
X314244Y188272D01*
X314372Y188239D01*
X314410Y188237D01*
X314425Y188233D01*
X314447Y188234D01*
X314532Y188229D01*
X325671Y188229D01*
X325808Y188246D01*
G37*
G36*
X461173Y140274D02*
X461173Y140274D01*
X461319Y140279D01*
X461332Y140283D01*
X461345Y140283D01*
X461485Y140327D01*
X461624Y140367D01*
X461636Y140374D01*
X461649Y140378D01*
X461773Y140455D01*
X461898Y140529D01*
X461912Y140541D01*
X461919Y140545D01*
X461931Y140558D01*
X462019Y140635D01*
X466536Y145153D01*
X466622Y145262D01*
X466710Y145369D01*
X466719Y145388D01*
X466731Y145404D01*
X466787Y145532D01*
X466846Y145657D01*
X466849Y145677D01*
X466858Y145696D01*
X466879Y145834D01*
X466905Y145970D01*
X466904Y145990D01*
X466907Y146010D01*
X466894Y146149D01*
X466886Y146287D01*
X466879Y146306D01*
X466878Y146326D01*
X466830Y146458D01*
X466788Y146589D01*
X466777Y146607D01*
X466770Y146626D01*
X466692Y146741D01*
X466618Y146858D01*
X466603Y146872D01*
X466591Y146889D01*
X466487Y146981D01*
X466386Y147076D01*
X466368Y147086D01*
X466353Y147099D01*
X466229Y147162D01*
X466107Y147230D01*
X466088Y147235D01*
X466070Y147244D01*
X465934Y147274D01*
X465799Y147309D01*
X465771Y147311D01*
X465759Y147314D01*
X465739Y147313D01*
X465639Y147319D01*
X461518Y147319D01*
X461400Y147304D01*
X461281Y147297D01*
X461243Y147284D01*
X461202Y147279D01*
X461092Y147236D01*
X460979Y147199D01*
X460944Y147177D01*
X460907Y147162D01*
X460811Y147093D01*
X460710Y147029D01*
X460682Y146999D01*
X460649Y146976D01*
X460573Y146884D01*
X460492Y146797D01*
X460472Y146762D01*
X460447Y146731D01*
X460396Y146623D01*
X460338Y146519D01*
X460328Y146479D01*
X460311Y146443D01*
X460289Y146326D01*
X460259Y146211D01*
X460255Y146151D01*
X460251Y146131D01*
X460253Y146110D01*
X460249Y146050D01*
X460249Y143180D01*
X459895Y141861D01*
X459876Y141717D01*
X459853Y141573D01*
X459854Y141559D01*
X459852Y141546D01*
X459869Y141402D01*
X459883Y141256D01*
X459887Y141244D01*
X459889Y141230D01*
X459941Y141094D01*
X459990Y140957D01*
X459998Y140946D01*
X460003Y140933D01*
X460087Y140815D01*
X460169Y140694D01*
X460179Y140685D01*
X460187Y140674D01*
X460298Y140580D01*
X460407Y140483D01*
X460419Y140477D01*
X460430Y140469D01*
X460561Y140405D01*
X460690Y140339D01*
X460704Y140336D01*
X460716Y140330D01*
X460859Y140301D01*
X461001Y140269D01*
X461014Y140270D01*
X461028Y140267D01*
X461173Y140274D01*
G37*
D10*
X226314Y813054D03*
X226314Y711454D03*
X359410Y634238D03*
X461010Y634238D03*
X275336Y810260D03*
X275336Y708660D03*
D11*
X127000Y803910D03*
X127000Y753110D03*
X127000Y673100D03*
X127000Y622300D03*
D12*
X346456Y748030D02*
X366268Y748030D01*
X366776Y688340D02*
X386588Y688340D01*
X386588Y807720D02*
X366776Y807720D01*
X488696Y807720D02*
X508508Y807720D01*
X508508Y688340D02*
X488696Y688340D01*
D13*
X795020Y776732D03*
D14*
X795020Y675132D03*
D10*
X605790Y797306D03*
X605790Y695706D03*
D15*
X526288Y590550D02*
X526288Y575310D01*
X551688Y575310D02*
X551688Y590550D01*
X577088Y590550D02*
X577088Y575310D01*
D16*
X666242Y550164D03*
D17*
X666242Y570484D03*
D18*
X356616Y573786D03*
D19*
X356616Y522986D03*
D20*
X731012Y381886D03*
D21*
X756412Y381886D03*
X781812Y381886D03*
X807212Y381886D03*
X832612Y381886D03*
X858012Y381886D03*
X883412Y381886D03*
X908812Y381886D03*
X934212Y381886D03*
X959612Y381886D03*
X985012Y381886D03*
X1010412Y381886D03*
X1035812Y381886D03*
X1061212Y381886D03*
X1061212Y460886D03*
X1035812Y460886D03*
X1010412Y460886D03*
X985012Y460886D03*
X959612Y460886D03*
X934212Y460886D03*
X908812Y460886D03*
X883412Y460886D03*
X858012Y460886D03*
X832612Y460886D03*
X807212Y460886D03*
X781812Y460886D03*
X756412Y460886D03*
X731012Y460886D03*
D10*
X502666Y515112D03*
X604266Y515112D03*
D22*
X984250Y342646D02*
X984250Y331470D01*
X933450Y331470D02*
X933450Y342646D01*
D23*
X979932Y283718D03*
X979932Y258318D03*
X930656Y283718D03*
X930656Y258318D03*
D24*
X984504Y728218D03*
X984504Y702818D03*
X984504Y677418D03*
X984504Y652018D03*
D25*
X960374Y161290D02*
X960374Y147066D01*
X934974Y147066D02*
X934974Y161290D01*
X909574Y161290D02*
X909574Y147066D01*
X884174Y147066D02*
X884174Y161290D01*
X858774Y161290D02*
X858774Y147066D01*
X807974Y147066D02*
X807974Y161290D01*
X833374Y161290D02*
X833374Y147066D01*
X680974Y147066D02*
X680974Y161290D01*
X782574Y161290D02*
X782574Y147066D01*
X757174Y147066D02*
X757174Y161290D01*
X731774Y161290D02*
X731774Y147066D01*
X706374Y147066D02*
X706374Y161290D01*
D11*
X129540Y464820D03*
X129540Y515620D03*
X131826Y369824D03*
X131826Y319024D03*
D12*
X405130Y341376D02*
X424942Y341376D01*
X404622Y401066D02*
X384810Y401066D01*
X384810Y281686D02*
X404622Y281686D01*
X282702Y281686D02*
X262890Y281686D01*
X262890Y401066D02*
X282702Y401066D01*
D26*
X601980Y367030D03*
X601980Y290830D03*
D10*
X472186Y290830D03*
X472186Y392430D03*
D15*
X535178Y306324D02*
X550418Y306324D01*
X550418Y331724D02*
X535178Y331724D01*
X535178Y357124D02*
X550418Y357124D01*
D27*
X285496Y599694D03*
X285496Y675894D03*
D26*
X243586Y675386D03*
X243586Y599186D03*
D11*
X122174Y154940D03*
X122174Y205740D03*
D12*
X405130Y147828D02*
X424942Y147828D01*
X404622Y207518D02*
X384810Y207518D01*
X384810Y88138D02*
X404622Y88138D01*
X282702Y88138D02*
X262890Y88138D01*
X262890Y207518D02*
X282702Y207518D01*
D10*
X471424Y104394D03*
X471424Y205994D03*
D15*
X540512Y122428D02*
X555752Y122428D01*
X555752Y147828D02*
X540512Y147828D01*
X540512Y173228D02*
X555752Y173228D01*
D26*
X604266Y182372D03*
X604266Y106172D03*
D25*
X669036Y272288D02*
X683260Y272288D01*
X683260Y297688D02*
X669036Y297688D01*
X669036Y323088D02*
X683260Y323088D01*
X683260Y348488D02*
X669036Y348488D01*
X966978Y533908D02*
X966978Y548132D01*
X992378Y548132D02*
X992378Y533908D01*
X1017778Y533908D02*
X1017778Y548132D01*
X1043178Y548132D02*
X1043178Y533908D01*
X852678Y535432D02*
X852678Y521208D01*
X827278Y521208D02*
X827278Y535432D01*
X801878Y535432D02*
X801878Y521208D01*
X776478Y521208D02*
X776478Y535432D01*
D28*
X1100074Y299174D03*
X1100074Y249174D03*
X1100074Y199174D03*
D29*
X222250Y808990D02*
X133350Y808990D01*
X222250Y808990D02*
X226314Y813054D01*
X133350Y808990D02*
X127000Y803910D01*
X133350Y675640D02*
X240030Y675640D01*
X243586Y675386D01*
X133350Y675640D02*
X127000Y673100D01*
X284480Y640080D02*
X355600Y640080D01*
X284480Y640080D02*
X248920Y675640D01*
X355600Y640080D02*
X359410Y634238D01*
X248920Y675640D02*
X243586Y675386D01*
X640080Y551180D02*
X666750Y551180D01*
X640080Y551180D02*
X604520Y515620D01*
X604266Y515112D01*
X666750Y551180D02*
X675640Y551180D01*
X791210Y666750D01*
X666750Y551180D02*
X666242Y550164D01*
X791210Y666750D02*
X795020Y675132D01*
X346710Y675640D02*
X284480Y675640D01*
X346710Y675640D02*
X382270Y640080D01*
X382270Y622300D01*
X373380Y613410D02*
X364490Y604520D01*
X373380Y613410D02*
X382270Y622300D01*
X364490Y604520D02*
X346710Y604520D01*
X328930Y586740D01*
X328930Y568960D02*
X328930Y551180D01*
X328930Y568960D02*
X328930Y586740D01*
X328930Y551180D02*
X355600Y524510D01*
X285496Y675894D02*
X284480Y675640D01*
X355600Y524510D02*
X356616Y522986D01*
X551180Y586740D02*
X551180Y595630D01*
X533400Y613410D01*
X507746Y613410D02*
X373380Y613410D01*
X507746Y613410D02*
X533400Y613410D01*
X551180Y586740D02*
X551688Y582930D01*
X373380Y808990D02*
X275590Y808990D01*
X373380Y808990D02*
X376682Y807720D01*
X127000Y622300D02*
X115570Y622300D01*
X80010Y657860D01*
X80010Y702310D01*
X124460Y746760D01*
X127000Y753110D01*
X257810Y808990D02*
X275590Y808990D01*
X257810Y808990D02*
X204470Y755650D01*
X133350Y755650D01*
X275590Y808990D02*
X275336Y810260D01*
X133350Y755650D02*
X127000Y753110D01*
X186690Y568960D02*
X328930Y568960D01*
X186690Y568960D02*
X133350Y622300D01*
X127000Y622300D01*
X604266Y515112D02*
X626110Y493268D01*
X626110Y460248D01*
D30*
X626110Y460248D03*
X508762Y639318D03*
D29*
X507746Y638302D01*
X507746Y613410D01*
X275590Y711200D02*
X231140Y711200D01*
X226314Y711454D01*
X293370Y693420D02*
X373380Y693420D01*
X293370Y693420D02*
X275590Y711200D01*
X373380Y693420D02*
X376682Y688340D01*
X275336Y708660D02*
X275590Y711200D01*
X382270Y684530D02*
X497840Y684530D01*
X498602Y688340D01*
X382270Y684530D02*
X376682Y688340D01*
X461010Y634238D02*
X461772Y635000D01*
X461772Y650494D01*
X463296Y652018D01*
X463296Y652780D01*
D30*
X463296Y652780D03*
X455422Y808482D03*
D29*
X497840Y808482D01*
X498602Y807720D01*
X551180Y791210D02*
X604520Y791210D01*
X551180Y791210D02*
X515620Y755650D01*
X364490Y755650D01*
X604520Y791210D02*
X605790Y797306D01*
X364490Y755650D02*
X356362Y748030D01*
X960120Y657860D02*
X977900Y675640D01*
X960120Y657860D02*
X960120Y648970D01*
X1000252Y608838D02*
X1022350Y586740D01*
X1000252Y608838D02*
X960120Y648970D01*
X1022350Y586740D02*
X1057910Y586740D01*
X1120140Y524510D01*
X1120140Y320040D01*
X1102360Y302260D01*
X984504Y677418D02*
X977900Y675640D01*
X1102360Y302260D02*
X1100074Y299174D01*
X883412Y264668D02*
X883412Y381886D01*
X891032Y257048D02*
X892048Y257048D01*
X895350Y253746D01*
X896366Y253746D01*
D30*
X896366Y253746D03*
X934466Y117094D03*
D29*
X934466Y153670D01*
X934974Y154178D01*
X891032Y257048D02*
X883412Y264668D01*
X706374Y193040D02*
X706374Y154178D01*
X706374Y193040D02*
X724154Y210820D01*
X724154Y209042D01*
X723646Y208534D01*
D30*
X723646Y208534D03*
D29*
X883412Y410086D02*
X934212Y460886D01*
X883412Y410086D02*
X883412Y381886D01*
X883412Y410086D02*
X880748Y412750D01*
D30*
X635254Y617982D03*
D29*
X666242Y586994D01*
X666242Y570484D01*
X653796Y582930D01*
X577088Y582930D01*
X913130Y481968D02*
X934212Y460886D01*
X913130Y481968D02*
X913130Y504190D01*
X886206Y531114D01*
D30*
X886206Y531114D03*
X979678Y605536D03*
D29*
X986790Y612648D02*
X987552Y612648D01*
X883412Y410086D02*
X811654Y410086D01*
X805688Y416052D01*
X717804Y416052D01*
X676656Y457200D02*
X676656Y475234D01*
X677672Y475234D01*
X677926Y475488D01*
D30*
X677926Y475488D03*
D29*
X676656Y457200D02*
X717804Y416052D01*
X979678Y605536D02*
X986790Y612648D01*
X992124Y617982D02*
X979678Y605536D01*
X992124Y617982D02*
X1000252Y617982D01*
X1000252Y608838D01*
X862330Y96520D02*
X862330Y91694D01*
X862330Y96520D02*
X862330Y142240D01*
X862330Y151130D01*
X862330Y91694D02*
X992124Y91694D01*
X992124Y122428D02*
X960374Y154178D01*
X992124Y122428D02*
X992124Y91694D01*
X862330Y151130D02*
X858774Y154178D01*
X986790Y648970D02*
X1057910Y648970D01*
X1084580Y622300D02*
X1137920Y568960D01*
X1084580Y622300D02*
X1057910Y648970D01*
X1137920Y276098D02*
X1137920Y240030D01*
X1137920Y276098D02*
X1137920Y568960D01*
X1137920Y240030D02*
X1102360Y204470D01*
X986790Y648970D02*
X984504Y652018D01*
X1102360Y204470D02*
X1100074Y199174D01*
X1057910Y160020D02*
X960120Y160020D01*
X1057910Y160020D02*
X1093470Y195580D01*
X960120Y160020D02*
X960374Y154178D01*
X1093470Y195580D02*
X1100074Y199174D01*
X542290Y364490D02*
X542290Y480060D01*
X506730Y515620D01*
X542290Y364490D02*
X542798Y357124D01*
X506730Y515620D02*
X502666Y515112D01*
X675640Y257810D02*
X675640Y160020D01*
X675640Y257810D02*
X675640Y266700D01*
X676148Y272288D01*
X586740Y168910D02*
X551180Y168910D01*
X586740Y168910D02*
X595630Y160020D01*
X675640Y160020D01*
X551180Y168910D02*
X548132Y173228D01*
X675640Y160020D02*
X680974Y154178D01*
X124460Y408940D02*
X124460Y462280D01*
X124460Y408940D02*
X97790Y382270D01*
X97790Y311150D01*
X168910Y240030D01*
X320040Y240030D01*
X382270Y177800D01*
X542290Y177800D01*
X129540Y464820D02*
X124460Y462280D01*
X542290Y177800D02*
X548132Y173228D01*
X551180Y355600D02*
X577850Y355600D01*
X675640Y257810D01*
X551180Y355600D02*
X542798Y357124D01*
X858012Y92202D02*
X862330Y96520D01*
X858012Y92202D02*
X734568Y92202D01*
X675640Y151130D01*
X858774Y154178D02*
X862330Y142240D01*
X680974Y154178D02*
X675640Y151130D01*
X906780Y284480D02*
X906780Y382270D01*
X906780Y284480D02*
X930448Y260812D01*
X908812Y381886D02*
X906780Y382270D01*
X930448Y260812D02*
X930656Y258318D01*
X979968Y258282D02*
X980948Y256540D01*
X979968Y258282D02*
X979932Y258318D01*
X980625Y258318D02*
X980948Y256540D01*
X980625Y258318D02*
X930656Y258318D01*
X880110Y497840D02*
X853440Y524510D01*
X880110Y462280D02*
X883412Y460886D01*
X853440Y524510D02*
X852678Y528320D01*
X957072Y541020D02*
X966978Y541020D01*
X939292Y557530D02*
X938784Y558038D01*
D30*
X938784Y558038D03*
D29*
X940562Y557530D02*
X957072Y541020D01*
X940562Y557530D02*
X939292Y557530D01*
D30*
X1122172Y626110D03*
D29*
X1118362Y622300D01*
X1084580Y622300D01*
X880110Y497840D02*
X880110Y462280D01*
D30*
X880110Y497840D03*
D29*
X979932Y258318D02*
X993394Y244856D01*
X1004316Y244856D01*
X1005586Y243586D01*
X1007618Y243586D01*
D30*
X1007618Y243586D03*
X1078992Y273812D03*
D29*
X1081278Y276098D01*
X1137920Y276098D01*
X933450Y337058D02*
X933450Y382270D01*
X934212Y381886D01*
X933450Y337058D02*
X933450Y285496D01*
X930656Y283718D01*
X977900Y288459D02*
X977900Y326475D01*
X984250Y337058D01*
X977900Y288459D02*
X979932Y283718D01*
X960120Y364490D02*
X960120Y382270D01*
X960120Y364490D02*
X977646Y346964D01*
X959612Y381886D02*
X960120Y382270D01*
X977646Y346964D02*
X984250Y337058D01*
X728980Y462280D02*
X728980Y542290D01*
X808990Y622300D01*
X871220Y622300D01*
X977900Y728980D01*
X731012Y460886D02*
X728980Y462280D01*
X977900Y728980D02*
X984504Y728218D01*
X755650Y524510D02*
X755650Y462280D01*
X755650Y524510D02*
X746760Y533400D01*
X817880Y604520D01*
X880110Y604520D01*
X977900Y702310D01*
X755650Y462280D02*
X756412Y460886D01*
X977900Y702310D02*
X984504Y702818D01*
X915670Y168910D02*
X915670Y160020D01*
X915670Y168910D02*
X933450Y186690D01*
X1031240Y186690D01*
X1093470Y248920D01*
X915670Y160020D02*
X909574Y154178D01*
X1093470Y248920D02*
X1100074Y249174D01*
X884174Y154178D02*
X884174Y122174D01*
X891794Y114554D01*
X891794Y117094D01*
D30*
X891794Y117094D03*
X1072134Y421894D03*
D29*
X1040638Y421894D01*
X1039368Y420624D01*
X1010412Y449580D01*
X1010412Y460886D01*
X833374Y154178D02*
X828040Y148844D01*
X828040Y124968D01*
X821944Y118872D01*
X821944Y117602D01*
D30*
X821944Y117602D03*
X994156Y488950D03*
D29*
X994156Y470030D01*
X985012Y460886D01*
X986790Y382270D02*
X986790Y373380D01*
X1009142Y351028D01*
X849630Y209550D02*
X808990Y168910D01*
X808990Y160020D01*
X985012Y381886D02*
X986790Y382270D01*
X808990Y160020D02*
X807974Y154178D01*
X1020826Y209550D02*
X1041654Y230378D01*
X1041654Y279400D01*
X1015746Y279400D01*
X1009142Y286004D02*
X1009142Y351028D01*
X1020826Y209550D02*
X849630Y209550D01*
X1009142Y286004D02*
X1015746Y279400D01*
X862330Y248920D02*
X862330Y382270D01*
X862330Y248920D02*
X782320Y168910D01*
X782320Y160020D01*
X858012Y381886D02*
X862330Y382270D01*
X782320Y160020D02*
X782574Y154178D01*
X835660Y248920D02*
X835660Y382270D01*
X835660Y248920D02*
X755650Y168910D01*
X755650Y160020D01*
X832612Y381886D02*
X835660Y382270D01*
X755650Y160020D02*
X757174Y154178D01*
X808990Y248920D02*
X808990Y382270D01*
X808990Y248920D02*
X728980Y168910D01*
X728980Y160020D01*
X807212Y381886D02*
X808990Y382270D01*
X728980Y160020D02*
X731774Y154178D01*
X858012Y440182D02*
X858012Y460886D01*
X856234Y438404D02*
X855472Y438404D01*
D30*
X855472Y438404D03*
X292354Y468884D03*
D29*
X249936Y511302D01*
X125222Y511302D01*
X123952Y511302D01*
X125222Y511302D02*
X129540Y515620D01*
X856234Y438404D02*
X858012Y440182D01*
D31*
X155702Y342900D02*
X131826Y319024D01*
X155702Y342900D02*
X416560Y342900D01*
X419100Y342900D01*
X416560Y342900D02*
X415036Y341376D01*
X163068Y401066D02*
X131826Y369824D01*
X163068Y401066D02*
X272796Y401066D01*
D29*
X1035812Y381886D02*
X1062606Y355092D01*
X1068832Y355092D01*
X1077976Y345948D01*
X1083310Y345948D01*
D30*
X1083310Y345948D03*
X647192Y381000D03*
D29*
X633222Y367030D01*
X601980Y367030D01*
X595630Y293370D02*
X560070Y293370D01*
X551180Y302260D01*
X595630Y293370D02*
X601980Y290830D01*
X551180Y302260D02*
X542798Y306324D01*
X542290Y328930D02*
X515620Y328930D01*
X480060Y293370D01*
X542290Y328930D02*
X542798Y331724D01*
X480060Y293370D02*
X472186Y290830D01*
X471170Y284480D02*
X400050Y284480D01*
X394716Y281686D01*
X471170Y284480D02*
X472186Y290830D01*
X826770Y453390D02*
X826770Y462280D01*
X826770Y453390D02*
X808990Y435610D01*
X728980Y435610D01*
X702310Y462280D01*
X702310Y542290D01*
X800100Y640080D01*
X808990Y640080D01*
X835660Y666750D01*
X835660Y791210D01*
X808990Y817880D01*
X551180Y817880D01*
X515620Y782320D01*
X257810Y782320D01*
X177800Y702310D01*
X124460Y702310D01*
X97790Y675640D01*
X97790Y666750D01*
X115570Y648970D01*
X195580Y648970D01*
X240030Y604520D01*
X826770Y462280D02*
X832612Y460886D01*
X243586Y599186D02*
X240030Y604520D01*
X248920Y595630D02*
X284480Y595630D01*
X285496Y599694D01*
X248920Y595630D02*
X243586Y599186D01*
X506730Y142240D02*
X542290Y142240D01*
X506730Y142240D02*
X471170Y106680D01*
X542290Y142240D02*
X548132Y147828D01*
X471170Y106680D02*
X471424Y104394D01*
X462280Y88900D02*
X400050Y88900D01*
X462280Y88900D02*
X471170Y97790D01*
X400050Y88900D02*
X394716Y88138D01*
X471170Y97790D02*
X471424Y104394D01*
D31*
X175260Y205740D02*
X122174Y205740D01*
X233172Y147828D02*
X415036Y147828D01*
X233172Y147828D02*
X175260Y205740D01*
X122174Y154940D02*
X188976Y88138D01*
X272796Y88138D01*
D29*
X613410Y693420D02*
X711200Y693420D01*
X791210Y773430D01*
X613410Y693420D02*
X605790Y695706D01*
X791210Y773430D02*
X795020Y776732D01*
X400050Y577850D02*
X364490Y577850D01*
X400050Y577850D02*
X515620Y577850D01*
X524510Y577850D01*
X526288Y582930D01*
X364490Y577850D02*
X356616Y573786D01*
X400050Y204470D02*
X471170Y204470D01*
X471424Y205994D01*
X400050Y204470D02*
X394716Y207518D01*
X400050Y400050D02*
X471170Y400050D01*
X472186Y392430D01*
X400050Y400050D02*
X394716Y401066D01*
X391160Y240030D02*
X391160Y213360D01*
X391160Y240030D02*
X355600Y275590D01*
X355600Y284480D01*
X382270Y311150D01*
X426720Y311150D01*
X471170Y355600D01*
X471170Y391160D01*
X391160Y213360D02*
X394716Y207518D01*
X471170Y391160D02*
X472186Y392430D01*
X400050Y408940D02*
X400050Y577850D01*
X400050Y408940D02*
X394716Y401066D01*
X604520Y568960D02*
X604520Y693420D01*
X604520Y568960D02*
X586740Y551180D01*
X542290Y551180D01*
X515620Y577850D01*
X604520Y693420D02*
X605790Y695706D01*
X1010412Y381886D02*
X1035812Y356486D01*
X1035812Y309118D01*
D30*
X1035812Y309118D03*
X646430Y193294D03*
D29*
X615188Y193294D01*
X604266Y182372D01*
X604520Y106680D02*
X560070Y106680D01*
X551180Y115570D01*
X604266Y106172D02*
X604520Y106680D01*
X551180Y115570D02*
X548132Y122428D01*
X731012Y379984D02*
X731012Y381886D01*
X731012Y379984D02*
X697738Y346710D01*
X684530Y346710D01*
X676148Y348488D01*
X755650Y373380D02*
X755650Y382270D01*
X755650Y373380D02*
X702310Y320040D01*
X684530Y320040D01*
X755650Y382270D02*
X756412Y381886D01*
X684530Y320040D02*
X676148Y323088D01*
X782320Y373380D02*
X782320Y382270D01*
X782320Y373380D02*
X702310Y293370D01*
X684530Y293370D01*
X781812Y381886D02*
X782320Y382270D01*
X684530Y293370D02*
X676148Y297688D01*
X1100328Y384574D02*
X1100328Y482092D01*
X1049020Y533400D01*
X1061212Y381886D02*
X1100328Y384574D01*
X1049020Y533400D02*
X1043178Y541020D01*
X1057910Y488950D02*
X1057910Y462280D01*
X1057910Y488950D02*
X1013460Y533400D01*
X1057910Y462280D02*
X1061212Y460886D01*
X1013460Y533400D02*
X1017778Y541020D01*
X1031240Y488950D02*
X1031240Y462280D01*
X1031240Y488950D02*
X986790Y533400D01*
X1031240Y462280D02*
X1035812Y460886D01*
X986790Y533400D02*
X992378Y541020D01*
X827278Y528320D02*
X820420Y521462D01*
X807212Y497587D02*
X807212Y460886D01*
X820420Y510795D02*
X820420Y521462D01*
X820420Y510795D02*
X807212Y497587D01*
X782320Y497840D02*
X782320Y462280D01*
X782320Y497840D02*
X800100Y515620D01*
X800100Y524510D01*
X782320Y462280D02*
X781812Y460886D01*
X800100Y524510D02*
X801878Y528320D01*
X893318Y560070D02*
X951159Y502229D01*
X893318Y560070D02*
X800100Y560070D01*
X773430Y533400D01*
X959612Y499148D02*
X959612Y460886D01*
X959612Y499148D02*
X951159Y502229D01*
X776478Y528320D02*
X773430Y533400D01*
M02*
