M48
;GenerationSoftware,Autodesk,EAGLE,9.6.2*%
;CreationDate,2021-01-24T17:00:08Z*%
FMAT,2
ICI,OFF
METRIC,TZ,000.000
T7C0.813
T6C0.914
T5C1.000
T4C1.016
T3C1.118
T2C1.300
T1C1.700
%
G90
M71
T1
X49022Y4318
X54102Y4318
X28466Y47008
X24874Y43416
T2
X6149Y59343
X11523Y64717
X15129Y50363
X22299Y53941
T3
X72136Y14732
X61976Y8636
X72136Y8636
X61976Y11684
X72136Y11684
X72136Y5588
X61976Y5588
X61976Y14732
X3774Y56678
X10958Y49494
T4
X55626Y32766
X53086Y32766
X50546Y32766
X64516Y21844
X69596Y21844
X44450Y38862
X49530Y38862
T5
X21082Y70104
X29464Y69342
T6
X42672Y48260
X40132Y48260
X37592Y48260
X45720Y56134
X43180Y56134
X40640Y56134
X38100Y56134
X50292Y48260
X48260Y56134
X47752Y48260
X45212Y48260
X60198Y57912
X60198Y55372
X60198Y52832
X60198Y50292
X60198Y47752
X60198Y45212
T7
X71120Y61468
X71120Y69088
X68580Y69088
X66040Y69088
X63500Y69088
X60960Y69088
X58420Y69088
X55880Y69088
X66040Y61468
X53340Y69088
X50800Y69088
X48260Y69088
X45720Y69088
X43180Y69088
X30226Y62484
X30226Y65024
X22606Y65024
X22606Y62484
X33020Y70104
X33020Y59944
X40640Y69088
X38100Y69088
X38100Y61468
X43180Y61468
X8128Y71374
X6858Y73279
X5588Y71374
X45720Y61468
X48260Y61468
X18034Y65024
X18034Y75184
X50800Y61468
X53340Y61468
X55880Y61468
X58420Y61468
X60960Y61468
X63500Y61468
X40640Y61468
X68580Y61468
X54864Y53086
X52324Y53086
M30