M48
;GenerationSoftware,Autodesk,EAGLE,9.3.0*%
;CreationDate,2019-09-12T07:38:10Z*%
FMAT,2
ICI,OFF
METRIC,TZ,000.000
T16C0.500
T15C0.550
T14C0.610
T13C0.790
T12C0.800
T11C0.813
T10C0.914
T9C1.000
T8C1.016
T7C1.118
T6C1.200
T5C1.300
T4C1.321
T3C1.778
T2C2.007
T1C2.200
%
G90
M71
T1
X131470Y81077
X104800Y81077
X104800Y62027
T2
X79502Y67513
X79502Y77673
T3
X62611Y46025
X50876Y63932
X46330Y65278
X45542Y80848
X89637Y25375
X93447Y11709
X72365Y20853
X63525Y61798
X88621Y53111
X97968Y60554
X67793Y47549
X93878Y55804
X112217Y62611
X88011Y49784
X100762Y24359
X107899Y27381
X89179Y11709
X107213Y42189
X82194Y11760
X99416Y48895
X85610Y43465
X29235Y46888
X108331Y34595
X64719Y38100
X103581Y30912
X64643Y19329
T4
X39472Y8814
X39472Y20752
X41504Y14783
X49860Y68834
X49860Y80772
X37668Y80772
X37668Y68834
X35636Y74803
X27280Y40107
X27280Y28169
X39472Y28169
X39472Y40107
X41504Y34138
X27280Y20752
X27280Y8814
T5
X12700Y67310
X12700Y75311
X12700Y80391
X12954Y51562
X12217Y20574
X13183Y36982
X12217Y15494
X13183Y31902
X12954Y46482
X12700Y62230
T6
X110007Y24917
X110007Y29917
X110007Y19917
T7
X47142Y20599
X60579Y69571
X60579Y79731
X27534Y70866
X27534Y81026
X46101Y63424
X22631Y71145
X22631Y81305
X47219Y39243
X47219Y29083
X35941Y63424
X60427Y51511
X50267Y51511
X47142Y10439
T8
X54280Y30632
X54280Y33172
X55169Y58293
X35662Y52299
X54813Y17323
X54813Y14783
X52629Y58293
X54813Y12243
X35662Y57379
X57709Y58293
X54280Y35712
T9
X13485Y36927
X32807Y77739
X98450Y67742
X20312Y63081
X98450Y65202
X98450Y70282
X98450Y72822
X12119Y20670
X12257Y15341
X12714Y75235
X12861Y67407
X12916Y62131
X12778Y51464
X12862Y46134
X12714Y80413
X13535Y31880
T10
X75717Y15418
X78257Y15418
X96037Y15418
X93497Y15418
X90957Y15418
X70637Y15418
X73177Y15418
X88417Y15418
X80797Y15418
X83337Y15418
X101778Y54102
X85877Y15418
X67615Y29769
X67615Y32309
X67615Y34849
X96698Y54102
X99238Y54102
X67615Y27229
X85268Y52832
X82728Y52832
X80188Y52832
X77648Y52832
X68097Y15418
X104318Y54102
T11
X60198Y36703
X66624Y55016
X66624Y57048
X60198Y29083
X28550Y59969
X60427Y18237
X28550Y67589
X24359Y67539
X24359Y59919
X93066Y25832
X97993Y25832
X60427Y10617
X97993Y28372
X93066Y28372
T12
X85897Y15383
X80818Y15351
X78310Y15334
X75719Y15351
X73061Y15401
X70553Y15351
X68073Y15327
X67665Y27190
X67497Y29766
X67617Y32247
X67665Y34752
X54821Y17257
X54837Y14728
X54879Y12192
X54308Y30580
X54285Y33042
X54252Y35614
X77644Y52850
X80213Y52846
X82715Y52814
X85271Y52821
X96718Y54049
X99215Y54091
X101781Y54112
X104323Y54112
X83332Y15371
X96092Y15351
X93561Y15351
X90981Y15431
X88428Y15395
T13
X80721Y38189
X83261Y38189
X85801Y38189
X88341Y38189
X90881Y38189
X93421Y38189
X95961Y38189
X98501Y38189
X101041Y38189
X103581Y38189
X106121Y38189
X106121Y46089
X103581Y46089
X101041Y46089
X98501Y46089
X95961Y46089
X93421Y46089
X90881Y46089
X88341Y46089
X85801Y46089
X83261Y46089
X80721Y46089
X78181Y46089
X75641Y46089
X73101Y46089
X78181Y38189
X75641Y38189
X73101Y38189
T14
X98425Y33706
X93345Y33706
T15
X98473Y65182
X98490Y67691
X98456Y70216
X98456Y72841
X106087Y38207
X103590Y38202
X101071Y38191
X98494Y38194
X96034Y38231
X93417Y38192
X90892Y38168
X88357Y38152
X85792Y38212
X83234Y38200
X80720Y38215
X78202Y38195
X75646Y38176
X73103Y38186
X73105Y46079
X75625Y46080
X78181Y46089
X80733Y46107
X83249Y46058
X85810Y46114
X88358Y46086
X90916Y46105
X90903Y46137
X93425Y46080
X95921Y46118
X98498Y46090
X101045Y46077
X103592Y46100
X106124Y46078
X60236Y36664
T16
X22775Y81299
X112213Y62632
X79549Y77739
X58028Y58245
X55091Y58185
X52573Y58365
X60546Y51466
X50295Y51346
X47149Y20487
X22625Y71055
X27121Y8645
X39507Y8695
X41755Y14791
X39407Y20787
X39385Y28193
X41783Y34191
X39505Y40189
X27396Y40129
X28619Y67658
X24224Y67658
X24174Y59762
X47199Y10443
X35811Y52317
X35611Y57214
X37459Y68857
X49746Y68907
X50046Y80849
X27470Y81099
X37709Y80699
X32764Y77601
X27620Y70756
X60534Y69506
X79609Y67482
X28419Y59862
M30