G04 EAGLE Gerber RS-274X export*
G75*
%MOMM*%
%FSLAX34Y34*%
%LPD*%
%INSilkscreen Bottom*%
%IPPOS*%
%AMOC8*
5,1,8,0,0,1.08239X$1,22.5*%
G01*
%ADD10C,0.152400*%
%ADD11C,0.127000*%


D10*
X951484Y171958D02*
X950214Y170688D01*
X947674Y168148D01*
X945134Y170688D01*
X943864Y171958D01*
X950214Y132588D02*
X950214Y131318D01*
X970534Y131318D01*
X950214Y132588D02*
X945134Y132588D01*
X945134Y131318D01*
X970534Y171958D02*
X970534Y179578D01*
X970534Y171958D02*
X970534Y138938D01*
X970534Y136398D02*
X970534Y131318D01*
X970534Y136398D02*
X966724Y136398D01*
X954024Y136398D02*
X954024Y138938D01*
X966724Y138938D02*
X966724Y136398D01*
X966724Y141478D02*
X954024Y141478D01*
X954024Y138938D01*
X941324Y138938D02*
X941324Y136398D01*
X941324Y138938D02*
X941324Y141478D01*
X950214Y138938D02*
X954024Y138938D01*
X950214Y138938D02*
X945134Y138938D01*
X941324Y138938D01*
X966724Y138938D02*
X970534Y138938D01*
X966724Y138938D02*
X966724Y141478D01*
X970534Y138938D02*
X970534Y136398D01*
X970534Y179578D02*
X962914Y179578D01*
X962914Y180848D01*
X957834Y180848D02*
X957834Y179578D01*
X957834Y180848D02*
X962914Y180848D01*
X937514Y180848D02*
X937514Y179578D01*
X932434Y179578D02*
X932434Y180848D01*
X945134Y179578D02*
X945134Y178308D01*
X950214Y178308D02*
X950214Y179578D01*
X924814Y132588D02*
X919734Y132588D01*
X919734Y131318D01*
X899414Y131318D01*
X899414Y138938D02*
X899414Y171958D01*
X903224Y138938D02*
X903224Y136398D01*
X903224Y141478D02*
X915924Y141478D01*
X928624Y138938D02*
X928624Y136398D01*
X928624Y138938D02*
X928624Y141478D01*
X915924Y138938D02*
X915924Y136398D01*
X915924Y138938D02*
X915924Y141478D01*
X924814Y138938D02*
X928624Y138938D01*
X924814Y138938D02*
X919734Y138938D01*
X915924Y138938D01*
X903224Y138938D02*
X899414Y138938D01*
X903224Y138938D02*
X903224Y141478D01*
X912114Y179578D02*
X912114Y180848D01*
X907034Y179578D02*
X899414Y179578D01*
X907034Y179578D02*
X907034Y180848D01*
X912114Y180848D01*
X919734Y179578D02*
X919734Y178308D01*
X919734Y179578D02*
X912114Y179578D01*
X919734Y178308D02*
X924814Y178308D01*
X924814Y179578D01*
X932434Y179578D01*
X932434Y180848D02*
X937514Y180848D01*
X937514Y179578D02*
X945134Y179578D01*
X945134Y178308D02*
X950214Y178308D01*
X950214Y179578D02*
X957834Y179578D01*
X951484Y171958D02*
X970534Y171958D01*
X943864Y171958D02*
X924814Y171958D01*
X919734Y171958D01*
X945134Y170688D02*
X945134Y138938D01*
X950214Y138938D02*
X950214Y170688D01*
X924814Y171958D02*
X924814Y138938D01*
X919734Y138938D02*
X919734Y171958D01*
X928624Y141478D02*
X941324Y141478D01*
X941324Y136398D02*
X954024Y136398D01*
X945134Y131318D02*
X924814Y131318D01*
X928624Y136398D02*
X915924Y136398D01*
X924814Y132588D02*
X924814Y131318D01*
X874014Y131318D02*
X874014Y132588D01*
X874014Y131318D02*
X894334Y131318D01*
X874014Y132588D02*
X868934Y132588D01*
X868934Y131318D01*
X894334Y138938D02*
X894334Y171958D01*
X877824Y138938D02*
X877824Y136398D01*
X890524Y136398D02*
X890524Y138938D01*
X890524Y141478D02*
X877824Y141478D01*
X877824Y138938D01*
X865124Y138938D02*
X865124Y136398D01*
X865124Y138938D02*
X865124Y141478D01*
X874014Y138938D02*
X877824Y138938D01*
X874014Y138938D02*
X868934Y138938D01*
X865124Y138938D01*
X890524Y138938D02*
X894334Y138938D01*
X890524Y138938D02*
X890524Y141478D01*
X894334Y179578D02*
X886714Y179578D01*
X886714Y180848D01*
X881634Y180848D02*
X881634Y179578D01*
X881634Y180848D02*
X886714Y180848D01*
X861314Y180848D02*
X861314Y179578D01*
X856234Y179578D02*
X856234Y180848D01*
X868934Y179578D02*
X868934Y178308D01*
X874014Y178308D02*
X874014Y179578D01*
X693674Y168148D02*
X691134Y170688D01*
X689864Y171958D01*
X691134Y132588D02*
X696214Y132588D01*
X691134Y132588D02*
X691134Y131318D01*
X670814Y131318D01*
X670814Y171958D02*
X689864Y171958D01*
X670814Y171958D02*
X670814Y179578D01*
X670814Y136398D02*
X670814Y131318D01*
X670814Y136398D02*
X674624Y136398D01*
X670814Y138938D02*
X670814Y171958D01*
X674624Y138938D02*
X674624Y136398D01*
X674624Y141478D02*
X687324Y141478D01*
X700024Y138938D02*
X700024Y136398D01*
X700024Y138938D02*
X700024Y141478D01*
X687324Y138938D02*
X687324Y136398D01*
X687324Y138938D02*
X687324Y141478D01*
X696214Y138938D02*
X700024Y138938D01*
X696214Y138938D02*
X691134Y138938D01*
X687324Y138938D01*
X674624Y138938D02*
X670814Y138938D01*
X674624Y138938D02*
X674624Y141478D01*
X670814Y138938D02*
X670814Y136398D01*
X683514Y179578D02*
X683514Y180848D01*
X678434Y179578D02*
X670814Y179578D01*
X678434Y179578D02*
X678434Y180848D01*
X683514Y180848D01*
X691134Y179578D02*
X691134Y178308D01*
X691134Y179578D02*
X683514Y179578D01*
X691134Y178308D02*
X696214Y178308D01*
X696214Y179578D01*
X697484Y171958D02*
X696214Y170688D01*
X693674Y168148D01*
X856234Y180848D02*
X861314Y180848D01*
X861314Y179578D02*
X868934Y179578D01*
X868934Y178308D02*
X874014Y178308D01*
X874014Y179578D02*
X881634Y179578D01*
X874014Y171958D02*
X894334Y171958D01*
X868934Y171958D02*
X868934Y138938D01*
X874014Y138938D02*
X874014Y171958D01*
X696214Y170688D02*
X696214Y138938D01*
X691134Y138938D02*
X691134Y170688D01*
X865124Y136398D02*
X877824Y136398D01*
X700024Y136398D02*
X687324Y136398D01*
X696214Y132588D02*
X696214Y131318D01*
X899414Y171958D02*
X919734Y171958D01*
X874014Y171958D02*
X868934Y171958D01*
X899414Y132588D02*
X899414Y131318D01*
X894334Y131318D02*
X894334Y132588D01*
X899414Y132588D01*
X903224Y136398D02*
X890524Y136398D01*
X894334Y138938D02*
X899414Y138938D01*
X899414Y171958D02*
X894334Y171958D01*
X894334Y178308D02*
X899414Y178308D01*
X899414Y179578D01*
X894334Y179578D02*
X894334Y178308D01*
X848614Y132588D02*
X848614Y131318D01*
X868934Y131318D01*
X848614Y132588D02*
X843534Y132588D01*
X843534Y131318D01*
X852424Y136398D02*
X852424Y138938D01*
X852424Y141478D02*
X865124Y141478D01*
X852424Y141478D02*
X852424Y138938D01*
X839724Y138938D02*
X839724Y136398D01*
X839724Y138938D02*
X839724Y141478D01*
X848614Y138938D02*
X852424Y138938D01*
X848614Y138938D02*
X843534Y138938D01*
X839724Y138938D01*
X835914Y179578D02*
X835914Y180848D01*
X830834Y180848D02*
X830834Y179578D01*
X843534Y179578D02*
X843534Y178308D01*
X848614Y178308D02*
X848614Y179578D01*
X835914Y180848D02*
X830834Y180848D01*
X835914Y179578D02*
X843534Y179578D01*
X843534Y178308D02*
X848614Y178308D01*
X848614Y179578D02*
X856234Y179578D01*
X848614Y171958D02*
X868934Y171958D01*
X843534Y171958D02*
X843534Y138938D01*
X848614Y138938D02*
X848614Y171958D01*
X852424Y136398D02*
X839724Y136398D01*
X843534Y171958D02*
X848614Y171958D01*
X823214Y132588D02*
X823214Y131318D01*
X843534Y131318D01*
X823214Y132588D02*
X818134Y132588D01*
X818134Y131318D01*
X827024Y136398D02*
X827024Y138938D01*
X827024Y141478D02*
X839724Y141478D01*
X827024Y141478D02*
X827024Y138938D01*
X814324Y138938D02*
X814324Y136398D01*
X814324Y138938D02*
X814324Y141478D01*
X823214Y138938D02*
X827024Y138938D01*
X823214Y138938D02*
X818134Y138938D01*
X814324Y138938D01*
X810514Y179578D02*
X810514Y180848D01*
X805434Y180848D02*
X805434Y179578D01*
X818134Y179578D02*
X818134Y178308D01*
X823214Y178308D02*
X823214Y179578D01*
X810514Y180848D02*
X805434Y180848D01*
X810514Y179578D02*
X818134Y179578D01*
X818134Y178308D02*
X823214Y178308D01*
X823214Y179578D02*
X830834Y179578D01*
X823214Y171958D02*
X843534Y171958D01*
X818134Y171958D02*
X818134Y138938D01*
X823214Y138938D02*
X823214Y171958D01*
X827024Y136398D02*
X814324Y136398D01*
X818134Y171958D02*
X823214Y171958D01*
X797814Y132588D02*
X797814Y131318D01*
X818134Y131318D01*
X797814Y132588D02*
X792734Y132588D01*
X792734Y131318D01*
X801624Y136398D02*
X801624Y138938D01*
X801624Y141478D02*
X814324Y141478D01*
X801624Y141478D02*
X801624Y138938D01*
X788924Y138938D02*
X788924Y136398D01*
X788924Y138938D02*
X788924Y141478D01*
X797814Y138938D02*
X801624Y138938D01*
X797814Y138938D02*
X792734Y138938D01*
X788924Y138938D01*
X785114Y179578D02*
X785114Y180848D01*
X780034Y180848D02*
X780034Y179578D01*
X792734Y179578D02*
X792734Y178308D01*
X797814Y178308D02*
X797814Y179578D01*
X785114Y180848D02*
X780034Y180848D01*
X785114Y179578D02*
X792734Y179578D01*
X792734Y178308D02*
X797814Y178308D01*
X797814Y179578D02*
X805434Y179578D01*
X797814Y171958D02*
X818134Y171958D01*
X792734Y171958D02*
X792734Y138938D01*
X797814Y138938D02*
X797814Y171958D01*
X801624Y136398D02*
X788924Y136398D01*
X792734Y171958D02*
X797814Y171958D01*
X772414Y132588D02*
X772414Y131318D01*
X792734Y131318D01*
X772414Y132588D02*
X767334Y132588D01*
X767334Y131318D01*
X776224Y136398D02*
X776224Y138938D01*
X776224Y141478D02*
X788924Y141478D01*
X776224Y141478D02*
X776224Y138938D01*
X763524Y138938D02*
X763524Y136398D01*
X763524Y138938D02*
X763524Y141478D01*
X772414Y138938D02*
X776224Y138938D01*
X772414Y138938D02*
X767334Y138938D01*
X763524Y138938D01*
X759714Y179578D02*
X759714Y180848D01*
X754634Y180848D02*
X754634Y179578D01*
X767334Y179578D02*
X767334Y178308D01*
X772414Y178308D02*
X772414Y179578D01*
X759714Y180848D02*
X754634Y180848D01*
X759714Y179578D02*
X767334Y179578D01*
X767334Y178308D02*
X772414Y178308D01*
X772414Y179578D02*
X780034Y179578D01*
X772414Y171958D02*
X792734Y171958D01*
X767334Y171958D02*
X767334Y138938D01*
X772414Y138938D02*
X772414Y171958D01*
X776224Y136398D02*
X763524Y136398D01*
X767334Y171958D02*
X772414Y171958D01*
X747014Y132588D02*
X747014Y131318D01*
X767334Y131318D01*
X747014Y132588D02*
X741934Y132588D01*
X741934Y131318D01*
X750824Y136398D02*
X750824Y138938D01*
X750824Y141478D02*
X763524Y141478D01*
X750824Y141478D02*
X750824Y138938D01*
X738124Y138938D02*
X738124Y136398D01*
X738124Y138938D02*
X738124Y141478D01*
X747014Y138938D02*
X750824Y138938D01*
X747014Y138938D02*
X741934Y138938D01*
X738124Y138938D01*
X734314Y179578D02*
X734314Y180848D01*
X729234Y180848D02*
X729234Y179578D01*
X741934Y179578D02*
X741934Y178308D01*
X747014Y178308D02*
X747014Y179578D01*
X734314Y180848D02*
X729234Y180848D01*
X734314Y179578D02*
X741934Y179578D01*
X741934Y178308D02*
X747014Y178308D01*
X747014Y179578D02*
X754634Y179578D01*
X747014Y171958D02*
X767334Y171958D01*
X741934Y171958D02*
X741934Y138938D01*
X747014Y138938D02*
X747014Y171958D01*
X750824Y136398D02*
X738124Y136398D01*
X741934Y171958D02*
X747014Y171958D01*
X721614Y132588D02*
X721614Y131318D01*
X741934Y131318D01*
X721614Y132588D02*
X716534Y132588D01*
X716534Y131318D01*
X725424Y136398D02*
X725424Y138938D01*
X725424Y141478D02*
X738124Y141478D01*
X725424Y141478D02*
X725424Y138938D01*
X712724Y138938D02*
X712724Y136398D01*
X712724Y138938D02*
X712724Y141478D01*
X721614Y138938D02*
X725424Y138938D01*
X721614Y138938D02*
X716534Y138938D01*
X712724Y138938D01*
X708914Y179578D02*
X708914Y180848D01*
X703834Y180848D02*
X703834Y179578D01*
X716534Y179578D02*
X716534Y178308D01*
X721614Y178308D02*
X721614Y179578D01*
X708914Y180848D02*
X703834Y180848D01*
X708914Y179578D02*
X716534Y179578D01*
X716534Y178308D02*
X721614Y178308D01*
X721614Y179578D02*
X729234Y179578D01*
X721614Y171958D02*
X741934Y171958D01*
X716534Y171958D02*
X716534Y138938D01*
X721614Y138938D02*
X721614Y171958D01*
X725424Y136398D02*
X712724Y136398D01*
X716534Y171958D02*
X721614Y171958D01*
X703834Y179578D02*
X696214Y179578D01*
X697484Y171958D02*
X716534Y171958D01*
X712724Y141478D02*
X700024Y141478D01*
X696214Y131318D02*
X716534Y131318D01*
D11*
X962646Y164211D02*
X964565Y166610D01*
X955929Y166610D01*
X955929Y164211D02*
X955929Y169009D01*
X966089Y184277D02*
X965989Y184279D01*
X965890Y184285D01*
X965790Y184295D01*
X965692Y184308D01*
X965593Y184326D01*
X965496Y184347D01*
X965400Y184372D01*
X965304Y184401D01*
X965210Y184434D01*
X965117Y184470D01*
X965026Y184510D01*
X964936Y184554D01*
X964848Y184601D01*
X964762Y184651D01*
X964678Y184705D01*
X964596Y184762D01*
X964517Y184822D01*
X964439Y184886D01*
X964365Y184952D01*
X964293Y185021D01*
X964224Y185093D01*
X964158Y185167D01*
X964094Y185245D01*
X964034Y185324D01*
X963977Y185406D01*
X963923Y185490D01*
X963873Y185576D01*
X963826Y185664D01*
X963782Y185754D01*
X963742Y185845D01*
X963706Y185938D01*
X963673Y186032D01*
X963644Y186128D01*
X963619Y186224D01*
X963598Y186321D01*
X963580Y186420D01*
X963567Y186518D01*
X963557Y186618D01*
X963551Y186717D01*
X963549Y186817D01*
X966089Y184277D02*
X966230Y184279D01*
X966371Y184284D01*
X966512Y184294D01*
X966653Y184307D01*
X966793Y184323D01*
X966933Y184344D01*
X967072Y184368D01*
X967211Y184396D01*
X967348Y184427D01*
X967485Y184462D01*
X967621Y184500D01*
X967756Y184542D01*
X967889Y184588D01*
X968022Y184637D01*
X968153Y184690D01*
X968282Y184746D01*
X968411Y184805D01*
X968537Y184868D01*
X968662Y184934D01*
X968785Y185003D01*
X968906Y185076D01*
X969025Y185152D01*
X969143Y185231D01*
X969258Y185312D01*
X969370Y185397D01*
X969481Y185485D01*
X969589Y185576D01*
X969695Y185669D01*
X969798Y185766D01*
X969899Y185865D01*
X969582Y193167D02*
X969580Y193267D01*
X969574Y193366D01*
X969564Y193466D01*
X969551Y193564D01*
X969533Y193663D01*
X969512Y193760D01*
X969487Y193856D01*
X969458Y193952D01*
X969425Y194046D01*
X969389Y194139D01*
X969349Y194230D01*
X969305Y194320D01*
X969258Y194408D01*
X969208Y194494D01*
X969154Y194578D01*
X969097Y194660D01*
X969037Y194739D01*
X968973Y194817D01*
X968907Y194891D01*
X968838Y194963D01*
X968766Y195032D01*
X968692Y195098D01*
X968614Y195162D01*
X968535Y195222D01*
X968453Y195279D01*
X968369Y195333D01*
X968283Y195383D01*
X968195Y195430D01*
X968105Y195474D01*
X968014Y195514D01*
X967921Y195550D01*
X967827Y195583D01*
X967731Y195612D01*
X967635Y195637D01*
X967538Y195658D01*
X967439Y195676D01*
X967341Y195689D01*
X967241Y195699D01*
X967142Y195705D01*
X967042Y195707D01*
X967042Y195708D02*
X966909Y195706D01*
X966776Y195701D01*
X966643Y195691D01*
X966510Y195678D01*
X966378Y195661D01*
X966246Y195641D01*
X966115Y195617D01*
X965985Y195589D01*
X965855Y195558D01*
X965727Y195523D01*
X965599Y195484D01*
X965473Y195442D01*
X965348Y195396D01*
X965224Y195347D01*
X965101Y195295D01*
X964980Y195239D01*
X964861Y195179D01*
X964743Y195117D01*
X964628Y195051D01*
X964514Y194982D01*
X964402Y194909D01*
X964292Y194834D01*
X964184Y194755D01*
X968312Y190944D02*
X968396Y190996D01*
X968479Y191051D01*
X968559Y191110D01*
X968637Y191171D01*
X968712Y191235D01*
X968785Y191303D01*
X968856Y191373D01*
X968923Y191445D01*
X968988Y191520D01*
X969050Y191598D01*
X969109Y191678D01*
X969165Y191760D01*
X969217Y191844D01*
X969266Y191930D01*
X969312Y192018D01*
X969355Y192108D01*
X969394Y192199D01*
X969429Y192292D01*
X969461Y192386D01*
X969489Y192481D01*
X969514Y192577D01*
X969534Y192674D01*
X969552Y192772D01*
X969565Y192870D01*
X969574Y192969D01*
X969580Y193068D01*
X969582Y193167D01*
X964819Y189040D02*
X964735Y188988D01*
X964652Y188933D01*
X964572Y188874D01*
X964494Y188813D01*
X964419Y188749D01*
X964346Y188681D01*
X964275Y188611D01*
X964208Y188539D01*
X964143Y188464D01*
X964081Y188386D01*
X964022Y188306D01*
X963966Y188224D01*
X963914Y188140D01*
X963865Y188054D01*
X963819Y187966D01*
X963776Y187876D01*
X963737Y187785D01*
X963702Y187692D01*
X963670Y187598D01*
X963642Y187503D01*
X963617Y187407D01*
X963597Y187310D01*
X963579Y187212D01*
X963566Y187114D01*
X963557Y187015D01*
X963551Y186916D01*
X963549Y186817D01*
X964819Y189040D02*
X968312Y190945D01*
X958444Y195707D02*
X958444Y184277D01*
X953364Y184277D01*
X948944Y193167D02*
X945769Y195707D01*
X945769Y184277D01*
X948944Y184277D02*
X942594Y184277D01*
M02*
