G04 EAGLE Gerber RS-274X export*
G75*
%MOMM*%
%FSLAX34Y34*%
%LPD*%
%INTop Copper*%
%IPPOS*%
%AMOC8*
5,1,8,0,0,1.08239X$1,22.5*%
G01*
%ADD10C,0.130000*%
%ADD11C,0.152400*%
%ADD12C,1.574800*%
%ADD13C,1.676400*%
%ADD14C,1.950000*%
%ADD15C,1.981200*%
%ADD16C,4.597400*%
%ADD17P,4.976180X8X292.500000*%
%ADD18C,1.524000*%
%ADD19P,1.539592X8X292.500000*%
%ADD20C,1.422400*%
%ADD21C,2.540000*%
%ADD22P,2.749271X8X292.500000*%
%ADD23R,1.298000X1.298000*%
%ADD24C,1.298000*%
%ADD25C,1.117600*%
%ADD26P,1.814519X8X292.500000*%
%ADD27C,1.508000*%
%ADD28C,1.422400*%
%ADD29P,1.429621X8X292.500000*%
%ADD30P,1.429621X8X112.500000*%
%ADD31C,2.184400*%
%ADD32C,2.667000*%
%ADD33C,1.016000*%

G36*
X860006Y22346D02*
X860006Y22346D01*
X860147Y22359D01*
X860164Y22365D01*
X860182Y22367D01*
X860313Y22419D01*
X860446Y22467D01*
X860461Y22477D01*
X860478Y22483D01*
X860592Y22566D01*
X860710Y22645D01*
X860722Y22659D01*
X860736Y22669D01*
X860826Y22778D01*
X860920Y22884D01*
X860928Y22900D01*
X860940Y22914D01*
X861000Y23041D01*
X861065Y23167D01*
X861069Y23185D01*
X861076Y23201D01*
X861103Y23339D01*
X861134Y23477D01*
X861134Y23495D01*
X861137Y23513D01*
X861129Y23654D01*
X861125Y23795D01*
X861120Y23812D01*
X861119Y23830D01*
X861075Y23965D01*
X861036Y24101D01*
X861027Y24116D01*
X861022Y24133D01*
X860946Y24254D01*
X860875Y24375D01*
X860858Y24393D01*
X860852Y24403D01*
X860838Y24416D01*
X860768Y24495D01*
X850330Y34934D01*
X850252Y34994D01*
X850180Y35062D01*
X850127Y35091D01*
X850079Y35128D01*
X849988Y35168D01*
X849901Y35216D01*
X849843Y35231D01*
X849787Y35255D01*
X849689Y35270D01*
X849593Y35295D01*
X849493Y35301D01*
X849473Y35305D01*
X849461Y35303D01*
X849433Y35305D01*
X816661Y35305D01*
X808909Y37382D01*
X801958Y41395D01*
X796283Y47070D01*
X792270Y54021D01*
X790193Y61773D01*
X790193Y94784D01*
X790182Y94876D01*
X790180Y94968D01*
X790166Y95019D01*
X790165Y95032D01*
X790160Y95046D01*
X790153Y95100D01*
X790119Y95186D01*
X790095Y95275D01*
X790070Y95324D01*
X790067Y95334D01*
X790059Y95346D01*
X790043Y95380D01*
X790036Y95396D01*
X790031Y95402D01*
X790023Y95419D01*
X785848Y102651D01*
X783208Y112502D01*
X783208Y113284D01*
X783193Y113402D01*
X783186Y113521D01*
X783173Y113559D01*
X783168Y113600D01*
X783125Y113710D01*
X783088Y113823D01*
X783066Y113858D01*
X783051Y113895D01*
X782982Y113991D01*
X782918Y114092D01*
X782888Y114120D01*
X782865Y114153D01*
X782773Y114229D01*
X782686Y114310D01*
X782651Y114330D01*
X782620Y114355D01*
X782512Y114406D01*
X782408Y114464D01*
X782368Y114474D01*
X782332Y114491D01*
X782215Y114513D01*
X782100Y114543D01*
X782040Y114547D01*
X782020Y114551D01*
X781999Y114549D01*
X781939Y114553D01*
X778294Y114553D01*
X770203Y116721D01*
X770111Y116734D01*
X770021Y116756D01*
X769954Y116755D01*
X769887Y116764D01*
X769796Y116754D01*
X769703Y116753D01*
X769589Y116730D01*
X769572Y116728D01*
X769564Y116725D01*
X769546Y116721D01*
X761454Y114553D01*
X752894Y114553D01*
X744803Y116721D01*
X744711Y116734D01*
X744621Y116756D01*
X744554Y116755D01*
X744487Y116764D01*
X744396Y116754D01*
X744303Y116753D01*
X744189Y116730D01*
X744172Y116728D01*
X744164Y116725D01*
X744146Y116721D01*
X736054Y114553D01*
X727494Y114553D01*
X719403Y116721D01*
X719311Y116734D01*
X719221Y116756D01*
X719154Y116755D01*
X719087Y116764D01*
X718996Y116754D01*
X718903Y116753D01*
X718789Y116730D01*
X718772Y116728D01*
X718764Y116725D01*
X718746Y116721D01*
X710654Y114553D01*
X702094Y114553D01*
X694002Y116721D01*
X693911Y116734D01*
X693821Y116756D01*
X693754Y116755D01*
X693687Y116764D01*
X693596Y116754D01*
X693503Y116753D01*
X693389Y116730D01*
X693371Y116728D01*
X693363Y116725D01*
X693345Y116721D01*
X685254Y114553D01*
X676694Y114553D01*
X668425Y116769D01*
X661011Y121049D01*
X654957Y127103D01*
X650677Y134517D01*
X648461Y142786D01*
X648461Y153289D01*
X648446Y153407D01*
X648439Y153526D01*
X648426Y153564D01*
X648421Y153605D01*
X648378Y153715D01*
X648341Y153828D01*
X648319Y153863D01*
X648304Y153900D01*
X648235Y153996D01*
X648171Y154097D01*
X648141Y154125D01*
X648118Y154158D01*
X648026Y154234D01*
X647939Y154315D01*
X647904Y154335D01*
X647873Y154360D01*
X647765Y154411D01*
X647661Y154469D01*
X647621Y154479D01*
X647585Y154496D01*
X647468Y154518D01*
X647353Y154548D01*
X647293Y154552D01*
X647273Y154556D01*
X647252Y154554D01*
X647192Y154558D01*
X641330Y154558D01*
X631479Y157198D01*
X627805Y159319D01*
X627701Y159363D01*
X627601Y159414D01*
X627555Y159424D01*
X627512Y159442D01*
X627400Y159459D01*
X627291Y159483D01*
X627244Y159482D01*
X627197Y159489D01*
X627085Y159477D01*
X626973Y159474D01*
X626928Y159461D01*
X626881Y159456D01*
X626775Y159416D01*
X626668Y159385D01*
X626627Y159361D01*
X626583Y159345D01*
X626490Y159281D01*
X626394Y159224D01*
X626339Y159176D01*
X626322Y159164D01*
X626310Y159150D01*
X626273Y159117D01*
X617523Y150367D01*
X591009Y150367D01*
X590940Y150437D01*
X590830Y150522D01*
X590723Y150611D01*
X590704Y150620D01*
X590688Y150632D01*
X590561Y150687D01*
X590435Y150746D01*
X590415Y150750D01*
X590396Y150758D01*
X590259Y150780D01*
X590122Y150806D01*
X590102Y150805D01*
X590082Y150808D01*
X589943Y150795D01*
X589805Y150786D01*
X589786Y150780D01*
X589766Y150778D01*
X589634Y150731D01*
X589503Y150688D01*
X589486Y150678D01*
X589466Y150671D01*
X589351Y150593D01*
X589234Y150518D01*
X589220Y150504D01*
X589203Y150492D01*
X589111Y150388D01*
X589016Y150287D01*
X589006Y150269D01*
X588993Y150254D01*
X588929Y150130D01*
X588862Y150008D01*
X588857Y149989D01*
X588848Y149971D01*
X588818Y149834D01*
X588783Y149700D01*
X588781Y149672D01*
X588778Y149660D01*
X588779Y149640D01*
X588773Y149540D01*
X588773Y143481D01*
X587239Y137756D01*
X587219Y137611D01*
X587196Y137467D01*
X587197Y137454D01*
X587196Y137441D01*
X587212Y137296D01*
X587226Y137151D01*
X587230Y137138D01*
X587232Y137125D01*
X587284Y136989D01*
X587333Y136852D01*
X587341Y136840D01*
X587346Y136828D01*
X587430Y136709D01*
X587512Y136588D01*
X587522Y136579D01*
X587530Y136568D01*
X587641Y136474D01*
X587751Y136378D01*
X587763Y136372D01*
X587773Y136363D01*
X587904Y136299D01*
X588034Y136233D01*
X588047Y136230D01*
X588059Y136224D01*
X588202Y136196D01*
X588344Y136164D01*
X588358Y136164D01*
X588371Y136161D01*
X588516Y136169D01*
X588662Y136173D01*
X588675Y136177D01*
X588688Y136178D01*
X588827Y136221D01*
X588967Y136262D01*
X588979Y136269D01*
X588992Y136273D01*
X589117Y136350D01*
X589241Y136423D01*
X589255Y136435D01*
X589262Y136440D01*
X589274Y136452D01*
X589362Y136530D01*
X591009Y138177D01*
X617523Y138177D01*
X636271Y119429D01*
X636271Y92915D01*
X617523Y74167D01*
X591009Y74167D01*
X572370Y92807D01*
X572281Y92876D01*
X572197Y92951D01*
X572156Y92973D01*
X572118Y93002D01*
X572015Y93047D01*
X571916Y93099D01*
X571870Y93109D01*
X571827Y93128D01*
X571715Y93146D01*
X571606Y93172D01*
X571559Y93171D01*
X571512Y93178D01*
X571400Y93167D01*
X571288Y93165D01*
X571243Y93153D01*
X571196Y93148D01*
X571090Y93110D01*
X570982Y93080D01*
X570917Y93048D01*
X570897Y93041D01*
X570881Y93030D01*
X570838Y93009D01*
X568498Y91658D01*
X560099Y89407D01*
X536165Y89407D01*
X527767Y91658D01*
X520237Y96005D01*
X514089Y102153D01*
X509742Y109683D01*
X507491Y118081D01*
X507491Y126775D01*
X509641Y134799D01*
X509654Y134891D01*
X509676Y134981D01*
X509675Y135048D01*
X509685Y135115D01*
X509674Y135206D01*
X509673Y135299D01*
X509650Y135413D01*
X509648Y135430D01*
X509645Y135438D01*
X509641Y135456D01*
X507491Y143481D01*
X507491Y152175D01*
X509641Y160199D01*
X509654Y160291D01*
X509676Y160381D01*
X509675Y160448D01*
X509685Y160515D01*
X509674Y160606D01*
X509673Y160699D01*
X509650Y160813D01*
X509648Y160830D01*
X509645Y160838D01*
X509641Y160856D01*
X507491Y168881D01*
X507491Y177575D01*
X509742Y185973D01*
X514089Y193503D01*
X520237Y199651D01*
X527767Y203998D01*
X536165Y206249D01*
X560099Y206249D01*
X568498Y203998D01*
X575346Y200044D01*
X575450Y200001D01*
X575550Y199950D01*
X575596Y199939D01*
X575640Y199921D01*
X575751Y199905D01*
X575860Y199880D01*
X575907Y199881D01*
X575954Y199874D01*
X576066Y199886D01*
X576178Y199890D01*
X576224Y199903D01*
X576270Y199908D01*
X576376Y199947D01*
X576484Y199978D01*
X576524Y200002D01*
X576569Y200018D01*
X576661Y200083D01*
X576758Y200140D01*
X576812Y200187D01*
X576830Y200200D01*
X576842Y200214D01*
X576878Y200246D01*
X591009Y214377D01*
X613141Y214377D01*
X613246Y214390D01*
X613352Y214394D01*
X613403Y214410D01*
X613457Y214417D01*
X613555Y214455D01*
X613656Y214486D01*
X613702Y214514D01*
X613752Y214534D01*
X613838Y214596D01*
X613928Y214650D01*
X613966Y214689D01*
X614010Y214720D01*
X614077Y214802D01*
X614151Y214877D01*
X614199Y214949D01*
X614213Y214965D01*
X614219Y214980D01*
X614240Y215011D01*
X615434Y217078D01*
X622646Y224290D01*
X631479Y229390D01*
X641330Y232030D01*
X651530Y232030D01*
X661381Y229390D01*
X662074Y228990D01*
X662177Y228947D01*
X662277Y228896D01*
X662323Y228885D01*
X662367Y228867D01*
X662478Y228851D01*
X662588Y228826D01*
X662635Y228827D01*
X662681Y228821D01*
X662793Y228832D01*
X662905Y228836D01*
X662951Y228849D01*
X662998Y228854D01*
X663103Y228893D01*
X663211Y228924D01*
X663252Y228948D01*
X663296Y228964D01*
X663388Y229028D01*
X663485Y229086D01*
X663539Y229134D01*
X663557Y229146D01*
X663569Y229160D01*
X663606Y229192D01*
X672022Y237609D01*
X672108Y237718D01*
X672196Y237825D01*
X672205Y237844D01*
X672217Y237860D01*
X672273Y237988D01*
X672332Y238113D01*
X672335Y238133D01*
X672344Y238152D01*
X672365Y238290D01*
X672391Y238426D01*
X672390Y238446D01*
X672393Y238466D01*
X672380Y238605D01*
X672372Y238743D01*
X672365Y238762D01*
X672364Y238782D01*
X672316Y238914D01*
X672274Y239045D01*
X672263Y239063D01*
X672256Y239082D01*
X672178Y239197D01*
X672104Y239314D01*
X672089Y239328D01*
X672077Y239345D01*
X671973Y239437D01*
X671872Y239532D01*
X671854Y239542D01*
X671839Y239555D01*
X671715Y239619D01*
X671593Y239686D01*
X671574Y239691D01*
X671556Y239700D01*
X671420Y239730D01*
X671285Y239765D01*
X671257Y239767D01*
X671245Y239770D01*
X671225Y239769D01*
X671125Y239775D01*
X664756Y239775D01*
X656487Y241991D01*
X649073Y246271D01*
X643019Y252325D01*
X638739Y259739D01*
X636523Y268008D01*
X636523Y276568D01*
X638691Y284659D01*
X638704Y284751D01*
X638726Y284841D01*
X638725Y284908D01*
X638734Y284975D01*
X638724Y285066D01*
X638723Y285159D01*
X638700Y285273D01*
X638698Y285290D01*
X638695Y285298D01*
X638691Y285316D01*
X636523Y293408D01*
X636523Y301968D01*
X638691Y310059D01*
X638704Y310151D01*
X638726Y310241D01*
X638725Y310308D01*
X638734Y310375D01*
X638724Y310466D01*
X638723Y310559D01*
X638700Y310673D01*
X638698Y310690D01*
X638695Y310698D01*
X638691Y310716D01*
X636523Y318808D01*
X636523Y327368D01*
X638691Y335459D01*
X638704Y335551D01*
X638726Y335641D01*
X638725Y335708D01*
X638734Y335775D01*
X638724Y335866D01*
X638723Y335959D01*
X638700Y336073D01*
X638698Y336090D01*
X638695Y336098D01*
X638691Y336116D01*
X636843Y343014D01*
X636803Y343111D01*
X636772Y343213D01*
X636743Y343258D01*
X636723Y343308D01*
X636660Y343393D01*
X636604Y343483D01*
X636566Y343520D01*
X636533Y343564D01*
X636451Y343630D01*
X636375Y343703D01*
X636328Y343730D01*
X636286Y343764D01*
X636190Y343808D01*
X636098Y343860D01*
X636017Y343887D01*
X635997Y343896D01*
X635982Y343899D01*
X635946Y343911D01*
X632241Y344904D01*
X628567Y347025D01*
X628463Y347069D01*
X628363Y347120D01*
X628317Y347130D01*
X628274Y347148D01*
X628162Y347165D01*
X628053Y347189D01*
X628006Y347188D01*
X627959Y347195D01*
X627847Y347183D01*
X627735Y347180D01*
X627690Y347167D01*
X627643Y347162D01*
X627537Y347122D01*
X627430Y347091D01*
X627389Y347067D01*
X627345Y347051D01*
X627252Y346987D01*
X627156Y346930D01*
X627101Y346882D01*
X627084Y346870D01*
X627072Y346856D01*
X627035Y346823D01*
X615237Y335025D01*
X588723Y335025D01*
X585237Y338512D01*
X585122Y338601D01*
X585009Y338693D01*
X584996Y338698D01*
X584986Y338707D01*
X584852Y338765D01*
X584719Y338825D01*
X584706Y338828D01*
X584694Y338833D01*
X584549Y338856D01*
X584406Y338882D01*
X584393Y338881D01*
X584380Y338883D01*
X584234Y338869D01*
X584089Y338859D01*
X584076Y338854D01*
X584063Y338853D01*
X583925Y338804D01*
X583788Y338757D01*
X583776Y338750D01*
X583764Y338745D01*
X583643Y338663D01*
X583521Y338584D01*
X583512Y338574D01*
X583501Y338567D01*
X583404Y338457D01*
X583305Y338350D01*
X583299Y338339D01*
X583290Y338328D01*
X583224Y338198D01*
X583155Y338070D01*
X583152Y338057D01*
X583145Y338045D01*
X583113Y337902D01*
X583079Y337762D01*
X583079Y337748D01*
X583076Y337735D01*
X583080Y337589D01*
X583082Y337444D01*
X583085Y337426D01*
X583085Y337417D01*
X583090Y337400D01*
X583113Y337286D01*
X583439Y336071D01*
X583439Y327377D01*
X581289Y319352D01*
X581276Y319261D01*
X581254Y319171D01*
X581255Y319104D01*
X581245Y319037D01*
X581256Y318946D01*
X581257Y318853D01*
X581280Y318739D01*
X581282Y318721D01*
X581285Y318714D01*
X581289Y318695D01*
X581416Y318220D01*
X581466Y318098D01*
X581511Y317973D01*
X581526Y317951D01*
X581536Y317926D01*
X581615Y317819D01*
X581689Y317710D01*
X581710Y317692D01*
X581726Y317670D01*
X581829Y317587D01*
X581928Y317499D01*
X581952Y317487D01*
X581973Y317470D01*
X582093Y317415D01*
X582211Y317355D01*
X582237Y317349D01*
X582262Y317338D01*
X582392Y317314D01*
X582521Y317285D01*
X582548Y317286D01*
X582575Y317281D01*
X582707Y317291D01*
X582839Y317295D01*
X582865Y317302D01*
X582892Y317304D01*
X583018Y317346D01*
X583145Y317383D01*
X583168Y317397D01*
X583194Y317405D01*
X583305Y317478D01*
X583419Y317545D01*
X583447Y317570D01*
X583460Y317578D01*
X583475Y317594D01*
X583540Y317651D01*
X588723Y322835D01*
X615237Y322835D01*
X633985Y304087D01*
X633985Y277573D01*
X615237Y258825D01*
X588723Y258825D01*
X569929Y277619D01*
X569887Y277726D01*
X569843Y277852D01*
X569828Y277874D01*
X569818Y277899D01*
X569741Y278006D01*
X569667Y278117D01*
X569647Y278135D01*
X569632Y278157D01*
X569529Y278241D01*
X569431Y278330D01*
X569407Y278342D01*
X569387Y278359D01*
X569267Y278416D01*
X569150Y278477D01*
X569123Y278483D01*
X569099Y278495D01*
X568969Y278520D01*
X568840Y278550D01*
X568813Y278550D01*
X568787Y278555D01*
X568655Y278546D01*
X568522Y278544D01*
X568496Y278537D01*
X568469Y278535D01*
X568343Y278494D01*
X568216Y278459D01*
X568181Y278442D01*
X568167Y278437D01*
X568148Y278425D01*
X568071Y278387D01*
X563164Y275554D01*
X554765Y273303D01*
X530831Y273303D01*
X522433Y275554D01*
X514903Y279901D01*
X508755Y286049D01*
X508323Y286797D01*
X508239Y286908D01*
X508158Y287021D01*
X508143Y287034D01*
X508131Y287050D01*
X508022Y287136D01*
X507916Y287226D01*
X507897Y287235D01*
X507882Y287248D01*
X507755Y287304D01*
X507629Y287365D01*
X507610Y287369D01*
X507591Y287377D01*
X507454Y287400D01*
X507318Y287428D01*
X507297Y287427D01*
X507277Y287430D01*
X507139Y287419D01*
X507000Y287412D01*
X506981Y287406D01*
X506961Y287404D01*
X506830Y287358D01*
X506696Y287317D01*
X506679Y287306D01*
X506660Y287299D01*
X506545Y287223D01*
X506426Y287149D01*
X506412Y287135D01*
X506395Y287124D01*
X506302Y287021D01*
X506206Y286920D01*
X506196Y286902D01*
X506182Y286888D01*
X506118Y286765D01*
X506049Y286643D01*
X506040Y286617D01*
X506035Y286606D01*
X506030Y286586D01*
X505998Y286491D01*
X503667Y277790D01*
X499219Y270087D01*
X492929Y263797D01*
X485226Y259349D01*
X476634Y257047D01*
X467738Y257047D01*
X459146Y259349D01*
X451443Y263797D01*
X445153Y270087D01*
X441845Y275817D01*
X441761Y275928D01*
X441680Y276041D01*
X441665Y276054D01*
X441653Y276070D01*
X441544Y276157D01*
X441437Y276247D01*
X441419Y276255D01*
X441403Y276268D01*
X441276Y276325D01*
X441151Y276385D01*
X441131Y276389D01*
X441113Y276397D01*
X440976Y276421D01*
X440840Y276448D01*
X440819Y276447D01*
X440799Y276451D01*
X440661Y276439D01*
X440522Y276432D01*
X440503Y276426D01*
X440482Y276424D01*
X440351Y276378D01*
X440218Y276337D01*
X440201Y276326D01*
X440182Y276320D01*
X440066Y276243D01*
X439948Y276170D01*
X439934Y276155D01*
X439917Y276144D01*
X439824Y276040D01*
X439728Y275940D01*
X439718Y275923D01*
X439704Y275908D01*
X439640Y275785D01*
X439571Y275663D01*
X439562Y275637D01*
X439556Y275626D01*
X439552Y275606D01*
X439520Y275511D01*
X437523Y268058D01*
X432874Y260007D01*
X426301Y253434D01*
X418250Y248785D01*
X409270Y246379D01*
X380162Y246379D01*
X371182Y248785D01*
X363131Y253434D01*
X356558Y260007D01*
X351909Y268058D01*
X349503Y277038D01*
X349503Y286334D01*
X351909Y295314D01*
X356558Y303365D01*
X363131Y309938D01*
X371182Y314587D01*
X377581Y316301D01*
X377703Y316351D01*
X377828Y316396D01*
X377851Y316411D01*
X377876Y316421D01*
X377982Y316500D01*
X378091Y316575D01*
X378109Y316595D01*
X378131Y316611D01*
X378214Y316714D01*
X378302Y316813D01*
X378314Y316837D01*
X378331Y316858D01*
X378386Y316978D01*
X378446Y317096D01*
X378452Y317123D01*
X378464Y317147D01*
X378487Y317277D01*
X378516Y317407D01*
X378515Y317434D01*
X378520Y317460D01*
X378510Y317592D01*
X378506Y317724D01*
X378499Y317750D01*
X378497Y317777D01*
X378455Y317903D01*
X378418Y318030D01*
X378404Y318053D01*
X378396Y318079D01*
X378324Y318190D01*
X378256Y318304D01*
X378231Y318332D01*
X378223Y318346D01*
X378207Y318361D01*
X378150Y318425D01*
X376878Y319697D01*
X372229Y327748D01*
X369823Y336728D01*
X369823Y346024D01*
X372229Y355004D01*
X376878Y363055D01*
X378150Y364327D01*
X378231Y364432D01*
X378317Y364533D01*
X378328Y364557D01*
X378345Y364579D01*
X378398Y364700D01*
X378455Y364819D01*
X378461Y364846D01*
X378471Y364870D01*
X378492Y365001D01*
X378518Y365131D01*
X378517Y365158D01*
X378521Y365184D01*
X378509Y365317D01*
X378502Y365448D01*
X378494Y365474D01*
X378491Y365501D01*
X378447Y365626D01*
X378407Y365752D01*
X378393Y365775D01*
X378384Y365800D01*
X378309Y365910D01*
X378240Y366022D01*
X378220Y366041D01*
X378205Y366064D01*
X378106Y366151D01*
X378010Y366243D01*
X377987Y366256D01*
X377967Y366274D01*
X377849Y366334D01*
X377734Y366399D01*
X377697Y366412D01*
X377684Y366419D01*
X377662Y366423D01*
X377581Y366451D01*
X371182Y368165D01*
X363131Y372814D01*
X356558Y379387D01*
X351909Y387438D01*
X349503Y396418D01*
X349503Y405714D01*
X351909Y414694D01*
X356558Y422745D01*
X363131Y429318D01*
X371182Y433967D01*
X380162Y436373D01*
X409270Y436373D01*
X418250Y433967D01*
X426301Y429318D01*
X432874Y422745D01*
X437523Y414694D01*
X439427Y407588D01*
X439479Y407460D01*
X439528Y407329D01*
X439539Y407312D01*
X439547Y407294D01*
X439630Y407182D01*
X439709Y407068D01*
X439724Y407055D01*
X439736Y407038D01*
X439844Y406951D01*
X439950Y406860D01*
X439968Y406851D01*
X439983Y406838D01*
X440109Y406780D01*
X440234Y406718D01*
X440254Y406714D01*
X440273Y406706D01*
X440409Y406681D01*
X440545Y406652D01*
X440566Y406653D01*
X440586Y406649D01*
X440724Y406659D01*
X440863Y406665D01*
X440883Y406671D01*
X440903Y406672D01*
X441034Y406716D01*
X441168Y406757D01*
X441185Y406767D01*
X441204Y406773D01*
X441321Y406849D01*
X441440Y406921D01*
X441454Y406935D01*
X441471Y406946D01*
X441566Y407049D01*
X441663Y407148D01*
X441678Y407171D01*
X441687Y407180D01*
X441696Y407198D01*
X441752Y407282D01*
X445153Y413173D01*
X451443Y419463D01*
X459146Y423911D01*
X467738Y426213D01*
X476634Y426213D01*
X485226Y423911D01*
X492929Y419463D01*
X499219Y413173D01*
X503667Y405470D01*
X505969Y396878D01*
X505969Y387982D01*
X503667Y379390D01*
X499219Y371687D01*
X492929Y365397D01*
X485226Y360949D01*
X476634Y358647D01*
X467738Y358647D01*
X459146Y360949D01*
X456144Y362683D01*
X456010Y362739D01*
X455877Y362799D01*
X455863Y362801D01*
X455851Y362806D01*
X455707Y362827D01*
X455563Y362852D01*
X455550Y362851D01*
X455536Y362853D01*
X455391Y362837D01*
X455246Y362825D01*
X455233Y362821D01*
X455220Y362820D01*
X455084Y362769D01*
X454946Y362721D01*
X454934Y362713D01*
X454922Y362709D01*
X454803Y362626D01*
X454681Y362545D01*
X454672Y362535D01*
X454661Y362527D01*
X454566Y362418D01*
X454468Y362309D01*
X454461Y362297D01*
X454453Y362287D01*
X454388Y362156D01*
X454320Y362027D01*
X454317Y362014D01*
X454311Y362002D01*
X454281Y361859D01*
X454247Y361718D01*
X454248Y361704D01*
X454245Y361691D01*
X454251Y361545D01*
X454254Y361400D01*
X454257Y361387D01*
X454258Y361373D01*
X454300Y361233D01*
X454339Y361093D01*
X454347Y361077D01*
X454349Y361069D01*
X454358Y361054D01*
X454410Y360949D01*
X457843Y355004D01*
X460249Y346024D01*
X460249Y336728D01*
X457843Y327748D01*
X454850Y322565D01*
X454794Y322430D01*
X454734Y322298D01*
X454732Y322284D01*
X454727Y322272D01*
X454706Y322128D01*
X454681Y321984D01*
X454682Y321970D01*
X454680Y321957D01*
X454696Y321812D01*
X454708Y321667D01*
X454712Y321654D01*
X454714Y321641D01*
X454764Y321505D01*
X454812Y321367D01*
X454820Y321355D01*
X454824Y321343D01*
X454907Y321224D01*
X454988Y321102D01*
X454998Y321093D01*
X455006Y321082D01*
X455116Y320986D01*
X455224Y320889D01*
X455236Y320882D01*
X455246Y320874D01*
X455377Y320808D01*
X455506Y320741D01*
X455519Y320738D01*
X455531Y320732D01*
X455674Y320701D01*
X455815Y320668D01*
X455829Y320668D01*
X455842Y320666D01*
X455988Y320672D01*
X456133Y320674D01*
X456146Y320678D01*
X456160Y320679D01*
X456300Y320721D01*
X456440Y320760D01*
X456456Y320768D01*
X456464Y320770D01*
X456479Y320779D01*
X456584Y320831D01*
X459146Y322311D01*
X467738Y324613D01*
X476634Y324613D01*
X485226Y322311D01*
X492929Y317863D01*
X499219Y311573D01*
X499859Y310465D01*
X499943Y310354D01*
X500023Y310241D01*
X500039Y310228D01*
X500051Y310211D01*
X500160Y310125D01*
X500266Y310035D01*
X500284Y310026D01*
X500300Y310014D01*
X500428Y309957D01*
X500552Y309897D01*
X500572Y309893D01*
X500591Y309884D01*
X500728Y309861D01*
X500864Y309834D01*
X500884Y309835D01*
X500904Y309831D01*
X501043Y309843D01*
X501182Y309850D01*
X501201Y309856D01*
X501221Y309858D01*
X501352Y309903D01*
X501485Y309945D01*
X501503Y309956D01*
X501522Y309962D01*
X501637Y310039D01*
X501756Y310112D01*
X501770Y310127D01*
X501787Y310138D01*
X501880Y310241D01*
X501976Y310341D01*
X501986Y310359D01*
X502000Y310374D01*
X502064Y310497D01*
X502133Y310618D01*
X502142Y310645D01*
X502147Y310656D01*
X502152Y310676D01*
X502184Y310771D01*
X504307Y318695D01*
X504320Y318787D01*
X504342Y318877D01*
X504341Y318944D01*
X504351Y319011D01*
X504340Y319102D01*
X504339Y319195D01*
X504316Y319309D01*
X504314Y319326D01*
X504311Y319334D01*
X504307Y319352D01*
X502157Y327377D01*
X502157Y336071D01*
X504307Y344095D01*
X504320Y344187D01*
X504342Y344277D01*
X504341Y344344D01*
X504351Y344411D01*
X504340Y344502D01*
X504339Y344595D01*
X504316Y344709D01*
X504314Y344726D01*
X504311Y344734D01*
X504307Y344752D01*
X502157Y352777D01*
X502157Y361471D01*
X504408Y369869D01*
X508755Y377399D01*
X514903Y383547D01*
X522433Y387894D01*
X530831Y390145D01*
X554765Y390145D01*
X563163Y387894D01*
X570693Y383547D01*
X571067Y383173D01*
X571161Y383100D01*
X571250Y383022D01*
X571286Y383003D01*
X571318Y382979D01*
X571427Y382931D01*
X571533Y382877D01*
X571573Y382868D01*
X571610Y382852D01*
X571728Y382833D01*
X571844Y382807D01*
X571884Y382809D01*
X571924Y382802D01*
X572043Y382813D01*
X572162Y382817D01*
X572200Y382828D01*
X572241Y382832D01*
X572353Y382872D01*
X572467Y382905D01*
X572502Y382926D01*
X572540Y382940D01*
X572638Y383006D01*
X572741Y383067D01*
X572786Y383107D01*
X572803Y383118D01*
X572817Y383134D01*
X572862Y383173D01*
X586236Y396547D01*
X586309Y396641D01*
X586387Y396730D01*
X586406Y396766D01*
X586431Y396798D01*
X586478Y396908D01*
X586532Y397014D01*
X586541Y397053D01*
X586557Y397090D01*
X586576Y397208D01*
X586602Y397324D01*
X586600Y397364D01*
X586607Y397404D01*
X586596Y397523D01*
X586592Y397642D01*
X586581Y397681D01*
X586577Y397721D01*
X586537Y397833D01*
X586504Y397947D01*
X586483Y397982D01*
X586469Y398020D01*
X586403Y398119D01*
X586342Y398221D01*
X586302Y398267D01*
X586291Y398283D01*
X586276Y398297D01*
X586236Y398342D01*
X545784Y438794D01*
X545706Y438854D01*
X545634Y438922D01*
X545581Y438951D01*
X545533Y438988D01*
X545442Y439028D01*
X545355Y439076D01*
X545297Y439091D01*
X545241Y439115D01*
X545143Y439130D01*
X545047Y439155D01*
X544947Y439161D01*
X544927Y439165D01*
X544915Y439163D01*
X544887Y439165D01*
X317942Y439165D01*
X317843Y439153D01*
X317744Y439150D01*
X317686Y439133D01*
X317626Y439125D01*
X317534Y439089D01*
X317439Y439061D01*
X317387Y439031D01*
X317330Y439008D01*
X317250Y438950D01*
X317165Y438900D01*
X317090Y438834D01*
X317073Y438822D01*
X317065Y438812D01*
X317044Y438794D01*
X316138Y437888D01*
X307305Y432788D01*
X304163Y431946D01*
X304035Y431894D01*
X303904Y431845D01*
X303887Y431834D01*
X303869Y431826D01*
X303757Y431743D01*
X303643Y431664D01*
X303630Y431648D01*
X303613Y431636D01*
X303526Y431528D01*
X303435Y431423D01*
X303426Y431405D01*
X303413Y431389D01*
X303355Y431263D01*
X303293Y431138D01*
X303289Y431118D01*
X303281Y431100D01*
X303256Y430964D01*
X303227Y430827D01*
X303228Y430807D01*
X303224Y430787D01*
X303234Y430649D01*
X303240Y430510D01*
X303246Y430490D01*
X303247Y430470D01*
X303292Y430338D01*
X303332Y430205D01*
X303342Y430188D01*
X303348Y430169D01*
X303424Y430052D01*
X303496Y429933D01*
X303510Y429919D01*
X303521Y429902D01*
X303624Y429808D01*
X303723Y429710D01*
X303746Y429694D01*
X303755Y429686D01*
X303773Y429676D01*
X303857Y429621D01*
X304381Y429318D01*
X310954Y422745D01*
X315603Y414694D01*
X318009Y405714D01*
X318009Y396418D01*
X315603Y387438D01*
X310954Y379387D01*
X304381Y372814D01*
X296330Y368165D01*
X287350Y365759D01*
X258242Y365759D01*
X249262Y368165D01*
X241211Y372814D01*
X234638Y379387D01*
X229989Y387438D01*
X227583Y396418D01*
X227583Y405714D01*
X229989Y414694D01*
X234638Y422745D01*
X241211Y429318D01*
X249262Y433967D01*
X258242Y436373D01*
X267020Y436373D01*
X267158Y436390D01*
X267297Y436403D01*
X267316Y436410D01*
X267336Y436413D01*
X267465Y436464D01*
X267596Y436511D01*
X267613Y436522D01*
X267632Y436530D01*
X267744Y436611D01*
X267859Y436689D01*
X267873Y436705D01*
X267889Y436716D01*
X267978Y436824D01*
X268070Y436928D01*
X268079Y436946D01*
X268092Y436961D01*
X268151Y437087D01*
X268214Y437211D01*
X268219Y437231D01*
X268227Y437249D01*
X268253Y437385D01*
X268284Y437521D01*
X268283Y437542D01*
X268287Y437561D01*
X268279Y437700D01*
X268274Y437839D01*
X268269Y437859D01*
X268267Y437879D01*
X268225Y438011D01*
X268186Y438145D01*
X268176Y438162D01*
X268169Y438181D01*
X268095Y438299D01*
X268024Y438419D01*
X268006Y438440D01*
X267999Y438450D01*
X267984Y438464D01*
X267918Y438539D01*
X261358Y445100D01*
X256258Y453933D01*
X253618Y463784D01*
X253618Y473984D01*
X256258Y483835D01*
X261358Y492668D01*
X268570Y499880D01*
X277403Y504980D01*
X287254Y507620D01*
X297454Y507620D01*
X307305Y504980D01*
X315417Y500297D01*
X315502Y500261D01*
X315583Y500216D01*
X315648Y500200D01*
X315710Y500174D01*
X315802Y500160D01*
X315891Y500137D01*
X316008Y500130D01*
X316025Y500127D01*
X316033Y500128D01*
X316052Y500127D01*
X322528Y500127D01*
X322666Y500144D01*
X322805Y500157D01*
X322824Y500164D01*
X322844Y500167D01*
X322973Y500218D01*
X323104Y500265D01*
X323121Y500276D01*
X323140Y500284D01*
X323252Y500365D01*
X323367Y500443D01*
X323381Y500459D01*
X323397Y500470D01*
X323486Y500578D01*
X323578Y500682D01*
X323587Y500700D01*
X323600Y500715D01*
X323659Y500841D01*
X323722Y500965D01*
X323727Y500985D01*
X323735Y501003D01*
X323761Y501139D01*
X323792Y501275D01*
X323791Y501296D01*
X323795Y501315D01*
X323787Y501454D01*
X323782Y501593D01*
X323777Y501613D01*
X323775Y501633D01*
X323733Y501765D01*
X323694Y501899D01*
X323684Y501916D01*
X323677Y501935D01*
X323603Y502053D01*
X323532Y502173D01*
X323514Y502194D01*
X323507Y502204D01*
X323492Y502218D01*
X323426Y502293D01*
X318515Y507204D01*
X318515Y538768D01*
X327236Y547489D01*
X327309Y547583D01*
X327388Y547672D01*
X327406Y547708D01*
X327431Y547740D01*
X327478Y547849D01*
X327532Y547955D01*
X327541Y547994D01*
X327557Y548032D01*
X327576Y548149D01*
X327602Y548265D01*
X327601Y548306D01*
X327607Y548346D01*
X327596Y548464D01*
X327592Y548583D01*
X327581Y548622D01*
X327577Y548662D01*
X327537Y548774D01*
X327504Y548889D01*
X327483Y548924D01*
X327470Y548962D01*
X327403Y549060D01*
X327342Y549163D01*
X327303Y549208D01*
X327291Y549225D01*
X327276Y549238D01*
X327236Y549284D01*
X326128Y550392D01*
X321112Y559080D01*
X318515Y568770D01*
X318515Y578802D01*
X321112Y588492D01*
X326128Y597180D01*
X333222Y604274D01*
X337099Y606513D01*
X337200Y606589D01*
X337304Y606660D01*
X337326Y606685D01*
X337353Y606705D01*
X337431Y606804D01*
X337514Y606898D01*
X337529Y606928D01*
X337550Y606954D01*
X337602Y607070D01*
X337659Y607181D01*
X337666Y607214D01*
X337680Y607245D01*
X337701Y607369D01*
X337728Y607492D01*
X337727Y607525D01*
X337733Y607559D01*
X337722Y607684D01*
X337719Y607809D01*
X337709Y607842D01*
X337706Y607875D01*
X337665Y607994D01*
X337630Y608115D01*
X337613Y608144D01*
X337602Y608176D01*
X337532Y608281D01*
X337469Y608389D01*
X337436Y608426D01*
X337426Y608441D01*
X337410Y608455D01*
X337362Y608510D01*
X332377Y613495D01*
X327929Y621198D01*
X325627Y629790D01*
X325627Y638686D01*
X327929Y647278D01*
X332377Y654981D01*
X338667Y661271D01*
X340561Y662364D01*
X340661Y662440D01*
X340765Y662511D01*
X340787Y662536D01*
X340814Y662557D01*
X340892Y662655D01*
X340975Y662749D01*
X340991Y662779D01*
X341012Y662806D01*
X341063Y662921D01*
X341120Y663033D01*
X341127Y663065D01*
X341141Y663096D01*
X341162Y663221D01*
X341190Y663343D01*
X341189Y663377D01*
X341194Y663410D01*
X341184Y663535D01*
X341180Y663661D01*
X341171Y663693D01*
X341168Y663727D01*
X341127Y663846D01*
X341092Y663966D01*
X341075Y663995D01*
X341063Y664027D01*
X340994Y664132D01*
X340930Y664240D01*
X340898Y664277D01*
X340888Y664292D01*
X340871Y664307D01*
X340824Y664361D01*
X338524Y666661D01*
X333875Y674712D01*
X331469Y683692D01*
X331469Y692988D01*
X333875Y701968D01*
X338524Y710019D01*
X339796Y711291D01*
X339877Y711396D01*
X339963Y711497D01*
X339974Y711521D01*
X339991Y711543D01*
X340044Y711664D01*
X340101Y711783D01*
X340107Y711810D01*
X340117Y711834D01*
X340138Y711965D01*
X340164Y712095D01*
X340163Y712122D01*
X340167Y712148D01*
X340155Y712281D01*
X340148Y712412D01*
X340140Y712438D01*
X340137Y712465D01*
X340093Y712590D01*
X340053Y712716D01*
X340039Y712739D01*
X340030Y712764D01*
X339955Y712874D01*
X339886Y712986D01*
X339866Y713005D01*
X339851Y713028D01*
X339752Y713115D01*
X339656Y713207D01*
X339633Y713220D01*
X339613Y713238D01*
X339495Y713298D01*
X339380Y713363D01*
X339343Y713376D01*
X339330Y713383D01*
X339308Y713387D01*
X339227Y713415D01*
X332828Y715129D01*
X324777Y719778D01*
X318204Y726351D01*
X313555Y734402D01*
X311149Y743382D01*
X311149Y752678D01*
X313555Y761658D01*
X318204Y769709D01*
X324777Y776282D01*
X332828Y780931D01*
X339227Y782645D01*
X339349Y782695D01*
X339474Y782740D01*
X339497Y782755D01*
X339522Y782765D01*
X339628Y782844D01*
X339737Y782919D01*
X339755Y782939D01*
X339777Y782955D01*
X339860Y783058D01*
X339948Y783157D01*
X339960Y783181D01*
X339977Y783202D01*
X340032Y783322D01*
X340092Y783440D01*
X340098Y783467D01*
X340110Y783491D01*
X340133Y783621D01*
X340162Y783751D01*
X340161Y783778D01*
X340166Y783804D01*
X340156Y783936D01*
X340152Y784068D01*
X340145Y784094D01*
X340143Y784121D01*
X340101Y784247D01*
X340064Y784374D01*
X340050Y784397D01*
X340042Y784423D01*
X339970Y784534D01*
X339902Y784648D01*
X339877Y784676D01*
X339869Y784690D01*
X339853Y784705D01*
X339796Y784769D01*
X338524Y786041D01*
X333875Y794092D01*
X331469Y803072D01*
X331469Y812368D01*
X333875Y821348D01*
X334428Y822304D01*
X334478Y822424D01*
X334534Y822542D01*
X334539Y822570D01*
X334551Y822597D01*
X334570Y822726D01*
X334595Y822854D01*
X334593Y822883D01*
X334597Y822912D01*
X334584Y823041D01*
X334576Y823171D01*
X334567Y823199D01*
X334564Y823228D01*
X334519Y823350D01*
X334479Y823474D01*
X334464Y823499D01*
X334453Y823526D01*
X334379Y823633D01*
X334310Y823744D01*
X334289Y823764D01*
X334272Y823788D01*
X334174Y823873D01*
X334079Y823962D01*
X334054Y823977D01*
X334031Y823996D01*
X333915Y824053D01*
X333801Y824117D01*
X333773Y824124D01*
X333747Y824137D01*
X333619Y824164D01*
X333494Y824197D01*
X333452Y824200D01*
X333436Y824204D01*
X333414Y824203D01*
X333333Y824208D01*
X308208Y824298D01*
X308081Y824282D01*
X307953Y824273D01*
X307923Y824263D01*
X307892Y824259D01*
X307773Y824212D01*
X307652Y824172D01*
X307625Y824155D01*
X307596Y824143D01*
X307492Y824068D01*
X307385Y823999D01*
X307363Y823976D01*
X307338Y823957D01*
X307256Y823859D01*
X307169Y823765D01*
X307154Y823737D01*
X307134Y823713D01*
X307079Y823598D01*
X307019Y823485D01*
X307011Y823454D01*
X306998Y823426D01*
X306973Y823300D01*
X306942Y823176D01*
X306943Y823145D01*
X306937Y823114D01*
X306944Y822986D01*
X306945Y822858D01*
X306954Y822814D01*
X306955Y822796D01*
X306962Y822775D01*
X306977Y822700D01*
X309119Y814708D01*
X309119Y805812D01*
X306817Y797220D01*
X302369Y789517D01*
X296079Y783227D01*
X288376Y778779D01*
X279784Y776477D01*
X270888Y776477D01*
X262296Y778779D01*
X254593Y783227D01*
X250325Y787495D01*
X250231Y787568D01*
X250142Y787646D01*
X250106Y787665D01*
X250074Y787689D01*
X249965Y787737D01*
X249859Y787791D01*
X249820Y787800D01*
X249782Y787816D01*
X249665Y787834D01*
X249549Y787861D01*
X249508Y787859D01*
X249468Y787866D01*
X249350Y787854D01*
X249231Y787851D01*
X249192Y787840D01*
X249152Y787836D01*
X249040Y787796D01*
X248925Y787762D01*
X248890Y787742D01*
X248852Y787728D01*
X248754Y787661D01*
X248651Y787601D01*
X248606Y787561D01*
X248589Y787550D01*
X248576Y787534D01*
X248530Y787495D01*
X247057Y786021D01*
X239354Y781573D01*
X230762Y779271D01*
X221866Y779271D01*
X213274Y781573D01*
X205571Y786021D01*
X199281Y792311D01*
X194833Y800014D01*
X192531Y808606D01*
X192531Y817502D01*
X194035Y823112D01*
X194051Y823235D01*
X194075Y823356D01*
X194073Y823392D01*
X194078Y823428D01*
X194064Y823550D01*
X194056Y823673D01*
X194046Y823708D01*
X194041Y823743D01*
X193997Y823859D01*
X193960Y823976D01*
X193940Y824007D01*
X193927Y824040D01*
X193856Y824141D01*
X193790Y824246D01*
X193764Y824270D01*
X193743Y824300D01*
X193649Y824379D01*
X193559Y824464D01*
X193528Y824482D01*
X193501Y824505D01*
X193389Y824559D01*
X193282Y824619D01*
X193247Y824628D01*
X193214Y824644D01*
X193094Y824668D01*
X192974Y824699D01*
X192921Y824703D01*
X192903Y824707D01*
X192881Y824706D01*
X192813Y824710D01*
X157710Y824836D01*
X157576Y824819D01*
X157442Y824808D01*
X157419Y824800D01*
X157394Y824797D01*
X157269Y824748D01*
X157142Y824704D01*
X157121Y824690D01*
X157098Y824681D01*
X156989Y824602D01*
X156877Y824528D01*
X156860Y824509D01*
X156840Y824495D01*
X156754Y824392D01*
X156664Y824292D01*
X156652Y824270D01*
X156637Y824251D01*
X156579Y824129D01*
X156516Y824010D01*
X156511Y823986D01*
X156500Y823964D01*
X156474Y823831D01*
X156443Y823700D01*
X156444Y823676D01*
X156439Y823651D01*
X156447Y823517D01*
X156450Y823382D01*
X156456Y823359D01*
X156458Y823334D01*
X156499Y823205D01*
X156535Y823076D01*
X156550Y823045D01*
X156555Y823031D01*
X156566Y823013D01*
X156606Y822932D01*
X159755Y817478D01*
X162151Y808538D01*
X162151Y799282D01*
X159755Y790342D01*
X155128Y782327D01*
X152208Y779408D01*
X152135Y779313D01*
X152056Y779224D01*
X152038Y779188D01*
X152013Y779156D01*
X151966Y779047D01*
X151912Y778941D01*
X151903Y778902D01*
X151887Y778864D01*
X151868Y778747D01*
X151842Y778631D01*
X151843Y778590D01*
X151837Y778550D01*
X151848Y778432D01*
X151852Y778313D01*
X151863Y778274D01*
X151867Y778234D01*
X151907Y778121D01*
X151940Y778007D01*
X151961Y777973D01*
X151974Y777934D01*
X152041Y777836D01*
X152102Y777733D01*
X152142Y777688D01*
X152153Y777671D01*
X152168Y777658D01*
X152208Y777613D01*
X155128Y774693D01*
X159755Y766678D01*
X162151Y757738D01*
X162151Y748482D01*
X159755Y739542D01*
X155128Y731527D01*
X148583Y724982D01*
X140568Y720355D01*
X131628Y717959D01*
X122372Y717959D01*
X113432Y720355D01*
X105417Y724982D01*
X98872Y731527D01*
X94245Y739542D01*
X91849Y748482D01*
X91849Y757738D01*
X94245Y766678D01*
X98872Y774693D01*
X101792Y777613D01*
X101865Y777707D01*
X101944Y777796D01*
X101962Y777832D01*
X101987Y777864D01*
X102034Y777973D01*
X102088Y778079D01*
X102097Y778118D01*
X102113Y778156D01*
X102132Y778273D01*
X102158Y778389D01*
X102157Y778430D01*
X102163Y778470D01*
X102152Y778588D01*
X102148Y778707D01*
X102137Y778746D01*
X102133Y778786D01*
X102093Y778899D01*
X102060Y779013D01*
X102039Y779048D01*
X102026Y779086D01*
X101959Y779184D01*
X101898Y779287D01*
X101858Y779332D01*
X101847Y779349D01*
X101832Y779362D01*
X101792Y779408D01*
X98872Y782327D01*
X94245Y790342D01*
X91849Y799282D01*
X91849Y808538D01*
X94245Y817478D01*
X97520Y823151D01*
X97571Y823271D01*
X97626Y823388D01*
X97632Y823417D01*
X97643Y823444D01*
X97662Y823573D01*
X97687Y823700D01*
X97686Y823730D01*
X97690Y823759D01*
X97676Y823888D01*
X97669Y824018D01*
X97660Y824046D01*
X97657Y824075D01*
X97611Y824197D01*
X97572Y824321D01*
X97556Y824346D01*
X97546Y824373D01*
X97472Y824480D01*
X97403Y824590D01*
X97381Y824610D01*
X97365Y824634D01*
X97266Y824719D01*
X97172Y824809D01*
X97146Y824823D01*
X97124Y824842D01*
X97007Y824900D01*
X96894Y824963D01*
X96865Y824971D01*
X96839Y824984D01*
X96712Y825011D01*
X96586Y825044D01*
X96544Y825047D01*
X96528Y825050D01*
X96506Y825049D01*
X96425Y825055D01*
X26675Y825304D01*
X26554Y825289D01*
X26433Y825282D01*
X26397Y825270D01*
X26359Y825265D01*
X26246Y825221D01*
X26131Y825183D01*
X26098Y825163D01*
X26063Y825149D01*
X25964Y825078D01*
X25862Y825013D01*
X25836Y824986D01*
X25805Y824963D01*
X25727Y824870D01*
X25644Y824782D01*
X25625Y824748D01*
X25601Y824719D01*
X25549Y824609D01*
X25490Y824503D01*
X25481Y824466D01*
X25464Y824432D01*
X25441Y824313D01*
X25411Y824195D01*
X25407Y824139D01*
X25404Y824120D01*
X25405Y824099D01*
X25401Y824035D01*
X25401Y97100D01*
X25417Y96969D01*
X25428Y96837D01*
X25437Y96812D01*
X25441Y96785D01*
X25489Y96662D01*
X25533Y96537D01*
X25548Y96514D01*
X25558Y96489D01*
X25635Y96382D01*
X25709Y96272D01*
X25729Y96254D01*
X25744Y96232D01*
X25846Y96147D01*
X25945Y96059D01*
X25969Y96046D01*
X25989Y96029D01*
X26109Y95973D01*
X26226Y95911D01*
X26253Y95905D01*
X26277Y95893D01*
X26407Y95869D01*
X26536Y95838D01*
X26563Y95839D01*
X26589Y95834D01*
X26721Y95842D01*
X26854Y95844D01*
X26880Y95852D01*
X26907Y95853D01*
X27033Y95894D01*
X27160Y95930D01*
X27195Y95947D01*
X27209Y95951D01*
X27228Y95963D01*
X27305Y96001D01*
X27796Y96285D01*
X36259Y98553D01*
X52810Y98553D01*
X57456Y97308D01*
X57548Y97295D01*
X57638Y97273D01*
X57705Y97274D01*
X57772Y97265D01*
X57863Y97275D01*
X57956Y97276D01*
X58071Y97299D01*
X58087Y97301D01*
X58095Y97304D01*
X58114Y97308D01*
X58248Y97344D01*
X58254Y97346D01*
X58268Y97349D01*
X62201Y98474D01*
X62329Y98476D01*
X62403Y98487D01*
X62478Y98488D01*
X62636Y98520D01*
X62760Y98553D01*
X66850Y98553D01*
X66857Y98554D01*
X66872Y98553D01*
X70961Y98622D01*
X71085Y98591D01*
X71160Y98582D01*
X71232Y98563D01*
X71393Y98553D01*
X71521Y98553D01*
X75472Y97494D01*
X75479Y97493D01*
X75493Y97489D01*
X78517Y96733D01*
X78587Y96724D01*
X78656Y96706D01*
X78745Y96705D01*
X78833Y96695D01*
X78903Y96704D01*
X78974Y96704D01*
X79132Y96733D01*
X82156Y97489D01*
X82163Y97491D01*
X82177Y97494D01*
X86128Y98553D01*
X86256Y98553D01*
X86331Y98562D01*
X86406Y98562D01*
X86564Y98591D01*
X86688Y98622D01*
X90778Y98553D01*
X90784Y98554D01*
X90799Y98553D01*
X94889Y98553D01*
X95013Y98520D01*
X95087Y98509D01*
X95160Y98489D01*
X95320Y98476D01*
X95448Y98474D01*
X99381Y97349D01*
X99388Y97348D01*
X99402Y97344D01*
X103352Y96285D01*
X103463Y96221D01*
X103532Y96192D01*
X103597Y96154D01*
X103749Y96100D01*
X103872Y96065D01*
X107379Y93961D01*
X107385Y93958D01*
X107397Y93950D01*
X110940Y91904D01*
X111030Y91814D01*
X111090Y91768D01*
X111142Y91714D01*
X111275Y91623D01*
X111385Y91557D01*
X114228Y88617D01*
X114233Y88613D01*
X114243Y88602D01*
X115604Y87240D01*
X115682Y87180D01*
X115754Y87112D01*
X115807Y87083D01*
X115855Y87046D01*
X115946Y87006D01*
X116033Y86958D01*
X116091Y86943D01*
X116147Y86919D01*
X116245Y86904D01*
X116341Y86879D01*
X116441Y86873D01*
X116461Y86869D01*
X116473Y86871D01*
X116501Y86869D01*
X124953Y86869D01*
X133177Y84665D01*
X133268Y84653D01*
X133275Y84651D01*
X133276Y84651D01*
X133359Y84630D01*
X133426Y84631D01*
X133492Y84622D01*
X133584Y84632D01*
X133677Y84633D01*
X133791Y84656D01*
X133808Y84658D01*
X133816Y84661D01*
X133834Y84665D01*
X142059Y86869D01*
X145542Y86869D01*
X145640Y86881D01*
X145739Y86884D01*
X145797Y86901D01*
X145858Y86909D01*
X145950Y86945D01*
X146045Y86973D01*
X146097Y87003D01*
X146153Y87026D01*
X146233Y87084D01*
X146319Y87134D01*
X146394Y87200D01*
X146411Y87212D01*
X146418Y87222D01*
X146439Y87240D01*
X151103Y91904D01*
X158691Y96285D01*
X167154Y98553D01*
X175915Y98553D01*
X184378Y96285D01*
X191966Y91904D01*
X198161Y85709D01*
X202542Y78121D01*
X202705Y77511D01*
X202740Y77425D01*
X202766Y77336D01*
X202800Y77279D01*
X202825Y77216D01*
X202881Y77142D01*
X202927Y77062D01*
X203005Y76975D01*
X203015Y76961D01*
X203022Y76955D01*
X203034Y76942D01*
X205950Y74025D01*
X210331Y66438D01*
X212599Y57975D01*
X212599Y49213D01*
X210730Y42239D01*
X210717Y42147D01*
X210695Y42057D01*
X210696Y41990D01*
X210687Y41923D01*
X210697Y41832D01*
X210698Y41739D01*
X210721Y41625D01*
X210723Y41608D01*
X210726Y41600D01*
X210730Y41582D01*
X212599Y34607D01*
X212599Y25906D01*
X212613Y25790D01*
X212620Y25674D01*
X212633Y25633D01*
X212638Y25590D01*
X212681Y25482D01*
X212717Y25371D01*
X212740Y25334D01*
X212756Y25295D01*
X212824Y25200D01*
X212886Y25101D01*
X212917Y25072D01*
X212942Y25037D01*
X213032Y24963D01*
X213117Y24883D01*
X213154Y24862D01*
X213187Y24835D01*
X213293Y24785D01*
X213395Y24728D01*
X213437Y24717D01*
X213475Y24699D01*
X213589Y24677D01*
X213703Y24648D01*
X213767Y24643D01*
X213787Y24639D01*
X213807Y24641D01*
X213863Y24637D01*
X859866Y22329D01*
X860006Y22346D01*
G37*
G36*
X1181956Y475129D02*
X1181956Y475129D01*
X1182101Y475138D01*
X1182114Y475142D01*
X1182127Y475144D01*
X1182265Y475191D01*
X1182403Y475236D01*
X1182415Y475243D01*
X1182428Y475248D01*
X1182549Y475328D01*
X1182672Y475406D01*
X1182681Y475416D01*
X1182693Y475424D01*
X1182790Y475532D01*
X1182890Y475638D01*
X1182897Y475650D01*
X1182906Y475660D01*
X1182973Y475789D01*
X1183044Y475917D01*
X1183047Y475930D01*
X1183053Y475942D01*
X1183087Y476084D01*
X1183123Y476224D01*
X1183124Y476243D01*
X1183126Y476251D01*
X1183126Y476268D01*
X1183133Y476385D01*
X1183133Y819907D01*
X1183119Y820023D01*
X1183112Y820140D01*
X1183099Y820180D01*
X1183093Y820223D01*
X1183051Y820331D01*
X1183015Y820442D01*
X1182992Y820479D01*
X1182976Y820518D01*
X1182908Y820613D01*
X1182846Y820712D01*
X1182815Y820741D01*
X1182790Y820776D01*
X1182699Y820850D01*
X1182615Y820931D01*
X1182578Y820951D01*
X1182545Y820979D01*
X1182439Y821028D01*
X1182337Y821085D01*
X1182295Y821096D01*
X1182257Y821114D01*
X1182143Y821136D01*
X1182029Y821166D01*
X1181965Y821170D01*
X1181945Y821174D01*
X1181925Y821173D01*
X1181869Y821176D01*
X1084465Y821524D01*
X1084338Y821509D01*
X1084211Y821500D01*
X1084181Y821490D01*
X1084150Y821486D01*
X1084030Y821439D01*
X1083909Y821398D01*
X1083883Y821381D01*
X1083853Y821370D01*
X1083749Y821295D01*
X1083642Y821225D01*
X1083621Y821202D01*
X1083595Y821184D01*
X1083513Y821085D01*
X1083427Y820991D01*
X1083412Y820964D01*
X1083392Y820940D01*
X1083337Y820824D01*
X1083276Y820711D01*
X1083269Y820681D01*
X1083255Y820652D01*
X1083231Y820527D01*
X1083200Y820403D01*
X1083200Y820371D01*
X1083194Y820340D01*
X1083202Y820212D01*
X1083203Y820085D01*
X1083212Y820040D01*
X1083213Y820023D01*
X1083220Y820002D01*
X1083235Y819927D01*
X1084405Y815560D01*
X1084405Y805976D01*
X1081924Y796718D01*
X1077132Y788417D01*
X1070355Y781640D01*
X1062054Y776848D01*
X1052796Y774367D01*
X1043212Y774367D01*
X1033954Y776848D01*
X1025653Y781640D01*
X1018876Y788417D01*
X1014084Y796718D01*
X1011603Y805976D01*
X1011603Y815560D01*
X1012843Y820187D01*
X1012860Y820309D01*
X1012883Y820430D01*
X1012881Y820466D01*
X1012886Y820502D01*
X1012872Y820625D01*
X1012865Y820748D01*
X1012854Y820782D01*
X1012850Y820818D01*
X1012805Y820933D01*
X1012768Y821051D01*
X1012749Y821081D01*
X1012736Y821115D01*
X1012664Y821215D01*
X1012599Y821320D01*
X1012572Y821345D01*
X1012552Y821374D01*
X1012457Y821454D01*
X1012368Y821539D01*
X1012336Y821556D01*
X1012309Y821580D01*
X1012198Y821633D01*
X1012090Y821693D01*
X1012055Y821702D01*
X1012023Y821718D01*
X1011902Y821743D01*
X1011782Y821774D01*
X1011730Y821777D01*
X1011711Y821781D01*
X1011690Y821780D01*
X1011622Y821785D01*
X817301Y822479D01*
X817154Y822461D01*
X817007Y822446D01*
X816996Y822442D01*
X816985Y822440D01*
X816847Y822386D01*
X816709Y822335D01*
X816700Y822328D01*
X816689Y822324D01*
X816569Y822238D01*
X816448Y822153D01*
X816440Y822145D01*
X816431Y822138D01*
X816336Y822025D01*
X816240Y821913D01*
X816235Y821903D01*
X816227Y821894D01*
X816164Y821761D01*
X816098Y821628D01*
X816096Y821617D01*
X816091Y821607D01*
X816063Y821462D01*
X816032Y821317D01*
X816032Y821306D01*
X816030Y821295D01*
X816039Y821147D01*
X816045Y820999D01*
X816048Y820988D01*
X816049Y820977D01*
X816094Y820836D01*
X816136Y820695D01*
X816142Y820685D01*
X816145Y820674D01*
X816224Y820549D01*
X816301Y820423D01*
X816309Y820415D01*
X816315Y820405D01*
X816422Y820303D01*
X816528Y820200D01*
X816540Y820191D01*
X816546Y820186D01*
X816559Y820179D01*
X816662Y820111D01*
X824731Y815452D01*
X833740Y806443D01*
X840110Y795409D01*
X843408Y783102D01*
X843408Y770362D01*
X840110Y758055D01*
X833740Y747021D01*
X824731Y738012D01*
X813697Y731642D01*
X801390Y728344D01*
X788650Y728344D01*
X776343Y731642D01*
X765309Y738012D01*
X756300Y747021D01*
X749930Y758055D01*
X746632Y770362D01*
X746632Y783102D01*
X749930Y795409D01*
X756300Y806443D01*
X765309Y815452D01*
X773652Y820269D01*
X773767Y820355D01*
X773883Y820439D01*
X773893Y820451D01*
X773906Y820461D01*
X773995Y820573D01*
X774087Y820684D01*
X774093Y820698D01*
X774103Y820710D01*
X774162Y820842D01*
X774223Y820971D01*
X774226Y820986D01*
X774233Y821001D01*
X774257Y821143D01*
X774284Y821283D01*
X774283Y821299D01*
X774286Y821314D01*
X774274Y821457D01*
X774266Y821600D01*
X774261Y821615D01*
X774259Y821631D01*
X774212Y821766D01*
X774169Y821903D01*
X774160Y821917D01*
X774155Y821932D01*
X774076Y822051D01*
X773999Y822173D01*
X773988Y822183D01*
X773979Y822197D01*
X773873Y822292D01*
X773769Y822391D01*
X773755Y822399D01*
X773743Y822410D01*
X773616Y822476D01*
X773491Y822546D01*
X773475Y822550D01*
X773461Y822557D01*
X773322Y822590D01*
X773183Y822626D01*
X773161Y822628D01*
X773152Y822630D01*
X773133Y822630D01*
X773022Y822637D01*
X630795Y823145D01*
X630655Y823128D01*
X630515Y823115D01*
X630498Y823109D01*
X630480Y823107D01*
X630348Y823055D01*
X630215Y823007D01*
X630200Y822997D01*
X630184Y822991D01*
X630069Y822908D01*
X629952Y822829D01*
X629940Y822815D01*
X629926Y822805D01*
X629835Y822696D01*
X629742Y822590D01*
X629733Y822574D01*
X629722Y822560D01*
X629661Y822433D01*
X629597Y822307D01*
X629593Y822289D01*
X629585Y822273D01*
X629558Y822135D01*
X629527Y821997D01*
X629528Y821979D01*
X629524Y821961D01*
X629533Y821820D01*
X629537Y821679D01*
X629542Y821662D01*
X629543Y821644D01*
X629586Y821509D01*
X629625Y821373D01*
X629635Y821358D01*
X629640Y821341D01*
X629715Y821221D01*
X629787Y821099D01*
X629803Y821081D01*
X629809Y821071D01*
X629823Y821058D01*
X629893Y820979D01*
X632823Y818049D01*
X637271Y810346D01*
X639573Y801754D01*
X639573Y792858D01*
X637271Y784266D01*
X632823Y776563D01*
X626533Y770273D01*
X618830Y765825D01*
X610238Y763523D01*
X601342Y763523D01*
X592750Y765825D01*
X585047Y770273D01*
X578757Y776563D01*
X574309Y784266D01*
X572007Y792858D01*
X572007Y801754D01*
X574309Y810346D01*
X578757Y818049D01*
X581865Y821157D01*
X581949Y821265D01*
X582036Y821370D01*
X582046Y821390D01*
X582060Y821408D01*
X582114Y821534D01*
X582173Y821657D01*
X582177Y821679D01*
X582186Y821700D01*
X582207Y821835D01*
X582234Y821969D01*
X582232Y821992D01*
X582236Y822014D01*
X582223Y822150D01*
X582215Y822287D01*
X582208Y822308D01*
X582206Y822330D01*
X582160Y822459D01*
X582118Y822589D01*
X582106Y822609D01*
X582098Y822630D01*
X582022Y822743D01*
X581949Y822859D01*
X581932Y822874D01*
X581920Y822893D01*
X581817Y822984D01*
X581718Y823077D01*
X581698Y823088D01*
X581681Y823103D01*
X581559Y823166D01*
X581440Y823232D01*
X581418Y823238D01*
X581398Y823248D01*
X581265Y823278D01*
X581132Y823313D01*
X581101Y823315D01*
X581088Y823318D01*
X581067Y823317D01*
X580972Y823323D01*
X542391Y823461D01*
X542258Y823445D01*
X542124Y823434D01*
X542100Y823425D01*
X542076Y823422D01*
X541950Y823373D01*
X541823Y823329D01*
X541803Y823316D01*
X541780Y823307D01*
X541670Y823228D01*
X541558Y823153D01*
X541542Y823135D01*
X541522Y823121D01*
X541435Y823017D01*
X541345Y822917D01*
X541334Y822895D01*
X541318Y822876D01*
X541260Y822755D01*
X541198Y822635D01*
X541192Y822611D01*
X541181Y822589D01*
X541156Y822457D01*
X541125Y822326D01*
X541125Y822301D01*
X541121Y822277D01*
X541128Y822142D01*
X541131Y822008D01*
X541138Y821984D01*
X541139Y821959D01*
X541180Y821831D01*
X541216Y821702D01*
X541232Y821670D01*
X541236Y821657D01*
X541248Y821638D01*
X541288Y821557D01*
X541409Y821348D01*
X543815Y812368D01*
X543815Y803072D01*
X541409Y794092D01*
X536760Y786041D01*
X530187Y779468D01*
X522136Y774819D01*
X513156Y772413D01*
X495046Y772413D01*
X494928Y772398D01*
X494809Y772391D01*
X494771Y772378D01*
X494730Y772373D01*
X494620Y772330D01*
X494507Y772293D01*
X494472Y772271D01*
X494435Y772256D01*
X494339Y772187D01*
X494238Y772123D01*
X494210Y772093D01*
X494177Y772070D01*
X494101Y771978D01*
X494020Y771891D01*
X494000Y771856D01*
X493975Y771825D01*
X493924Y771717D01*
X493866Y771613D01*
X493856Y771573D01*
X493839Y771537D01*
X493817Y771420D01*
X493787Y771305D01*
X493783Y771245D01*
X493779Y771225D01*
X493781Y771204D01*
X493777Y771144D01*
X493777Y724916D01*
X493792Y724798D01*
X493799Y724679D01*
X493812Y724641D01*
X493817Y724600D01*
X493860Y724490D01*
X493897Y724377D01*
X493919Y724342D01*
X493934Y724305D01*
X494003Y724209D01*
X494067Y724108D01*
X494097Y724080D01*
X494120Y724047D01*
X494212Y723971D01*
X494299Y723890D01*
X494334Y723870D01*
X494365Y723845D01*
X494473Y723794D01*
X494577Y723736D01*
X494617Y723726D01*
X494653Y723709D01*
X494770Y723687D01*
X494885Y723657D01*
X494945Y723653D01*
X494965Y723649D01*
X494986Y723651D01*
X495046Y723647D01*
X513156Y723647D01*
X522136Y721241D01*
X530187Y716592D01*
X536760Y710019D01*
X541409Y701968D01*
X543815Y692988D01*
X543815Y683692D01*
X541409Y674712D01*
X537042Y667149D01*
X536998Y667045D01*
X536947Y666945D01*
X536937Y666899D01*
X536919Y666856D01*
X536902Y666744D01*
X536878Y666635D01*
X536879Y666588D01*
X536872Y666541D01*
X536884Y666429D01*
X536887Y666317D01*
X536901Y666272D01*
X536905Y666225D01*
X536945Y666120D01*
X536976Y666012D01*
X537000Y665971D01*
X537016Y665927D01*
X537080Y665834D01*
X537137Y665738D01*
X537185Y665683D01*
X537198Y665666D01*
X537211Y665654D01*
X537244Y665617D01*
X539758Y663102D01*
X544858Y654269D01*
X547498Y644418D01*
X547498Y634218D01*
X545005Y624916D01*
X544987Y624785D01*
X544964Y624655D01*
X544966Y624628D01*
X544962Y624601D01*
X544977Y624469D01*
X544987Y624337D01*
X544995Y624312D01*
X544998Y624285D01*
X545046Y624161D01*
X545088Y624036D01*
X545103Y624013D01*
X545112Y623988D01*
X545189Y623880D01*
X545261Y623769D01*
X545281Y623751D01*
X545296Y623729D01*
X545397Y623644D01*
X545495Y623554D01*
X545519Y623541D01*
X545539Y623523D01*
X545658Y623466D01*
X545775Y623403D01*
X545801Y623396D01*
X545826Y623385D01*
X545955Y623358D01*
X546084Y623327D01*
X546111Y623327D01*
X546137Y623322D01*
X546270Y623329D01*
X546402Y623330D01*
X546439Y623337D01*
X546455Y623338D01*
X546476Y623345D01*
X546560Y623361D01*
X547341Y623571D01*
X556035Y623571D01*
X564059Y621421D01*
X564151Y621408D01*
X564241Y621386D01*
X564308Y621387D01*
X564375Y621377D01*
X564466Y621388D01*
X564559Y621389D01*
X564673Y621412D01*
X564690Y621414D01*
X564698Y621417D01*
X564716Y621421D01*
X572741Y623571D01*
X581435Y623571D01*
X589833Y621320D01*
X591170Y620549D01*
X591287Y620500D01*
X591399Y620445D01*
X591432Y620438D01*
X591464Y620425D01*
X591588Y620407D01*
X591711Y620382D01*
X591745Y620384D01*
X591778Y620379D01*
X591903Y620392D01*
X592029Y620398D01*
X592061Y620408D01*
X592094Y620412D01*
X592212Y620456D01*
X592332Y620493D01*
X592361Y620511D01*
X592393Y620523D01*
X592496Y620594D01*
X592603Y620661D01*
X592626Y620685D01*
X592654Y620704D01*
X592736Y620799D01*
X592823Y620890D01*
X592840Y620919D01*
X592862Y620945D01*
X592918Y621057D01*
X592980Y621167D01*
X592995Y621213D01*
X593003Y621229D01*
X593008Y621251D01*
X593031Y621319D01*
X594404Y626445D01*
X598417Y633396D01*
X600683Y635661D01*
X600736Y635729D01*
X600796Y635790D01*
X600871Y635904D01*
X600878Y635913D01*
X600880Y635917D01*
X600885Y635924D01*
X604258Y641766D01*
X611470Y648978D01*
X620303Y654078D01*
X630154Y656718D01*
X640354Y656718D01*
X650205Y654078D01*
X659038Y648978D01*
X666250Y641766D01*
X671350Y632933D01*
X673990Y623082D01*
X673990Y612882D01*
X671615Y604018D01*
X671598Y603900D01*
X671575Y603783D01*
X671577Y603743D01*
X671571Y603703D01*
X671585Y603585D01*
X671591Y603466D01*
X671603Y603427D01*
X671608Y603387D01*
X671650Y603276D01*
X671686Y603162D01*
X671707Y603128D01*
X671722Y603090D01*
X671791Y602993D01*
X671853Y602892D01*
X671882Y602864D01*
X671906Y602831D01*
X671997Y602754D01*
X672083Y602671D01*
X672118Y602652D01*
X672149Y602625D01*
X672256Y602574D01*
X672359Y602515D01*
X672417Y602496D01*
X672435Y602487D01*
X672455Y602483D01*
X672512Y602464D01*
X678791Y600781D01*
X686205Y596501D01*
X692259Y590447D01*
X696539Y583033D01*
X698755Y574764D01*
X698755Y566204D01*
X698401Y564883D01*
X698386Y564778D01*
X698363Y564675D01*
X698365Y564621D01*
X698358Y564568D01*
X698370Y564462D01*
X698373Y564357D01*
X698388Y564305D01*
X698394Y564252D01*
X698432Y564153D01*
X698461Y564051D01*
X698489Y564005D01*
X698508Y563955D01*
X698569Y563869D01*
X698623Y563777D01*
X698680Y563713D01*
X698692Y563695D01*
X698704Y563685D01*
X698729Y563657D01*
X698755Y563631D01*
X698755Y536697D01*
X680187Y518129D01*
X680114Y518034D01*
X680035Y517945D01*
X680016Y517909D01*
X679992Y517877D01*
X679944Y517768D01*
X679890Y517662D01*
X679881Y517623D01*
X679865Y517586D01*
X679847Y517468D01*
X679821Y517352D01*
X679822Y517311D01*
X679815Y517271D01*
X679827Y517153D01*
X679830Y517034D01*
X679841Y516995D01*
X679845Y516955D01*
X679886Y516843D01*
X679919Y516728D01*
X679939Y516694D01*
X679953Y516656D01*
X680020Y516557D01*
X680080Y516455D01*
X680120Y516409D01*
X680131Y516392D01*
X680147Y516379D01*
X680187Y516334D01*
X681925Y514595D01*
X682003Y514535D01*
X682075Y514467D01*
X682128Y514438D01*
X682176Y514401D01*
X682267Y514361D01*
X682354Y514313D01*
X682412Y514298D01*
X682468Y514274D01*
X682566Y514259D01*
X682662Y514234D01*
X682762Y514228D01*
X682782Y514224D01*
X682794Y514226D01*
X682822Y514224D01*
X683026Y514224D01*
X692877Y511584D01*
X701710Y506484D01*
X708922Y499272D01*
X714022Y490439D01*
X714183Y489839D01*
X714230Y489723D01*
X714272Y489604D01*
X714290Y489576D01*
X714303Y489544D01*
X714378Y489444D01*
X714447Y489339D01*
X714472Y489316D01*
X714493Y489289D01*
X714590Y489210D01*
X714684Y489126D01*
X714713Y489110D01*
X714740Y489089D01*
X714854Y489036D01*
X714965Y488978D01*
X714998Y488970D01*
X715029Y488956D01*
X715152Y488934D01*
X715275Y488905D01*
X715309Y488906D01*
X715342Y488900D01*
X715467Y488909D01*
X715593Y488912D01*
X715625Y488921D01*
X715659Y488923D01*
X715778Y488963D01*
X715899Y488997D01*
X715943Y489018D01*
X715960Y489024D01*
X715979Y489036D01*
X716043Y489068D01*
X718703Y490603D01*
X726813Y492777D01*
X735211Y492777D01*
X743384Y490587D01*
X743475Y490574D01*
X743565Y490552D01*
X743632Y490553D01*
X743699Y490544D01*
X743790Y490554D01*
X743883Y490555D01*
X743997Y490578D01*
X744015Y490580D01*
X744023Y490583D01*
X744041Y490587D01*
X752213Y492777D01*
X755960Y492777D01*
X756105Y492795D01*
X756250Y492810D01*
X756262Y492815D01*
X756276Y492817D01*
X756411Y492870D01*
X756548Y492921D01*
X756559Y492929D01*
X756571Y492934D01*
X756689Y493019D01*
X756809Y493102D01*
X756818Y493112D01*
X756829Y493120D01*
X756922Y493233D01*
X757017Y493343D01*
X757023Y493355D01*
X757031Y493365D01*
X757093Y493497D01*
X757158Y493628D01*
X757161Y493641D01*
X757167Y493653D01*
X757194Y493795D01*
X757225Y493939D01*
X757224Y493952D01*
X757227Y493965D01*
X757218Y494111D01*
X757212Y494257D01*
X757208Y494269D01*
X757207Y494283D01*
X757162Y494421D01*
X757120Y494561D01*
X757113Y494573D01*
X757109Y494585D01*
X757031Y494709D01*
X756956Y494833D01*
X756946Y494843D01*
X756939Y494854D01*
X756832Y494954D01*
X756729Y495056D01*
X756713Y495066D01*
X756707Y495072D01*
X756692Y495080D01*
X756595Y495145D01*
X756515Y495191D01*
X750461Y501245D01*
X746181Y508659D01*
X743965Y516928D01*
X743965Y539712D01*
X746181Y547981D01*
X750461Y555395D01*
X756515Y561449D01*
X763929Y565729D01*
X772198Y567945D01*
X780758Y567945D01*
X788850Y565777D01*
X788941Y565764D01*
X789031Y565742D01*
X789098Y565743D01*
X789165Y565734D01*
X789256Y565744D01*
X789349Y565745D01*
X789463Y565768D01*
X789481Y565770D01*
X789489Y565773D01*
X789507Y565777D01*
X797598Y567945D01*
X806158Y567945D01*
X814250Y565777D01*
X814341Y565764D01*
X814431Y565742D01*
X814498Y565743D01*
X814565Y565734D01*
X814656Y565744D01*
X814749Y565745D01*
X814863Y565768D01*
X814881Y565770D01*
X814889Y565773D01*
X814907Y565777D01*
X822998Y567945D01*
X831558Y567945D01*
X839650Y565777D01*
X839741Y565764D01*
X839831Y565742D01*
X839898Y565743D01*
X839965Y565734D01*
X840056Y565744D01*
X840149Y565745D01*
X840263Y565768D01*
X840281Y565770D01*
X840289Y565773D01*
X840307Y565777D01*
X848398Y567945D01*
X856958Y567945D01*
X858613Y567501D01*
X858725Y567486D01*
X858835Y567463D01*
X858882Y567464D01*
X858929Y567458D01*
X859040Y567471D01*
X859152Y567476D01*
X859198Y567489D01*
X859244Y567495D01*
X859349Y567535D01*
X859457Y567567D01*
X859497Y567592D01*
X859541Y567608D01*
X859633Y567673D01*
X859729Y567732D01*
X859762Y567765D01*
X859801Y567793D01*
X859873Y567878D01*
X859952Y567959D01*
X859992Y568019D01*
X860006Y568035D01*
X860014Y568052D01*
X860041Y568093D01*
X861815Y571166D01*
X920576Y629927D01*
X927527Y633940D01*
X935279Y636017D01*
X953507Y636017D01*
X953638Y636033D01*
X953771Y636044D01*
X953796Y636053D01*
X953823Y636057D01*
X953946Y636105D01*
X954071Y636149D01*
X954093Y636164D01*
X954118Y636174D01*
X954226Y636251D01*
X954336Y636325D01*
X954354Y636345D01*
X954376Y636360D01*
X954460Y636462D01*
X954549Y636561D01*
X954561Y636585D01*
X954579Y636605D01*
X954635Y636725D01*
X954696Y636842D01*
X954703Y636869D01*
X954714Y636893D01*
X954739Y637023D01*
X954769Y637152D01*
X954769Y637179D01*
X954774Y637205D01*
X954766Y637337D01*
X954763Y637470D01*
X954756Y637496D01*
X954754Y637523D01*
X954713Y637649D01*
X954678Y637776D01*
X954661Y637811D01*
X954656Y637825D01*
X954645Y637844D01*
X954606Y637921D01*
X953808Y639303D01*
X951563Y647681D01*
X951563Y656355D01*
X953716Y664390D01*
X953729Y664481D01*
X953751Y664571D01*
X953750Y664638D01*
X953759Y664705D01*
X953749Y664796D01*
X953748Y664889D01*
X953725Y665003D01*
X953723Y665021D01*
X953720Y665029D01*
X953716Y665047D01*
X951563Y673081D01*
X951563Y681755D01*
X953716Y689790D01*
X953729Y689881D01*
X953751Y689971D01*
X953750Y690038D01*
X953759Y690105D01*
X953749Y690196D01*
X953748Y690289D01*
X953725Y690403D01*
X953723Y690421D01*
X953720Y690429D01*
X953716Y690447D01*
X951563Y698481D01*
X951563Y707155D01*
X953716Y715190D01*
X953729Y715281D01*
X953751Y715371D01*
X953750Y715438D01*
X953759Y715505D01*
X953749Y715596D01*
X953748Y715689D01*
X953725Y715803D01*
X953723Y715821D01*
X953720Y715829D01*
X953716Y715847D01*
X951563Y723881D01*
X951563Y732555D01*
X953808Y740933D01*
X958145Y748444D01*
X964278Y754577D01*
X971789Y758914D01*
X980167Y761159D01*
X988841Y761159D01*
X997219Y758914D01*
X1004730Y754577D01*
X1010863Y748444D01*
X1015200Y740933D01*
X1017445Y732555D01*
X1017445Y723881D01*
X1015292Y715847D01*
X1015279Y715755D01*
X1015257Y715665D01*
X1015258Y715598D01*
X1015249Y715531D01*
X1015259Y715440D01*
X1015260Y715347D01*
X1015283Y715233D01*
X1015285Y715216D01*
X1015288Y715208D01*
X1015292Y715190D01*
X1017445Y707155D01*
X1017445Y698481D01*
X1015292Y690447D01*
X1015279Y690355D01*
X1015257Y690265D01*
X1015258Y690198D01*
X1015249Y690131D01*
X1015259Y690040D01*
X1015260Y689947D01*
X1015283Y689833D01*
X1015285Y689816D01*
X1015288Y689808D01*
X1015292Y689790D01*
X1017445Y681755D01*
X1017445Y673081D01*
X1015292Y665047D01*
X1015279Y664955D01*
X1015257Y664865D01*
X1015258Y664798D01*
X1015249Y664731D01*
X1015259Y664640D01*
X1015260Y664547D01*
X1015279Y664455D01*
X1015279Y664451D01*
X1015280Y664447D01*
X1015283Y664433D01*
X1015285Y664416D01*
X1015288Y664408D01*
X1015292Y664390D01*
X1017445Y656355D01*
X1017445Y647681D01*
X1016169Y642920D01*
X1016148Y642769D01*
X1016126Y642618D01*
X1016127Y642612D01*
X1016126Y642605D01*
X1016143Y642453D01*
X1016159Y642302D01*
X1016161Y642296D01*
X1016162Y642289D01*
X1016217Y642146D01*
X1016270Y642004D01*
X1016274Y641998D01*
X1016276Y641992D01*
X1016365Y641867D01*
X1016451Y641743D01*
X1016456Y641738D01*
X1016460Y641733D01*
X1016577Y641634D01*
X1016692Y641535D01*
X1016698Y641532D01*
X1016703Y641527D01*
X1016841Y641461D01*
X1016977Y641393D01*
X1016983Y641392D01*
X1016989Y641389D01*
X1017139Y641359D01*
X1017288Y641327D01*
X1017294Y641327D01*
X1017301Y641326D01*
X1017454Y641334D01*
X1017605Y641340D01*
X1017612Y641342D01*
X1017619Y641342D01*
X1017765Y641388D01*
X1017910Y641431D01*
X1017916Y641435D01*
X1017922Y641437D01*
X1018053Y641518D01*
X1018182Y641596D01*
X1018187Y641601D01*
X1018193Y641604D01*
X1018299Y641715D01*
X1018405Y641823D01*
X1018410Y641830D01*
X1018413Y641834D01*
X1018418Y641843D01*
X1018494Y641957D01*
X1018876Y642619D01*
X1025653Y649396D01*
X1033954Y654188D01*
X1043212Y656669D01*
X1052796Y656669D01*
X1062054Y654188D01*
X1070355Y649396D01*
X1077132Y642619D01*
X1081994Y634198D01*
X1082078Y634087D01*
X1082158Y633973D01*
X1082174Y633960D01*
X1082186Y633944D01*
X1082295Y633858D01*
X1082401Y633768D01*
X1082419Y633759D01*
X1082435Y633747D01*
X1082563Y633690D01*
X1082687Y633629D01*
X1082707Y633625D01*
X1082726Y633617D01*
X1082863Y633594D01*
X1082999Y633566D01*
X1083019Y633567D01*
X1083039Y633564D01*
X1083178Y633576D01*
X1083317Y633583D01*
X1083336Y633589D01*
X1083356Y633590D01*
X1083487Y633636D01*
X1083620Y633678D01*
X1083637Y633688D01*
X1083657Y633695D01*
X1083772Y633772D01*
X1083891Y633845D01*
X1083905Y633860D01*
X1083922Y633871D01*
X1084014Y633973D01*
X1084111Y634074D01*
X1084121Y634092D01*
X1084135Y634107D01*
X1084199Y634230D01*
X1084267Y634351D01*
X1084276Y634378D01*
X1084282Y634389D01*
X1084287Y634408D01*
X1084319Y634504D01*
X1086076Y641061D01*
X1091176Y649894D01*
X1098388Y657106D01*
X1107221Y662206D01*
X1117072Y664846D01*
X1127272Y664846D01*
X1137123Y662206D01*
X1145956Y657106D01*
X1153168Y649894D01*
X1158268Y641061D01*
X1160908Y631210D01*
X1160908Y621010D01*
X1158268Y611159D01*
X1153168Y602326D01*
X1145956Y595114D01*
X1137123Y590014D01*
X1127272Y587374D01*
X1126560Y587374D01*
X1126462Y587362D01*
X1126363Y587359D01*
X1126305Y587342D01*
X1126245Y587334D01*
X1126153Y587298D01*
X1126058Y587270D01*
X1126005Y587240D01*
X1125949Y587217D01*
X1125869Y587159D01*
X1125784Y587109D01*
X1125708Y587043D01*
X1125692Y587031D01*
X1125684Y587021D01*
X1125663Y587003D01*
X1087294Y548633D01*
X1080343Y544620D01*
X1076631Y543626D01*
X1076527Y543583D01*
X1076421Y543549D01*
X1076381Y543524D01*
X1076337Y543506D01*
X1076247Y543439D01*
X1076152Y543379D01*
X1076120Y543344D01*
X1076082Y543316D01*
X1076011Y543229D01*
X1075934Y543147D01*
X1075911Y543106D01*
X1075881Y543069D01*
X1075835Y542967D01*
X1075780Y542869D01*
X1075769Y542823D01*
X1075749Y542780D01*
X1075729Y542669D01*
X1075701Y542561D01*
X1075696Y542488D01*
X1075693Y542467D01*
X1075694Y542449D01*
X1075691Y542400D01*
X1075691Y529628D01*
X1075020Y527124D01*
X1075003Y527000D01*
X1074979Y526876D01*
X1074981Y526843D01*
X1074977Y526809D01*
X1074991Y526684D01*
X1074999Y526559D01*
X1075009Y526527D01*
X1075013Y526493D01*
X1075058Y526376D01*
X1075097Y526257D01*
X1075115Y526228D01*
X1075127Y526197D01*
X1075200Y526094D01*
X1075267Y525988D01*
X1075292Y525965D01*
X1075311Y525937D01*
X1075407Y525856D01*
X1075499Y525770D01*
X1075528Y525754D01*
X1075554Y525732D01*
X1075667Y525677D01*
X1075777Y525616D01*
X1075810Y525608D01*
X1075840Y525593D01*
X1075964Y525568D01*
X1076085Y525537D01*
X1076134Y525534D01*
X1076152Y525530D01*
X1076174Y525531D01*
X1076246Y525527D01*
X1124915Y525527D01*
X1132667Y523450D01*
X1139618Y519437D01*
X1177297Y481758D01*
X1180765Y475751D01*
X1180853Y475634D01*
X1180938Y475517D01*
X1180949Y475508D01*
X1180957Y475497D01*
X1181071Y475407D01*
X1181183Y475314D01*
X1181196Y475308D01*
X1181206Y475300D01*
X1181340Y475240D01*
X1181471Y475178D01*
X1181484Y475176D01*
X1181497Y475170D01*
X1181641Y475146D01*
X1181784Y475118D01*
X1181797Y475119D01*
X1181810Y475117D01*
X1181956Y475129D01*
G37*
%LPC*%
G36*
X380162Y52831D02*
X380162Y52831D01*
X371182Y55237D01*
X363131Y59886D01*
X356558Y66459D01*
X351909Y74510D01*
X349503Y83490D01*
X349503Y92786D01*
X351909Y101766D01*
X356558Y109817D01*
X363131Y116390D01*
X371182Y121039D01*
X377581Y122753D01*
X377703Y122803D01*
X377828Y122848D01*
X377851Y122863D01*
X377876Y122873D01*
X377982Y122952D01*
X378091Y123027D01*
X378109Y123047D01*
X378131Y123063D01*
X378214Y123166D01*
X378302Y123265D01*
X378314Y123289D01*
X378331Y123310D01*
X378386Y123430D01*
X378446Y123548D01*
X378452Y123575D01*
X378464Y123599D01*
X378487Y123729D01*
X378516Y123859D01*
X378515Y123886D01*
X378520Y123912D01*
X378510Y124044D01*
X378506Y124176D01*
X378499Y124202D01*
X378497Y124229D01*
X378455Y124355D01*
X378418Y124482D01*
X378404Y124505D01*
X378396Y124531D01*
X378324Y124642D01*
X378256Y124756D01*
X378231Y124784D01*
X378223Y124798D01*
X378207Y124813D01*
X378150Y124877D01*
X376878Y126149D01*
X372229Y134200D01*
X369823Y143180D01*
X369823Y152476D01*
X372229Y161456D01*
X376878Y169507D01*
X378150Y170779D01*
X378231Y170884D01*
X378317Y170985D01*
X378328Y171009D01*
X378345Y171031D01*
X378398Y171152D01*
X378455Y171271D01*
X378461Y171298D01*
X378471Y171322D01*
X378492Y171453D01*
X378518Y171583D01*
X378517Y171610D01*
X378521Y171636D01*
X378509Y171769D01*
X378502Y171900D01*
X378494Y171926D01*
X378491Y171953D01*
X378447Y172078D01*
X378407Y172204D01*
X378393Y172227D01*
X378384Y172252D01*
X378309Y172362D01*
X378240Y172474D01*
X378220Y172493D01*
X378205Y172516D01*
X378106Y172603D01*
X378010Y172695D01*
X377987Y172708D01*
X377967Y172726D01*
X377849Y172786D01*
X377734Y172851D01*
X377697Y172864D01*
X377684Y172871D01*
X377662Y172875D01*
X377581Y172903D01*
X371182Y174617D01*
X363131Y179266D01*
X356558Y185839D01*
X351909Y193890D01*
X349503Y202870D01*
X349503Y212166D01*
X351909Y221146D01*
X356558Y229197D01*
X363131Y235770D01*
X371182Y240419D01*
X380162Y242825D01*
X409270Y242825D01*
X418250Y240419D01*
X426301Y235770D01*
X432874Y229197D01*
X437523Y221146D01*
X437883Y219799D01*
X437936Y219671D01*
X437984Y219540D01*
X437996Y219523D01*
X438004Y219505D01*
X438087Y219393D01*
X438166Y219279D01*
X438181Y219266D01*
X438193Y219249D01*
X438301Y219162D01*
X438406Y219071D01*
X438425Y219062D01*
X438440Y219049D01*
X438566Y218991D01*
X438691Y218929D01*
X438711Y218925D01*
X438729Y218917D01*
X438866Y218892D01*
X439002Y218863D01*
X439023Y218864D01*
X439042Y218860D01*
X439181Y218870D01*
X439320Y218876D01*
X439339Y218882D01*
X439360Y218883D01*
X439491Y218928D01*
X439625Y218968D01*
X439642Y218978D01*
X439661Y218984D01*
X439778Y219060D01*
X439897Y219132D01*
X439911Y219146D01*
X439928Y219157D01*
X440022Y219260D01*
X440120Y219359D01*
X440135Y219382D01*
X440143Y219391D01*
X440153Y219409D01*
X440209Y219493D01*
X444391Y226737D01*
X450681Y233027D01*
X458384Y237475D01*
X466976Y239777D01*
X475872Y239777D01*
X484464Y237475D01*
X492167Y233027D01*
X498457Y226737D01*
X502905Y219034D01*
X505207Y210442D01*
X505207Y201546D01*
X502905Y192954D01*
X498457Y185251D01*
X492167Y178961D01*
X484464Y174513D01*
X475872Y172211D01*
X466976Y172211D01*
X458384Y174513D01*
X450681Y178961D01*
X444391Y185251D01*
X439943Y192954D01*
X439798Y193498D01*
X439746Y193626D01*
X439697Y193757D01*
X439685Y193773D01*
X439678Y193792D01*
X439595Y193904D01*
X439516Y194018D01*
X439500Y194031D01*
X439488Y194047D01*
X439380Y194135D01*
X439275Y194226D01*
X439257Y194235D01*
X439241Y194248D01*
X439115Y194306D01*
X438990Y194367D01*
X438970Y194372D01*
X438952Y194380D01*
X438815Y194405D01*
X438679Y194434D01*
X438659Y194433D01*
X438639Y194437D01*
X438501Y194426D01*
X438361Y194421D01*
X438342Y194415D01*
X438322Y194413D01*
X438190Y194369D01*
X438057Y194329D01*
X438040Y194319D01*
X438020Y194312D01*
X437904Y194237D01*
X437785Y194165D01*
X437771Y194150D01*
X437754Y194139D01*
X437659Y194037D01*
X437562Y193938D01*
X437546Y193914D01*
X437538Y193905D01*
X437528Y193887D01*
X437473Y193804D01*
X432874Y185839D01*
X431602Y184567D01*
X431521Y184462D01*
X431435Y184361D01*
X431424Y184337D01*
X431407Y184315D01*
X431354Y184194D01*
X431297Y184075D01*
X431291Y184048D01*
X431281Y184024D01*
X431260Y183893D01*
X431234Y183763D01*
X431235Y183736D01*
X431231Y183710D01*
X431243Y183577D01*
X431250Y183446D01*
X431258Y183420D01*
X431261Y183393D01*
X431305Y183268D01*
X431345Y183142D01*
X431359Y183119D01*
X431368Y183094D01*
X431443Y182984D01*
X431512Y182872D01*
X431532Y182853D01*
X431547Y182830D01*
X431646Y182743D01*
X431742Y182651D01*
X431765Y182638D01*
X431785Y182620D01*
X431903Y182560D01*
X432018Y182495D01*
X432055Y182482D01*
X432068Y182475D01*
X432090Y182471D01*
X432171Y182443D01*
X438570Y180729D01*
X446621Y176080D01*
X453194Y169507D01*
X457843Y161456D01*
X460249Y152476D01*
X460249Y143180D01*
X458853Y137971D01*
X458835Y137840D01*
X458812Y137710D01*
X458814Y137683D01*
X458810Y137656D01*
X458825Y137524D01*
X458835Y137393D01*
X458843Y137367D01*
X458846Y137340D01*
X458894Y137216D01*
X458936Y137091D01*
X458951Y137068D01*
X458960Y137043D01*
X459037Y136935D01*
X459109Y136824D01*
X459129Y136806D01*
X459144Y136784D01*
X459245Y136699D01*
X459343Y136609D01*
X459367Y136596D01*
X459387Y136578D01*
X459506Y136521D01*
X459623Y136458D01*
X459649Y136452D01*
X459673Y136440D01*
X459803Y136414D01*
X459932Y136382D01*
X459959Y136382D01*
X459985Y136377D01*
X460118Y136384D01*
X460250Y136385D01*
X460287Y136392D01*
X460303Y136393D01*
X460324Y136400D01*
X460408Y136417D01*
X466976Y138177D01*
X475872Y138177D01*
X484464Y135875D01*
X492167Y131427D01*
X498457Y125137D01*
X502905Y117434D01*
X505207Y108842D01*
X505207Y99946D01*
X502905Y91354D01*
X498457Y83651D01*
X492167Y77361D01*
X484464Y72913D01*
X475872Y70611D01*
X466976Y70611D01*
X458384Y72913D01*
X450681Y77361D01*
X444391Y83651D01*
X442297Y87278D01*
X442209Y87394D01*
X442124Y87512D01*
X442113Y87520D01*
X442105Y87531D01*
X441991Y87621D01*
X441879Y87714D01*
X441866Y87720D01*
X441856Y87729D01*
X441722Y87788D01*
X441591Y87850D01*
X441578Y87852D01*
X441565Y87858D01*
X441421Y87883D01*
X441278Y87910D01*
X441265Y87909D01*
X441252Y87911D01*
X441106Y87899D01*
X440961Y87890D01*
X440948Y87886D01*
X440935Y87885D01*
X440797Y87837D01*
X440659Y87792D01*
X440647Y87785D01*
X440634Y87780D01*
X440513Y87700D01*
X440390Y87622D01*
X440381Y87612D01*
X440369Y87604D01*
X440272Y87497D01*
X440172Y87390D01*
X440165Y87378D01*
X440156Y87368D01*
X440089Y87239D01*
X440018Y87112D01*
X440015Y87099D01*
X440009Y87087D01*
X439975Y86945D01*
X439939Y86804D01*
X439938Y86785D01*
X439936Y86777D01*
X439936Y86760D01*
X439929Y86643D01*
X439929Y83490D01*
X437523Y74510D01*
X432874Y66459D01*
X426301Y59886D01*
X418250Y55237D01*
X409270Y52831D01*
X380162Y52831D01*
G37*
%LPD*%
G36*
X470242Y500143D02*
X470242Y500143D01*
X470374Y500154D01*
X470399Y500163D01*
X470426Y500167D01*
X470549Y500215D01*
X470674Y500259D01*
X470697Y500274D01*
X470722Y500284D01*
X470829Y500361D01*
X470939Y500435D01*
X470957Y500455D01*
X470979Y500470D01*
X471063Y500572D01*
X471152Y500671D01*
X471165Y500695D01*
X471182Y500715D01*
X471238Y500835D01*
X471300Y500953D01*
X471306Y500979D01*
X471317Y501003D01*
X471342Y501133D01*
X471373Y501262D01*
X471372Y501289D01*
X471377Y501315D01*
X471369Y501447D01*
X471366Y501580D01*
X471359Y501606D01*
X471357Y501633D01*
X471317Y501759D01*
X471281Y501886D01*
X471264Y501921D01*
X471259Y501935D01*
X471248Y501954D01*
X471210Y502031D01*
X471185Y502072D01*
X468883Y510664D01*
X468883Y518667D01*
X468870Y518771D01*
X468866Y518877D01*
X468850Y518929D01*
X468843Y518982D01*
X468805Y519080D01*
X468774Y519182D01*
X468746Y519228D01*
X468726Y519278D01*
X468664Y519363D01*
X468610Y519454D01*
X468571Y519492D01*
X468540Y519535D01*
X468458Y519603D01*
X468383Y519677D01*
X468311Y519724D01*
X468295Y519738D01*
X468281Y519744D01*
X468249Y519766D01*
X463122Y522725D01*
X457447Y528400D01*
X453434Y535351D01*
X451357Y543103D01*
X451357Y600876D01*
X451343Y600988D01*
X451337Y601100D01*
X451323Y601145D01*
X451317Y601192D01*
X451276Y601296D01*
X451243Y601403D01*
X451218Y601444D01*
X451200Y601487D01*
X451134Y601578D01*
X451075Y601674D01*
X451041Y601706D01*
X451014Y601745D01*
X450927Y601816D01*
X450846Y601894D01*
X450805Y601917D01*
X450769Y601947D01*
X450667Y601995D01*
X450569Y602051D01*
X450500Y602074D01*
X450481Y602083D01*
X450463Y602086D01*
X450417Y602102D01*
X447970Y602757D01*
X440267Y607205D01*
X433977Y613495D01*
X429529Y621198D01*
X427227Y629790D01*
X427227Y637560D01*
X427217Y637645D01*
X427216Y637731D01*
X427189Y637865D01*
X427187Y637875D01*
X427186Y637880D01*
X427184Y637888D01*
X424560Y647680D01*
X424560Y657880D01*
X427200Y667731D01*
X432300Y676564D01*
X432444Y676708D01*
X432504Y676786D01*
X432572Y676858D01*
X432601Y676911D01*
X432638Y676959D01*
X432678Y677050D01*
X432726Y677137D01*
X432741Y677196D01*
X432765Y677251D01*
X432780Y677349D01*
X432805Y677445D01*
X432811Y677545D01*
X432815Y677565D01*
X432813Y677578D01*
X432815Y677606D01*
X432815Y776073D01*
X432802Y776178D01*
X432798Y776284D01*
X432782Y776335D01*
X432775Y776389D01*
X432737Y776487D01*
X432706Y776588D01*
X432678Y776634D01*
X432658Y776684D01*
X432596Y776770D01*
X432542Y776860D01*
X432503Y776898D01*
X432472Y776942D01*
X432390Y777009D01*
X432315Y777083D01*
X432243Y777130D01*
X432227Y777144D01*
X432212Y777151D01*
X432181Y777172D01*
X431638Y777486D01*
X424426Y784698D01*
X420344Y791767D01*
X420264Y791872D01*
X420189Y791981D01*
X420168Y791998D01*
X420152Y792020D01*
X420049Y792102D01*
X419948Y792189D01*
X419924Y792201D01*
X419903Y792218D01*
X419782Y792271D01*
X419664Y792330D01*
X419637Y792336D01*
X419612Y792347D01*
X419482Y792369D01*
X419353Y792397D01*
X419326Y792396D01*
X419299Y792400D01*
X419167Y792389D01*
X419035Y792384D01*
X419009Y792376D01*
X418982Y792374D01*
X418857Y792330D01*
X418730Y792292D01*
X418707Y792278D01*
X418682Y792269D01*
X418571Y792196D01*
X418458Y792128D01*
X418439Y792108D01*
X418417Y792093D01*
X418328Y791995D01*
X418235Y791901D01*
X418214Y791869D01*
X418204Y791857D01*
X418194Y791838D01*
X418146Y791767D01*
X414840Y786041D01*
X408267Y779468D01*
X400216Y774819D01*
X393817Y773105D01*
X393695Y773055D01*
X393570Y773010D01*
X393547Y772995D01*
X393522Y772985D01*
X393416Y772906D01*
X393307Y772831D01*
X393289Y772811D01*
X393267Y772795D01*
X393184Y772692D01*
X393096Y772593D01*
X393084Y772569D01*
X393067Y772548D01*
X393012Y772428D01*
X392952Y772310D01*
X392946Y772283D01*
X392934Y772259D01*
X392911Y772129D01*
X392882Y771999D01*
X392883Y771972D01*
X392878Y771946D01*
X392888Y771814D01*
X392892Y771682D01*
X392899Y771656D01*
X392901Y771629D01*
X392943Y771503D01*
X392980Y771376D01*
X392994Y771353D01*
X393002Y771327D01*
X393074Y771216D01*
X393142Y771102D01*
X393167Y771074D01*
X393175Y771060D01*
X393191Y771045D01*
X393248Y770981D01*
X394520Y769709D01*
X399169Y761658D01*
X401575Y752678D01*
X401575Y743382D01*
X399169Y734402D01*
X394520Y726351D01*
X393248Y725079D01*
X393167Y724974D01*
X393081Y724873D01*
X393070Y724849D01*
X393053Y724827D01*
X393000Y724706D01*
X392943Y724587D01*
X392937Y724560D01*
X392927Y724536D01*
X392906Y724405D01*
X392880Y724275D01*
X392881Y724248D01*
X392877Y724222D01*
X392889Y724089D01*
X392896Y723958D01*
X392904Y723932D01*
X392907Y723905D01*
X392951Y723780D01*
X392991Y723654D01*
X393005Y723631D01*
X393014Y723606D01*
X393089Y723496D01*
X393158Y723384D01*
X393178Y723365D01*
X393193Y723342D01*
X393292Y723255D01*
X393388Y723163D01*
X393411Y723150D01*
X393431Y723132D01*
X393549Y723072D01*
X393664Y723007D01*
X393701Y722994D01*
X393714Y722987D01*
X393736Y722983D01*
X393817Y722955D01*
X400216Y721241D01*
X408267Y716592D01*
X414840Y710019D01*
X419489Y701968D01*
X421895Y692988D01*
X421895Y683692D01*
X419489Y674712D01*
X414840Y666661D01*
X408267Y660088D01*
X400216Y655439D01*
X391236Y653033D01*
X389766Y653033D01*
X389635Y653017D01*
X389503Y653006D01*
X389477Y652997D01*
X389450Y652993D01*
X389328Y652945D01*
X389202Y652901D01*
X389180Y652886D01*
X389155Y652876D01*
X389048Y652799D01*
X388937Y652725D01*
X388919Y652705D01*
X388897Y652690D01*
X388813Y652587D01*
X388724Y652489D01*
X388712Y652465D01*
X388695Y652445D01*
X388638Y652325D01*
X388577Y652208D01*
X388570Y652181D01*
X388559Y652157D01*
X388534Y652027D01*
X388504Y651898D01*
X388504Y651871D01*
X388499Y651845D01*
X388507Y651713D01*
X388510Y651580D01*
X388517Y651554D01*
X388519Y651527D01*
X388560Y651401D01*
X388595Y651274D01*
X388612Y651239D01*
X388617Y651225D01*
X388629Y651206D01*
X388667Y651129D01*
X390891Y647278D01*
X393193Y638686D01*
X393193Y629790D01*
X390891Y621198D01*
X386443Y613495D01*
X380153Y607205D01*
X379447Y606798D01*
X379342Y606718D01*
X379233Y606642D01*
X379216Y606622D01*
X379194Y606605D01*
X379112Y606502D01*
X379025Y606401D01*
X379013Y606377D01*
X378996Y606356D01*
X378942Y606235D01*
X378884Y606117D01*
X378878Y606090D01*
X378867Y606066D01*
X378845Y605935D01*
X378817Y605806D01*
X378818Y605779D01*
X378814Y605752D01*
X378825Y605620D01*
X378830Y605488D01*
X378838Y605462D01*
X378840Y605435D01*
X378884Y605310D01*
X378922Y605183D01*
X378936Y605160D01*
X378945Y605135D01*
X379018Y605024D01*
X379086Y604911D01*
X379106Y604892D01*
X379121Y604870D01*
X379219Y604781D01*
X379313Y604688D01*
X379345Y604667D01*
X379357Y604657D01*
X379376Y604647D01*
X379447Y604599D01*
X380010Y604274D01*
X387104Y597180D01*
X392120Y588492D01*
X394717Y578802D01*
X394717Y568770D01*
X392120Y559080D01*
X387104Y550392D01*
X385996Y549284D01*
X385923Y549190D01*
X385844Y549100D01*
X385826Y549064D01*
X385801Y549032D01*
X385754Y548923D01*
X385700Y548817D01*
X385691Y548778D01*
X385675Y548740D01*
X385656Y548623D01*
X385630Y548507D01*
X385631Y548466D01*
X385625Y548426D01*
X385636Y548308D01*
X385640Y548189D01*
X385651Y548150D01*
X385655Y548110D01*
X385695Y547997D01*
X385728Y547883D01*
X385749Y547849D01*
X385762Y547810D01*
X385829Y547712D01*
X385890Y547609D01*
X385930Y547564D01*
X385941Y547547D01*
X385956Y547534D01*
X385996Y547489D01*
X394717Y538768D01*
X394717Y507204D01*
X389806Y502293D01*
X389720Y502183D01*
X389632Y502077D01*
X389624Y502058D01*
X389611Y502042D01*
X389556Y501914D01*
X389497Y501789D01*
X389493Y501769D01*
X389485Y501750D01*
X389463Y501612D01*
X389437Y501476D01*
X389438Y501456D01*
X389435Y501436D01*
X389448Y501297D01*
X389457Y501159D01*
X389463Y501140D01*
X389465Y501120D01*
X389512Y500988D01*
X389555Y500857D01*
X389565Y500839D01*
X389572Y500820D01*
X389650Y500705D01*
X389725Y500588D01*
X389740Y500574D01*
X389751Y500557D01*
X389855Y500465D01*
X389956Y500370D01*
X389974Y500360D01*
X389989Y500347D01*
X390113Y500283D01*
X390235Y500216D01*
X390254Y500211D01*
X390273Y500202D01*
X390408Y500172D01*
X390543Y500137D01*
X390571Y500135D01*
X390583Y500132D01*
X390603Y500133D01*
X390704Y500127D01*
X470110Y500127D01*
X470242Y500143D01*
G37*
%LPC*%
G36*
X230329Y643381D02*
X230329Y643381D01*
X211581Y662129D01*
X211581Y680218D01*
X211568Y680323D01*
X211564Y680429D01*
X211548Y680480D01*
X211541Y680534D01*
X211503Y680632D01*
X211472Y680733D01*
X211444Y680779D01*
X211424Y680829D01*
X211362Y680915D01*
X211308Y681005D01*
X211269Y681043D01*
X211238Y681087D01*
X211156Y681154D01*
X211081Y681228D01*
X211009Y681276D01*
X210993Y681290D01*
X210979Y681296D01*
X210947Y681317D01*
X205571Y684421D01*
X199281Y690711D01*
X194833Y698414D01*
X192531Y707006D01*
X192531Y715902D01*
X194833Y724494D01*
X199281Y732197D01*
X205571Y738487D01*
X213274Y742935D01*
X221866Y745237D01*
X230762Y745237D01*
X239354Y742935D01*
X247057Y738487D01*
X251324Y734219D01*
X251419Y734146D01*
X251508Y734068D01*
X251544Y734049D01*
X251576Y734025D01*
X251685Y733977D01*
X251791Y733923D01*
X251830Y733914D01*
X251868Y733898D01*
X251985Y733880D01*
X252101Y733853D01*
X252142Y733855D01*
X252182Y733848D01*
X252300Y733860D01*
X252419Y733863D01*
X252458Y733874D01*
X252498Y733878D01*
X252611Y733918D01*
X252725Y733952D01*
X252759Y733972D01*
X252798Y733986D01*
X252896Y734053D01*
X252999Y734113D01*
X253044Y734153D01*
X253061Y734164D01*
X253074Y734180D01*
X253119Y734219D01*
X254593Y735693D01*
X262296Y740141D01*
X270888Y742443D01*
X279784Y742443D01*
X288376Y740141D01*
X296079Y735693D01*
X302369Y729403D01*
X306817Y721700D01*
X309119Y713108D01*
X309119Y704212D01*
X307897Y699652D01*
X307882Y699547D01*
X307859Y699444D01*
X307861Y699390D01*
X307854Y699337D01*
X307866Y699232D01*
X307869Y699126D01*
X307884Y699075D01*
X307890Y699021D01*
X307928Y698922D01*
X307957Y698821D01*
X307985Y698775D01*
X308004Y698724D01*
X308065Y698638D01*
X308119Y698547D01*
X308176Y698483D01*
X308188Y698465D01*
X308200Y698455D01*
X308225Y698426D01*
X317501Y689151D01*
X317501Y662637D01*
X298753Y643889D01*
X272239Y643889D01*
X265693Y650436D01*
X265598Y650509D01*
X265509Y650588D01*
X265473Y650606D01*
X265441Y650631D01*
X265332Y650678D01*
X265226Y650732D01*
X265187Y650741D01*
X265149Y650757D01*
X265032Y650776D01*
X264916Y650802D01*
X264875Y650801D01*
X264835Y650807D01*
X264717Y650796D01*
X264598Y650792D01*
X264559Y650781D01*
X264519Y650777D01*
X264406Y650737D01*
X264292Y650704D01*
X264258Y650683D01*
X264219Y650670D01*
X264121Y650603D01*
X264018Y650542D01*
X263973Y650503D01*
X263956Y650491D01*
X263943Y650476D01*
X263898Y650436D01*
X256843Y643381D01*
X230329Y643381D01*
G37*
%LPD*%
%LPC*%
G36*
X774977Y626744D02*
X774977Y626744D01*
X746632Y655089D01*
X746632Y695175D01*
X774977Y723520D01*
X815063Y723520D01*
X843408Y695175D01*
X843408Y655089D01*
X815063Y626744D01*
X774977Y626744D01*
G37*
%LPD*%
%LPC*%
G36*
X122372Y587149D02*
X122372Y587149D01*
X113432Y589545D01*
X105417Y594172D01*
X98872Y600717D01*
X94245Y608732D01*
X91849Y617672D01*
X91849Y626928D01*
X94245Y635868D01*
X98872Y643883D01*
X101792Y646803D01*
X101865Y646897D01*
X101944Y646986D01*
X101962Y647022D01*
X101987Y647054D01*
X102034Y647163D01*
X102088Y647269D01*
X102097Y647308D01*
X102113Y647346D01*
X102132Y647463D01*
X102158Y647579D01*
X102157Y647620D01*
X102163Y647660D01*
X102152Y647778D01*
X102148Y647897D01*
X102137Y647936D01*
X102133Y647976D01*
X102093Y648089D01*
X102060Y648203D01*
X102039Y648238D01*
X102026Y648276D01*
X101959Y648374D01*
X101898Y648477D01*
X101858Y648522D01*
X101847Y648539D01*
X101832Y648552D01*
X101792Y648598D01*
X98872Y651517D01*
X94245Y659532D01*
X91849Y668472D01*
X91849Y677728D01*
X94245Y686668D01*
X98872Y694683D01*
X105417Y701228D01*
X113432Y705855D01*
X122372Y708251D01*
X131628Y708251D01*
X140568Y705855D01*
X148583Y701228D01*
X155128Y694683D01*
X159755Y686668D01*
X162151Y677728D01*
X162151Y668472D01*
X159755Y659532D01*
X155128Y651517D01*
X152208Y648598D01*
X152135Y648503D01*
X152056Y648414D01*
X152038Y648378D01*
X152013Y648346D01*
X151966Y648237D01*
X151912Y648131D01*
X151903Y648092D01*
X151887Y648054D01*
X151868Y647937D01*
X151842Y647821D01*
X151843Y647780D01*
X151837Y647740D01*
X151848Y647622D01*
X151852Y647503D01*
X151863Y647464D01*
X151867Y647424D01*
X151907Y647311D01*
X151940Y647197D01*
X151961Y647163D01*
X151974Y647124D01*
X152041Y647026D01*
X152102Y646923D01*
X152142Y646878D01*
X152153Y646861D01*
X152168Y646848D01*
X152208Y646803D01*
X155128Y643883D01*
X159755Y635868D01*
X162151Y626928D01*
X162151Y617672D01*
X159755Y608732D01*
X155128Y600717D01*
X148583Y594172D01*
X140568Y589545D01*
X131628Y587149D01*
X122372Y587149D01*
G37*
%LPD*%
%LPC*%
G36*
X124912Y429669D02*
X124912Y429669D01*
X115972Y432065D01*
X107957Y436692D01*
X101412Y443237D01*
X96785Y451252D01*
X94389Y460192D01*
X94389Y469448D01*
X96785Y478388D01*
X101412Y486403D01*
X104332Y489322D01*
X104405Y489417D01*
X104484Y489506D01*
X104502Y489542D01*
X104527Y489574D01*
X104574Y489683D01*
X104628Y489789D01*
X104637Y489828D01*
X104653Y489866D01*
X104672Y489983D01*
X104698Y490099D01*
X104697Y490140D01*
X104703Y490180D01*
X104692Y490298D01*
X104688Y490417D01*
X104677Y490456D01*
X104673Y490496D01*
X104633Y490609D01*
X104600Y490723D01*
X104579Y490757D01*
X104566Y490796D01*
X104499Y490894D01*
X104438Y490997D01*
X104398Y491042D01*
X104387Y491059D01*
X104372Y491072D01*
X104332Y491117D01*
X101412Y494037D01*
X96785Y502052D01*
X94389Y510992D01*
X94389Y520248D01*
X96785Y529188D01*
X101412Y537203D01*
X107957Y543748D01*
X115972Y548375D01*
X124912Y550771D01*
X134168Y550771D01*
X143108Y548375D01*
X151123Y543748D01*
X157668Y537203D01*
X162295Y529188D01*
X164691Y520248D01*
X164691Y510992D01*
X162295Y502052D01*
X157668Y494037D01*
X154748Y491117D01*
X154675Y491023D01*
X154596Y490934D01*
X154578Y490898D01*
X154553Y490866D01*
X154506Y490757D01*
X154452Y490651D01*
X154443Y490612D01*
X154427Y490574D01*
X154408Y490457D01*
X154382Y490341D01*
X154383Y490300D01*
X154377Y490260D01*
X154388Y490142D01*
X154392Y490023D01*
X154403Y489984D01*
X154407Y489944D01*
X154447Y489831D01*
X154480Y489717D01*
X154501Y489682D01*
X154514Y489644D01*
X154581Y489546D01*
X154642Y489443D01*
X154682Y489398D01*
X154693Y489381D01*
X154708Y489368D01*
X154748Y489322D01*
X157668Y486403D01*
X162295Y478388D01*
X164691Y469448D01*
X164691Y460192D01*
X162295Y451252D01*
X157668Y443237D01*
X151123Y436692D01*
X143108Y432065D01*
X134168Y429669D01*
X124912Y429669D01*
G37*
%LPD*%
%LPC*%
G36*
X127198Y283873D02*
X127198Y283873D01*
X118258Y286269D01*
X110243Y290896D01*
X103698Y297441D01*
X99071Y305456D01*
X96675Y314396D01*
X96675Y323652D01*
X99071Y332592D01*
X103698Y340607D01*
X106618Y343527D01*
X106691Y343621D01*
X106770Y343710D01*
X106788Y343746D01*
X106813Y343778D01*
X106860Y343887D01*
X106914Y343993D01*
X106923Y344032D01*
X106939Y344070D01*
X106958Y344187D01*
X106984Y344303D01*
X106983Y344344D01*
X106989Y344384D01*
X106978Y344502D01*
X106974Y344621D01*
X106963Y344660D01*
X106959Y344700D01*
X106919Y344813D01*
X106886Y344927D01*
X106865Y344962D01*
X106852Y345000D01*
X106785Y345098D01*
X106724Y345201D01*
X106684Y345246D01*
X106673Y345263D01*
X106658Y345276D01*
X106618Y345322D01*
X103698Y348241D01*
X99071Y356256D01*
X96675Y365196D01*
X96675Y374452D01*
X99071Y383392D01*
X103698Y391407D01*
X110243Y397952D01*
X118258Y402579D01*
X127198Y404975D01*
X136454Y404975D01*
X145394Y402579D01*
X153409Y397952D01*
X159954Y391407D01*
X164581Y383392D01*
X166977Y374452D01*
X166977Y365196D01*
X164581Y356256D01*
X159954Y348241D01*
X157034Y345322D01*
X156961Y345227D01*
X156882Y345138D01*
X156864Y345102D01*
X156839Y345070D01*
X156792Y344961D01*
X156738Y344855D01*
X156729Y344816D01*
X156713Y344778D01*
X156694Y344661D01*
X156668Y344545D01*
X156669Y344504D01*
X156663Y344464D01*
X156674Y344346D01*
X156678Y344227D01*
X156689Y344188D01*
X156693Y344148D01*
X156733Y344035D01*
X156766Y343921D01*
X156787Y343887D01*
X156800Y343848D01*
X156867Y343750D01*
X156928Y343647D01*
X156968Y343602D01*
X156979Y343585D01*
X156994Y343572D01*
X157034Y343527D01*
X159954Y340607D01*
X164581Y332592D01*
X166977Y323652D01*
X166977Y314396D01*
X164581Y305456D01*
X159954Y297441D01*
X153409Y290896D01*
X145394Y286269D01*
X136454Y283873D01*
X127198Y283873D01*
G37*
%LPD*%
%LPC*%
G36*
X117546Y119789D02*
X117546Y119789D01*
X108606Y122185D01*
X100591Y126812D01*
X94046Y133357D01*
X89419Y141372D01*
X87023Y150312D01*
X87023Y159568D01*
X89419Y168508D01*
X94046Y176523D01*
X96966Y179442D01*
X97039Y179537D01*
X97118Y179626D01*
X97136Y179662D01*
X97161Y179694D01*
X97208Y179803D01*
X97262Y179909D01*
X97271Y179948D01*
X97287Y179986D01*
X97306Y180103D01*
X97332Y180219D01*
X97331Y180260D01*
X97337Y180300D01*
X97326Y180418D01*
X97322Y180537D01*
X97311Y180576D01*
X97307Y180616D01*
X97267Y180729D01*
X97234Y180843D01*
X97213Y180877D01*
X97200Y180916D01*
X97133Y181014D01*
X97072Y181117D01*
X97032Y181162D01*
X97021Y181179D01*
X97006Y181192D01*
X96966Y181237D01*
X94046Y184157D01*
X89419Y192172D01*
X87023Y201112D01*
X87023Y210368D01*
X89419Y219308D01*
X94046Y227323D01*
X100591Y233868D01*
X108606Y238495D01*
X117546Y240891D01*
X126802Y240891D01*
X135742Y238495D01*
X143757Y233868D01*
X150302Y227323D01*
X154929Y219308D01*
X157325Y210368D01*
X157325Y201112D01*
X154929Y192172D01*
X150302Y184157D01*
X147382Y181237D01*
X147309Y181143D01*
X147230Y181054D01*
X147212Y181018D01*
X147187Y180986D01*
X147140Y180877D01*
X147086Y180771D01*
X147077Y180732D01*
X147061Y180694D01*
X147042Y180577D01*
X147016Y180461D01*
X147017Y180420D01*
X147011Y180380D01*
X147022Y180262D01*
X147026Y180143D01*
X147037Y180104D01*
X147041Y180064D01*
X147081Y179951D01*
X147114Y179837D01*
X147135Y179802D01*
X147148Y179764D01*
X147215Y179666D01*
X147276Y179563D01*
X147316Y179518D01*
X147327Y179501D01*
X147342Y179488D01*
X147382Y179442D01*
X150302Y176523D01*
X154929Y168508D01*
X157325Y159568D01*
X157325Y150312D01*
X154929Y141372D01*
X150302Y133357D01*
X143757Y126812D01*
X135742Y122185D01*
X126802Y119789D01*
X117546Y119789D01*
G37*
%LPD*%
%LPC*%
G36*
X230329Y567181D02*
X230329Y567181D01*
X211581Y585929D01*
X211581Y612443D01*
X230329Y631191D01*
X256843Y631191D01*
X263390Y624644D01*
X263484Y624571D01*
X263573Y624492D01*
X263609Y624474D01*
X263641Y624449D01*
X263750Y624402D01*
X263856Y624348D01*
X263895Y624339D01*
X263933Y624323D01*
X264050Y624304D01*
X264166Y624278D01*
X264207Y624279D01*
X264247Y624273D01*
X264365Y624284D01*
X264484Y624288D01*
X264523Y624299D01*
X264563Y624303D01*
X264676Y624343D01*
X264790Y624376D01*
X264825Y624397D01*
X264863Y624410D01*
X264961Y624477D01*
X265064Y624538D01*
X265109Y624577D01*
X265126Y624589D01*
X265139Y624604D01*
X265185Y624644D01*
X272239Y631699D01*
X298753Y631699D01*
X317501Y612951D01*
X317501Y586437D01*
X298753Y567689D01*
X272239Y567689D01*
X265693Y574236D01*
X265601Y574307D01*
X265579Y574328D01*
X265574Y574331D01*
X265509Y574388D01*
X265473Y574406D01*
X265441Y574431D01*
X265332Y574478D01*
X265226Y574532D01*
X265187Y574541D01*
X265149Y574557D01*
X265032Y574576D01*
X264916Y574602D01*
X264875Y574601D01*
X264835Y574607D01*
X264717Y574596D01*
X264598Y574592D01*
X264559Y574581D01*
X264519Y574577D01*
X264406Y574537D01*
X264292Y574504D01*
X264258Y574483D01*
X264219Y574470D01*
X264121Y574403D01*
X264018Y574342D01*
X263973Y574303D01*
X263956Y574291D01*
X263943Y574276D01*
X263898Y574236D01*
X256843Y567181D01*
X230329Y567181D01*
G37*
%LPD*%
G36*
X1046030Y96729D02*
X1046030Y96729D01*
X1046169Y96733D01*
X1046189Y96739D01*
X1046209Y96740D01*
X1046341Y96783D01*
X1046475Y96822D01*
X1046492Y96832D01*
X1046511Y96838D01*
X1046629Y96913D01*
X1046749Y96983D01*
X1046770Y97002D01*
X1046780Y97008D01*
X1046794Y97023D01*
X1046869Y97090D01*
X1101226Y151446D01*
X1101286Y151524D01*
X1101354Y151596D01*
X1101383Y151649D01*
X1101420Y151697D01*
X1101460Y151788D01*
X1101508Y151875D01*
X1101523Y151933D01*
X1101547Y151989D01*
X1101562Y152087D01*
X1101587Y152183D01*
X1101593Y152283D01*
X1101597Y152303D01*
X1101595Y152315D01*
X1101597Y152343D01*
X1101597Y161582D01*
X1101582Y161700D01*
X1101575Y161819D01*
X1101562Y161857D01*
X1101557Y161898D01*
X1101514Y162008D01*
X1101477Y162121D01*
X1101455Y162156D01*
X1101440Y162193D01*
X1101371Y162289D01*
X1101307Y162390D01*
X1101277Y162418D01*
X1101254Y162451D01*
X1101162Y162527D01*
X1101075Y162608D01*
X1101040Y162628D01*
X1101009Y162653D01*
X1100901Y162704D01*
X1100797Y162762D01*
X1100757Y162772D01*
X1100721Y162789D01*
X1100604Y162811D01*
X1100489Y162841D01*
X1100429Y162845D01*
X1100409Y162849D01*
X1100388Y162847D01*
X1100328Y162851D01*
X1095292Y162851D01*
X1086054Y165327D01*
X1077771Y170109D01*
X1071009Y176871D01*
X1066227Y185154D01*
X1063751Y194392D01*
X1063751Y203956D01*
X1066227Y213194D01*
X1068428Y217007D01*
X1068484Y217141D01*
X1068544Y217274D01*
X1068546Y217288D01*
X1068551Y217300D01*
X1068572Y217444D01*
X1068597Y217588D01*
X1068596Y217601D01*
X1068598Y217615D01*
X1068583Y217759D01*
X1068570Y217905D01*
X1068566Y217917D01*
X1068565Y217931D01*
X1068514Y218067D01*
X1068466Y218205D01*
X1068458Y218216D01*
X1068454Y218229D01*
X1068371Y218348D01*
X1068290Y218470D01*
X1068280Y218479D01*
X1068272Y218490D01*
X1068162Y218585D01*
X1068054Y218683D01*
X1068042Y218689D01*
X1068032Y218698D01*
X1067901Y218763D01*
X1067772Y218831D01*
X1067759Y218834D01*
X1067747Y218840D01*
X1067604Y218870D01*
X1067463Y218904D01*
X1067449Y218903D01*
X1067436Y218906D01*
X1067290Y218900D01*
X1067145Y218897D01*
X1067132Y218894D01*
X1067118Y218893D01*
X1066978Y218851D01*
X1066838Y218812D01*
X1066822Y218804D01*
X1066814Y218802D01*
X1066799Y218793D01*
X1066694Y218741D01*
X1060531Y215182D01*
X1052779Y213105D01*
X1032444Y213105D01*
X1032345Y213093D01*
X1032246Y213090D01*
X1032188Y213073D01*
X1032128Y213065D01*
X1032036Y213029D01*
X1031941Y213001D01*
X1031889Y212971D01*
X1031832Y212948D01*
X1031752Y212890D01*
X1031667Y212840D01*
X1031592Y212774D01*
X1031575Y212762D01*
X1031567Y212752D01*
X1031546Y212734D01*
X1031402Y212590D01*
X1022569Y207490D01*
X1012718Y204850D01*
X1002518Y204850D01*
X992667Y207490D01*
X984600Y212148D01*
X984460Y212206D01*
X984319Y212267D01*
X984313Y212268D01*
X984306Y212271D01*
X984156Y212293D01*
X984005Y212317D01*
X983998Y212316D01*
X983992Y212317D01*
X983841Y212302D01*
X983689Y212287D01*
X983682Y212285D01*
X983675Y212284D01*
X983533Y212231D01*
X983389Y212180D01*
X983384Y212176D01*
X983377Y212173D01*
X983253Y212087D01*
X983126Y212001D01*
X983122Y211996D01*
X983116Y211992D01*
X983016Y211877D01*
X982916Y211763D01*
X982913Y211757D01*
X982908Y211751D01*
X982840Y211614D01*
X982771Y211479D01*
X982770Y211473D01*
X982767Y211467D01*
X982735Y211317D01*
X982701Y211169D01*
X982702Y211162D01*
X982700Y211156D01*
X982706Y211003D01*
X982711Y210851D01*
X982713Y210845D01*
X982713Y210838D01*
X982757Y210691D01*
X982799Y210546D01*
X982803Y210540D01*
X982805Y210533D01*
X982884Y210403D01*
X982961Y210272D01*
X982967Y210265D01*
X982969Y210261D01*
X982977Y210254D01*
X983067Y210151D01*
X1038613Y154606D01*
X1042626Y147655D01*
X1044703Y139903D01*
X1044703Y97987D01*
X1044720Y97850D01*
X1044733Y97711D01*
X1044740Y97692D01*
X1044743Y97672D01*
X1044794Y97543D01*
X1044841Y97412D01*
X1044852Y97395D01*
X1044860Y97376D01*
X1044941Y97264D01*
X1045019Y97148D01*
X1045035Y97135D01*
X1045046Y97119D01*
X1045154Y97030D01*
X1045258Y96938D01*
X1045276Y96929D01*
X1045291Y96916D01*
X1045417Y96857D01*
X1045541Y96793D01*
X1045561Y96789D01*
X1045579Y96780D01*
X1045715Y96754D01*
X1045851Y96724D01*
X1045872Y96724D01*
X1045891Y96721D01*
X1046030Y96729D01*
G37*
%LPC*%
G36*
X258242Y246379D02*
X258242Y246379D01*
X249262Y248785D01*
X241211Y253434D01*
X234638Y260007D01*
X229989Y268058D01*
X227583Y277038D01*
X227583Y286334D01*
X229989Y295314D01*
X234638Y303365D01*
X241211Y309938D01*
X249262Y314587D01*
X258242Y316993D01*
X287350Y316993D01*
X296330Y314587D01*
X304381Y309938D01*
X310954Y303365D01*
X315603Y295314D01*
X318009Y286334D01*
X318009Y277038D01*
X315603Y268058D01*
X310954Y260007D01*
X304381Y253434D01*
X296330Y248785D01*
X287350Y246379D01*
X258242Y246379D01*
G37*
%LPD*%
%LPC*%
G36*
X258242Y172211D02*
X258242Y172211D01*
X249262Y174617D01*
X241211Y179266D01*
X234638Y185839D01*
X229989Y193890D01*
X227583Y202870D01*
X227583Y212166D01*
X229989Y221146D01*
X234638Y229197D01*
X241211Y235770D01*
X249262Y240419D01*
X258242Y242825D01*
X287350Y242825D01*
X296330Y240419D01*
X304381Y235770D01*
X310954Y229197D01*
X315603Y221146D01*
X318009Y212166D01*
X318009Y202870D01*
X315603Y193890D01*
X310954Y185839D01*
X304381Y179266D01*
X296330Y174617D01*
X287350Y172211D01*
X258242Y172211D01*
G37*
%LPD*%
%LPC*%
G36*
X258242Y52831D02*
X258242Y52831D01*
X249262Y55237D01*
X241211Y59886D01*
X234638Y66459D01*
X229989Y74510D01*
X227583Y83490D01*
X227583Y92786D01*
X229989Y101766D01*
X234638Y109817D01*
X241211Y116390D01*
X249262Y121039D01*
X258242Y123445D01*
X287350Y123445D01*
X296330Y121039D01*
X304381Y116390D01*
X310954Y109817D01*
X315603Y101766D01*
X318009Y92786D01*
X318009Y83490D01*
X315603Y74510D01*
X310954Y66459D01*
X304381Y59886D01*
X296330Y55237D01*
X287350Y52831D01*
X258242Y52831D01*
G37*
%LPD*%
G36*
X1181980Y21193D02*
X1181980Y21193D01*
X1182101Y21200D01*
X1182137Y21212D01*
X1182175Y21217D01*
X1182288Y21261D01*
X1182403Y21299D01*
X1182436Y21319D01*
X1182471Y21333D01*
X1182570Y21404D01*
X1182672Y21469D01*
X1182698Y21496D01*
X1182729Y21519D01*
X1182807Y21612D01*
X1182890Y21700D01*
X1182909Y21734D01*
X1182933Y21763D01*
X1182985Y21873D01*
X1183044Y21979D01*
X1183053Y22016D01*
X1183070Y22050D01*
X1183093Y22169D01*
X1183123Y22287D01*
X1183127Y22343D01*
X1183130Y22362D01*
X1183129Y22383D01*
X1183133Y22447D01*
X1183133Y112641D01*
X1183115Y112785D01*
X1183100Y112930D01*
X1183095Y112943D01*
X1183093Y112956D01*
X1183040Y113092D01*
X1182989Y113228D01*
X1182981Y113240D01*
X1182976Y113252D01*
X1182891Y113370D01*
X1182808Y113490D01*
X1182797Y113498D01*
X1182790Y113509D01*
X1182678Y113602D01*
X1182567Y113698D01*
X1182555Y113704D01*
X1182545Y113712D01*
X1182413Y113774D01*
X1182282Y113839D01*
X1182269Y113842D01*
X1182257Y113848D01*
X1182115Y113875D01*
X1181971Y113906D01*
X1181958Y113905D01*
X1181945Y113908D01*
X1181800Y113899D01*
X1181654Y113893D01*
X1181640Y113889D01*
X1181627Y113888D01*
X1181489Y113843D01*
X1181349Y113801D01*
X1181337Y113794D01*
X1181325Y113790D01*
X1181202Y113712D01*
X1181077Y113636D01*
X1181067Y113627D01*
X1181056Y113620D01*
X1180956Y113514D01*
X1180854Y113409D01*
X1180844Y113394D01*
X1180838Y113388D01*
X1180830Y113373D01*
X1180765Y113275D01*
X1177297Y107268D01*
X1093685Y23657D01*
X1093601Y23549D01*
X1093514Y23444D01*
X1093504Y23423D01*
X1093490Y23405D01*
X1093436Y23280D01*
X1093377Y23156D01*
X1093373Y23134D01*
X1093364Y23114D01*
X1093342Y22978D01*
X1093316Y22844D01*
X1093317Y22822D01*
X1093314Y22800D01*
X1093327Y22663D01*
X1093335Y22527D01*
X1093342Y22505D01*
X1093344Y22483D01*
X1093390Y22354D01*
X1093432Y22224D01*
X1093444Y22205D01*
X1093451Y22184D01*
X1093528Y22071D01*
X1093601Y21955D01*
X1093617Y21939D01*
X1093630Y21921D01*
X1093732Y21830D01*
X1093832Y21736D01*
X1093851Y21725D01*
X1093868Y21710D01*
X1093990Y21648D01*
X1094110Y21581D01*
X1094132Y21576D01*
X1094152Y21565D01*
X1094285Y21536D01*
X1094417Y21501D01*
X1094449Y21499D01*
X1094462Y21496D01*
X1094483Y21496D01*
X1094578Y21490D01*
X1181859Y21178D01*
X1181980Y21193D01*
G37*
%LPC*%
G36*
X601342Y661923D02*
X601342Y661923D01*
X592750Y664225D01*
X585047Y668673D01*
X578757Y674963D01*
X574309Y682666D01*
X572007Y691258D01*
X572007Y700154D01*
X574309Y708746D01*
X578757Y716449D01*
X585047Y722739D01*
X592750Y727187D01*
X601342Y729489D01*
X610238Y729489D01*
X618830Y727187D01*
X626533Y722739D01*
X632823Y716449D01*
X637271Y708746D01*
X639573Y700154D01*
X639573Y691258D01*
X637271Y682666D01*
X632823Y674963D01*
X626533Y668673D01*
X618830Y664225D01*
X610238Y661923D01*
X601342Y661923D01*
G37*
%LPD*%
G36*
X858682Y239030D02*
X858682Y239030D01*
X858807Y239040D01*
X858839Y239050D01*
X858872Y239055D01*
X858989Y239101D01*
X859109Y239141D01*
X859137Y239159D01*
X859168Y239172D01*
X859270Y239246D01*
X859375Y239314D01*
X859398Y239339D01*
X859426Y239358D01*
X859505Y239455D01*
X859591Y239548D01*
X859607Y239577D01*
X859628Y239603D01*
X859682Y239717D01*
X859741Y239828D01*
X859750Y239861D01*
X859764Y239891D01*
X859787Y240015D01*
X859818Y240137D01*
X859817Y240170D01*
X859824Y240203D01*
X859816Y240329D01*
X859815Y240455D01*
X859805Y240503D01*
X859804Y240521D01*
X859797Y240541D01*
X859783Y240612D01*
X857630Y248646D01*
X857630Y258846D01*
X860270Y268697D01*
X865370Y277530D01*
X867104Y279265D01*
X867189Y279374D01*
X867278Y279481D01*
X867286Y279500D01*
X867299Y279516D01*
X867354Y279644D01*
X867413Y279769D01*
X867417Y279789D01*
X867425Y279808D01*
X867447Y279946D01*
X867473Y280082D01*
X867472Y280102D01*
X867475Y280122D01*
X867462Y280261D01*
X867453Y280399D01*
X867447Y280418D01*
X867445Y280438D01*
X867398Y280570D01*
X867355Y280701D01*
X867345Y280719D01*
X867338Y280738D01*
X867260Y280853D01*
X867185Y280970D01*
X867170Y280984D01*
X867159Y281001D01*
X867055Y281093D01*
X866954Y281188D01*
X866936Y281198D01*
X866921Y281211D01*
X866797Y281275D01*
X866675Y281342D01*
X866656Y281347D01*
X866637Y281356D01*
X866502Y281386D01*
X866367Y281421D01*
X866339Y281423D01*
X866327Y281426D01*
X866307Y281425D01*
X866206Y281431D01*
X802583Y281431D01*
X802485Y281419D01*
X802386Y281416D01*
X802328Y281399D01*
X802268Y281391D01*
X802176Y281355D01*
X802081Y281327D01*
X802028Y281297D01*
X801972Y281274D01*
X801892Y281216D01*
X801807Y281166D01*
X801731Y281100D01*
X801715Y281088D01*
X801707Y281078D01*
X801686Y281060D01*
X761808Y241181D01*
X761722Y241072D01*
X761634Y240965D01*
X761625Y240946D01*
X761613Y240930D01*
X761557Y240802D01*
X761498Y240677D01*
X761495Y240657D01*
X761486Y240638D01*
X761465Y240500D01*
X761439Y240364D01*
X761440Y240344D01*
X761437Y240324D01*
X761450Y240185D01*
X761458Y240047D01*
X761465Y240028D01*
X761466Y240008D01*
X761514Y239876D01*
X761556Y239745D01*
X761567Y239727D01*
X761574Y239708D01*
X761652Y239593D01*
X761726Y239476D01*
X761741Y239462D01*
X761753Y239445D01*
X761857Y239353D01*
X761958Y239258D01*
X761976Y239248D01*
X761991Y239235D01*
X762115Y239171D01*
X762237Y239104D01*
X762256Y239099D01*
X762274Y239090D01*
X762410Y239060D01*
X762545Y239025D01*
X762573Y239023D01*
X762585Y239020D01*
X762605Y239021D01*
X762705Y239015D01*
X858557Y239015D01*
X858682Y239030D01*
G37*
G36*
X1023190Y411554D02*
X1023190Y411554D01*
X1023283Y411555D01*
X1023397Y411578D01*
X1023414Y411580D01*
X1023422Y411583D01*
X1023440Y411587D01*
X1031613Y413777D01*
X1032553Y413777D01*
X1032677Y413792D01*
X1032803Y413802D01*
X1032835Y413812D01*
X1032868Y413817D01*
X1032985Y413863D01*
X1033104Y413903D01*
X1033133Y413921D01*
X1033164Y413934D01*
X1033266Y414007D01*
X1033371Y414076D01*
X1033394Y414101D01*
X1033421Y414120D01*
X1033502Y414217D01*
X1033587Y414310D01*
X1033603Y414339D01*
X1033624Y414365D01*
X1033678Y414479D01*
X1033737Y414590D01*
X1033745Y414623D01*
X1033760Y414653D01*
X1033783Y414777D01*
X1033813Y414899D01*
X1033813Y414932D01*
X1033819Y414965D01*
X1033812Y415091D01*
X1033810Y415217D01*
X1033801Y415265D01*
X1033800Y415283D01*
X1033793Y415303D01*
X1033779Y415375D01*
X1033398Y416794D01*
X1033398Y426994D01*
X1033506Y427397D01*
X1033524Y427522D01*
X1033547Y427646D01*
X1033545Y427679D01*
X1033550Y427713D01*
X1033535Y427838D01*
X1033527Y427963D01*
X1033517Y427995D01*
X1033513Y428028D01*
X1033468Y428146D01*
X1033429Y428265D01*
X1033411Y428294D01*
X1033399Y428325D01*
X1033327Y428428D01*
X1033259Y428534D01*
X1033235Y428557D01*
X1033215Y428585D01*
X1033119Y428666D01*
X1033028Y428752D01*
X1032998Y428768D01*
X1032972Y428790D01*
X1032859Y428845D01*
X1032749Y428906D01*
X1032716Y428914D01*
X1032686Y428929D01*
X1032563Y428954D01*
X1032441Y428985D01*
X1032392Y428988D01*
X1032374Y428992D01*
X1032353Y428991D01*
X1032280Y428995D01*
X1031613Y428995D01*
X1023441Y431185D01*
X1023349Y431198D01*
X1023259Y431220D01*
X1023192Y431219D01*
X1023125Y431228D01*
X1023034Y431218D01*
X1022941Y431217D01*
X1022827Y431194D01*
X1022810Y431192D01*
X1022802Y431189D01*
X1022784Y431185D01*
X1014611Y428995D01*
X1006213Y428995D01*
X998041Y431185D01*
X997949Y431198D01*
X997859Y431220D01*
X997792Y431219D01*
X997725Y431228D01*
X997634Y431218D01*
X997541Y431217D01*
X997427Y431194D01*
X997410Y431192D01*
X997402Y431189D01*
X997384Y431185D01*
X989211Y428995D01*
X980813Y428995D01*
X972641Y431185D01*
X972549Y431198D01*
X972459Y431220D01*
X972392Y431219D01*
X972325Y431228D01*
X972234Y431218D01*
X972141Y431217D01*
X972027Y431194D01*
X972010Y431192D01*
X972002Y431189D01*
X971984Y431185D01*
X963811Y428995D01*
X955413Y428995D01*
X947241Y431185D01*
X947149Y431198D01*
X947059Y431220D01*
X946992Y431219D01*
X946925Y431228D01*
X946834Y431218D01*
X946741Y431217D01*
X946627Y431194D01*
X946610Y431192D01*
X946602Y431189D01*
X946584Y431185D01*
X938411Y428995D01*
X930013Y428995D01*
X921841Y431185D01*
X921749Y431198D01*
X921659Y431220D01*
X921592Y431219D01*
X921525Y431228D01*
X921434Y431218D01*
X921341Y431217D01*
X921227Y431194D01*
X921210Y431192D01*
X921202Y431189D01*
X921184Y431185D01*
X913011Y428995D01*
X904613Y428995D01*
X896441Y431185D01*
X896349Y431198D01*
X896259Y431220D01*
X896192Y431219D01*
X896125Y431228D01*
X896034Y431218D01*
X895941Y431217D01*
X895827Y431194D01*
X895810Y431192D01*
X895802Y431189D01*
X895784Y431185D01*
X894182Y430756D01*
X894084Y430716D01*
X893983Y430685D01*
X893937Y430656D01*
X893887Y430636D01*
X893803Y430573D01*
X893713Y430517D01*
X893675Y430478D01*
X893632Y430446D01*
X893565Y430364D01*
X893492Y430288D01*
X893466Y430241D01*
X893432Y430199D01*
X893388Y430103D01*
X893336Y430011D01*
X893308Y429930D01*
X893299Y429910D01*
X893297Y429895D01*
X893284Y429859D01*
X891568Y423453D01*
X887027Y415587D01*
X886978Y415471D01*
X886923Y415358D01*
X886917Y415325D01*
X886904Y415294D01*
X886885Y415170D01*
X886860Y415047D01*
X886862Y415013D01*
X886857Y414979D01*
X886870Y414854D01*
X886877Y414729D01*
X886887Y414697D01*
X886890Y414663D01*
X886934Y414545D01*
X886972Y414425D01*
X886989Y414397D01*
X887001Y414365D01*
X887073Y414262D01*
X887139Y414155D01*
X887163Y414131D01*
X887182Y414104D01*
X887277Y414022D01*
X887368Y413935D01*
X887397Y413918D01*
X887423Y413896D01*
X887536Y413840D01*
X887645Y413778D01*
X887691Y413762D01*
X887708Y413754D01*
X887729Y413750D01*
X887798Y413727D01*
X895783Y411587D01*
X895875Y411574D01*
X895965Y411552D01*
X896032Y411553D01*
X896099Y411544D01*
X896190Y411554D01*
X896283Y411555D01*
X896397Y411578D01*
X896414Y411580D01*
X896422Y411583D01*
X896440Y411587D01*
X904613Y413777D01*
X913011Y413777D01*
X921183Y411587D01*
X921275Y411574D01*
X921365Y411552D01*
X921432Y411553D01*
X921499Y411544D01*
X921590Y411554D01*
X921683Y411555D01*
X921797Y411578D01*
X921814Y411580D01*
X921822Y411583D01*
X921840Y411587D01*
X930013Y413777D01*
X938411Y413777D01*
X946583Y411587D01*
X946675Y411574D01*
X946765Y411552D01*
X946832Y411553D01*
X946899Y411544D01*
X946990Y411554D01*
X947083Y411555D01*
X947197Y411578D01*
X947214Y411580D01*
X947222Y411583D01*
X947240Y411587D01*
X955413Y413777D01*
X963811Y413777D01*
X971983Y411587D01*
X972075Y411574D01*
X972165Y411552D01*
X972232Y411553D01*
X972299Y411544D01*
X972390Y411554D01*
X972483Y411555D01*
X972597Y411578D01*
X972614Y411580D01*
X972622Y411583D01*
X972640Y411587D01*
X980813Y413777D01*
X989211Y413777D01*
X997383Y411587D01*
X997475Y411574D01*
X997565Y411552D01*
X997632Y411553D01*
X997699Y411544D01*
X997790Y411554D01*
X997883Y411555D01*
X997997Y411578D01*
X998014Y411580D01*
X998022Y411583D01*
X998040Y411587D01*
X1006213Y413777D01*
X1014611Y413777D01*
X1022783Y411587D01*
X1022875Y411574D01*
X1022965Y411552D01*
X1023032Y411553D01*
X1023099Y411544D01*
X1023190Y411554D01*
G37*
G36*
X715482Y281541D02*
X715482Y281541D01*
X715615Y281545D01*
X715641Y281552D01*
X715667Y281554D01*
X715793Y281596D01*
X715920Y281633D01*
X715943Y281647D01*
X715969Y281655D01*
X716080Y281727D01*
X716194Y281795D01*
X716223Y281820D01*
X716236Y281828D01*
X716250Y281844D01*
X716315Y281901D01*
X757620Y323207D01*
X757706Y323316D01*
X757794Y323423D01*
X757803Y323442D01*
X757815Y323458D01*
X757871Y323586D01*
X757930Y323711D01*
X757933Y323731D01*
X757942Y323750D01*
X757963Y323888D01*
X757989Y324024D01*
X757988Y324044D01*
X757991Y324064D01*
X757978Y324203D01*
X757970Y324341D01*
X757963Y324360D01*
X757962Y324380D01*
X757914Y324511D01*
X757872Y324643D01*
X757861Y324661D01*
X757854Y324680D01*
X757776Y324795D01*
X757702Y324912D01*
X757687Y324926D01*
X757675Y324943D01*
X757571Y325035D01*
X757470Y325130D01*
X757452Y325140D01*
X757437Y325153D01*
X757313Y325216D01*
X757191Y325284D01*
X757172Y325289D01*
X757154Y325298D01*
X757018Y325328D01*
X756883Y325363D01*
X756855Y325365D01*
X756843Y325368D01*
X756823Y325367D01*
X756723Y325373D01*
X717042Y325373D01*
X716924Y325358D01*
X716805Y325351D01*
X716767Y325338D01*
X716726Y325333D01*
X716616Y325290D01*
X716503Y325253D01*
X716468Y325231D01*
X716431Y325216D01*
X716335Y325147D01*
X716234Y325083D01*
X716206Y325053D01*
X716173Y325030D01*
X716097Y324938D01*
X716016Y324851D01*
X715996Y324816D01*
X715971Y324785D01*
X715920Y324677D01*
X715862Y324573D01*
X715852Y324533D01*
X715835Y324497D01*
X715813Y324380D01*
X715783Y324265D01*
X715779Y324205D01*
X715775Y324185D01*
X715777Y324164D01*
X715773Y324104D01*
X715773Y318808D01*
X713605Y310716D01*
X713592Y310625D01*
X713570Y310535D01*
X713571Y310468D01*
X713562Y310401D01*
X713572Y310310D01*
X713573Y310217D01*
X713596Y310103D01*
X713598Y310085D01*
X713601Y310077D01*
X713605Y310059D01*
X715773Y301968D01*
X715773Y293408D01*
X713605Y285316D01*
X713592Y285225D01*
X713570Y285135D01*
X713571Y285068D01*
X713562Y285001D01*
X713572Y284910D01*
X713573Y284817D01*
X713596Y284703D01*
X713598Y284685D01*
X713601Y284677D01*
X713605Y284659D01*
X714191Y282470D01*
X714241Y282348D01*
X714286Y282223D01*
X714301Y282201D01*
X714312Y282176D01*
X714390Y282069D01*
X714465Y281960D01*
X714485Y281942D01*
X714501Y281920D01*
X714604Y281837D01*
X714703Y281749D01*
X714727Y281737D01*
X714748Y281720D01*
X714869Y281665D01*
X714986Y281605D01*
X715013Y281599D01*
X715037Y281588D01*
X715167Y281564D01*
X715297Y281535D01*
X715324Y281536D01*
X715350Y281531D01*
X715482Y281541D01*
G37*
G36*
X982590Y97552D02*
X982590Y97552D01*
X982709Y97559D01*
X982747Y97572D01*
X982788Y97577D01*
X982898Y97620D01*
X983011Y97657D01*
X983046Y97679D01*
X983083Y97694D01*
X983179Y97763D01*
X983280Y97827D01*
X983308Y97857D01*
X983341Y97880D01*
X983417Y97972D01*
X983498Y98059D01*
X983518Y98094D01*
X983543Y98125D01*
X983594Y98233D01*
X983652Y98337D01*
X983662Y98377D01*
X983679Y98413D01*
X983701Y98530D01*
X983731Y98645D01*
X983735Y98705D01*
X983739Y98725D01*
X983737Y98746D01*
X983741Y98806D01*
X983741Y121389D01*
X983724Y121527D01*
X983711Y121665D01*
X983704Y121684D01*
X983701Y121705D01*
X983650Y121834D01*
X983603Y121965D01*
X983592Y121982D01*
X983584Y122000D01*
X983503Y122113D01*
X983425Y122228D01*
X983409Y122241D01*
X983398Y122258D01*
X983290Y122346D01*
X983186Y122438D01*
X983168Y122448D01*
X983153Y122460D01*
X983027Y122520D01*
X982903Y122583D01*
X982883Y122587D01*
X982865Y122596D01*
X982728Y122622D01*
X982593Y122653D01*
X982572Y122652D01*
X982553Y122656D01*
X982414Y122647D01*
X982275Y122643D01*
X982255Y122637D01*
X982235Y122636D01*
X982103Y122593D01*
X981969Y122555D01*
X981952Y122544D01*
X981933Y122538D01*
X981815Y122464D01*
X981695Y122393D01*
X981674Y122374D01*
X981664Y122368D01*
X981650Y122353D01*
X981575Y122287D01*
X980337Y121049D01*
X973836Y117296D01*
X973752Y117232D01*
X973663Y117176D01*
X973626Y117136D01*
X973583Y117104D01*
X973517Y117021D01*
X973445Y116944D01*
X973419Y116897D01*
X973385Y116855D01*
X973342Y116758D01*
X973291Y116665D01*
X973278Y116613D01*
X973256Y116564D01*
X973238Y116460D01*
X973212Y116358D01*
X973207Y116272D01*
X973203Y116251D01*
X973204Y116235D01*
X973202Y116197D01*
X973202Y111994D01*
X970562Y102143D01*
X969002Y99441D01*
X968951Y99318D01*
X968894Y99199D01*
X968889Y99172D01*
X968879Y99147D01*
X968859Y99016D01*
X968834Y98886D01*
X968836Y98860D01*
X968832Y98833D01*
X968846Y98701D01*
X968854Y98569D01*
X968863Y98543D01*
X968865Y98517D01*
X968912Y98392D01*
X968952Y98267D01*
X968967Y98244D01*
X968976Y98218D01*
X969052Y98110D01*
X969122Y97998D01*
X969142Y97979D01*
X969157Y97957D01*
X969258Y97871D01*
X969354Y97780D01*
X969378Y97767D01*
X969398Y97749D01*
X969517Y97690D01*
X969633Y97626D01*
X969659Y97620D01*
X969683Y97608D01*
X969813Y97580D01*
X969940Y97547D01*
X969979Y97545D01*
X969994Y97541D01*
X970016Y97542D01*
X970101Y97537D01*
X982472Y97537D01*
X982590Y97552D01*
G37*
G36*
X1118256Y451669D02*
X1118256Y451669D01*
X1118401Y451683D01*
X1118414Y451688D01*
X1118427Y451689D01*
X1118563Y451741D01*
X1118700Y451791D01*
X1118712Y451798D01*
X1118724Y451803D01*
X1118843Y451887D01*
X1118964Y451969D01*
X1118973Y451979D01*
X1118984Y451987D01*
X1119077Y452098D01*
X1119174Y452208D01*
X1119180Y452220D01*
X1119189Y452230D01*
X1119253Y452361D01*
X1119319Y452491D01*
X1119322Y452504D01*
X1119328Y452516D01*
X1119356Y452659D01*
X1119388Y452801D01*
X1119388Y452815D01*
X1119391Y452828D01*
X1119383Y452973D01*
X1119379Y453119D01*
X1119375Y453132D01*
X1119374Y453146D01*
X1119331Y453285D01*
X1119290Y453425D01*
X1119283Y453436D01*
X1119279Y453449D01*
X1119202Y453574D01*
X1119129Y453699D01*
X1119117Y453712D01*
X1119112Y453720D01*
X1119100Y453732D01*
X1119022Y453819D01*
X1108648Y464194D01*
X1108570Y464254D01*
X1108498Y464322D01*
X1108445Y464351D01*
X1108397Y464388D01*
X1108306Y464428D01*
X1108219Y464476D01*
X1108161Y464491D01*
X1108105Y464515D01*
X1108007Y464530D01*
X1107911Y464555D01*
X1107811Y464561D01*
X1107791Y464565D01*
X1107779Y464563D01*
X1107751Y464565D01*
X1094372Y464565D01*
X1094254Y464550D01*
X1094135Y464543D01*
X1094097Y464530D01*
X1094056Y464525D01*
X1093946Y464482D01*
X1093833Y464445D01*
X1093798Y464423D01*
X1093761Y464408D01*
X1093665Y464339D01*
X1093564Y464275D01*
X1093536Y464245D01*
X1093503Y464222D01*
X1093427Y464130D01*
X1093346Y464043D01*
X1093326Y464008D01*
X1093301Y463977D01*
X1093250Y463869D01*
X1093192Y463765D01*
X1093182Y463725D01*
X1093165Y463689D01*
X1093143Y463572D01*
X1093113Y463457D01*
X1093109Y463397D01*
X1093105Y463377D01*
X1093107Y463356D01*
X1093103Y463296D01*
X1093103Y456688D01*
X1092851Y455748D01*
X1092836Y455636D01*
X1092812Y455526D01*
X1092814Y455479D01*
X1092808Y455432D01*
X1092821Y455321D01*
X1092825Y455209D01*
X1092839Y455163D01*
X1092844Y455117D01*
X1092884Y455012D01*
X1092917Y454904D01*
X1092941Y454864D01*
X1092958Y454820D01*
X1093023Y454728D01*
X1093081Y454632D01*
X1093115Y454599D01*
X1093142Y454560D01*
X1093228Y454488D01*
X1093308Y454409D01*
X1093369Y454369D01*
X1093385Y454355D01*
X1093401Y454347D01*
X1093442Y454320D01*
X1095918Y452890D01*
X1096062Y452746D01*
X1096140Y452686D01*
X1096212Y452618D01*
X1096265Y452589D01*
X1096313Y452552D01*
X1096404Y452512D01*
X1096491Y452464D01*
X1096550Y452449D01*
X1096605Y452425D01*
X1096703Y452410D01*
X1096799Y452385D01*
X1096899Y452379D01*
X1096919Y452375D01*
X1096932Y452377D01*
X1096960Y452375D01*
X1115263Y452375D01*
X1117796Y451696D01*
X1117940Y451676D01*
X1118085Y451653D01*
X1118098Y451655D01*
X1118111Y451653D01*
X1118256Y451669D01*
G37*
G36*
X946990Y490554D02*
X946990Y490554D01*
X947083Y490555D01*
X947197Y490578D01*
X947215Y490580D01*
X947223Y490583D01*
X947241Y490587D01*
X954480Y492526D01*
X954584Y492569D01*
X954690Y492604D01*
X954730Y492629D01*
X954774Y492647D01*
X954864Y492714D01*
X954959Y492774D01*
X954991Y492808D01*
X955029Y492836D01*
X955100Y492924D01*
X955177Y493005D01*
X955200Y493047D01*
X955230Y493083D01*
X955276Y493186D01*
X955331Y493284D01*
X955342Y493330D01*
X955362Y493372D01*
X955382Y493483D01*
X955410Y493592D01*
X955415Y493664D01*
X955418Y493685D01*
X955417Y493704D01*
X955420Y493752D01*
X955420Y494050D01*
X957416Y501497D01*
X957432Y501615D01*
X957455Y501731D01*
X957453Y501772D01*
X957459Y501812D01*
X957445Y501930D01*
X957439Y502049D01*
X957427Y502087D01*
X957422Y502128D01*
X957380Y502239D01*
X957344Y502352D01*
X957323Y502387D01*
X957308Y502424D01*
X957239Y502522D01*
X957177Y502623D01*
X957148Y502651D01*
X957124Y502684D01*
X957033Y502761D01*
X956948Y502843D01*
X956912Y502863D01*
X956882Y502889D01*
X956774Y502941D01*
X956671Y503000D01*
X956614Y503019D01*
X956595Y503028D01*
X956575Y503032D01*
X956518Y503051D01*
X955504Y503323D01*
X955400Y503337D01*
X955297Y503360D01*
X955243Y503359D01*
X955189Y503366D01*
X955084Y503354D01*
X954979Y503351D01*
X954927Y503336D01*
X954873Y503329D01*
X954775Y503291D01*
X954673Y503262D01*
X954627Y503235D01*
X954576Y503215D01*
X954490Y503154D01*
X954399Y503101D01*
X954335Y503044D01*
X954317Y503031D01*
X954307Y503019D01*
X954278Y502994D01*
X944421Y493137D01*
X944340Y493032D01*
X944255Y492931D01*
X944243Y492907D01*
X944226Y492886D01*
X944174Y492764D01*
X944116Y492645D01*
X944111Y492619D01*
X944100Y492594D01*
X944079Y492463D01*
X944053Y492334D01*
X944055Y492307D01*
X944050Y492280D01*
X944063Y492148D01*
X944070Y492016D01*
X944078Y491990D01*
X944080Y491963D01*
X944125Y491839D01*
X944164Y491712D01*
X944179Y491689D01*
X944188Y491664D01*
X944262Y491555D01*
X944332Y491442D01*
X944351Y491423D01*
X944366Y491401D01*
X944465Y491313D01*
X944561Y491222D01*
X944584Y491208D01*
X944605Y491190D01*
X944723Y491130D01*
X944838Y491065D01*
X944874Y491053D01*
X944888Y491046D01*
X944909Y491041D01*
X944990Y491014D01*
X946584Y490587D01*
X946675Y490574D01*
X946765Y490552D01*
X946832Y490553D01*
X946899Y490544D01*
X946990Y490554D01*
G37*
G36*
X442852Y372084D02*
X442852Y372084D01*
X442998Y372096D01*
X443010Y372101D01*
X443024Y372102D01*
X443160Y372153D01*
X443298Y372201D01*
X443309Y372208D01*
X443322Y372213D01*
X443441Y372296D01*
X443563Y372377D01*
X443572Y372387D01*
X443583Y372394D01*
X443678Y372504D01*
X443776Y372613D01*
X443782Y372625D01*
X443791Y372635D01*
X443856Y372766D01*
X443923Y372894D01*
X443927Y372908D01*
X443933Y372920D01*
X443963Y373063D01*
X443996Y373204D01*
X443996Y373217D01*
X443999Y373231D01*
X443993Y373377D01*
X443990Y373522D01*
X443987Y373535D01*
X443986Y373548D01*
X443944Y373688D01*
X443905Y373828D01*
X443897Y373845D01*
X443894Y373853D01*
X443885Y373868D01*
X443833Y373973D01*
X440705Y379390D01*
X439017Y385693D01*
X438964Y385821D01*
X438916Y385952D01*
X438904Y385968D01*
X438897Y385987D01*
X438814Y386099D01*
X438735Y386213D01*
X438719Y386226D01*
X438707Y386242D01*
X438599Y386330D01*
X438494Y386421D01*
X438476Y386430D01*
X438460Y386443D01*
X438334Y386500D01*
X438209Y386562D01*
X438189Y386567D01*
X438171Y386575D01*
X438035Y386600D01*
X437898Y386629D01*
X437878Y386628D01*
X437858Y386632D01*
X437720Y386622D01*
X437580Y386616D01*
X437561Y386610D01*
X437541Y386608D01*
X437409Y386564D01*
X437276Y386524D01*
X437259Y386514D01*
X437239Y386507D01*
X437122Y386432D01*
X437004Y386360D01*
X436989Y386345D01*
X436972Y386334D01*
X436878Y386232D01*
X436781Y386133D01*
X436765Y386109D01*
X436757Y386100D01*
X436747Y386082D01*
X436692Y385999D01*
X432874Y379387D01*
X431602Y378115D01*
X431521Y378010D01*
X431435Y377909D01*
X431424Y377885D01*
X431407Y377863D01*
X431354Y377742D01*
X431297Y377623D01*
X431291Y377596D01*
X431281Y377572D01*
X431260Y377441D01*
X431234Y377311D01*
X431235Y377284D01*
X431231Y377258D01*
X431243Y377125D01*
X431250Y376994D01*
X431258Y376968D01*
X431261Y376941D01*
X431305Y376816D01*
X431345Y376690D01*
X431359Y376667D01*
X431368Y376642D01*
X431443Y376532D01*
X431512Y376420D01*
X431532Y376401D01*
X431547Y376378D01*
X431646Y376291D01*
X431742Y376199D01*
X431765Y376186D01*
X431785Y376168D01*
X431903Y376108D01*
X432018Y376043D01*
X432055Y376030D01*
X432068Y376023D01*
X432090Y376019D01*
X432171Y375991D01*
X438570Y374277D01*
X442100Y372239D01*
X442234Y372182D01*
X442367Y372123D01*
X442380Y372121D01*
X442393Y372115D01*
X442537Y372094D01*
X442681Y372070D01*
X442694Y372071D01*
X442707Y372069D01*
X442852Y372084D01*
G37*
G36*
X437783Y296292D02*
X437783Y296292D01*
X437922Y296300D01*
X437941Y296306D01*
X437961Y296307D01*
X438092Y296353D01*
X438225Y296394D01*
X438242Y296405D01*
X438261Y296412D01*
X438377Y296488D01*
X438496Y296562D01*
X438510Y296576D01*
X438526Y296587D01*
X438619Y296690D01*
X438716Y296791D01*
X438726Y296809D01*
X438739Y296824D01*
X438804Y296947D01*
X438872Y297068D01*
X438881Y297095D01*
X438887Y297105D01*
X438892Y297125D01*
X438924Y297220D01*
X440705Y303870D01*
X443394Y308525D01*
X443450Y308659D01*
X443509Y308793D01*
X443512Y308806D01*
X443517Y308819D01*
X443538Y308963D01*
X443562Y309106D01*
X443561Y309120D01*
X443563Y309133D01*
X443548Y309278D01*
X443536Y309423D01*
X443532Y309436D01*
X443530Y309449D01*
X443479Y309586D01*
X443432Y309724D01*
X443424Y309735D01*
X443419Y309748D01*
X443337Y309867D01*
X443256Y309989D01*
X443246Y309998D01*
X443238Y310009D01*
X443128Y310104D01*
X443020Y310202D01*
X443008Y310208D01*
X442997Y310217D01*
X442866Y310282D01*
X442738Y310349D01*
X442725Y310352D01*
X442713Y310358D01*
X442570Y310389D01*
X442428Y310422D01*
X442415Y310422D01*
X442402Y310425D01*
X442255Y310419D01*
X442110Y310416D01*
X442097Y310412D01*
X442084Y310412D01*
X441944Y310370D01*
X441804Y310331D01*
X441787Y310323D01*
X441779Y310320D01*
X441765Y310311D01*
X441660Y310259D01*
X438570Y308475D01*
X432171Y306761D01*
X432049Y306711D01*
X431924Y306666D01*
X431901Y306651D01*
X431876Y306641D01*
X431770Y306562D01*
X431661Y306487D01*
X431643Y306467D01*
X431621Y306451D01*
X431538Y306348D01*
X431450Y306249D01*
X431438Y306225D01*
X431421Y306204D01*
X431366Y306084D01*
X431306Y305966D01*
X431300Y305939D01*
X431288Y305915D01*
X431265Y305785D01*
X431236Y305655D01*
X431237Y305628D01*
X431232Y305602D01*
X431242Y305470D01*
X431246Y305338D01*
X431253Y305312D01*
X431255Y305285D01*
X431297Y305159D01*
X431334Y305032D01*
X431348Y305009D01*
X431356Y304983D01*
X431428Y304872D01*
X431496Y304758D01*
X431521Y304730D01*
X431529Y304716D01*
X431545Y304701D01*
X431602Y304637D01*
X432874Y303365D01*
X436599Y296914D01*
X436683Y296803D01*
X436763Y296690D01*
X436779Y296677D01*
X436791Y296661D01*
X436900Y296575D01*
X437006Y296485D01*
X437024Y296476D01*
X437040Y296463D01*
X437167Y296407D01*
X437292Y296346D01*
X437312Y296342D01*
X437331Y296334D01*
X437468Y296311D01*
X437604Y296283D01*
X437624Y296284D01*
X437644Y296281D01*
X437783Y296292D01*
G37*
G36*
X436464Y105041D02*
X436464Y105041D01*
X436609Y105050D01*
X436622Y105055D01*
X436635Y105056D01*
X436773Y105104D01*
X436911Y105148D01*
X436923Y105156D01*
X436936Y105160D01*
X437057Y105241D01*
X437180Y105319D01*
X437189Y105328D01*
X437201Y105336D01*
X437298Y105444D01*
X437398Y105550D01*
X437405Y105562D01*
X437414Y105572D01*
X437481Y105701D01*
X437552Y105829D01*
X437555Y105842D01*
X437561Y105854D01*
X437595Y105996D01*
X437631Y106137D01*
X437632Y106155D01*
X437634Y106163D01*
X437634Y106180D01*
X437641Y106297D01*
X437641Y108842D01*
X438757Y113007D01*
X438775Y113138D01*
X438799Y113268D01*
X438797Y113295D01*
X438800Y113322D01*
X438785Y113453D01*
X438776Y113585D01*
X438767Y113611D01*
X438764Y113638D01*
X438716Y113761D01*
X438674Y113887D01*
X438660Y113909D01*
X438650Y113934D01*
X438573Y114043D01*
X438501Y114153D01*
X438482Y114172D01*
X438466Y114194D01*
X438365Y114279D01*
X438268Y114369D01*
X438244Y114382D01*
X438223Y114399D01*
X438104Y114457D01*
X437987Y114520D01*
X437961Y114526D01*
X437937Y114538D01*
X437807Y114564D01*
X437679Y114596D01*
X437652Y114595D01*
X437625Y114601D01*
X437493Y114594D01*
X437361Y114593D01*
X437323Y114585D01*
X437308Y114584D01*
X437287Y114578D01*
X437203Y114561D01*
X432171Y113213D01*
X432049Y113163D01*
X431924Y113118D01*
X431901Y113103D01*
X431876Y113093D01*
X431770Y113014D01*
X431661Y112939D01*
X431643Y112919D01*
X431621Y112903D01*
X431538Y112800D01*
X431450Y112701D01*
X431438Y112677D01*
X431421Y112656D01*
X431366Y112536D01*
X431306Y112418D01*
X431300Y112391D01*
X431288Y112367D01*
X431265Y112237D01*
X431236Y112107D01*
X431237Y112080D01*
X431232Y112054D01*
X431242Y111922D01*
X431246Y111790D01*
X431253Y111764D01*
X431255Y111737D01*
X431297Y111611D01*
X431334Y111484D01*
X431348Y111461D01*
X431356Y111435D01*
X431428Y111324D01*
X431496Y111210D01*
X431521Y111181D01*
X431529Y111168D01*
X431545Y111154D01*
X431602Y111089D01*
X432874Y109817D01*
X435273Y105663D01*
X435361Y105546D01*
X435446Y105429D01*
X435457Y105420D01*
X435465Y105409D01*
X435579Y105319D01*
X435691Y105226D01*
X435704Y105220D01*
X435714Y105212D01*
X435848Y105152D01*
X435979Y105090D01*
X435992Y105088D01*
X436005Y105082D01*
X436149Y105058D01*
X436292Y105031D01*
X436305Y105031D01*
X436318Y105029D01*
X436464Y105041D01*
G37*
G36*
X540198Y500144D02*
X540198Y500144D01*
X540337Y500157D01*
X540356Y500164D01*
X540376Y500167D01*
X540505Y500218D01*
X540636Y500265D01*
X540653Y500276D01*
X540672Y500284D01*
X540784Y500365D01*
X540900Y500443D01*
X540913Y500459D01*
X540929Y500470D01*
X541018Y500578D01*
X541110Y500682D01*
X541119Y500700D01*
X541132Y500715D01*
X541191Y500841D01*
X541255Y500965D01*
X541259Y500985D01*
X541268Y501003D01*
X541294Y501139D01*
X541324Y501275D01*
X541324Y501296D01*
X541327Y501315D01*
X541319Y501454D01*
X541315Y501593D01*
X541309Y501613D01*
X541308Y501633D01*
X541265Y501765D01*
X541226Y501899D01*
X541216Y501916D01*
X541210Y501935D01*
X541135Y502053D01*
X541065Y502173D01*
X541046Y502194D01*
X541040Y502204D01*
X541025Y502218D01*
X540958Y502293D01*
X537187Y506065D01*
X537083Y506146D01*
X536982Y506231D01*
X536957Y506243D01*
X536936Y506259D01*
X536814Y506312D01*
X536695Y506370D01*
X536669Y506375D01*
X536644Y506386D01*
X536513Y506407D01*
X536384Y506433D01*
X536357Y506431D01*
X536330Y506436D01*
X536198Y506423D01*
X536066Y506416D01*
X536040Y506408D01*
X536013Y506406D01*
X535889Y506361D01*
X535762Y506322D01*
X535739Y506307D01*
X535714Y506298D01*
X535605Y506224D01*
X535492Y506154D01*
X535473Y506135D01*
X535451Y506120D01*
X535363Y506020D01*
X535272Y505925D01*
X535258Y505901D01*
X535240Y505881D01*
X535180Y505763D01*
X535115Y505648D01*
X535103Y505612D01*
X535096Y505598D01*
X535091Y505577D01*
X535064Y505496D01*
X534147Y502072D01*
X534122Y502031D01*
X534071Y501909D01*
X534015Y501789D01*
X534010Y501762D01*
X533999Y501738D01*
X533980Y501606D01*
X533955Y501476D01*
X533957Y501450D01*
X533953Y501423D01*
X533966Y501291D01*
X533975Y501159D01*
X533983Y501133D01*
X533986Y501107D01*
X534032Y500982D01*
X534073Y500857D01*
X534087Y500834D01*
X534097Y500808D01*
X534172Y500700D01*
X534243Y500588D01*
X534263Y500569D01*
X534278Y500547D01*
X534378Y500461D01*
X534474Y500370D01*
X534498Y500357D01*
X534518Y500339D01*
X534637Y500280D01*
X534753Y500216D01*
X534779Y500210D01*
X534803Y500198D01*
X534933Y500170D01*
X535061Y500137D01*
X535099Y500135D01*
X535114Y500131D01*
X535136Y500132D01*
X535222Y500127D01*
X540061Y500127D01*
X540198Y500144D01*
G37*
G36*
X975193Y218679D02*
X975193Y218679D01*
X975344Y218691D01*
X975350Y218693D01*
X975357Y218694D01*
X975500Y218746D01*
X975644Y218796D01*
X975650Y218799D01*
X975656Y218802D01*
X975781Y218887D01*
X975909Y218971D01*
X975914Y218977D01*
X975919Y218980D01*
X976020Y219094D01*
X976122Y219208D01*
X976125Y219214D01*
X976130Y219219D01*
X976199Y219354D01*
X976270Y219489D01*
X976271Y219496D01*
X976274Y219502D01*
X976308Y219650D01*
X976343Y219799D01*
X976342Y219806D01*
X976344Y219812D01*
X976339Y219965D01*
X976336Y220117D01*
X976334Y220123D01*
X976334Y220130D01*
X976292Y220277D01*
X976251Y220423D01*
X976247Y220431D01*
X976246Y220436D01*
X976240Y220445D01*
X976180Y220568D01*
X974255Y223901D01*
X974191Y223985D01*
X974135Y224074D01*
X974095Y224111D01*
X974063Y224154D01*
X973980Y224220D01*
X973903Y224292D01*
X973856Y224318D01*
X973814Y224352D01*
X973717Y224395D01*
X973625Y224446D01*
X973572Y224459D01*
X973523Y224481D01*
X973419Y224499D01*
X973317Y224525D01*
X973231Y224530D01*
X973210Y224534D01*
X973194Y224533D01*
X973156Y224535D01*
X971747Y224535D01*
X971610Y224518D01*
X971471Y224505D01*
X971452Y224498D01*
X971432Y224495D01*
X971303Y224444D01*
X971172Y224397D01*
X971155Y224386D01*
X971136Y224378D01*
X971024Y224297D01*
X970908Y224219D01*
X970895Y224203D01*
X970879Y224192D01*
X970790Y224084D01*
X970698Y223980D01*
X970689Y223962D01*
X970676Y223947D01*
X970617Y223821D01*
X970553Y223697D01*
X970549Y223677D01*
X970540Y223659D01*
X970514Y223523D01*
X970484Y223387D01*
X970484Y223366D01*
X970481Y223347D01*
X970489Y223208D01*
X970493Y223069D01*
X970499Y223049D01*
X970500Y223029D01*
X970543Y222897D01*
X970582Y222763D01*
X970592Y222746D01*
X970598Y222727D01*
X970673Y222609D01*
X970743Y222489D01*
X970762Y222468D01*
X970768Y222458D01*
X970783Y222444D01*
X970850Y222369D01*
X974183Y219035D01*
X974304Y218942D01*
X974423Y218847D01*
X974429Y218845D01*
X974434Y218840D01*
X974575Y218779D01*
X974713Y218718D01*
X974720Y218717D01*
X974726Y218714D01*
X974876Y218690D01*
X975027Y218665D01*
X975033Y218665D01*
X975040Y218664D01*
X975193Y218679D01*
G37*
G36*
X1011741Y628883D02*
X1011741Y628883D01*
X1011874Y628890D01*
X1011900Y628898D01*
X1011926Y628901D01*
X1012051Y628945D01*
X1012177Y628985D01*
X1012200Y628999D01*
X1012226Y629008D01*
X1012335Y629082D01*
X1012448Y629152D01*
X1012467Y629172D01*
X1012489Y629187D01*
X1012577Y629286D01*
X1012668Y629381D01*
X1012682Y629405D01*
X1012699Y629425D01*
X1012760Y629543D01*
X1012825Y629658D01*
X1012837Y629695D01*
X1012844Y629708D01*
X1012849Y629729D01*
X1012876Y629811D01*
X1013115Y630702D01*
X1013136Y630854D01*
X1013158Y631004D01*
X1013157Y631011D01*
X1013158Y631017D01*
X1013140Y631169D01*
X1013124Y631321D01*
X1013122Y631326D01*
X1013122Y631333D01*
X1013067Y631476D01*
X1013013Y631619D01*
X1013010Y631624D01*
X1013008Y631629D01*
X1012919Y631754D01*
X1012832Y631880D01*
X1012827Y631884D01*
X1012824Y631889D01*
X1012706Y631988D01*
X1012591Y632087D01*
X1012585Y632090D01*
X1012581Y632094D01*
X1012443Y632161D01*
X1012306Y632229D01*
X1012300Y632230D01*
X1012294Y632233D01*
X1012145Y632263D01*
X1011995Y632295D01*
X1011989Y632295D01*
X1011983Y632296D01*
X1011830Y632288D01*
X1011677Y632282D01*
X1011671Y632280D01*
X1011665Y632279D01*
X1011519Y632234D01*
X1011373Y632190D01*
X1011367Y632186D01*
X1011362Y632185D01*
X1011231Y632104D01*
X1011101Y632025D01*
X1011096Y632021D01*
X1011091Y632017D01*
X1011025Y631949D01*
X1010981Y631910D01*
X1010430Y631359D01*
X1010357Y631265D01*
X1010279Y631176D01*
X1010260Y631140D01*
X1010235Y631108D01*
X1010188Y630999D01*
X1010134Y630893D01*
X1010125Y630853D01*
X1010109Y630816D01*
X1010090Y630698D01*
X1010064Y630582D01*
X1010066Y630542D01*
X1010059Y630502D01*
X1010070Y630383D01*
X1010074Y630265D01*
X1010085Y630226D01*
X1010089Y630185D01*
X1010129Y630073D01*
X1010162Y629959D01*
X1010183Y629924D01*
X1010197Y629886D01*
X1010263Y629788D01*
X1010324Y629685D01*
X1010364Y629640D01*
X1010375Y629623D01*
X1010391Y629609D01*
X1010430Y629564D01*
X1010753Y629242D01*
X1010857Y629161D01*
X1010958Y629075D01*
X1010983Y629064D01*
X1011004Y629047D01*
X1011126Y628994D01*
X1011245Y628937D01*
X1011271Y628931D01*
X1011296Y628921D01*
X1011426Y628900D01*
X1011556Y628874D01*
X1011583Y628875D01*
X1011610Y628871D01*
X1011741Y628883D01*
G37*
G36*
X857023Y96283D02*
X857023Y96283D01*
X857155Y96294D01*
X857181Y96303D01*
X857208Y96307D01*
X857331Y96355D01*
X857456Y96399D01*
X857478Y96414D01*
X857503Y96424D01*
X857610Y96501D01*
X857721Y96575D01*
X857739Y96595D01*
X857761Y96610D01*
X857845Y96712D01*
X857934Y96811D01*
X857946Y96835D01*
X857963Y96855D01*
X858020Y96975D01*
X858081Y97092D01*
X858088Y97119D01*
X858099Y97143D01*
X858124Y97273D01*
X858154Y97402D01*
X858154Y97429D01*
X858159Y97455D01*
X858151Y97587D01*
X858148Y97720D01*
X858141Y97746D01*
X858139Y97773D01*
X858098Y97899D01*
X858063Y98026D01*
X858046Y98061D01*
X858041Y98075D01*
X858029Y98094D01*
X857991Y98171D01*
X857822Y98465D01*
X857742Y98570D01*
X857666Y98679D01*
X857646Y98696D01*
X857629Y98718D01*
X857526Y98800D01*
X857425Y98887D01*
X857401Y98899D01*
X857380Y98915D01*
X857259Y98969D01*
X857141Y99028D01*
X857114Y99034D01*
X857090Y99045D01*
X856959Y99067D01*
X856830Y99095D01*
X856803Y99094D01*
X856776Y99098D01*
X856644Y99087D01*
X856512Y99082D01*
X856486Y99074D01*
X856459Y99072D01*
X856334Y99028D01*
X856207Y98990D01*
X856184Y98976D01*
X856159Y98967D01*
X856048Y98894D01*
X855935Y98826D01*
X855916Y98806D01*
X855894Y98791D01*
X855805Y98693D01*
X855712Y98599D01*
X855691Y98567D01*
X855681Y98555D01*
X855671Y98536D01*
X855623Y98465D01*
X855453Y98171D01*
X855402Y98048D01*
X855346Y97929D01*
X855341Y97902D01*
X855330Y97877D01*
X855311Y97746D01*
X855286Y97616D01*
X855288Y97590D01*
X855284Y97563D01*
X855297Y97431D01*
X855306Y97299D01*
X855314Y97273D01*
X855317Y97247D01*
X855363Y97122D01*
X855404Y96997D01*
X855418Y96974D01*
X855428Y96948D01*
X855503Y96840D01*
X855574Y96728D01*
X855594Y96709D01*
X855609Y96687D01*
X855709Y96601D01*
X855806Y96510D01*
X855829Y96497D01*
X855850Y96479D01*
X855968Y96420D01*
X856084Y96356D01*
X856110Y96350D01*
X856134Y96338D01*
X856264Y96310D01*
X856392Y96277D01*
X856430Y96275D01*
X856445Y96271D01*
X856467Y96272D01*
X856553Y96267D01*
X856892Y96267D01*
X857023Y96283D01*
G37*
D10*
X0Y0D02*
X-83000Y0D01*
X-83000Y850900D02*
X0Y850900D01*
X-63500Y850250D02*
X-63500Y650D01*
X-66692Y26000D01*
X-60308Y26000D01*
X-63500Y650D01*
X-64800Y26000D01*
X-62200Y26000D02*
X-63500Y650D01*
X-66100Y26000D01*
X-60900Y26000D02*
X-63500Y650D01*
X-66692Y824900D02*
X-63500Y850250D01*
X-66692Y824900D02*
X-60308Y824900D01*
X-63500Y850250D01*
X-64800Y824900D01*
X-62200Y824900D02*
X-63500Y850250D01*
X-66100Y824900D01*
X-60900Y824900D02*
X-63500Y850250D01*
D11*
X-74523Y403334D02*
X-74656Y403332D01*
X-74788Y403326D01*
X-74920Y403316D01*
X-75052Y403303D01*
X-75184Y403285D01*
X-75314Y403264D01*
X-75445Y403239D01*
X-75574Y403210D01*
X-75702Y403177D01*
X-75830Y403141D01*
X-75956Y403101D01*
X-76081Y403057D01*
X-76205Y403009D01*
X-76327Y402958D01*
X-76448Y402903D01*
X-76567Y402845D01*
X-76685Y402783D01*
X-76800Y402718D01*
X-76914Y402649D01*
X-77025Y402578D01*
X-77134Y402502D01*
X-77241Y402424D01*
X-77346Y402343D01*
X-77448Y402258D01*
X-77548Y402171D01*
X-77645Y402081D01*
X-77740Y401988D01*
X-77831Y401892D01*
X-77920Y401794D01*
X-78006Y401693D01*
X-78089Y401589D01*
X-78169Y401483D01*
X-78245Y401375D01*
X-78319Y401265D01*
X-78389Y401152D01*
X-78456Y401038D01*
X-78519Y400921D01*
X-78579Y400803D01*
X-78636Y400683D01*
X-78689Y400561D01*
X-78738Y400438D01*
X-78784Y400314D01*
X-78826Y400188D01*
X-78864Y400061D01*
X-78899Y399933D01*
X-78930Y399804D01*
X-78957Y399675D01*
X-78980Y399544D01*
X-79000Y399413D01*
X-79015Y399281D01*
X-79027Y399149D01*
X-79035Y399017D01*
X-79039Y398884D01*
X-79039Y398752D01*
X-79035Y398619D01*
X-79027Y398487D01*
X-79015Y398355D01*
X-79000Y398223D01*
X-78980Y398092D01*
X-78957Y397961D01*
X-78930Y397832D01*
X-78899Y397703D01*
X-78864Y397575D01*
X-78826Y397448D01*
X-78784Y397322D01*
X-78738Y397198D01*
X-78689Y397075D01*
X-78636Y396953D01*
X-78579Y396833D01*
X-78519Y396715D01*
X-78456Y396598D01*
X-78389Y396484D01*
X-78319Y396371D01*
X-78245Y396261D01*
X-78169Y396153D01*
X-78089Y396047D01*
X-78006Y395943D01*
X-77920Y395842D01*
X-77831Y395744D01*
X-77740Y395648D01*
X-77645Y395555D01*
X-77548Y395465D01*
X-77448Y395378D01*
X-77346Y395293D01*
X-77241Y395212D01*
X-77134Y395134D01*
X-77025Y395058D01*
X-76914Y394987D01*
X-76800Y394918D01*
X-76685Y394853D01*
X-76567Y394791D01*
X-76448Y394733D01*
X-76327Y394678D01*
X-76205Y394627D01*
X-76081Y394579D01*
X-75956Y394535D01*
X-75830Y394495D01*
X-75702Y394459D01*
X-75574Y394426D01*
X-75445Y394397D01*
X-75314Y394372D01*
X-75184Y394351D01*
X-75052Y394333D01*
X-74920Y394320D01*
X-74788Y394310D01*
X-74656Y394304D01*
X-74523Y394302D01*
X-74390Y394304D01*
X-74258Y394310D01*
X-74126Y394320D01*
X-73994Y394333D01*
X-73862Y394351D01*
X-73732Y394372D01*
X-73601Y394397D01*
X-73472Y394426D01*
X-73344Y394459D01*
X-73216Y394495D01*
X-73090Y394535D01*
X-72965Y394579D01*
X-72841Y394627D01*
X-72719Y394678D01*
X-72598Y394733D01*
X-72479Y394791D01*
X-72361Y394853D01*
X-72246Y394918D01*
X-72132Y394987D01*
X-72021Y395058D01*
X-71912Y395134D01*
X-71805Y395212D01*
X-71700Y395293D01*
X-71598Y395378D01*
X-71498Y395465D01*
X-71401Y395555D01*
X-71306Y395648D01*
X-71215Y395744D01*
X-71126Y395842D01*
X-71040Y395943D01*
X-70957Y396047D01*
X-70877Y396153D01*
X-70801Y396261D01*
X-70727Y396371D01*
X-70657Y396484D01*
X-70590Y396598D01*
X-70527Y396715D01*
X-70467Y396833D01*
X-70410Y396953D01*
X-70357Y397075D01*
X-70308Y397198D01*
X-70262Y397322D01*
X-70220Y397448D01*
X-70182Y397575D01*
X-70147Y397703D01*
X-70116Y397832D01*
X-70089Y397961D01*
X-70066Y398092D01*
X-70046Y398223D01*
X-70031Y398355D01*
X-70019Y398487D01*
X-70011Y398619D01*
X-70007Y398752D01*
X-70007Y398884D01*
X-70011Y399017D01*
X-70019Y399149D01*
X-70031Y399281D01*
X-70046Y399413D01*
X-70066Y399544D01*
X-70089Y399675D01*
X-70116Y399804D01*
X-70147Y399933D01*
X-70182Y400061D01*
X-70220Y400188D01*
X-70262Y400314D01*
X-70308Y400438D01*
X-70357Y400561D01*
X-70410Y400683D01*
X-70467Y400803D01*
X-70527Y400921D01*
X-70590Y401038D01*
X-70657Y401152D01*
X-70727Y401265D01*
X-70801Y401375D01*
X-70877Y401483D01*
X-70957Y401589D01*
X-71040Y401693D01*
X-71126Y401794D01*
X-71215Y401892D01*
X-71306Y401988D01*
X-71401Y402081D01*
X-71498Y402171D01*
X-71598Y402258D01*
X-71700Y402343D01*
X-71805Y402424D01*
X-71912Y402502D01*
X-72021Y402578D01*
X-72132Y402649D01*
X-72246Y402718D01*
X-72361Y402783D01*
X-72479Y402845D01*
X-72598Y402903D01*
X-72719Y402958D01*
X-72841Y403009D01*
X-72965Y403057D01*
X-73090Y403101D01*
X-73216Y403141D01*
X-73344Y403177D01*
X-73472Y403210D01*
X-73601Y403239D01*
X-73732Y403264D01*
X-73862Y403285D01*
X-73994Y403303D01*
X-74126Y403316D01*
X-74258Y403326D01*
X-74390Y403332D01*
X-74523Y403334D01*
X-82651Y402430D02*
X-82770Y402428D01*
X-82890Y402422D01*
X-83009Y402412D01*
X-83127Y402398D01*
X-83246Y402381D01*
X-83363Y402359D01*
X-83480Y402334D01*
X-83595Y402304D01*
X-83710Y402271D01*
X-83824Y402234D01*
X-83936Y402194D01*
X-84047Y402149D01*
X-84156Y402101D01*
X-84264Y402050D01*
X-84370Y401995D01*
X-84474Y401936D01*
X-84576Y401874D01*
X-84676Y401809D01*
X-84774Y401740D01*
X-84870Y401668D01*
X-84963Y401593D01*
X-85053Y401516D01*
X-85141Y401435D01*
X-85226Y401351D01*
X-85308Y401264D01*
X-85388Y401175D01*
X-85464Y401083D01*
X-85538Y400989D01*
X-85608Y400892D01*
X-85675Y400794D01*
X-85739Y400693D01*
X-85799Y400589D01*
X-85856Y400484D01*
X-85909Y400377D01*
X-85959Y400269D01*
X-86005Y400159D01*
X-86047Y400047D01*
X-86086Y399934D01*
X-86121Y399820D01*
X-86152Y399705D01*
X-86180Y399588D01*
X-86203Y399471D01*
X-86223Y399354D01*
X-86239Y399235D01*
X-86251Y399116D01*
X-86259Y398997D01*
X-86263Y398878D01*
X-86263Y398758D01*
X-86259Y398639D01*
X-86251Y398520D01*
X-86239Y398401D01*
X-86223Y398282D01*
X-86203Y398165D01*
X-86180Y398048D01*
X-86152Y397931D01*
X-86121Y397816D01*
X-86086Y397702D01*
X-86047Y397589D01*
X-86005Y397477D01*
X-85959Y397367D01*
X-85909Y397259D01*
X-85856Y397152D01*
X-85799Y397047D01*
X-85739Y396943D01*
X-85675Y396842D01*
X-85608Y396744D01*
X-85538Y396647D01*
X-85464Y396553D01*
X-85388Y396461D01*
X-85308Y396372D01*
X-85226Y396285D01*
X-85141Y396201D01*
X-85053Y396120D01*
X-84963Y396043D01*
X-84870Y395968D01*
X-84774Y395896D01*
X-84676Y395827D01*
X-84576Y395762D01*
X-84474Y395700D01*
X-84370Y395641D01*
X-84264Y395586D01*
X-84156Y395535D01*
X-84047Y395487D01*
X-83936Y395442D01*
X-83824Y395402D01*
X-83710Y395365D01*
X-83595Y395332D01*
X-83480Y395302D01*
X-83363Y395277D01*
X-83246Y395255D01*
X-83127Y395238D01*
X-83009Y395224D01*
X-82890Y395214D01*
X-82770Y395208D01*
X-82651Y395206D01*
X-82532Y395208D01*
X-82412Y395214D01*
X-82293Y395224D01*
X-82175Y395238D01*
X-82056Y395255D01*
X-81939Y395277D01*
X-81822Y395302D01*
X-81707Y395332D01*
X-81592Y395365D01*
X-81478Y395402D01*
X-81366Y395442D01*
X-81255Y395487D01*
X-81146Y395535D01*
X-81038Y395586D01*
X-80932Y395641D01*
X-80828Y395700D01*
X-80726Y395762D01*
X-80626Y395827D01*
X-80528Y395896D01*
X-80432Y395968D01*
X-80339Y396043D01*
X-80249Y396120D01*
X-80161Y396201D01*
X-80076Y396285D01*
X-79994Y396372D01*
X-79914Y396461D01*
X-79838Y396553D01*
X-79764Y396647D01*
X-79694Y396744D01*
X-79627Y396842D01*
X-79563Y396943D01*
X-79503Y397047D01*
X-79446Y397152D01*
X-79393Y397259D01*
X-79343Y397367D01*
X-79297Y397477D01*
X-79255Y397589D01*
X-79216Y397702D01*
X-79181Y397816D01*
X-79150Y397931D01*
X-79122Y398048D01*
X-79099Y398165D01*
X-79079Y398282D01*
X-79063Y398401D01*
X-79051Y398520D01*
X-79043Y398639D01*
X-79039Y398758D01*
X-79039Y398878D01*
X-79043Y398997D01*
X-79051Y399116D01*
X-79063Y399235D01*
X-79079Y399354D01*
X-79099Y399471D01*
X-79122Y399588D01*
X-79150Y399705D01*
X-79181Y399820D01*
X-79216Y399934D01*
X-79255Y400047D01*
X-79297Y400159D01*
X-79343Y400269D01*
X-79393Y400377D01*
X-79446Y400484D01*
X-79503Y400589D01*
X-79563Y400693D01*
X-79627Y400794D01*
X-79694Y400892D01*
X-79764Y400989D01*
X-79838Y401083D01*
X-79914Y401175D01*
X-79994Y401264D01*
X-80076Y401351D01*
X-80161Y401435D01*
X-80249Y401516D01*
X-80339Y401593D01*
X-80432Y401668D01*
X-80528Y401740D01*
X-80626Y401809D01*
X-80726Y401874D01*
X-80828Y401936D01*
X-80932Y401995D01*
X-81038Y402050D01*
X-81146Y402101D01*
X-81255Y402149D01*
X-81366Y402194D01*
X-81478Y402234D01*
X-81592Y402271D01*
X-81707Y402304D01*
X-81822Y402334D01*
X-81939Y402359D01*
X-82056Y402381D01*
X-82175Y402398D01*
X-82293Y402412D01*
X-82412Y402422D01*
X-82532Y402428D01*
X-82651Y402430D01*
X-70007Y409933D02*
X-70007Y415352D01*
X-70009Y415470D01*
X-70015Y415588D01*
X-70024Y415706D01*
X-70038Y415823D01*
X-70055Y415940D01*
X-70076Y416057D01*
X-70101Y416172D01*
X-70130Y416287D01*
X-70163Y416401D01*
X-70199Y416513D01*
X-70239Y416624D01*
X-70282Y416734D01*
X-70329Y416843D01*
X-70379Y416950D01*
X-70434Y417055D01*
X-70491Y417158D01*
X-70552Y417259D01*
X-70616Y417359D01*
X-70683Y417456D01*
X-70753Y417551D01*
X-70827Y417643D01*
X-70903Y417734D01*
X-70983Y417821D01*
X-71065Y417906D01*
X-71150Y417988D01*
X-71237Y418068D01*
X-71328Y418144D01*
X-71420Y418218D01*
X-71515Y418288D01*
X-71612Y418355D01*
X-71712Y418419D01*
X-71813Y418480D01*
X-71916Y418537D01*
X-72021Y418592D01*
X-72128Y418642D01*
X-72237Y418689D01*
X-72347Y418732D01*
X-72458Y418772D01*
X-72570Y418808D01*
X-72684Y418841D01*
X-72799Y418870D01*
X-72914Y418895D01*
X-73031Y418916D01*
X-73148Y418933D01*
X-73265Y418947D01*
X-73383Y418956D01*
X-73501Y418962D01*
X-73619Y418964D01*
X-75426Y418964D01*
X-75544Y418962D01*
X-75662Y418956D01*
X-75780Y418947D01*
X-75897Y418933D01*
X-76014Y418916D01*
X-76131Y418895D01*
X-76246Y418870D01*
X-76361Y418841D01*
X-76475Y418808D01*
X-76587Y418772D01*
X-76698Y418732D01*
X-76808Y418689D01*
X-76917Y418642D01*
X-77024Y418592D01*
X-77129Y418537D01*
X-77232Y418480D01*
X-77333Y418419D01*
X-77433Y418355D01*
X-77530Y418288D01*
X-77625Y418218D01*
X-77717Y418144D01*
X-77808Y418068D01*
X-77895Y417988D01*
X-77980Y417906D01*
X-78062Y417821D01*
X-78142Y417734D01*
X-78218Y417643D01*
X-78292Y417551D01*
X-78362Y417456D01*
X-78429Y417359D01*
X-78493Y417259D01*
X-78554Y417158D01*
X-78611Y417055D01*
X-78666Y416950D01*
X-78716Y416843D01*
X-78763Y416734D01*
X-78806Y416624D01*
X-78846Y416513D01*
X-78882Y416401D01*
X-78915Y416287D01*
X-78944Y416172D01*
X-78969Y416057D01*
X-78990Y415940D01*
X-79007Y415823D01*
X-79021Y415706D01*
X-79030Y415588D01*
X-79036Y415470D01*
X-79038Y415352D01*
X-79038Y409933D01*
X-86263Y409933D01*
X-86263Y418964D01*
X-70910Y424939D02*
X-70007Y424939D01*
X-70910Y424939D02*
X-70910Y425842D01*
X-70007Y425842D01*
X-70007Y424939D01*
X-78135Y431817D02*
X-78455Y431821D01*
X-78774Y431832D01*
X-79094Y431851D01*
X-79412Y431878D01*
X-79730Y431912D01*
X-80047Y431954D01*
X-80363Y432004D01*
X-80678Y432061D01*
X-80991Y432125D01*
X-81303Y432197D01*
X-81613Y432276D01*
X-81920Y432363D01*
X-82226Y432457D01*
X-82529Y432558D01*
X-82830Y432667D01*
X-83128Y432782D01*
X-83424Y432905D01*
X-83716Y433035D01*
X-84005Y433172D01*
X-84006Y433171D02*
X-84114Y433210D01*
X-84221Y433253D01*
X-84326Y433299D01*
X-84430Y433350D01*
X-84532Y433403D01*
X-84632Y433460D01*
X-84730Y433521D01*
X-84825Y433585D01*
X-84919Y433652D01*
X-85010Y433723D01*
X-85099Y433796D01*
X-85185Y433873D01*
X-85268Y433952D01*
X-85349Y434034D01*
X-85427Y434119D01*
X-85501Y434207D01*
X-85573Y434297D01*
X-85641Y434389D01*
X-85707Y434484D01*
X-85769Y434581D01*
X-85827Y434680D01*
X-85883Y434782D01*
X-85934Y434884D01*
X-85982Y434989D01*
X-86027Y435095D01*
X-86068Y435203D01*
X-86105Y435312D01*
X-86138Y435422D01*
X-86167Y435534D01*
X-86193Y435646D01*
X-86215Y435759D01*
X-86232Y435873D01*
X-86246Y435987D01*
X-86256Y436102D01*
X-86262Y436217D01*
X-86264Y436332D01*
X-86263Y436332D02*
X-86261Y436447D01*
X-86255Y436562D01*
X-86245Y436677D01*
X-86231Y436791D01*
X-86214Y436905D01*
X-86192Y437018D01*
X-86166Y437130D01*
X-86137Y437242D01*
X-86104Y437352D01*
X-86067Y437461D01*
X-86026Y437569D01*
X-85981Y437675D01*
X-85933Y437780D01*
X-85882Y437882D01*
X-85826Y437983D01*
X-85768Y438083D01*
X-85706Y438180D01*
X-85641Y438274D01*
X-85572Y438367D01*
X-85500Y438457D01*
X-85426Y438545D01*
X-85348Y438630D01*
X-85267Y438712D01*
X-85184Y438791D01*
X-85098Y438868D01*
X-85009Y438941D01*
X-84918Y439012D01*
X-84824Y439079D01*
X-84729Y439143D01*
X-84631Y439204D01*
X-84531Y439261D01*
X-84429Y439314D01*
X-84325Y439365D01*
X-84220Y439411D01*
X-84113Y439454D01*
X-84005Y439493D01*
X-83716Y439630D01*
X-83424Y439760D01*
X-83128Y439883D01*
X-82830Y439998D01*
X-82529Y440107D01*
X-82226Y440208D01*
X-81920Y440302D01*
X-81613Y440389D01*
X-81303Y440468D01*
X-80991Y440540D01*
X-80678Y440604D01*
X-80363Y440661D01*
X-80047Y440711D01*
X-79730Y440753D01*
X-79412Y440787D01*
X-79094Y440814D01*
X-78774Y440833D01*
X-78455Y440844D01*
X-78135Y440848D01*
X-78135Y431817D02*
X-77815Y431821D01*
X-77496Y431832D01*
X-77176Y431851D01*
X-76858Y431878D01*
X-76540Y431912D01*
X-76223Y431954D01*
X-75907Y432004D01*
X-75592Y432061D01*
X-75279Y432125D01*
X-74967Y432197D01*
X-74657Y432276D01*
X-74350Y432363D01*
X-74044Y432457D01*
X-73741Y432558D01*
X-73440Y432667D01*
X-73142Y432782D01*
X-72846Y432905D01*
X-72554Y433035D01*
X-72265Y433172D01*
X-72265Y433171D02*
X-72157Y433210D01*
X-72050Y433253D01*
X-71945Y433299D01*
X-71841Y433350D01*
X-71739Y433403D01*
X-71639Y433460D01*
X-71541Y433521D01*
X-71446Y433585D01*
X-71352Y433652D01*
X-71261Y433723D01*
X-71172Y433796D01*
X-71086Y433873D01*
X-71003Y433952D01*
X-70922Y434034D01*
X-70844Y434119D01*
X-70770Y434207D01*
X-70698Y434297D01*
X-70629Y434390D01*
X-70564Y434484D01*
X-70502Y434581D01*
X-70444Y434681D01*
X-70388Y434782D01*
X-70337Y434884D01*
X-70289Y434989D01*
X-70244Y435095D01*
X-70203Y435203D01*
X-70166Y435312D01*
X-70133Y435422D01*
X-70104Y435534D01*
X-70078Y435646D01*
X-70056Y435759D01*
X-70039Y435873D01*
X-70025Y435987D01*
X-70015Y436102D01*
X-70009Y436217D01*
X-70007Y436332D01*
X-72265Y439493D02*
X-72554Y439630D01*
X-72846Y439760D01*
X-73142Y439883D01*
X-73440Y439998D01*
X-73741Y440107D01*
X-74044Y440208D01*
X-74350Y440302D01*
X-74657Y440389D01*
X-74967Y440468D01*
X-75279Y440540D01*
X-75592Y440604D01*
X-75907Y440661D01*
X-76223Y440711D01*
X-76540Y440753D01*
X-76858Y440787D01*
X-77176Y440814D01*
X-77496Y440833D01*
X-77815Y440844D01*
X-78135Y440848D01*
X-72265Y439493D02*
X-72157Y439454D01*
X-72050Y439411D01*
X-71945Y439365D01*
X-71841Y439314D01*
X-71739Y439261D01*
X-71639Y439204D01*
X-71541Y439143D01*
X-71446Y439079D01*
X-71352Y439012D01*
X-71261Y438941D01*
X-71172Y438868D01*
X-71086Y438791D01*
X-71003Y438712D01*
X-70922Y438630D01*
X-70844Y438545D01*
X-70770Y438457D01*
X-70698Y438367D01*
X-70629Y438274D01*
X-70564Y438180D01*
X-70502Y438083D01*
X-70444Y437983D01*
X-70388Y437882D01*
X-70337Y437779D01*
X-70289Y437675D01*
X-70244Y437569D01*
X-70203Y437461D01*
X-70166Y437352D01*
X-70133Y437242D01*
X-70104Y437130D01*
X-70078Y437018D01*
X-70056Y436905D01*
X-70039Y436791D01*
X-70025Y436677D01*
X-70015Y436562D01*
X-70009Y436447D01*
X-70007Y436332D01*
X-73619Y432720D02*
X-82651Y439945D01*
X-77232Y451061D02*
X-77232Y456479D01*
X-77232Y451061D02*
X-77234Y450943D01*
X-77240Y450825D01*
X-77249Y450707D01*
X-77263Y450590D01*
X-77280Y450473D01*
X-77301Y450356D01*
X-77326Y450241D01*
X-77355Y450126D01*
X-77388Y450012D01*
X-77424Y449900D01*
X-77464Y449789D01*
X-77507Y449679D01*
X-77554Y449570D01*
X-77604Y449463D01*
X-77659Y449358D01*
X-77716Y449255D01*
X-77777Y449154D01*
X-77841Y449054D01*
X-77908Y448957D01*
X-77978Y448862D01*
X-78052Y448770D01*
X-78128Y448679D01*
X-78208Y448592D01*
X-78290Y448507D01*
X-78375Y448425D01*
X-78462Y448345D01*
X-78553Y448269D01*
X-78645Y448195D01*
X-78740Y448125D01*
X-78837Y448058D01*
X-78937Y447994D01*
X-79038Y447933D01*
X-79141Y447876D01*
X-79246Y447821D01*
X-79353Y447771D01*
X-79462Y447724D01*
X-79572Y447681D01*
X-79683Y447641D01*
X-79795Y447605D01*
X-79909Y447572D01*
X-80024Y447543D01*
X-80139Y447518D01*
X-80256Y447497D01*
X-80373Y447480D01*
X-80490Y447466D01*
X-80608Y447457D01*
X-80726Y447451D01*
X-80844Y447449D01*
X-80844Y447448D02*
X-81747Y447448D01*
X-81880Y447450D01*
X-82012Y447456D01*
X-82144Y447466D01*
X-82276Y447479D01*
X-82408Y447497D01*
X-82538Y447518D01*
X-82669Y447543D01*
X-82798Y447572D01*
X-82926Y447605D01*
X-83054Y447641D01*
X-83180Y447681D01*
X-83305Y447725D01*
X-83429Y447773D01*
X-83551Y447824D01*
X-83672Y447879D01*
X-83791Y447937D01*
X-83909Y447999D01*
X-84024Y448064D01*
X-84138Y448133D01*
X-84249Y448204D01*
X-84358Y448280D01*
X-84465Y448358D01*
X-84570Y448439D01*
X-84672Y448524D01*
X-84772Y448611D01*
X-84869Y448701D01*
X-84964Y448794D01*
X-85055Y448890D01*
X-85144Y448988D01*
X-85230Y449089D01*
X-85313Y449193D01*
X-85393Y449299D01*
X-85469Y449407D01*
X-85543Y449517D01*
X-85613Y449630D01*
X-85680Y449744D01*
X-85743Y449861D01*
X-85803Y449979D01*
X-85860Y450099D01*
X-85913Y450221D01*
X-85962Y450344D01*
X-86008Y450468D01*
X-86050Y450594D01*
X-86088Y450721D01*
X-86123Y450849D01*
X-86154Y450978D01*
X-86181Y451107D01*
X-86204Y451238D01*
X-86224Y451369D01*
X-86239Y451501D01*
X-86251Y451633D01*
X-86259Y451765D01*
X-86263Y451898D01*
X-86263Y452030D01*
X-86259Y452163D01*
X-86251Y452295D01*
X-86239Y452427D01*
X-86224Y452559D01*
X-86204Y452690D01*
X-86181Y452821D01*
X-86154Y452950D01*
X-86123Y453079D01*
X-86088Y453207D01*
X-86050Y453334D01*
X-86008Y453460D01*
X-85962Y453584D01*
X-85913Y453707D01*
X-85860Y453829D01*
X-85803Y453949D01*
X-85743Y454067D01*
X-85680Y454184D01*
X-85613Y454298D01*
X-85543Y454411D01*
X-85469Y454521D01*
X-85393Y454629D01*
X-85313Y454735D01*
X-85230Y454839D01*
X-85144Y454940D01*
X-85055Y455038D01*
X-84964Y455134D01*
X-84869Y455227D01*
X-84772Y455317D01*
X-84672Y455404D01*
X-84570Y455489D01*
X-84465Y455570D01*
X-84358Y455648D01*
X-84249Y455724D01*
X-84138Y455795D01*
X-84024Y455864D01*
X-83909Y455929D01*
X-83791Y455991D01*
X-83672Y456049D01*
X-83551Y456104D01*
X-83429Y456155D01*
X-83305Y456203D01*
X-83180Y456247D01*
X-83054Y456287D01*
X-82926Y456323D01*
X-82798Y456356D01*
X-82669Y456385D01*
X-82538Y456410D01*
X-82408Y456431D01*
X-82276Y456449D01*
X-82144Y456462D01*
X-82012Y456472D01*
X-81880Y456478D01*
X-81747Y456480D01*
X-81747Y456479D02*
X-77232Y456479D01*
X-77057Y456477D01*
X-76883Y456471D01*
X-76709Y456460D01*
X-76535Y456445D01*
X-76361Y456426D01*
X-76188Y456403D01*
X-76016Y456376D01*
X-75844Y456344D01*
X-75673Y456309D01*
X-75503Y456269D01*
X-75334Y456225D01*
X-75166Y456177D01*
X-74999Y456125D01*
X-74834Y456069D01*
X-74670Y456009D01*
X-74507Y455946D01*
X-74347Y455878D01*
X-74187Y455806D01*
X-74030Y455731D01*
X-73874Y455651D01*
X-73721Y455568D01*
X-73569Y455482D01*
X-73420Y455391D01*
X-73273Y455297D01*
X-73128Y455200D01*
X-72985Y455099D01*
X-72845Y454995D01*
X-72708Y454887D01*
X-72573Y454776D01*
X-72441Y454662D01*
X-72312Y454545D01*
X-72185Y454424D01*
X-72062Y454301D01*
X-71941Y454174D01*
X-71824Y454045D01*
X-71710Y453913D01*
X-71599Y453778D01*
X-71491Y453641D01*
X-71387Y453501D01*
X-71286Y453358D01*
X-71189Y453213D01*
X-71095Y453066D01*
X-71004Y452917D01*
X-70918Y452765D01*
X-70835Y452612D01*
X-70755Y452456D01*
X-70680Y452299D01*
X-70608Y452139D01*
X-70540Y451979D01*
X-70477Y451816D01*
X-70417Y451652D01*
X-70361Y451487D01*
X-70309Y451320D01*
X-70261Y451152D01*
X-70217Y450983D01*
X-70177Y450813D01*
X-70142Y450642D01*
X-70110Y450470D01*
X-70083Y450298D01*
X-70060Y450125D01*
X-70041Y449951D01*
X-70026Y449777D01*
X-70015Y449603D01*
X-70009Y449429D01*
X-70007Y449254D01*
D10*
X0Y-12700D02*
X0Y-197300D01*
X1206500Y-197300D02*
X1206500Y-12700D01*
X1205850Y-177800D02*
X650Y-177800D01*
X26000Y-174608D01*
X26000Y-180992D01*
X650Y-177800D01*
X26000Y-176500D01*
X26000Y-179100D02*
X650Y-177800D01*
X26000Y-175200D01*
X26000Y-180400D02*
X650Y-177800D01*
X1180500Y-174608D02*
X1205850Y-177800D01*
X1180500Y-174608D02*
X1180500Y-180992D01*
X1205850Y-177800D01*
X1180500Y-176500D01*
X1180500Y-179100D02*
X1205850Y-177800D01*
X1180500Y-175200D01*
X1180500Y-180400D02*
X1205850Y-177800D01*
D11*
X569521Y-155037D02*
X565006Y-158649D01*
X569521Y-155037D02*
X569521Y-171293D01*
X565006Y-171293D02*
X574037Y-171293D01*
X589668Y-159101D02*
X589666Y-158976D01*
X589660Y-158851D01*
X589651Y-158726D01*
X589637Y-158602D01*
X589620Y-158478D01*
X589599Y-158354D01*
X589574Y-158232D01*
X589545Y-158110D01*
X589513Y-157989D01*
X589477Y-157869D01*
X589437Y-157750D01*
X589394Y-157633D01*
X589347Y-157517D01*
X589296Y-157402D01*
X589242Y-157290D01*
X589184Y-157178D01*
X589124Y-157069D01*
X589059Y-156962D01*
X588992Y-156856D01*
X588921Y-156753D01*
X588847Y-156652D01*
X588770Y-156553D01*
X588690Y-156457D01*
X588607Y-156363D01*
X588522Y-156272D01*
X588433Y-156183D01*
X588342Y-156098D01*
X588248Y-156015D01*
X588152Y-155935D01*
X588053Y-155858D01*
X587952Y-155784D01*
X587849Y-155713D01*
X587743Y-155646D01*
X587636Y-155581D01*
X587527Y-155521D01*
X587415Y-155463D01*
X587303Y-155409D01*
X587188Y-155358D01*
X587072Y-155311D01*
X586955Y-155268D01*
X586836Y-155228D01*
X586716Y-155192D01*
X586595Y-155160D01*
X586473Y-155131D01*
X586351Y-155106D01*
X586227Y-155085D01*
X586103Y-155068D01*
X585979Y-155054D01*
X585854Y-155045D01*
X585729Y-155039D01*
X585604Y-155037D01*
X585461Y-155039D01*
X585319Y-155045D01*
X585176Y-155055D01*
X585034Y-155068D01*
X584893Y-155086D01*
X584751Y-155107D01*
X584611Y-155132D01*
X584471Y-155161D01*
X584332Y-155194D01*
X584194Y-155231D01*
X584057Y-155271D01*
X583922Y-155315D01*
X583787Y-155363D01*
X583654Y-155415D01*
X583522Y-155470D01*
X583392Y-155529D01*
X583264Y-155591D01*
X583137Y-155657D01*
X583012Y-155726D01*
X582889Y-155798D01*
X582768Y-155874D01*
X582650Y-155953D01*
X582533Y-156036D01*
X582419Y-156121D01*
X582307Y-156210D01*
X582198Y-156301D01*
X582091Y-156396D01*
X581986Y-156493D01*
X581885Y-156594D01*
X581786Y-156697D01*
X581690Y-156802D01*
X581597Y-156911D01*
X581507Y-157022D01*
X581420Y-157135D01*
X581336Y-157250D01*
X581256Y-157368D01*
X581178Y-157488D01*
X581104Y-157610D01*
X581034Y-157734D01*
X580966Y-157860D01*
X580903Y-157988D01*
X580842Y-158117D01*
X580785Y-158248D01*
X580732Y-158380D01*
X580683Y-158514D01*
X580637Y-158649D01*
X588313Y-162262D02*
X588407Y-162170D01*
X588497Y-162076D01*
X588585Y-161979D01*
X588670Y-161879D01*
X588752Y-161777D01*
X588830Y-161672D01*
X588906Y-161565D01*
X588978Y-161456D01*
X589047Y-161345D01*
X589113Y-161231D01*
X589175Y-161116D01*
X589234Y-160999D01*
X589289Y-160880D01*
X589340Y-160760D01*
X589388Y-160638D01*
X589433Y-160515D01*
X589473Y-160391D01*
X589510Y-160265D01*
X589543Y-160138D01*
X589572Y-160011D01*
X589598Y-159882D01*
X589619Y-159753D01*
X589637Y-159623D01*
X589650Y-159493D01*
X589660Y-159363D01*
X589666Y-159232D01*
X589668Y-159101D01*
X588314Y-162262D02*
X580637Y-171293D01*
X589668Y-171293D01*
X596269Y-163165D02*
X596273Y-162845D01*
X596284Y-162526D01*
X596303Y-162206D01*
X596330Y-161888D01*
X596364Y-161570D01*
X596406Y-161253D01*
X596456Y-160937D01*
X596513Y-160622D01*
X596577Y-160309D01*
X596649Y-159997D01*
X596728Y-159687D01*
X596815Y-159380D01*
X596909Y-159074D01*
X597010Y-158771D01*
X597119Y-158470D01*
X597234Y-158172D01*
X597357Y-157876D01*
X597487Y-157584D01*
X597624Y-157295D01*
X597624Y-157294D02*
X597663Y-157186D01*
X597706Y-157079D01*
X597752Y-156974D01*
X597802Y-156871D01*
X597856Y-156769D01*
X597913Y-156669D01*
X597974Y-156571D01*
X598038Y-156475D01*
X598105Y-156382D01*
X598175Y-156291D01*
X598249Y-156202D01*
X598325Y-156116D01*
X598405Y-156033D01*
X598487Y-155952D01*
X598572Y-155874D01*
X598659Y-155800D01*
X598750Y-155728D01*
X598842Y-155659D01*
X598937Y-155594D01*
X599034Y-155532D01*
X599133Y-155473D01*
X599234Y-155418D01*
X599337Y-155367D01*
X599442Y-155319D01*
X599548Y-155274D01*
X599655Y-155233D01*
X599764Y-155196D01*
X599875Y-155163D01*
X599986Y-155134D01*
X600098Y-155108D01*
X600211Y-155086D01*
X600325Y-155069D01*
X600439Y-155055D01*
X600554Y-155045D01*
X600669Y-155039D01*
X600784Y-155037D01*
X600899Y-155039D01*
X601014Y-155045D01*
X601129Y-155055D01*
X601243Y-155069D01*
X601357Y-155086D01*
X601470Y-155108D01*
X601582Y-155134D01*
X601694Y-155163D01*
X601804Y-155196D01*
X601913Y-155233D01*
X602021Y-155274D01*
X602127Y-155319D01*
X602232Y-155367D01*
X602334Y-155418D01*
X602436Y-155474D01*
X602535Y-155532D01*
X602632Y-155594D01*
X602727Y-155660D01*
X602819Y-155728D01*
X602909Y-155800D01*
X602997Y-155874D01*
X603082Y-155952D01*
X603164Y-156033D01*
X603243Y-156116D01*
X603320Y-156202D01*
X603393Y-156291D01*
X603464Y-156382D01*
X603531Y-156476D01*
X603595Y-156571D01*
X603656Y-156669D01*
X603713Y-156769D01*
X603766Y-156871D01*
X603817Y-156975D01*
X603863Y-157080D01*
X603906Y-157187D01*
X603945Y-157295D01*
X603944Y-157295D02*
X604081Y-157584D01*
X604211Y-157876D01*
X604334Y-158172D01*
X604449Y-158470D01*
X604558Y-158771D01*
X604659Y-159074D01*
X604753Y-159380D01*
X604840Y-159687D01*
X604919Y-159997D01*
X604991Y-160309D01*
X605055Y-160622D01*
X605112Y-160937D01*
X605162Y-161253D01*
X605204Y-161570D01*
X605238Y-161888D01*
X605265Y-162206D01*
X605284Y-162526D01*
X605295Y-162845D01*
X605299Y-163165D01*
X596269Y-163165D02*
X596273Y-163485D01*
X596284Y-163804D01*
X596303Y-164124D01*
X596330Y-164442D01*
X596364Y-164760D01*
X596406Y-165077D01*
X596456Y-165393D01*
X596513Y-165708D01*
X596577Y-166021D01*
X596649Y-166333D01*
X596728Y-166643D01*
X596815Y-166950D01*
X596909Y-167256D01*
X597010Y-167559D01*
X597119Y-167860D01*
X597234Y-168158D01*
X597357Y-168454D01*
X597487Y-168746D01*
X597624Y-169035D01*
X597623Y-169036D02*
X597662Y-169144D01*
X597705Y-169251D01*
X597751Y-169356D01*
X597802Y-169460D01*
X597855Y-169562D01*
X597912Y-169662D01*
X597973Y-169760D01*
X598037Y-169855D01*
X598104Y-169949D01*
X598175Y-170040D01*
X598248Y-170129D01*
X598325Y-170215D01*
X598404Y-170298D01*
X598486Y-170379D01*
X598571Y-170457D01*
X598659Y-170531D01*
X598749Y-170603D01*
X598842Y-170672D01*
X598936Y-170737D01*
X599033Y-170799D01*
X599133Y-170857D01*
X599234Y-170913D01*
X599336Y-170964D01*
X599441Y-171012D01*
X599547Y-171057D01*
X599655Y-171098D01*
X599764Y-171135D01*
X599874Y-171168D01*
X599986Y-171197D01*
X600098Y-171223D01*
X600211Y-171245D01*
X600325Y-171262D01*
X600439Y-171276D01*
X600554Y-171286D01*
X600669Y-171292D01*
X600784Y-171294D01*
X603944Y-169035D02*
X604081Y-168746D01*
X604211Y-168454D01*
X604334Y-168158D01*
X604449Y-167860D01*
X604558Y-167559D01*
X604659Y-167256D01*
X604753Y-166950D01*
X604840Y-166643D01*
X604919Y-166333D01*
X604991Y-166021D01*
X605055Y-165708D01*
X605112Y-165393D01*
X605162Y-165077D01*
X605204Y-164760D01*
X605238Y-164442D01*
X605265Y-164124D01*
X605284Y-163804D01*
X605295Y-163485D01*
X605299Y-163165D01*
X603945Y-169035D02*
X603906Y-169143D01*
X603863Y-169250D01*
X603817Y-169355D01*
X603766Y-169459D01*
X603713Y-169561D01*
X603656Y-169661D01*
X603595Y-169759D01*
X603531Y-169854D01*
X603464Y-169948D01*
X603393Y-170039D01*
X603320Y-170128D01*
X603243Y-170214D01*
X603164Y-170297D01*
X603082Y-170378D01*
X602997Y-170456D01*
X602909Y-170530D01*
X602819Y-170602D01*
X602726Y-170671D01*
X602632Y-170736D01*
X602535Y-170798D01*
X602435Y-170856D01*
X602334Y-170912D01*
X602231Y-170963D01*
X602127Y-171011D01*
X602021Y-171056D01*
X601913Y-171097D01*
X601804Y-171134D01*
X601694Y-171167D01*
X601582Y-171196D01*
X601470Y-171222D01*
X601357Y-171244D01*
X601243Y-171261D01*
X601129Y-171275D01*
X601014Y-171285D01*
X600899Y-171291D01*
X600784Y-171293D01*
X597171Y-167681D02*
X604396Y-158649D01*
X611274Y-170390D02*
X611274Y-171293D01*
X611274Y-170390D02*
X612177Y-170390D01*
X612177Y-171293D01*
X611274Y-171293D01*
X618152Y-162262D02*
X623571Y-162262D01*
X623689Y-162264D01*
X623807Y-162270D01*
X623925Y-162279D01*
X624042Y-162293D01*
X624159Y-162310D01*
X624276Y-162331D01*
X624391Y-162356D01*
X624506Y-162385D01*
X624620Y-162418D01*
X624732Y-162454D01*
X624843Y-162494D01*
X624953Y-162537D01*
X625062Y-162584D01*
X625169Y-162634D01*
X625274Y-162689D01*
X625377Y-162746D01*
X625478Y-162807D01*
X625578Y-162871D01*
X625675Y-162938D01*
X625770Y-163008D01*
X625862Y-163082D01*
X625953Y-163158D01*
X626040Y-163238D01*
X626125Y-163320D01*
X626207Y-163405D01*
X626287Y-163492D01*
X626363Y-163583D01*
X626437Y-163675D01*
X626507Y-163770D01*
X626574Y-163867D01*
X626638Y-163967D01*
X626699Y-164068D01*
X626756Y-164171D01*
X626811Y-164276D01*
X626861Y-164383D01*
X626908Y-164492D01*
X626951Y-164602D01*
X626991Y-164713D01*
X627027Y-164825D01*
X627060Y-164939D01*
X627089Y-165054D01*
X627114Y-165169D01*
X627135Y-165286D01*
X627152Y-165403D01*
X627166Y-165520D01*
X627175Y-165638D01*
X627181Y-165756D01*
X627183Y-165874D01*
X627183Y-166777D01*
X627184Y-166777D02*
X627182Y-166910D01*
X627176Y-167042D01*
X627166Y-167174D01*
X627153Y-167306D01*
X627135Y-167438D01*
X627114Y-167568D01*
X627089Y-167699D01*
X627060Y-167828D01*
X627027Y-167956D01*
X626991Y-168084D01*
X626951Y-168210D01*
X626907Y-168335D01*
X626859Y-168459D01*
X626808Y-168581D01*
X626753Y-168702D01*
X626695Y-168821D01*
X626633Y-168939D01*
X626568Y-169054D01*
X626499Y-169168D01*
X626428Y-169279D01*
X626352Y-169388D01*
X626274Y-169495D01*
X626193Y-169600D01*
X626108Y-169702D01*
X626021Y-169802D01*
X625931Y-169899D01*
X625838Y-169994D01*
X625742Y-170085D01*
X625644Y-170174D01*
X625543Y-170260D01*
X625439Y-170343D01*
X625333Y-170423D01*
X625225Y-170499D01*
X625115Y-170573D01*
X625002Y-170643D01*
X624888Y-170710D01*
X624771Y-170773D01*
X624653Y-170833D01*
X624533Y-170890D01*
X624411Y-170943D01*
X624288Y-170992D01*
X624164Y-171038D01*
X624038Y-171080D01*
X623911Y-171118D01*
X623783Y-171153D01*
X623654Y-171184D01*
X623525Y-171211D01*
X623394Y-171234D01*
X623263Y-171254D01*
X623131Y-171269D01*
X622999Y-171281D01*
X622867Y-171289D01*
X622734Y-171293D01*
X622602Y-171293D01*
X622469Y-171289D01*
X622337Y-171281D01*
X622205Y-171269D01*
X622073Y-171254D01*
X621942Y-171234D01*
X621811Y-171211D01*
X621682Y-171184D01*
X621553Y-171153D01*
X621425Y-171118D01*
X621298Y-171080D01*
X621172Y-171038D01*
X621048Y-170992D01*
X620925Y-170943D01*
X620803Y-170890D01*
X620683Y-170833D01*
X620565Y-170773D01*
X620448Y-170710D01*
X620334Y-170643D01*
X620221Y-170573D01*
X620111Y-170499D01*
X620003Y-170423D01*
X619897Y-170343D01*
X619793Y-170260D01*
X619692Y-170174D01*
X619594Y-170085D01*
X619498Y-169994D01*
X619405Y-169899D01*
X619315Y-169802D01*
X619228Y-169702D01*
X619143Y-169600D01*
X619062Y-169495D01*
X618984Y-169388D01*
X618908Y-169279D01*
X618837Y-169168D01*
X618768Y-169054D01*
X618703Y-168939D01*
X618641Y-168821D01*
X618583Y-168702D01*
X618528Y-168581D01*
X618477Y-168459D01*
X618429Y-168335D01*
X618385Y-168210D01*
X618345Y-168084D01*
X618309Y-167956D01*
X618276Y-167828D01*
X618247Y-167699D01*
X618222Y-167568D01*
X618201Y-167438D01*
X618183Y-167306D01*
X618170Y-167174D01*
X618160Y-167042D01*
X618154Y-166910D01*
X618152Y-166777D01*
X618152Y-162262D01*
X618154Y-162085D01*
X618161Y-161907D01*
X618172Y-161730D01*
X618187Y-161554D01*
X618206Y-161378D01*
X618230Y-161202D01*
X618258Y-161027D01*
X618291Y-160852D01*
X618328Y-160679D01*
X618369Y-160506D01*
X618414Y-160335D01*
X618463Y-160165D01*
X618517Y-159996D01*
X618574Y-159828D01*
X618636Y-159662D01*
X618702Y-159497D01*
X618772Y-159334D01*
X618846Y-159173D01*
X618923Y-159014D01*
X619005Y-158856D01*
X619091Y-158701D01*
X619180Y-158548D01*
X619273Y-158397D01*
X619370Y-158248D01*
X619470Y-158102D01*
X619574Y-157958D01*
X619681Y-157817D01*
X619792Y-157679D01*
X619906Y-157543D01*
X620024Y-157410D01*
X620144Y-157280D01*
X620268Y-157153D01*
X620395Y-157029D01*
X620525Y-156909D01*
X620658Y-156791D01*
X620793Y-156677D01*
X620932Y-156566D01*
X621073Y-156459D01*
X621217Y-156355D01*
X621363Y-156255D01*
X621512Y-156158D01*
X621663Y-156065D01*
X621816Y-155976D01*
X621971Y-155890D01*
X622129Y-155808D01*
X622288Y-155731D01*
X622449Y-155657D01*
X622612Y-155587D01*
X622777Y-155521D01*
X622943Y-155459D01*
X623111Y-155402D01*
X623280Y-155348D01*
X623450Y-155299D01*
X623621Y-155254D01*
X623794Y-155213D01*
X623967Y-155176D01*
X624142Y-155143D01*
X624317Y-155115D01*
X624493Y-155091D01*
X624669Y-155072D01*
X624845Y-155057D01*
X625022Y-155046D01*
X625200Y-155039D01*
X625377Y-155037D01*
X633783Y-171293D02*
X639202Y-171293D01*
X639320Y-171291D01*
X639438Y-171285D01*
X639556Y-171276D01*
X639673Y-171262D01*
X639790Y-171245D01*
X639907Y-171224D01*
X640022Y-171199D01*
X640137Y-171170D01*
X640251Y-171137D01*
X640363Y-171101D01*
X640474Y-171061D01*
X640584Y-171018D01*
X640693Y-170971D01*
X640800Y-170921D01*
X640905Y-170866D01*
X641008Y-170809D01*
X641109Y-170748D01*
X641209Y-170684D01*
X641306Y-170617D01*
X641401Y-170547D01*
X641493Y-170473D01*
X641584Y-170397D01*
X641671Y-170317D01*
X641756Y-170235D01*
X641838Y-170150D01*
X641918Y-170063D01*
X641994Y-169972D01*
X642068Y-169880D01*
X642138Y-169785D01*
X642205Y-169688D01*
X642269Y-169588D01*
X642330Y-169487D01*
X642387Y-169384D01*
X642442Y-169279D01*
X642492Y-169172D01*
X642539Y-169063D01*
X642582Y-168953D01*
X642622Y-168842D01*
X642658Y-168730D01*
X642691Y-168616D01*
X642720Y-168501D01*
X642745Y-168386D01*
X642766Y-168269D01*
X642783Y-168152D01*
X642797Y-168035D01*
X642806Y-167917D01*
X642812Y-167799D01*
X642814Y-167681D01*
X642814Y-165874D01*
X642812Y-165756D01*
X642806Y-165638D01*
X642797Y-165520D01*
X642783Y-165403D01*
X642766Y-165286D01*
X642745Y-165169D01*
X642720Y-165054D01*
X642691Y-164939D01*
X642658Y-164825D01*
X642622Y-164713D01*
X642582Y-164602D01*
X642539Y-164492D01*
X642492Y-164383D01*
X642442Y-164276D01*
X642387Y-164171D01*
X642330Y-164068D01*
X642269Y-163967D01*
X642205Y-163867D01*
X642138Y-163770D01*
X642068Y-163675D01*
X641994Y-163583D01*
X641918Y-163492D01*
X641838Y-163405D01*
X641756Y-163320D01*
X641671Y-163238D01*
X641584Y-163158D01*
X641493Y-163082D01*
X641401Y-163008D01*
X641306Y-162938D01*
X641209Y-162871D01*
X641109Y-162807D01*
X641008Y-162746D01*
X640905Y-162689D01*
X640800Y-162634D01*
X640693Y-162584D01*
X640584Y-162537D01*
X640474Y-162494D01*
X640363Y-162454D01*
X640251Y-162418D01*
X640137Y-162385D01*
X640022Y-162356D01*
X639907Y-162331D01*
X639790Y-162310D01*
X639673Y-162293D01*
X639556Y-162279D01*
X639438Y-162270D01*
X639320Y-162264D01*
X639202Y-162262D01*
X633783Y-162262D01*
X633783Y-155037D01*
X642814Y-155037D01*
D12*
X44535Y30226D02*
X44535Y65278D01*
X40640Y30226D02*
X48429Y30226D01*
X48429Y65278D02*
X40640Y65278D01*
X67141Y65278D02*
X67141Y30226D01*
X78825Y45805D02*
X67141Y65278D01*
X78825Y45805D02*
X90509Y65278D01*
X90509Y30226D01*
X116882Y43857D02*
X125645Y43857D01*
X116882Y43858D02*
X116716Y43856D01*
X116550Y43850D01*
X116384Y43840D01*
X116219Y43826D01*
X116054Y43808D01*
X115890Y43785D01*
X115726Y43759D01*
X115562Y43729D01*
X115400Y43695D01*
X115238Y43657D01*
X115078Y43615D01*
X114918Y43569D01*
X114760Y43519D01*
X114603Y43466D01*
X114447Y43408D01*
X114293Y43347D01*
X114140Y43282D01*
X113989Y43214D01*
X113839Y43141D01*
X113692Y43065D01*
X113546Y42986D01*
X113402Y42903D01*
X113261Y42816D01*
X113121Y42727D01*
X112984Y42633D01*
X112849Y42537D01*
X112716Y42437D01*
X112586Y42334D01*
X112459Y42228D01*
X112334Y42118D01*
X112211Y42006D01*
X112092Y41891D01*
X111975Y41773D01*
X111861Y41652D01*
X111751Y41528D01*
X111643Y41402D01*
X111538Y41273D01*
X111437Y41142D01*
X111339Y41008D01*
X111244Y40872D01*
X111152Y40733D01*
X111064Y40593D01*
X110979Y40450D01*
X110898Y40305D01*
X110820Y40159D01*
X110746Y40010D01*
X110676Y39860D01*
X110609Y39708D01*
X110546Y39554D01*
X110487Y39399D01*
X110431Y39243D01*
X110379Y39085D01*
X110332Y38926D01*
X110288Y38766D01*
X110248Y38605D01*
X110212Y38443D01*
X110179Y38280D01*
X110151Y38116D01*
X110127Y37952D01*
X110107Y37787D01*
X110091Y37622D01*
X110079Y37457D01*
X110071Y37291D01*
X110067Y37125D01*
X110067Y36959D01*
X110071Y36793D01*
X110079Y36627D01*
X110091Y36462D01*
X110107Y36297D01*
X110127Y36132D01*
X110151Y35968D01*
X110179Y35804D01*
X110212Y35641D01*
X110248Y35479D01*
X110288Y35318D01*
X110332Y35158D01*
X110379Y34999D01*
X110431Y34841D01*
X110487Y34685D01*
X110546Y34530D01*
X110609Y34376D01*
X110676Y34224D01*
X110746Y34074D01*
X110820Y33925D01*
X110898Y33779D01*
X110979Y33634D01*
X111064Y33491D01*
X111152Y33351D01*
X111244Y33212D01*
X111339Y33076D01*
X111437Y32942D01*
X111538Y32811D01*
X111643Y32682D01*
X111751Y32556D01*
X111861Y32432D01*
X111975Y32311D01*
X112092Y32193D01*
X112211Y32078D01*
X112334Y31966D01*
X112459Y31856D01*
X112586Y31750D01*
X112716Y31647D01*
X112849Y31547D01*
X112984Y31451D01*
X113121Y31357D01*
X113261Y31268D01*
X113402Y31181D01*
X113546Y31098D01*
X113692Y31019D01*
X113839Y30943D01*
X113989Y30870D01*
X114140Y30802D01*
X114293Y30737D01*
X114447Y30676D01*
X114603Y30618D01*
X114760Y30565D01*
X114918Y30515D01*
X115078Y30469D01*
X115238Y30427D01*
X115400Y30389D01*
X115562Y30355D01*
X115726Y30325D01*
X115890Y30299D01*
X116054Y30276D01*
X116219Y30258D01*
X116384Y30244D01*
X116550Y30234D01*
X116716Y30228D01*
X116882Y30226D01*
X125645Y30226D01*
X125645Y47752D01*
X125643Y47902D01*
X125637Y48053D01*
X125628Y48203D01*
X125614Y48353D01*
X125597Y48502D01*
X125575Y48651D01*
X125550Y48799D01*
X125521Y48947D01*
X125489Y49094D01*
X125452Y49240D01*
X125412Y49385D01*
X125368Y49529D01*
X125321Y49671D01*
X125269Y49813D01*
X125215Y49953D01*
X125156Y50091D01*
X125094Y50229D01*
X125029Y50364D01*
X124960Y50498D01*
X124887Y50629D01*
X124811Y50759D01*
X124732Y50887D01*
X124650Y51013D01*
X124564Y51137D01*
X124476Y51258D01*
X124384Y51378D01*
X124289Y51494D01*
X124191Y51609D01*
X124090Y51720D01*
X123987Y51829D01*
X123880Y51936D01*
X123771Y52039D01*
X123660Y52140D01*
X123545Y52238D01*
X123429Y52333D01*
X123309Y52425D01*
X123188Y52513D01*
X123064Y52599D01*
X122938Y52681D01*
X122810Y52760D01*
X122680Y52836D01*
X122549Y52909D01*
X122415Y52978D01*
X122280Y53043D01*
X122142Y53105D01*
X122004Y53164D01*
X121864Y53218D01*
X121722Y53270D01*
X121580Y53317D01*
X121436Y53361D01*
X121291Y53401D01*
X121145Y53438D01*
X120998Y53470D01*
X120850Y53499D01*
X120702Y53524D01*
X120553Y53546D01*
X120404Y53563D01*
X120254Y53577D01*
X120104Y53586D01*
X119953Y53592D01*
X119803Y53594D01*
X112014Y53594D01*
X146439Y53594D02*
X146439Y30226D01*
X146439Y53594D02*
X158123Y53594D01*
X158123Y49699D01*
X167640Y53594D02*
X179324Y53594D01*
X171535Y65278D02*
X171535Y36068D01*
X171537Y35918D01*
X171543Y35767D01*
X171552Y35617D01*
X171566Y35467D01*
X171583Y35318D01*
X171605Y35169D01*
X171630Y35021D01*
X171659Y34873D01*
X171691Y34726D01*
X171728Y34580D01*
X171768Y34435D01*
X171812Y34291D01*
X171859Y34149D01*
X171911Y34007D01*
X171965Y33867D01*
X172024Y33729D01*
X172086Y33591D01*
X172151Y33456D01*
X172220Y33322D01*
X172293Y33191D01*
X172369Y33061D01*
X172448Y32933D01*
X172530Y32807D01*
X172616Y32683D01*
X172704Y32562D01*
X172796Y32442D01*
X172891Y32326D01*
X172989Y32211D01*
X173090Y32100D01*
X173193Y31991D01*
X173300Y31884D01*
X173409Y31781D01*
X173520Y31680D01*
X173635Y31582D01*
X173751Y31487D01*
X173871Y31395D01*
X173992Y31307D01*
X174116Y31221D01*
X174242Y31139D01*
X174370Y31060D01*
X174500Y30984D01*
X174631Y30911D01*
X174765Y30842D01*
X174900Y30777D01*
X175038Y30715D01*
X175176Y30656D01*
X175316Y30602D01*
X175458Y30550D01*
X175600Y30503D01*
X175744Y30459D01*
X175889Y30419D01*
X176035Y30382D01*
X176182Y30350D01*
X176330Y30321D01*
X176478Y30296D01*
X176627Y30274D01*
X176776Y30257D01*
X176926Y30243D01*
X177076Y30234D01*
X177227Y30228D01*
X177377Y30226D01*
X179324Y30226D01*
D13*
X226314Y813054D03*
X226314Y711454D03*
X359410Y634238D03*
X461010Y634238D03*
X275336Y810260D03*
X275336Y708660D03*
D14*
X127000Y803910D03*
X127000Y753110D03*
X127000Y673100D03*
X127000Y622300D03*
D15*
X346456Y748030D02*
X366268Y748030D01*
X366776Y688340D02*
X386588Y688340D01*
X386588Y807720D02*
X366776Y807720D01*
X488696Y807720D02*
X508508Y807720D01*
X508508Y688340D02*
X488696Y688340D01*
D16*
X795020Y776732D03*
D17*
X795020Y675132D03*
D13*
X605790Y797306D03*
X605790Y695706D03*
D18*
X526288Y590550D02*
X526288Y575310D01*
X551688Y575310D02*
X551688Y590550D01*
X577088Y590550D02*
X577088Y575310D01*
D19*
X666242Y550164D03*
D20*
X666242Y570484D03*
D21*
X356616Y573786D03*
D22*
X356616Y522986D03*
D23*
X731012Y381886D03*
D24*
X756412Y381886D03*
X781812Y381886D03*
X807212Y381886D03*
X832612Y381886D03*
X858012Y381886D03*
X883412Y381886D03*
X908812Y381886D03*
X934212Y381886D03*
X959612Y381886D03*
X985012Y381886D03*
X1010412Y381886D03*
X1035812Y381886D03*
X1061212Y381886D03*
X1061212Y460886D03*
X1035812Y460886D03*
X1010412Y460886D03*
X985012Y460886D03*
X959612Y460886D03*
X934212Y460886D03*
X908812Y460886D03*
X883412Y460886D03*
X858012Y460886D03*
X832612Y460886D03*
X807212Y460886D03*
X781812Y460886D03*
X756412Y460886D03*
X731012Y460886D03*
D13*
X502666Y515112D03*
X604266Y515112D03*
D25*
X984250Y342646D02*
X984250Y331470D01*
X933450Y331470D02*
X933450Y342646D01*
D26*
X979932Y283718D03*
X979932Y258318D03*
X930656Y283718D03*
X930656Y258318D03*
D27*
X984504Y728218D03*
X984504Y702818D03*
X984504Y677418D03*
X984504Y652018D03*
D28*
X960374Y161290D02*
X960374Y147066D01*
X934974Y147066D02*
X934974Y161290D01*
X909574Y161290D02*
X909574Y147066D01*
X884174Y147066D02*
X884174Y161290D01*
X858774Y161290D02*
X858774Y147066D01*
X807974Y147066D02*
X807974Y161290D01*
X833374Y161290D02*
X833374Y147066D01*
X680974Y147066D02*
X680974Y161290D01*
X782574Y161290D02*
X782574Y147066D01*
X757174Y147066D02*
X757174Y161290D01*
X731774Y161290D02*
X731774Y147066D01*
X706374Y147066D02*
X706374Y161290D01*
D14*
X129540Y464820D03*
X129540Y515620D03*
X131826Y369824D03*
X131826Y319024D03*
D15*
X405130Y341376D02*
X424942Y341376D01*
X404622Y401066D02*
X384810Y401066D01*
X384810Y281686D02*
X404622Y281686D01*
X282702Y281686D02*
X262890Y281686D01*
X262890Y401066D02*
X282702Y401066D01*
D29*
X601980Y367030D03*
X601980Y290830D03*
D13*
X472186Y290830D03*
X472186Y392430D03*
D18*
X535178Y306324D02*
X550418Y306324D01*
X550418Y331724D02*
X535178Y331724D01*
X535178Y357124D02*
X550418Y357124D01*
D30*
X285496Y599694D03*
X285496Y675894D03*
D29*
X243586Y675386D03*
X243586Y599186D03*
D14*
X122174Y154940D03*
X122174Y205740D03*
D15*
X405130Y147828D02*
X424942Y147828D01*
X404622Y207518D02*
X384810Y207518D01*
X384810Y88138D02*
X404622Y88138D01*
X282702Y88138D02*
X262890Y88138D01*
X262890Y207518D02*
X282702Y207518D01*
D13*
X471424Y104394D03*
X471424Y205994D03*
D18*
X540512Y122428D02*
X555752Y122428D01*
X555752Y147828D02*
X540512Y147828D01*
X540512Y173228D02*
X555752Y173228D01*
D29*
X604266Y182372D03*
X604266Y106172D03*
D28*
X669036Y272288D02*
X683260Y272288D01*
X683260Y297688D02*
X669036Y297688D01*
X669036Y323088D02*
X683260Y323088D01*
X683260Y348488D02*
X669036Y348488D01*
X966978Y533908D02*
X966978Y548132D01*
X992378Y548132D02*
X992378Y533908D01*
X1017778Y533908D02*
X1017778Y548132D01*
X1043178Y548132D02*
X1043178Y533908D01*
X852678Y535432D02*
X852678Y521208D01*
X827278Y521208D02*
X827278Y535432D01*
X801878Y535432D02*
X801878Y521208D01*
X776478Y521208D02*
X776478Y535432D01*
D31*
X1100074Y299174D03*
X1100074Y249174D03*
X1100074Y199174D03*
D32*
X626110Y460248D03*
D33*
X539242Y547116D01*
X481838Y547116D01*
X481838Y615696D01*
X505460Y639318D01*
X508762Y639318D01*
D32*
X508762Y639318D03*
X463296Y652780D03*
D33*
X463296Y794766D01*
X450088Y807974D01*
X454914Y807974D01*
X455422Y808482D01*
D32*
X455422Y808482D03*
X896366Y253746D03*
D33*
X938149Y211963D01*
X1014222Y135890D01*
X1014222Y67056D01*
X933704Y67056D01*
X933704Y113538D01*
X934466Y114300D01*
X934466Y117094D01*
D32*
X934466Y117094D03*
X723646Y208534D03*
D33*
X934720Y208534D01*
X938149Y211963D01*
X622808Y530606D02*
X622808Y614680D01*
X631952Y614680D01*
X635254Y617982D01*
D32*
X635254Y617982D03*
D33*
X622808Y530606D02*
X677926Y475488D01*
D32*
X886206Y531114D03*
D33*
X886206Y552450D01*
X939292Y605536D01*
X979678Y605536D01*
D32*
X979678Y605536D03*
X677926Y475488D03*
X938784Y558038D03*
D33*
X947928Y567182D01*
X947928Y573024D01*
X1068578Y573024D01*
X1119124Y623570D01*
X1119632Y623570D01*
X1122172Y626110D01*
D32*
X1122172Y626110D03*
X880110Y497840D03*
D33*
X906018Y497840D01*
X938784Y530606D02*
X938784Y558038D01*
X938784Y530606D02*
X906018Y497840D01*
D32*
X1007618Y243586D03*
D33*
X1048766Y243586D01*
D32*
X1078992Y273812D03*
D33*
X1048766Y243586D01*
D32*
X891794Y117094D03*
D33*
X891794Y76454D01*
X925068Y43180D01*
X1036066Y43180D01*
X1132078Y139192D01*
X1132078Y322072D01*
X1111758Y342392D01*
X1111758Y421386D01*
X1111250Y421894D01*
D32*
X1072134Y421894D03*
D33*
X1111250Y421894D01*
D32*
X821944Y117602D03*
D33*
X820674Y116332D01*
X820674Y65786D01*
X862584Y65786D01*
X906780Y21590D01*
X1048512Y21590D01*
X1152906Y125984D01*
X1152906Y463042D02*
X1120902Y495046D01*
X993902Y495046D01*
X992632Y493776D01*
X992632Y490474D01*
X994156Y488950D01*
D32*
X994156Y488950D03*
D33*
X1152906Y463042D02*
X1152906Y125984D01*
D32*
X855472Y438404D03*
D33*
X830580Y413512D01*
X614172Y413512D01*
X558038Y469646D01*
X293116Y469646D02*
X292354Y468884D01*
D32*
X292354Y468884D03*
D33*
X293116Y469646D02*
X558038Y469646D01*
D32*
X1083310Y345948D03*
D33*
X1073404Y355854D01*
X715518Y355854D01*
X647192Y381000D02*
X646684Y380492D01*
X690372Y381000D02*
X715518Y355854D01*
X690372Y381000D02*
X647192Y381000D01*
D32*
X647192Y381000D03*
X1035812Y309118D03*
D33*
X1033018Y311912D01*
X788924Y311912D01*
X789178Y311658D01*
X671830Y194310D01*
X650748Y194310D01*
X649732Y193294D01*
X646430Y193294D01*
D32*
X646430Y193294D03*
M02*
