M48
;GenerationSoftware,Autodesk,EAGLE,9.3.0*%
;CreationDate,2019-09-12T05:31:26Z*%
FMAT,2
ICI,OFF
METRIC,TZ,000.000
T13C0.610
T12C0.790
T11C0.813
T10C0.914
T9C1.000
T8C1.016
T7C1.118
T6C1.200
T5C1.300
T4C1.321
T3C1.778
T2C2.007
T1C2.200
%
G90
M71
T1
X104800Y62027
X104800Y81077
X131470Y81077
T2
X79502Y77673
X79502Y67513
T3
X62611Y46025
X50876Y63932
X46330Y65278
X45542Y80848
X89637Y25375
X93447Y11709
X72365Y20853
X63525Y61798
X88621Y53111
X67793Y47549
X93878Y55804
X112217Y62611
X88011Y49784
X100762Y24359
X107899Y27381
X89179Y11709
X107213Y42189
X82194Y11760
X99416Y48895
X85547Y43840
X29235Y46888
X108331Y34595
X64719Y38100
X103581Y30912
X64643Y19329
X97968Y60554
T4
X37668Y80772
X27280Y40107
X41504Y14783
X39472Y20752
X39472Y8814
X35636Y74803
X37668Y68834
X27280Y8814
X49860Y80772
X49860Y68834
X27280Y20752
X27280Y28169
X39472Y28169
X39472Y40107
X41504Y34138
T5
X12217Y20574
X12700Y67310
X12700Y62230
X12700Y80391
X12700Y75311
X12217Y15494
X13183Y36982
X12954Y51562
X12954Y46482
X13183Y31902
T6
X110007Y24917
X110007Y19917
X110007Y29917
T7
X27534Y81026
X46101Y63424
X35941Y63424
X22631Y71145
X60427Y51511
X47219Y39243
X47219Y29083
X60579Y79731
X22631Y81305
X47142Y20599
X47142Y10439
X60579Y69571
X27534Y70866
X50267Y51511
T8
X52629Y58293
X55169Y58293
X57709Y58293
X35662Y57379
X35662Y52299
X54813Y12243
X54280Y30632
X54280Y33172
X54280Y35712
X54813Y14783
X54813Y17323
T9
X98450Y67742
X98450Y72822
X98450Y70282
X98450Y65202
T10
X96698Y54102
X67615Y34849
X67615Y32309
X67615Y29769
X90957Y15418
X67615Y27229
X68097Y15418
X96037Y15418
X93497Y15418
X99238Y54102
X88417Y15418
X85877Y15418
X80797Y15418
X83337Y15418
X77648Y52832
X78257Y15418
X75717Y15418
X73177Y15418
X70637Y15418
X80188Y52832
X82728Y52832
X85268Y52832
X104318Y54102
X101778Y54102
T11
X60427Y10617
X66624Y57048
X97993Y28372
X97993Y25832
X93066Y28372
X93066Y25832
X66624Y55016
X60198Y36703
X60198Y29083
X28550Y59969
X28550Y67589
X24359Y67539
X24359Y59919
X60427Y18237
T12
X83261Y46089
X88341Y38189
X85801Y38189
X95961Y38189
X80721Y38189
X78181Y38189
X75641Y38189
X73101Y38189
X83261Y38189
X98501Y38189
X85801Y46089
X78181Y46089
X75641Y46089
X101041Y38189
X103581Y38189
X106121Y38189
X106121Y46089
X103581Y46089
X80721Y46089
X101041Y46089
X98501Y46089
X95961Y46089
X93421Y46089
X90881Y46089
X88341Y46089
X93421Y38189
X90881Y38189
X73101Y46089
T13
X98425Y33706
X93345Y33706
M30