G04 EAGLE Gerber RS-274X export*
G75*
%MOMM*%
%FSLAX34Y34*%
%LPD*%
%IN*%
%IPPOS*%
%AMOC8*
5,1,8,0,0,1.08239X$1,22.5*%
G01*
%ADD10C,0.254000*%


D10*
X0Y0D02*
X774500Y0D01*
X774500Y771400D01*
X0Y771400D01*
X0Y0D01*
X154140Y385098D02*
X154140Y387062D01*
X154063Y389024D01*
X153909Y390982D01*
X153678Y392932D01*
X153371Y394872D01*
X152988Y396798D01*
X152529Y398707D01*
X151996Y400597D01*
X151389Y402465D01*
X150710Y404307D01*
X149958Y406121D01*
X149136Y407905D01*
X148245Y409654D01*
X147285Y411368D01*
X146259Y413042D01*
X145168Y414675D01*
X144014Y416264D01*
X142798Y417806D01*
X141523Y419299D01*
X140190Y420741D01*
X138801Y422130D01*
X137359Y423463D01*
X135866Y424738D01*
X134324Y425954D01*
X132735Y427108D01*
X131102Y428199D01*
X129428Y429225D01*
X127714Y430185D01*
X125965Y431076D01*
X124181Y431898D01*
X122367Y432650D01*
X120525Y433329D01*
X118657Y433936D01*
X116767Y434469D01*
X114858Y434928D01*
X112932Y435311D01*
X110992Y435618D01*
X109042Y435849D01*
X107084Y436003D01*
X105122Y436080D01*
X103158Y436080D01*
X101196Y436003D01*
X99238Y435849D01*
X97288Y435618D01*
X95349Y435311D01*
X93422Y434928D01*
X91513Y434469D01*
X89623Y433936D01*
X87755Y433329D01*
X85913Y432650D01*
X84099Y431898D01*
X82315Y431076D01*
X80566Y430185D01*
X78852Y429225D01*
X77178Y428199D01*
X75545Y427108D01*
X73956Y425954D01*
X72414Y424738D01*
X70921Y423463D01*
X69479Y422130D01*
X68090Y420741D01*
X66757Y419299D01*
X65482Y417806D01*
X64266Y416264D01*
X63112Y414675D01*
X62021Y413042D01*
X60995Y411368D01*
X60035Y409654D01*
X59144Y407905D01*
X58322Y406121D01*
X57570Y404307D01*
X56891Y402465D01*
X56284Y400597D01*
X55751Y398707D01*
X55292Y396798D01*
X54909Y394872D01*
X54602Y392932D01*
X54371Y390982D01*
X54217Y389024D01*
X54140Y387062D01*
X54140Y385098D01*
X54217Y383136D01*
X54371Y381178D01*
X54602Y379228D01*
X54909Y377289D01*
X55292Y375362D01*
X55751Y373453D01*
X56284Y371563D01*
X56891Y369695D01*
X57570Y367853D01*
X58322Y366039D01*
X59144Y364255D01*
X60035Y362506D01*
X60995Y360792D01*
X62021Y359118D01*
X63112Y357485D01*
X64266Y355896D01*
X65482Y354354D01*
X66757Y352861D01*
X68090Y351419D01*
X69479Y350030D01*
X70921Y348697D01*
X72414Y347422D01*
X73956Y346206D01*
X75545Y345052D01*
X77178Y343961D01*
X78852Y342935D01*
X80566Y341975D01*
X82315Y341084D01*
X84099Y340262D01*
X85913Y339510D01*
X87755Y338831D01*
X89623Y338224D01*
X91513Y337691D01*
X93422Y337232D01*
X95349Y336849D01*
X97288Y336542D01*
X99238Y336311D01*
X101196Y336157D01*
X103158Y336080D01*
X105122Y336080D01*
X107084Y336157D01*
X109042Y336311D01*
X110992Y336542D01*
X112932Y336849D01*
X114858Y337232D01*
X116767Y337691D01*
X118657Y338224D01*
X120525Y338831D01*
X122367Y339510D01*
X124181Y340262D01*
X125965Y341084D01*
X127714Y341975D01*
X129428Y342935D01*
X131102Y343961D01*
X132735Y345052D01*
X134324Y346206D01*
X135866Y347422D01*
X137359Y348697D01*
X138801Y350030D01*
X140190Y351419D01*
X141523Y352861D01*
X142798Y354354D01*
X144014Y355896D01*
X145168Y357485D01*
X146259Y359118D01*
X147285Y360792D01*
X148245Y362506D01*
X149136Y364255D01*
X149958Y366039D01*
X150710Y367853D01*
X151389Y369695D01*
X151996Y371563D01*
X152529Y373453D01*
X152988Y375362D01*
X153371Y377289D01*
X153678Y379228D01*
X153909Y381178D01*
X154063Y383136D01*
X154140Y385098D01*
X718020Y387638D02*
X718020Y389602D01*
X717943Y391564D01*
X717789Y393522D01*
X717558Y395472D01*
X717251Y397412D01*
X716868Y399338D01*
X716409Y401247D01*
X715876Y403137D01*
X715269Y405005D01*
X714590Y406847D01*
X713838Y408661D01*
X713016Y410445D01*
X712125Y412194D01*
X711165Y413908D01*
X710139Y415582D01*
X709048Y417215D01*
X707894Y418804D01*
X706678Y420346D01*
X705403Y421839D01*
X704070Y423281D01*
X702681Y424670D01*
X701239Y426003D01*
X699746Y427278D01*
X698204Y428494D01*
X696615Y429648D01*
X694982Y430739D01*
X693308Y431765D01*
X691594Y432725D01*
X689845Y433616D01*
X688061Y434438D01*
X686247Y435190D01*
X684405Y435869D01*
X682537Y436476D01*
X680647Y437009D01*
X678738Y437468D01*
X676812Y437851D01*
X674872Y438158D01*
X672922Y438389D01*
X670964Y438543D01*
X669002Y438620D01*
X667038Y438620D01*
X665076Y438543D01*
X663118Y438389D01*
X661168Y438158D01*
X659229Y437851D01*
X657302Y437468D01*
X655393Y437009D01*
X653503Y436476D01*
X651635Y435869D01*
X649793Y435190D01*
X647979Y434438D01*
X646195Y433616D01*
X644446Y432725D01*
X642732Y431765D01*
X641058Y430739D01*
X639425Y429648D01*
X637836Y428494D01*
X636294Y427278D01*
X634801Y426003D01*
X633359Y424670D01*
X631970Y423281D01*
X630637Y421839D01*
X629362Y420346D01*
X628146Y418804D01*
X626992Y417215D01*
X625901Y415582D01*
X624875Y413908D01*
X623915Y412194D01*
X623024Y410445D01*
X622202Y408661D01*
X621450Y406847D01*
X620771Y405005D01*
X620164Y403137D01*
X619631Y401247D01*
X619172Y399338D01*
X618789Y397412D01*
X618482Y395472D01*
X618251Y393522D01*
X618097Y391564D01*
X618020Y389602D01*
X618020Y387638D01*
X618097Y385676D01*
X618251Y383718D01*
X618482Y381768D01*
X618789Y379829D01*
X619172Y377902D01*
X619631Y375993D01*
X620164Y374103D01*
X620771Y372235D01*
X621450Y370393D01*
X622202Y368579D01*
X623024Y366795D01*
X623915Y365046D01*
X624875Y363332D01*
X625901Y361658D01*
X626992Y360025D01*
X628146Y358436D01*
X629362Y356894D01*
X630637Y355401D01*
X631970Y353959D01*
X633359Y352570D01*
X634801Y351237D01*
X636294Y349962D01*
X637836Y348746D01*
X639425Y347592D01*
X641058Y346501D01*
X642732Y345475D01*
X644446Y344515D01*
X646195Y343624D01*
X647979Y342802D01*
X649793Y342050D01*
X651635Y341371D01*
X653503Y340764D01*
X655393Y340231D01*
X657302Y339772D01*
X659229Y339389D01*
X661168Y339082D01*
X663118Y338851D01*
X665076Y338697D01*
X667038Y338620D01*
X669002Y338620D01*
X670964Y338697D01*
X672922Y338851D01*
X674872Y339082D01*
X676812Y339389D01*
X678738Y339772D01*
X680647Y340231D01*
X682537Y340764D01*
X684405Y341371D01*
X686247Y342050D01*
X688061Y342802D01*
X689845Y343624D01*
X691594Y344515D01*
X693308Y345475D01*
X694982Y346501D01*
X696615Y347592D01*
X698204Y348746D01*
X699746Y349962D01*
X701239Y351237D01*
X702681Y352570D01*
X704070Y353959D01*
X705403Y355401D01*
X706678Y356894D01*
X707894Y358436D01*
X709048Y360025D01*
X710139Y361658D01*
X711165Y363332D01*
X712125Y365046D01*
X713016Y366795D01*
X713838Y368579D01*
X714590Y370393D01*
X715269Y372235D01*
X715876Y374103D01*
X716409Y375993D01*
X716868Y377902D01*
X717251Y379829D01*
X717558Y381768D01*
X717789Y383718D01*
X717943Y385676D01*
X718020Y387638D01*
X80500Y172163D02*
X80500Y173277D01*
X80427Y174387D01*
X80282Y175491D01*
X80065Y176582D01*
X79777Y177657D01*
X79419Y178711D01*
X78993Y179740D01*
X78501Y180738D01*
X77944Y181702D01*
X77326Y182627D01*
X76648Y183510D01*
X75914Y184347D01*
X75127Y185134D01*
X74290Y185868D01*
X73407Y186546D01*
X72482Y187164D01*
X71518Y187721D01*
X70520Y188213D01*
X69491Y188639D01*
X68437Y188997D01*
X67362Y189285D01*
X66271Y189502D01*
X65167Y189647D01*
X64057Y189720D01*
X62943Y189720D01*
X61833Y189647D01*
X60729Y189502D01*
X59638Y189285D01*
X58563Y188997D01*
X57509Y188639D01*
X56480Y188213D01*
X55482Y187721D01*
X54518Y187164D01*
X53593Y186546D01*
X52710Y185868D01*
X51873Y185134D01*
X51086Y184347D01*
X50352Y183510D01*
X49674Y182627D01*
X49056Y181702D01*
X48499Y180738D01*
X48007Y179740D01*
X47581Y178711D01*
X47223Y177657D01*
X46935Y176582D01*
X46718Y175491D01*
X46573Y174387D01*
X46500Y173277D01*
X46500Y172163D01*
X46573Y171053D01*
X46718Y169949D01*
X46935Y168858D01*
X47223Y167783D01*
X47581Y166729D01*
X48007Y165700D01*
X48499Y164702D01*
X49056Y163738D01*
X49674Y162813D01*
X50352Y161930D01*
X51086Y161093D01*
X51873Y160306D01*
X52710Y159572D01*
X53593Y158894D01*
X54518Y158276D01*
X55482Y157719D01*
X56480Y157227D01*
X57509Y156801D01*
X58563Y156443D01*
X59638Y156155D01*
X60729Y155938D01*
X61833Y155793D01*
X62943Y155720D01*
X64057Y155720D01*
X65167Y155793D01*
X66271Y155938D01*
X67362Y156155D01*
X68437Y156443D01*
X69491Y156801D01*
X70520Y157227D01*
X71518Y157719D01*
X72482Y158276D01*
X73407Y158894D01*
X74290Y159572D01*
X75127Y160306D01*
X75914Y161093D01*
X76648Y161930D01*
X77326Y162813D01*
X77944Y163738D01*
X78501Y164702D01*
X78993Y165700D01*
X79419Y166729D01*
X79777Y167783D01*
X80065Y168858D01*
X80282Y169949D01*
X80427Y171053D01*
X80500Y172163D01*
X565640Y167083D02*
X565640Y168197D01*
X565567Y169307D01*
X565422Y170411D01*
X565205Y171502D01*
X564917Y172577D01*
X564559Y173631D01*
X564133Y174660D01*
X563641Y175658D01*
X563084Y176622D01*
X562466Y177547D01*
X561788Y178430D01*
X561054Y179267D01*
X560267Y180054D01*
X559430Y180788D01*
X558547Y181466D01*
X557622Y182084D01*
X556658Y182641D01*
X555660Y183133D01*
X554631Y183559D01*
X553577Y183917D01*
X552502Y184205D01*
X551411Y184422D01*
X550307Y184567D01*
X549197Y184640D01*
X548083Y184640D01*
X546973Y184567D01*
X545869Y184422D01*
X544778Y184205D01*
X543703Y183917D01*
X542649Y183559D01*
X541620Y183133D01*
X540622Y182641D01*
X539658Y182084D01*
X538733Y181466D01*
X537850Y180788D01*
X537013Y180054D01*
X536226Y179267D01*
X535492Y178430D01*
X534814Y177547D01*
X534196Y176622D01*
X533639Y175658D01*
X533147Y174660D01*
X532721Y173631D01*
X532363Y172577D01*
X532075Y171502D01*
X531858Y170411D01*
X531713Y169307D01*
X531640Y168197D01*
X531640Y167083D01*
X531713Y165973D01*
X531858Y164869D01*
X532075Y163778D01*
X532363Y162703D01*
X532721Y161649D01*
X533147Y160620D01*
X533639Y159622D01*
X534196Y158658D01*
X534814Y157733D01*
X535492Y156850D01*
X536226Y156013D01*
X537013Y155226D01*
X537850Y154492D01*
X538733Y153814D01*
X539658Y153196D01*
X540622Y152639D01*
X541620Y152147D01*
X542649Y151721D01*
X543703Y151363D01*
X544778Y151075D01*
X545869Y150858D01*
X546973Y150713D01*
X548083Y150640D01*
X549197Y150640D01*
X550307Y150713D01*
X551411Y150858D01*
X552502Y151075D01*
X553577Y151363D01*
X554631Y151721D01*
X555660Y152147D01*
X556658Y152639D01*
X557622Y153196D01*
X558547Y153814D01*
X559430Y154492D01*
X560267Y155226D01*
X561054Y156013D01*
X561788Y156850D01*
X562466Y157733D01*
X563084Y158658D01*
X563641Y159622D01*
X564133Y160620D01*
X564559Y161649D01*
X564917Y162703D01*
X565205Y163778D01*
X565422Y164869D01*
X565567Y165973D01*
X565640Y167083D01*
M02*
