G04 EAGLE Gerber RS-274X export*
G75*
%MOMM*%
%FSLAX34Y34*%
%LPD*%
%INSoldermask Top*%
%IPPOS*%
%AMOC8*
5,1,8,0,0,1.08239X$1,22.5*%
G01*
%ADD10C,2.753200*%
%ADD11C,2.133600*%
%ADD12C,1.727200*%
%ADD13C,2.743200*%
%ADD14P,2.969212X8X22.500000*%
%ADD15C,1.828800*%
%ADD16C,1.625600*%
%ADD17C,1.524000*%
%ADD18P,2.034460X8X292.500000*%
%ADD19C,2.153200*%
%ADD20R,2.153200X2.153200*%
%ADD21P,1.649562X8X22.500000*%
%ADD22P,2.034460X8X112.500000*%
%ADD23P,2.034460X8X202.500000*%
%ADD24C,1.703200*%


D10*
X490220Y43180D03*
X541020Y43180D03*
D11*
X619760Y86360D03*
X721360Y86360D03*
X619760Y116840D03*
X721360Y116840D03*
X721360Y55880D03*
X619760Y55880D03*
X721360Y147320D03*
X619760Y147320D03*
D12*
X556260Y320040D02*
X556260Y335280D01*
X530860Y335280D02*
X530860Y320040D01*
X505460Y320040D02*
X505460Y335280D01*
D13*
X645160Y218440D03*
D14*
X695960Y218440D03*
D15*
X711200Y690880D03*
X685800Y690880D03*
X660400Y690880D03*
X635000Y690880D03*
X609600Y690880D03*
X584200Y690880D03*
X558800Y690880D03*
X533400Y690880D03*
X508000Y690880D03*
X482600Y690880D03*
X457200Y690880D03*
X431800Y690880D03*
X406400Y690880D03*
X381000Y690880D03*
X381000Y614680D03*
X406400Y614680D03*
X431800Y614680D03*
X457200Y614680D03*
X482600Y614680D03*
X508000Y614680D03*
X533400Y614680D03*
X558800Y614680D03*
X584200Y614680D03*
X609600Y614680D03*
X635000Y614680D03*
X660400Y614680D03*
X685800Y614680D03*
X711200Y614680D03*
D16*
X482600Y568452D02*
X482600Y554228D01*
X457200Y554228D02*
X457200Y568452D01*
X431800Y568452D02*
X431800Y554228D01*
X406400Y554228D02*
X406400Y568452D01*
X381000Y568452D02*
X381000Y554228D01*
D13*
X444500Y388620D03*
D14*
X495300Y388620D03*
D16*
X502920Y475488D02*
X502920Y489712D01*
X477520Y489712D02*
X477520Y475488D01*
X452120Y475488D02*
X452120Y489712D01*
X426720Y489712D02*
X426720Y475488D01*
X401320Y475488D02*
X401320Y489712D01*
X375920Y489712D02*
X375920Y475488D01*
D17*
X315468Y624840D02*
X302260Y624840D01*
X302260Y650240D02*
X315468Y650240D01*
X226060Y650240D02*
X212852Y650240D01*
X212852Y624840D02*
X226060Y624840D01*
D18*
X330200Y701040D03*
X330200Y599440D03*
D19*
X61488Y593431D03*
D20*
G36*
X115229Y631947D02*
X100004Y647172D01*
X115229Y662397D01*
X130454Y647172D01*
X115229Y631947D01*
G37*
D19*
X151291Y503629D03*
X222992Y539409D03*
D21*
X81280Y713740D03*
X68580Y732790D03*
X55880Y713740D03*
D11*
X37739Y566781D03*
X109581Y494939D03*
D22*
X180340Y650240D03*
X180340Y751840D03*
D10*
X284661Y470081D03*
X248739Y434159D03*
D16*
X594868Y579120D02*
X609092Y579120D01*
X609092Y553720D02*
X594868Y553720D01*
X594868Y528320D02*
X609092Y528320D01*
X609092Y502920D02*
X594868Y502920D01*
X594868Y477520D02*
X609092Y477520D01*
X609092Y452120D02*
X594868Y452120D01*
D23*
X548640Y530860D03*
X523240Y530860D03*
D24*
X294640Y693420D03*
X210820Y701040D03*
M02*
